%TF.GenerationSoftware,KiCad,Pcbnew,7.0.1*%
%TF.CreationDate,2023-04-25T22:28:34+08:00*%
%TF.ProjectId,MM32F0140_CAN_Core,4d4d3332-4630-4313-9430-5f43414e5f43,rev?*%
%TF.SameCoordinates,Original*%
%TF.FileFunction,Copper,L2,Bot*%
%TF.FilePolarity,Positive*%
%FSLAX46Y46*%
G04 Gerber Fmt 4.6, Leading zero omitted, Abs format (unit mm)*
G04 Created by KiCad (PCBNEW 7.0.1) date 2023-04-25 22:28:34*
%MOMM*%
%LPD*%
G01*
G04 APERTURE LIST*
G04 Aperture macros list*
%AMRoundRect*
0 Rectangle with rounded corners*
0 $1 Rounding radius*
0 $2 $3 $4 $5 $6 $7 $8 $9 X,Y pos of 4 corners*
0 Add a 4 corners polygon primitive as box body*
4,1,4,$2,$3,$4,$5,$6,$7,$8,$9,$2,$3,0*
0 Add four circle primitives for the rounded corners*
1,1,$1+$1,$2,$3*
1,1,$1+$1,$4,$5*
1,1,$1+$1,$6,$7*
1,1,$1+$1,$8,$9*
0 Add four rect primitives between the rounded corners*
20,1,$1+$1,$2,$3,$4,$5,0*
20,1,$1+$1,$4,$5,$6,$7,0*
20,1,$1+$1,$6,$7,$8,$9,0*
20,1,$1+$1,$8,$9,$2,$3,0*%
G04 Aperture macros list end*
%TA.AperFunction,ComponentPad*%
%ADD10R,1.700000X1.700000*%
%TD*%
%TA.AperFunction,ComponentPad*%
%ADD11O,1.700000X1.700000*%
%TD*%
%TA.AperFunction,ComponentPad*%
%ADD12C,2.700000*%
%TD*%
%TA.AperFunction,ComponentPad*%
%ADD13RoundRect,0.250001X-1.099999X1.099999X-1.099999X-1.099999X1.099999X-1.099999X1.099999X1.099999X0*%
%TD*%
%TA.AperFunction,ComponentPad*%
%ADD14C,2.000000*%
%TD*%
%TA.AperFunction,ComponentPad*%
%ADD15O,1.000000X2.100000*%
%TD*%
%TA.AperFunction,ComponentPad*%
%ADD16O,1.000000X1.600000*%
%TD*%
%TA.AperFunction,ComponentPad*%
%ADD17C,1.500000*%
%TD*%
%TA.AperFunction,ViaPad*%
%ADD18C,0.600000*%
%TD*%
%TA.AperFunction,ViaPad*%
%ADD19C,0.406400*%
%TD*%
%TA.AperFunction,Conductor*%
%ADD20C,0.200000*%
%TD*%
%TA.AperFunction,Conductor*%
%ADD21C,0.304800*%
%TD*%
%TA.AperFunction,Conductor*%
%ADD22C,0.203200*%
%TD*%
G04 APERTURE END LIST*
D10*
%TO.P,J2,1,Pin_1*%
%TO.N,/Core/PA0*%
X122047000Y-128270000D03*
D11*
%TO.P,J2,2,Pin_2*%
%TO.N,/Core/PA1*%
X122047000Y-125730000D03*
%TO.P,J2,3,Pin_3*%
%TO.N,/Core/PA2*%
X124587000Y-128270000D03*
%TO.P,J2,4,Pin_4*%
%TO.N,/Core/PA3*%
X124587000Y-125730000D03*
%TO.P,J2,5,Pin_5*%
%TO.N,/Core/PA4*%
X127127000Y-128270000D03*
%TO.P,J2,6,Pin_6*%
%TO.N,/Core/PA5*%
X127127000Y-125730000D03*
%TO.P,J2,7,Pin_7*%
%TO.N,/Core/PA6*%
X129667000Y-128270000D03*
%TO.P,J2,8,Pin_8*%
%TO.N,/Core/PA7*%
X129667000Y-125730000D03*
%TO.P,J2,9,Pin_9*%
%TO.N,/Core/PA8*%
X132207000Y-128270000D03*
%TO.P,J2,10,Pin_10*%
%TO.N,/Core/PA15*%
X132207000Y-125730000D03*
%TO.P,J2,11,Pin_11*%
%TO.N,+5V*%
X134747000Y-128270000D03*
%TO.P,J2,12,Pin_12*%
%TO.N,VCC*%
X134747000Y-125730000D03*
%TO.P,J2,13,Pin_13*%
%TO.N,/Core/PB0*%
X137287000Y-128270000D03*
%TO.P,J2,14,Pin_14*%
%TO.N,/Core/PB1*%
X137287000Y-125730000D03*
%TO.P,J2,15,Pin_15*%
%TO.N,/Core/PB3*%
X139827000Y-128270000D03*
%TO.P,J2,16,Pin_16*%
%TO.N,/Core/PB4*%
X139827000Y-125730000D03*
%TO.P,J2,17,Pin_17*%
%TO.N,/Core/PB5*%
X142367000Y-128270000D03*
%TO.P,J2,18,Pin_18*%
%TO.N,/Core/PB6*%
X142367000Y-125730000D03*
%TO.P,J2,19,Pin_19*%
%TO.N,/Core/PB7*%
X144907000Y-128270000D03*
%TO.P,J2,20,Pin_20*%
%TO.N,GND*%
X144907000Y-125730000D03*
%TD*%
D12*
%TO.P,J5,2,Pin_2*%
%TO.N,Net-(J5-Pin_2)*%
X177165000Y-128825000D03*
D13*
%TO.P,J5,1,Pin_1*%
%TO.N,Net-(J5-Pin_1)*%
X177165000Y-123825000D03*
%TD*%
D14*
%TO.P,SW2,1,1*%
%TO.N,Net-(D4-K)*%
X137958000Y-97484000D03*
X137958000Y-90984000D03*
%TO.P,SW2,2,2*%
%TO.N,GND*%
X142458000Y-97484000D03*
X142458000Y-90984000D03*
%TD*%
D15*
%TO.P,J4,S1,SHIELD*%
%TO.N,GND*%
X170563000Y-95397000D03*
D16*
X170563000Y-91217000D03*
D15*
X161923000Y-95397000D03*
D16*
X161923000Y-91217000D03*
%TD*%
D14*
%TO.P,SW1,1,1*%
%TO.N,/Core/NRST*%
X126727000Y-97484000D03*
X126727000Y-90984000D03*
%TO.P,SW1,2,2*%
%TO.N,VSS*%
X131227000Y-97484000D03*
X131227000Y-90984000D03*
%TD*%
D10*
%TO.P,J1,1,Pin_1*%
%TO.N,+5V*%
X175768000Y-112268000D03*
D11*
%TO.P,J1,2,Pin_2*%
%TO.N,/Core/SWDIO*%
X175768000Y-109728000D03*
%TO.P,J1,3,Pin_3*%
%TO.N,/Core/SWCLK*%
X175768000Y-107188000D03*
%TO.P,J1,4,Pin_4*%
%TO.N,GND*%
X175768000Y-104648000D03*
%TD*%
D17*
%TO.P,Y1,1,1*%
%TO.N,/Core/OSC_I*%
X123952000Y-104856000D03*
%TO.P,Y1,2,2*%
%TO.N,/Core/OSC_O*%
X123952000Y-109736000D03*
%TD*%
D10*
%TO.P,J3,1,Pin_1*%
%TO.N,Net-(D3-K)*%
X156718000Y-90424000D03*
D11*
%TO.P,J3,2,Pin_2*%
%TO.N,Net-(D2-K)*%
X154178000Y-90424000D03*
%TO.P,J3,3,Pin_3*%
%TO.N,Net-(D1-K)*%
X151638000Y-90424000D03*
%TO.P,J3,4,Pin_4*%
%TO.N,Net-(D4-K)*%
X149098000Y-90424000D03*
%TD*%
D18*
%TO.N,VSS*%
X147193000Y-118745000D03*
%TO.N,GND*%
X173039000Y-98363000D03*
X154178000Y-121666000D03*
X154178000Y-113284000D03*
X157988000Y-92710000D03*
X172974000Y-100649000D03*
X168602952Y-109836072D03*
X172339000Y-119888000D03*
X162687000Y-122047000D03*
X155134500Y-125797500D03*
X151003000Y-124460000D03*
X151257000Y-126492000D03*
D19*
%TO.N,/Core/PA8*%
X141351000Y-113242900D03*
%TO.N,/Core/PA15*%
X142875000Y-107061000D03*
%TO.N,/Core/PB3*%
X143383000Y-106680000D03*
%TO.N,/Core/PB4*%
X143924935Y-106299000D03*
%TO.N,/Core/PB5*%
X144526000Y-105791000D03*
%TO.N,/Core/PB6*%
X145034000Y-105283000D03*
%TO.N,/Core/PB7*%
X145669000Y-104902000D03*
%TO.N,/Core/NRST*%
X129540000Y-110363000D03*
D18*
%TO.N,VSS*%
X126492000Y-103886000D03*
X141357000Y-117088000D03*
X131699000Y-105791000D03*
X126746000Y-108712000D03*
X128524000Y-100203000D03*
X133604000Y-99441000D03*
X126492000Y-106045000D03*
X126746000Y-110617000D03*
%TO.N,VDD*%
X132842000Y-111379000D03*
X156464000Y-112268000D03*
X150495000Y-113792000D03*
X132842000Y-108204000D03*
X139065000Y-113798000D03*
%TO.N,+5V*%
X164846000Y-100203000D03*
X171831000Y-105791000D03*
%TO.N,VCC*%
X152908000Y-116078000D03*
D19*
%TO.N,Net-(U3-SPLIT)*%
X165557000Y-124587000D03*
X165570000Y-128524000D03*
%TO.N,/Core/SWDIO*%
X153416000Y-109347000D03*
X155194000Y-110998000D03*
%TO.N,/Core/SWCLK*%
X153924000Y-108712000D03*
X157353000Y-110501000D03*
D18*
%TO.N,Net-(J4-CC2)*%
X164719000Y-98425000D03*
X168275000Y-99314000D03*
%TD*%
D20*
%TO.N,/Core/PA8*%
X141351000Y-113242900D02*
X141351000Y-114537246D01*
X141351000Y-114537246D02*
X142057877Y-115244123D01*
D21*
%TO.N,VCC*%
X136017000Y-127000000D02*
X134747000Y-125730000D01*
X137483349Y-130302000D02*
X136017000Y-128835651D01*
X136017000Y-128835651D02*
X136017000Y-127000000D01*
X149352000Y-127127000D02*
X146177000Y-130302000D01*
X149352000Y-119634000D02*
X149352000Y-127127000D01*
X152908000Y-116078000D02*
X149352000Y-119634000D01*
X146177000Y-130302000D02*
X137483349Y-130302000D01*
D22*
%TO.N,/Core/PB7*%
X146058600Y-124087601D02*
X146058600Y-127118400D01*
X145669000Y-123698001D02*
X146058600Y-124087601D01*
X146058600Y-127118400D02*
X144907000Y-128270000D01*
X145669000Y-104902000D02*
X145669000Y-123698001D01*
%TO.N,/Core/PB6*%
X145034000Y-105283000D02*
X145034000Y-123063000D01*
X145034000Y-123063000D02*
X142367000Y-125730000D01*
%TO.N,/Core/PB5*%
X141097000Y-127000000D02*
X142367000Y-128270000D01*
X144526000Y-121920000D02*
X141097000Y-125349000D01*
X144526000Y-105791000D02*
X144526000Y-121920000D01*
X141097000Y-125349000D02*
X141097000Y-127000000D01*
%TO.N,/Core/PB4*%
X143924935Y-106299000D02*
X143924935Y-121632065D01*
X143924935Y-121632065D02*
X139827000Y-125730000D01*
%TO.N,/Core/PB3*%
X138675400Y-127118400D02*
X139827000Y-128270000D01*
X138675400Y-123706600D02*
X138675400Y-127118400D01*
X143383000Y-106680000D02*
X143383000Y-118999000D01*
X143383000Y-118999000D02*
X138675400Y-123706600D01*
%TO.N,/Core/PA15*%
X133358600Y-124578400D02*
X132207000Y-125730000D01*
X142875000Y-107061000D02*
X142875000Y-118745000D01*
X142875000Y-118745000D02*
X137041600Y-124578400D01*
X137041600Y-124578400D02*
X133358600Y-124578400D01*
D21*
%TO.N,VSS*%
X133604000Y-99441000D02*
X133184000Y-99441000D01*
X133184000Y-99441000D02*
X131227000Y-97484000D01*
D22*
%TO.N,/Core/NRST*%
X126746000Y-97503000D02*
X126727000Y-97484000D01*
X129540000Y-104394000D02*
X126746000Y-101600000D01*
X126746000Y-101600000D02*
X126746000Y-97503000D01*
X129540000Y-110363000D02*
X129540000Y-104394000D01*
%TO.N,/Core/PA8*%
X132133191Y-124175200D02*
X130818600Y-125489791D01*
X142471800Y-117370200D02*
X135666800Y-124175200D01*
X135666800Y-124175200D02*
X132133191Y-124175200D01*
X142471800Y-115658046D02*
X142471800Y-117370200D01*
X142057877Y-115244123D02*
X142471800Y-115658046D01*
X130818600Y-125489791D02*
X130818600Y-126238000D01*
D21*
%TO.N,VDD*%
X132842000Y-112395000D02*
X132842000Y-111379000D01*
X138297000Y-113030000D02*
X133477000Y-113030000D01*
X139065000Y-113798000D02*
X138297000Y-113030000D01*
X133477000Y-113030000D02*
X132842000Y-112395000D01*
D22*
%TO.N,/Core/PA8*%
X130818600Y-126238000D02*
X130818600Y-126881600D01*
X130818600Y-125467400D02*
X130818600Y-126238000D01*
X130818600Y-126881600D02*
X132207000Y-128270000D01*
D21*
%TO.N,VSS*%
X128524000Y-100187000D02*
X131227000Y-97484000D01*
X128524000Y-100203000D02*
X128524000Y-100187000D01*
X131227000Y-90984000D02*
X131227000Y-97484000D01*
X126746000Y-108712000D02*
X126746000Y-110617000D01*
X126492000Y-106045000D02*
X126492000Y-103886000D01*
%TO.N,VDD*%
X153670000Y-112268000D02*
X152146000Y-113792000D01*
X132842000Y-111379000D02*
X132842000Y-108204000D01*
X156464000Y-112268000D02*
X153670000Y-112268000D01*
X152146000Y-113792000D02*
X150495000Y-113792000D01*
%TO.N,+5V*%
X171831000Y-105791000D02*
X171831000Y-108331000D01*
X164846000Y-100203000D02*
X168910000Y-100203000D01*
X171831000Y-103124000D02*
X171831000Y-105791000D01*
X168910000Y-100203000D02*
X171831000Y-103124000D01*
X171831000Y-108331000D02*
X175768000Y-112268000D01*
%TO.N,GND*%
X142458000Y-90984000D02*
X142458000Y-97484000D01*
%TO.N,Net-(U3-SPLIT)*%
X165557000Y-124587000D02*
X165557000Y-128524000D01*
D22*
%TO.N,/Core/SWDIO*%
X155194000Y-110998000D02*
X153543000Y-109347000D01*
X153543000Y-109347000D02*
X153416000Y-109347000D01*
%TO.N,/Core/SWCLK*%
X155702000Y-110490000D02*
X157342000Y-110490000D01*
X157342000Y-110490000D02*
X157353000Y-110501000D01*
X153924000Y-108712000D02*
X155702000Y-110490000D01*
%TO.N,Net-(J4-CC2)*%
X167386000Y-98425000D02*
X168275000Y-99314000D01*
X164719000Y-98425000D02*
X167386000Y-98425000D01*
%TD*%
%TA.AperFunction,Conductor*%
%TO.N,VSS*%
G36*
X125843527Y-89549945D02*
G01*
X125888319Y-89591178D01*
X125908086Y-89648760D01*
X125898066Y-89708810D01*
X125860672Y-89756853D01*
X125707259Y-89876259D01*
X125538837Y-90059214D01*
X125402825Y-90267395D01*
X125312780Y-90472678D01*
X125302937Y-90495119D01*
X125243512Y-90729780D01*
X125241891Y-90736183D01*
X125221356Y-90983999D01*
X125241891Y-91231816D01*
X125241891Y-91231819D01*
X125241892Y-91231821D01*
X125302937Y-91472881D01*
X125347960Y-91575523D01*
X125402825Y-91700604D01*
X125402827Y-91700607D01*
X125538836Y-91908785D01*
X125707256Y-92091738D01*
X125707259Y-92091740D01*
X125903485Y-92244470D01*
X125903487Y-92244471D01*
X125903491Y-92244474D01*
X126122190Y-92362828D01*
X126357386Y-92443571D01*
X126602665Y-92484500D01*
X126851335Y-92484500D01*
X127096614Y-92443571D01*
X127331810Y-92362828D01*
X127550509Y-92244474D01*
X127597872Y-92207610D01*
X130356942Y-92207610D01*
X130403766Y-92244055D01*
X130622393Y-92362368D01*
X130857506Y-92443083D01*
X131102707Y-92484000D01*
X131351293Y-92484000D01*
X131596493Y-92443083D01*
X131831606Y-92362368D01*
X132050233Y-92244053D01*
X132097056Y-92207609D01*
X131227000Y-91337553D01*
X130356942Y-92207609D01*
X130356942Y-92207610D01*
X127597872Y-92207610D01*
X127746744Y-92091738D01*
X127915164Y-91908785D01*
X128051173Y-91700607D01*
X128151063Y-91472881D01*
X128212108Y-91231821D01*
X128232643Y-90984000D01*
X129721858Y-90984000D01*
X129742386Y-91231732D01*
X129803413Y-91472721D01*
X129903268Y-91700370D01*
X130003563Y-91853882D01*
X130003564Y-91853882D01*
X130873447Y-90984001D01*
X131580553Y-90984001D01*
X132450434Y-91853882D01*
X132550730Y-91700369D01*
X132650586Y-91472721D01*
X132711613Y-91231732D01*
X132732141Y-90983999D01*
X132711613Y-90736267D01*
X132650586Y-90495278D01*
X132550730Y-90267630D01*
X132450434Y-90114116D01*
X131580553Y-90984000D01*
X131580553Y-90984001D01*
X130873447Y-90984001D01*
X130873447Y-90984000D01*
X130003564Y-90114116D01*
X129903266Y-90267634D01*
X129803413Y-90495278D01*
X129742386Y-90736267D01*
X129721858Y-90984000D01*
X128232643Y-90984000D01*
X128212108Y-90736179D01*
X128151063Y-90495119D01*
X128051173Y-90267393D01*
X127915164Y-90059215D01*
X127746744Y-89876262D01*
X127713019Y-89850013D01*
X127593328Y-89756853D01*
X127555934Y-89708810D01*
X127545914Y-89648760D01*
X127565681Y-89591178D01*
X127610473Y-89549945D01*
X127669490Y-89535000D01*
X130285322Y-89535000D01*
X130344340Y-89549945D01*
X130389131Y-89591179D01*
X130408899Y-89648761D01*
X130398877Y-89708812D01*
X130361483Y-89756855D01*
X130356942Y-89760388D01*
X130356942Y-89760390D01*
X131227000Y-90630447D01*
X131227001Y-90630447D01*
X132097057Y-89760390D01*
X132097056Y-89760388D01*
X132092516Y-89756854D01*
X132055122Y-89708811D01*
X132045100Y-89648761D01*
X132064868Y-89591179D01*
X132109659Y-89549945D01*
X132168677Y-89535000D01*
X135258000Y-89535000D01*
X135320000Y-89551613D01*
X135365387Y-89597000D01*
X135382000Y-89659000D01*
X135382000Y-101219000D01*
X148847000Y-101219000D01*
X148909000Y-101235613D01*
X148954387Y-101281000D01*
X148971000Y-101343000D01*
X148971000Y-119036859D01*
X148962292Y-119082507D01*
X148937391Y-119121744D01*
X148884407Y-119178165D01*
X148881701Y-119180958D01*
X148861282Y-119201378D01*
X148858557Y-119204891D01*
X148850980Y-119213762D01*
X148819592Y-119247187D01*
X148809313Y-119265884D01*
X148798638Y-119282137D01*
X148785554Y-119299006D01*
X148767346Y-119341080D01*
X148762209Y-119351567D01*
X148740123Y-119391742D01*
X148734815Y-119412414D01*
X148728515Y-119430814D01*
X148720040Y-119450398D01*
X148712869Y-119495678D01*
X148710501Y-119507116D01*
X148699100Y-119551521D01*
X148699100Y-119572861D01*
X148697573Y-119592260D01*
X148694236Y-119613327D01*
X148698550Y-119658966D01*
X148699100Y-119670635D01*
X148699100Y-120526000D01*
X148682487Y-120588000D01*
X148637100Y-120633387D01*
X148575100Y-120650000D01*
X146395100Y-120650000D01*
X146333100Y-120633387D01*
X146287713Y-120588000D01*
X146271100Y-120526000D01*
X146271100Y-105408599D01*
X146275151Y-105377162D01*
X146325190Y-105186233D01*
X146343141Y-105117741D01*
X146343799Y-105113834D01*
X146350136Y-105090449D01*
X146357270Y-105071643D01*
X146377868Y-104902000D01*
X146357270Y-104732357D01*
X146296671Y-104572573D01*
X146199595Y-104431934D01*
X146071683Y-104318613D01*
X145920368Y-104239197D01*
X145754445Y-104198300D01*
X145583555Y-104198300D01*
X145417632Y-104239197D01*
X145417630Y-104239197D01*
X145417630Y-104239198D01*
X145266317Y-104318613D01*
X145138404Y-104431934D01*
X145096495Y-104492650D01*
X145073654Y-104525741D01*
X145029232Y-104565096D01*
X144971606Y-104579300D01*
X144948555Y-104579300D01*
X144782632Y-104620197D01*
X144782630Y-104620197D01*
X144782630Y-104620198D01*
X144631317Y-104699613D01*
X144503404Y-104812934D01*
X144406327Y-104953575D01*
X144369929Y-105049546D01*
X144336216Y-105098389D01*
X144283666Y-105125970D01*
X144274634Y-105128196D01*
X144123315Y-105207614D01*
X143995404Y-105320934D01*
X143898327Y-105461574D01*
X143871526Y-105532242D01*
X143837812Y-105581084D01*
X143785262Y-105608665D01*
X143673569Y-105636196D01*
X143673567Y-105636196D01*
X143673567Y-105636197D01*
X143559837Y-105695887D01*
X143522252Y-105715613D01*
X143394340Y-105828933D01*
X143318323Y-105939063D01*
X143286714Y-105970672D01*
X143245950Y-105989018D01*
X143131634Y-106017196D01*
X143131632Y-106017196D01*
X143131632Y-106017197D01*
X143096616Y-106035575D01*
X142980317Y-106096613D01*
X142852405Y-106209933D01*
X142769431Y-106330142D01*
X142737822Y-106361750D01*
X142697059Y-106380097D01*
X142623633Y-106398196D01*
X142472317Y-106477613D01*
X142344404Y-106590934D01*
X142247328Y-106731573D01*
X142186730Y-106891356D01*
X142166131Y-107060999D01*
X142186730Y-107230643D01*
X142193862Y-107249449D01*
X142200193Y-107272801D01*
X142200856Y-107276736D01*
X142268849Y-107536164D01*
X142272900Y-107567601D01*
X142272900Y-113012643D01*
X142254234Y-113078070D01*
X142203856Y-113123800D01*
X142136933Y-113136064D01*
X142073612Y-113111171D01*
X142032958Y-113056614D01*
X141978671Y-112913473D01*
X141881595Y-112772834D01*
X141854829Y-112749121D01*
X141753683Y-112659513D01*
X141602368Y-112580097D01*
X141436445Y-112539200D01*
X141265555Y-112539200D01*
X141099632Y-112580097D01*
X141099630Y-112580097D01*
X141099630Y-112580098D01*
X140948317Y-112659513D01*
X140820404Y-112772834D01*
X140723328Y-112913473D01*
X140662730Y-113073256D01*
X140642131Y-113242900D01*
X140662730Y-113412543D01*
X140670295Y-113432491D01*
X140676537Y-113455322D01*
X140677499Y-113460888D01*
X140746305Y-113718630D01*
X140750500Y-113750612D01*
X140750500Y-114489759D01*
X140749439Y-114505945D01*
X140745317Y-114537246D01*
X140750500Y-114576606D01*
X140750500Y-114576607D01*
X140765956Y-114694008D01*
X140826463Y-114840086D01*
X140922716Y-114965527D01*
X140947768Y-114984749D01*
X140959964Y-114995445D01*
X141591011Y-115626492D01*
X141601704Y-115638684D01*
X141604227Y-115641972D01*
X141833381Y-115871125D01*
X141860261Y-115911353D01*
X141869700Y-115958806D01*
X141869700Y-117069440D01*
X141860261Y-117116893D01*
X141833381Y-117157121D01*
X138376821Y-120613681D01*
X138336593Y-120640561D01*
X138289140Y-120650000D01*
X120901000Y-120650000D01*
X120839000Y-120633387D01*
X120793613Y-120588000D01*
X120777000Y-120526000D01*
X120777000Y-111379000D01*
X132036434Y-111379000D01*
X132056631Y-111558253D01*
X132070880Y-111598974D01*
X132076203Y-111619859D01*
X132077784Y-111629499D01*
X132185193Y-112047201D01*
X132189100Y-112078082D01*
X132189100Y-112309232D01*
X132186751Y-112330506D01*
X132189039Y-112403304D01*
X132189100Y-112407199D01*
X132189100Y-112436074D01*
X132189657Y-112440486D01*
X132190572Y-112452120D01*
X132192012Y-112497948D01*
X132197965Y-112518438D01*
X132201909Y-112537482D01*
X132204585Y-112558660D01*
X132221462Y-112601289D01*
X132225245Y-112612337D01*
X132238035Y-112656359D01*
X132244624Y-112667502D01*
X132248900Y-112674732D01*
X132257458Y-112692201D01*
X132265312Y-112712037D01*
X132292255Y-112749121D01*
X132298668Y-112758885D01*
X132322004Y-112798344D01*
X132322007Y-112798347D01*
X132322008Y-112798348D01*
X132337100Y-112813440D01*
X132349733Y-112828232D01*
X132362274Y-112845493D01*
X132397601Y-112874719D01*
X132406241Y-112882581D01*
X132954681Y-113431021D01*
X132968066Y-113447728D01*
X133021163Y-113497590D01*
X133023960Y-113500301D01*
X133044368Y-113520709D01*
X133044372Y-113520712D01*
X133044375Y-113520715D01*
X133047888Y-113523439D01*
X133056766Y-113531023D01*
X133090185Y-113562405D01*
X133099447Y-113567497D01*
X133108883Y-113572685D01*
X133125144Y-113583365D01*
X133142006Y-113596445D01*
X133142007Y-113596445D01*
X133142008Y-113596446D01*
X133184076Y-113614650D01*
X133194550Y-113619780D01*
X133234741Y-113641876D01*
X133255408Y-113647182D01*
X133273820Y-113653486D01*
X133293396Y-113661958D01*
X133293397Y-113661958D01*
X133293399Y-113661959D01*
X133338686Y-113669130D01*
X133350108Y-113671496D01*
X133394520Y-113682900D01*
X133415861Y-113682900D01*
X133435258Y-113684426D01*
X133443282Y-113685697D01*
X133456328Y-113687764D01*
X133456328Y-113687763D01*
X133456329Y-113687764D01*
X133501971Y-113683449D01*
X133513638Y-113682900D01*
X137975198Y-113682900D01*
X138022651Y-113692339D01*
X138062879Y-113719219D01*
X138109002Y-113765342D01*
X138128076Y-113789941D01*
X138332751Y-114136314D01*
X138334411Y-114139882D01*
X138341067Y-114150477D01*
X138342794Y-114153310D01*
X138346836Y-114160151D01*
X138347491Y-114161258D01*
X138348043Y-114162026D01*
X138352325Y-114168394D01*
X138395527Y-114237149D01*
X138435184Y-114300262D01*
X138562738Y-114427816D01*
X138715478Y-114523789D01*
X138885745Y-114583368D01*
X139065000Y-114603565D01*
X139244255Y-114583368D01*
X139414522Y-114523789D01*
X139567262Y-114427816D01*
X139694816Y-114300262D01*
X139790789Y-114147522D01*
X139850368Y-113977255D01*
X139870565Y-113798000D01*
X139850368Y-113618745D01*
X139790789Y-113448478D01*
X139694816Y-113295738D01*
X139567262Y-113168184D01*
X139527883Y-113143440D01*
X139435394Y-113085325D01*
X139429026Y-113081043D01*
X139428258Y-113080491D01*
X139424161Y-113078070D01*
X139420310Y-113075794D01*
X139417477Y-113074067D01*
X139406882Y-113067411D01*
X139403314Y-113065751D01*
X139056941Y-112861076D01*
X139032342Y-112842002D01*
X138819318Y-112628978D01*
X138805935Y-112612273D01*
X138752835Y-112562409D01*
X138750068Y-112559728D01*
X138729626Y-112539286D01*
X138729625Y-112539285D01*
X138729620Y-112539280D01*
X138726113Y-112536560D01*
X138717229Y-112528973D01*
X138683812Y-112497592D01*
X138665113Y-112487312D01*
X138648853Y-112476631D01*
X138631995Y-112463555D01*
X138589920Y-112445347D01*
X138579430Y-112440208D01*
X138539258Y-112418123D01*
X138518586Y-112412815D01*
X138500184Y-112406515D01*
X138497249Y-112405245D01*
X138480601Y-112398041D01*
X138480599Y-112398040D01*
X138480598Y-112398040D01*
X138435321Y-112390869D01*
X138423881Y-112388500D01*
X138379481Y-112377100D01*
X138379480Y-112377100D01*
X138358139Y-112377100D01*
X138338741Y-112375573D01*
X138330717Y-112374302D01*
X138317672Y-112372236D01*
X138317671Y-112372236D01*
X138272032Y-112376550D01*
X138260365Y-112377100D01*
X133798802Y-112377100D01*
X133751349Y-112367661D01*
X133711121Y-112340781D01*
X133532217Y-112161877D01*
X133500287Y-112106895D01*
X133499805Y-112043319D01*
X133606215Y-111629501D01*
X133607796Y-111619859D01*
X133613117Y-111598978D01*
X133627368Y-111558255D01*
X133647565Y-111379000D01*
X133627368Y-111199745D01*
X133613117Y-111159021D01*
X133607795Y-111138139D01*
X133606215Y-111128498D01*
X133498806Y-110710798D01*
X133494900Y-110679918D01*
X133494900Y-108903082D01*
X133498807Y-108872201D01*
X133530571Y-108748672D01*
X133606215Y-108454501D01*
X133607796Y-108444859D01*
X133613117Y-108423978D01*
X133627368Y-108383255D01*
X133647565Y-108204000D01*
X133627368Y-108024745D01*
X133567789Y-107854478D01*
X133471816Y-107701738D01*
X133471815Y-107701737D01*
X133471814Y-107701735D01*
X133344264Y-107574185D01*
X133281867Y-107534978D01*
X133191522Y-107478211D01*
X133021255Y-107418632D01*
X133021253Y-107418631D01*
X133021251Y-107418631D01*
X132842000Y-107398434D01*
X132662748Y-107418631D01*
X132662745Y-107418631D01*
X132662745Y-107418632D01*
X132492478Y-107478211D01*
X132492476Y-107478211D01*
X132492476Y-107478212D01*
X132339735Y-107574185D01*
X132212185Y-107701735D01*
X132126706Y-107837775D01*
X132116211Y-107854478D01*
X132062072Y-108009198D01*
X132056631Y-108024748D01*
X132036434Y-108203999D01*
X132056631Y-108383253D01*
X132061420Y-108396940D01*
X132068571Y-108417377D01*
X132070880Y-108423974D01*
X132076202Y-108444858D01*
X132077784Y-108454499D01*
X132126664Y-108644590D01*
X132185193Y-108872201D01*
X132189100Y-108903082D01*
X132189100Y-110679915D01*
X132185193Y-110710796D01*
X132077783Y-111128501D01*
X132076201Y-111138149D01*
X132070880Y-111159023D01*
X132056631Y-111199746D01*
X132036434Y-111379000D01*
X120777000Y-111379000D01*
X120777000Y-109735999D01*
X122696722Y-109735999D01*
X122715792Y-109953974D01*
X122772425Y-110165331D01*
X122785494Y-110193357D01*
X122864898Y-110363639D01*
X122990402Y-110542877D01*
X123145123Y-110697598D01*
X123324361Y-110823102D01*
X123522670Y-110915575D01*
X123734023Y-110972207D01*
X123952000Y-110991277D01*
X124169977Y-110972207D01*
X124381330Y-110915575D01*
X124579639Y-110823102D01*
X124758877Y-110697598D01*
X124913598Y-110542877D01*
X125039102Y-110363639D01*
X125131575Y-110165330D01*
X125188207Y-109953977D01*
X125207277Y-109736000D01*
X125188207Y-109518023D01*
X125131575Y-109306670D01*
X125039102Y-109108362D01*
X124913598Y-108929123D01*
X124758877Y-108774402D01*
X124579639Y-108648898D01*
X124431038Y-108579604D01*
X124381331Y-108556425D01*
X124169974Y-108499792D01*
X123952000Y-108480722D01*
X123734025Y-108499792D01*
X123522668Y-108556425D01*
X123324361Y-108648898D01*
X123145122Y-108774402D01*
X122990402Y-108929122D01*
X122864898Y-109108361D01*
X122772425Y-109306668D01*
X122715792Y-109518025D01*
X122696722Y-109735999D01*
X120777000Y-109735999D01*
X120777000Y-104856000D01*
X122696722Y-104856000D01*
X122715792Y-105073974D01*
X122737600Y-105155364D01*
X122772425Y-105285330D01*
X122864898Y-105483639D01*
X122990402Y-105662877D01*
X123145123Y-105817598D01*
X123324361Y-105943102D01*
X123522670Y-106035575D01*
X123734023Y-106092207D01*
X123952000Y-106111277D01*
X124169977Y-106092207D01*
X124381330Y-106035575D01*
X124579639Y-105943102D01*
X124758877Y-105817598D01*
X124913598Y-105662877D01*
X125039102Y-105483639D01*
X125131575Y-105285330D01*
X125188207Y-105073977D01*
X125207277Y-104856000D01*
X125188207Y-104638023D01*
X125131575Y-104426670D01*
X125039102Y-104228362D01*
X124913598Y-104049123D01*
X124758877Y-103894402D01*
X124579639Y-103768898D01*
X124488205Y-103726261D01*
X124381331Y-103676425D01*
X124169974Y-103619792D01*
X123952000Y-103600722D01*
X123734025Y-103619792D01*
X123522668Y-103676425D01*
X123324361Y-103768898D01*
X123145122Y-103894402D01*
X122990402Y-104049122D01*
X122864898Y-104228361D01*
X122772425Y-104426668D01*
X122715792Y-104638025D01*
X122696722Y-104856000D01*
X120777000Y-104856000D01*
X120777000Y-97484000D01*
X125221356Y-97484000D01*
X125241891Y-97731816D01*
X125241891Y-97731819D01*
X125241892Y-97731821D01*
X125302896Y-97972721D01*
X125302938Y-97972883D01*
X125345814Y-98070632D01*
X125349057Y-98078800D01*
X125360789Y-98111708D01*
X125378031Y-98144778D01*
X125381633Y-98152292D01*
X125402825Y-98200604D01*
X125420859Y-98228208D01*
X125427001Y-98238700D01*
X126129852Y-99586736D01*
X126143900Y-99644064D01*
X126143900Y-101552420D01*
X126142839Y-101568605D01*
X126138705Y-101599999D01*
X126142839Y-101631395D01*
X126142840Y-101631410D01*
X126159456Y-101757630D01*
X126160951Y-101760930D01*
X126220067Y-101903647D01*
X126292349Y-101997847D01*
X126292351Y-101997849D01*
X126292353Y-101997851D01*
X126292355Y-101997855D01*
X126316577Y-102029422D01*
X126341708Y-102048706D01*
X126353902Y-102059400D01*
X128901581Y-104607079D01*
X128928461Y-104647307D01*
X128937900Y-104694760D01*
X128937900Y-109856399D01*
X128933849Y-109887836D01*
X128865856Y-110147262D01*
X128865193Y-110151198D01*
X128858862Y-110174549D01*
X128851730Y-110193354D01*
X128831131Y-110362999D01*
X128851730Y-110532643D01*
X128912328Y-110692426D01*
X128972795Y-110780028D01*
X129009405Y-110833066D01*
X129137317Y-110946387D01*
X129288632Y-111025803D01*
X129454555Y-111066700D01*
X129625444Y-111066700D01*
X129625445Y-111066700D01*
X129791368Y-111025803D01*
X129942683Y-110946387D01*
X130070595Y-110833066D01*
X130167671Y-110692427D01*
X130228270Y-110532643D01*
X130248868Y-110363000D01*
X130228270Y-110193357D01*
X130221137Y-110174549D01*
X130214801Y-110151178D01*
X130214141Y-110147257D01*
X130146150Y-109887836D01*
X130142100Y-109856400D01*
X130142100Y-104441586D01*
X130143161Y-104425400D01*
X130147295Y-104393999D01*
X130137370Y-104318613D01*
X130126602Y-104236820D01*
X130065934Y-104090353D01*
X129993652Y-103996154D01*
X129988709Y-103989712D01*
X129988700Y-103989702D01*
X129969422Y-103964578D01*
X129944287Y-103945291D01*
X129932101Y-103934603D01*
X127384419Y-101386921D01*
X127357539Y-101346693D01*
X127348100Y-101299240D01*
X127348100Y-99638294D01*
X127361095Y-99583032D01*
X127482081Y-99340008D01*
X127796912Y-98707610D01*
X130356942Y-98707610D01*
X130403766Y-98744055D01*
X130622393Y-98862368D01*
X130857506Y-98943083D01*
X131102707Y-98984000D01*
X131351293Y-98984000D01*
X131596493Y-98943083D01*
X131831606Y-98862368D01*
X132050233Y-98744053D01*
X132097056Y-98707609D01*
X131227000Y-97837553D01*
X130356942Y-98707609D01*
X130356942Y-98707610D01*
X127796912Y-98707610D01*
X128040151Y-98219018D01*
X128047341Y-98206470D01*
X128051173Y-98200607D01*
X128063726Y-98171986D01*
X128066240Y-98166613D01*
X128097821Y-98103180D01*
X128109092Y-98069758D01*
X128113024Y-98059600D01*
X128151063Y-97972881D01*
X128212108Y-97731821D01*
X128232643Y-97484000D01*
X129721858Y-97484000D01*
X129742386Y-97731732D01*
X129803413Y-97972721D01*
X129903268Y-98200370D01*
X130003563Y-98353882D01*
X130003564Y-98353882D01*
X130873447Y-97484001D01*
X131580553Y-97484001D01*
X132450434Y-98353882D01*
X132550730Y-98200369D01*
X132650586Y-97972721D01*
X132711613Y-97731732D01*
X132732141Y-97483999D01*
X132711613Y-97236267D01*
X132650586Y-96995278D01*
X132550730Y-96767630D01*
X132450434Y-96614116D01*
X131580553Y-97484000D01*
X131580553Y-97484001D01*
X130873447Y-97484001D01*
X130873447Y-97484000D01*
X130003564Y-96614116D01*
X129903266Y-96767634D01*
X129803413Y-96995278D01*
X129742386Y-97236267D01*
X129721858Y-97484000D01*
X128232643Y-97484000D01*
X128212108Y-97236179D01*
X128151063Y-96995119D01*
X128051173Y-96767393D01*
X127915164Y-96559215D01*
X127746744Y-96376262D01*
X127724612Y-96359036D01*
X127597873Y-96260390D01*
X130356942Y-96260390D01*
X131227000Y-97130447D01*
X131227001Y-97130447D01*
X132097057Y-96260390D01*
X132097056Y-96260388D01*
X132050235Y-96223947D01*
X131831606Y-96105631D01*
X131596493Y-96024916D01*
X131351293Y-95984000D01*
X131102707Y-95984000D01*
X130857506Y-96024916D01*
X130622393Y-96105631D01*
X130403764Y-96223946D01*
X130356942Y-96260388D01*
X130356942Y-96260390D01*
X127597873Y-96260390D01*
X127550514Y-96223529D01*
X127550510Y-96223526D01*
X127550509Y-96223526D01*
X127331810Y-96105172D01*
X127331806Y-96105170D01*
X127331805Y-96105170D01*
X127096615Y-96024429D01*
X126851335Y-95983500D01*
X126602665Y-95983500D01*
X126357384Y-96024429D01*
X126122194Y-96105170D01*
X125903485Y-96223529D01*
X125707259Y-96376259D01*
X125538837Y-96559214D01*
X125402825Y-96767395D01*
X125312780Y-96972678D01*
X125302937Y-96995119D01*
X125241892Y-97236179D01*
X125241891Y-97236183D01*
X125221356Y-97484000D01*
X120777000Y-97484000D01*
X120777000Y-89659000D01*
X120793613Y-89597000D01*
X120839000Y-89551613D01*
X120901000Y-89535000D01*
X125784510Y-89535000D01*
X125843527Y-89549945D01*
G37*
%TD.AperFunction*%
%TD*%
%TA.AperFunction,Conductor*%
%TO.N,GND*%
G36*
X148234772Y-89162047D02*
G01*
X148279814Y-89204790D01*
X148298486Y-89264010D01*
X148286107Y-89324857D01*
X148245780Y-89372074D01*
X148226599Y-89385504D01*
X148059505Y-89552598D01*
X147923965Y-89746170D01*
X147824097Y-89960336D01*
X147762936Y-90188592D01*
X147742340Y-90423999D01*
X147762936Y-90659407D01*
X147783531Y-90736267D01*
X147824097Y-90887663D01*
X147923965Y-91101830D01*
X148059505Y-91295401D01*
X148226599Y-91462495D01*
X148420170Y-91598035D01*
X148634337Y-91697903D01*
X148862592Y-91759063D01*
X149098000Y-91779659D01*
X149333408Y-91759063D01*
X149561663Y-91697903D01*
X149775830Y-91598035D01*
X149969401Y-91462495D01*
X150136495Y-91295401D01*
X150266426Y-91109839D01*
X150310743Y-91070975D01*
X150368000Y-91056964D01*
X150425257Y-91070975D01*
X150469573Y-91109839D01*
X150599505Y-91295401D01*
X150766599Y-91462495D01*
X150960170Y-91598035D01*
X151174337Y-91697903D01*
X151402592Y-91759063D01*
X151638000Y-91779659D01*
X151873408Y-91759063D01*
X152101663Y-91697903D01*
X152315830Y-91598035D01*
X152509401Y-91462495D01*
X152676495Y-91295401D01*
X152806426Y-91109839D01*
X152850743Y-91070975D01*
X152908000Y-91056964D01*
X152965257Y-91070975D01*
X153009573Y-91109839D01*
X153139505Y-91295401D01*
X153306599Y-91462495D01*
X153500170Y-91598035D01*
X153714337Y-91697903D01*
X153942592Y-91759063D01*
X154178000Y-91779659D01*
X154413408Y-91759063D01*
X154641663Y-91697903D01*
X154855830Y-91598035D01*
X155049401Y-91462495D01*
X155171329Y-91340566D01*
X155224072Y-91309273D01*
X155285365Y-91307084D01*
X155340209Y-91334537D01*
X155375189Y-91384916D01*
X155391763Y-91429353D01*
X155424204Y-91516331D01*
X155510454Y-91631546D01*
X155625669Y-91717796D01*
X155760517Y-91768091D01*
X155820127Y-91774500D01*
X157615872Y-91774499D01*
X157675483Y-91768091D01*
X157810331Y-91717796D01*
X157925546Y-91631546D01*
X158011796Y-91516331D01*
X158030195Y-91467000D01*
X160923000Y-91467000D01*
X160923000Y-91567710D01*
X160938419Y-91719339D01*
X160999303Y-91913389D01*
X161098003Y-92091214D01*
X161230479Y-92245531D01*
X161391307Y-92370021D01*
X161573905Y-92459589D01*
X161672999Y-92485246D01*
X161673000Y-92485247D01*
X161673000Y-91467000D01*
X162173000Y-91467000D01*
X162173000Y-92490366D01*
X162174948Y-92490067D01*
X162365663Y-92419435D01*
X162538263Y-92311854D01*
X162685669Y-92171733D01*
X162801855Y-92004805D01*
X162882059Y-91817907D01*
X162923000Y-91618689D01*
X162923000Y-91467000D01*
X169563000Y-91467000D01*
X169563000Y-91567710D01*
X169578419Y-91719339D01*
X169639303Y-91913389D01*
X169738003Y-92091214D01*
X169870479Y-92245531D01*
X170031307Y-92370021D01*
X170213905Y-92459589D01*
X170312999Y-92485246D01*
X170313000Y-92485246D01*
X170313000Y-91467000D01*
X170813000Y-91467000D01*
X170813000Y-92490366D01*
X170814948Y-92490067D01*
X171005663Y-92419435D01*
X171178263Y-92311854D01*
X171325669Y-92171733D01*
X171441855Y-92004805D01*
X171522059Y-91817907D01*
X171563000Y-91618689D01*
X171563000Y-91467000D01*
X170813000Y-91467000D01*
X170313000Y-91467000D01*
X169563000Y-91467000D01*
X162923000Y-91467000D01*
X162173000Y-91467000D01*
X161673000Y-91467000D01*
X160923000Y-91467000D01*
X158030195Y-91467000D01*
X158062091Y-91381483D01*
X158068500Y-91321873D01*
X158068500Y-90967000D01*
X160923000Y-90967000D01*
X161673000Y-90967000D01*
X161673000Y-89948753D01*
X162173000Y-89948753D01*
X162173000Y-90967000D01*
X162923000Y-90967000D01*
X169563000Y-90967000D01*
X170313000Y-90967000D01*
X170313000Y-89948753D01*
X170813000Y-89948753D01*
X170813000Y-90967000D01*
X171563000Y-90967000D01*
X171563000Y-90866290D01*
X171547580Y-90714660D01*
X171486696Y-90520610D01*
X171387996Y-90342785D01*
X171255520Y-90188468D01*
X171094692Y-90063978D01*
X170912094Y-89974410D01*
X170813000Y-89948753D01*
X170313000Y-89948753D01*
X170313000Y-89943634D01*
X170311051Y-89943932D01*
X170120336Y-90014564D01*
X169947736Y-90122145D01*
X169800330Y-90262266D01*
X169684144Y-90429194D01*
X169603940Y-90616092D01*
X169563000Y-90815311D01*
X169563000Y-90967000D01*
X162923000Y-90967000D01*
X162923000Y-90866290D01*
X162907580Y-90714660D01*
X162846696Y-90520610D01*
X162747996Y-90342785D01*
X162615520Y-90188468D01*
X162454692Y-90063978D01*
X162272094Y-89974410D01*
X162173000Y-89948753D01*
X161673000Y-89948753D01*
X161673000Y-89943634D01*
X161671051Y-89943932D01*
X161480336Y-90014564D01*
X161307736Y-90122145D01*
X161160330Y-90262266D01*
X161044144Y-90429194D01*
X160963940Y-90616092D01*
X160923000Y-90815311D01*
X160923000Y-90967000D01*
X158068500Y-90967000D01*
X158068499Y-89526128D01*
X158062091Y-89466517D01*
X158011796Y-89331669D01*
X158011795Y-89331667D01*
X158005565Y-89314964D01*
X158009617Y-89313452D01*
X157997395Y-89281570D01*
X158010011Y-89215006D01*
X158055728Y-89165008D01*
X158120900Y-89146500D01*
X178369108Y-89146500D01*
X178425243Y-89146500D01*
X178444629Y-89148025D01*
X178496417Y-89156227D01*
X178533301Y-89168212D01*
X178571211Y-89187528D01*
X178602593Y-89210329D01*
X178632670Y-89240406D01*
X178655472Y-89271790D01*
X178674786Y-89309695D01*
X178686773Y-89346588D01*
X178694973Y-89398358D01*
X178696500Y-89417757D01*
X178696500Y-121905634D01*
X178682903Y-121962090D01*
X178645093Y-122006164D01*
X178591363Y-122028191D01*
X178533496Y-122023340D01*
X178417797Y-121985000D01*
X178315008Y-121974500D01*
X176014992Y-121974500D01*
X175912202Y-121985000D01*
X175745663Y-122040186D01*
X175596344Y-122132288D01*
X175472288Y-122256344D01*
X175380186Y-122405663D01*
X175325000Y-122572202D01*
X175314500Y-122674992D01*
X175314500Y-124975008D01*
X175325000Y-125077797D01*
X175380186Y-125244336D01*
X175472288Y-125393655D01*
X175596344Y-125517711D01*
X175745663Y-125609813D01*
X175912202Y-125664999D01*
X176014992Y-125675500D01*
X178315008Y-125675500D01*
X178417797Y-125664999D01*
X178417796Y-125664999D01*
X178533496Y-125626659D01*
X178591363Y-125621809D01*
X178645093Y-125643836D01*
X178682903Y-125687910D01*
X178696500Y-125744366D01*
X178696500Y-127440136D01*
X178682985Y-127496431D01*
X178645385Y-127540454D01*
X178591898Y-127562609D01*
X178534182Y-127558067D01*
X178484819Y-127527817D01*
X178379917Y-127422915D01*
X178379916Y-127422914D01*
X178379915Y-127422913D01*
X178232442Y-127312516D01*
X178168009Y-127264282D01*
X177973111Y-127157860D01*
X177935689Y-127137426D01*
X177710226Y-127053333D01*
X177687673Y-127044921D01*
X177429027Y-126988657D01*
X177165000Y-126969772D01*
X176900972Y-126988657D01*
X176642326Y-127044921D01*
X176572889Y-127070820D01*
X176394311Y-127137426D01*
X176394308Y-127137427D01*
X176394307Y-127137428D01*
X176161990Y-127264282D01*
X175950082Y-127422915D01*
X175762915Y-127610082D01*
X175604282Y-127821990D01*
X175479139Y-128051173D01*
X175477426Y-128054311D01*
X175431174Y-128178316D01*
X175384921Y-128302326D01*
X175328657Y-128560972D01*
X175309772Y-128825000D01*
X175328657Y-129089027D01*
X175384921Y-129347673D01*
X175384923Y-129347678D01*
X175477426Y-129595689D01*
X175501437Y-129639661D01*
X175604282Y-129828009D01*
X175633500Y-129867039D01*
X175762913Y-130039915D01*
X175950085Y-130227087D01*
X176109012Y-130346058D01*
X176161990Y-130385717D01*
X176245045Y-130431068D01*
X176394311Y-130512574D01*
X176642322Y-130605077D01*
X176642325Y-130605077D01*
X176642326Y-130605078D01*
X176690667Y-130615593D01*
X176900974Y-130661343D01*
X177165000Y-130680227D01*
X177429026Y-130661343D01*
X177687678Y-130605077D01*
X177935689Y-130512574D01*
X178168011Y-130385716D01*
X178379915Y-130227087D01*
X178484819Y-130122182D01*
X178534182Y-130091933D01*
X178591898Y-130087391D01*
X178645385Y-130109546D01*
X178682985Y-130153569D01*
X178696500Y-130209864D01*
X178696500Y-131435243D01*
X178694973Y-131454642D01*
X178686773Y-131506411D01*
X178674785Y-131543307D01*
X178655474Y-131581207D01*
X178632670Y-131612593D01*
X178602593Y-131642670D01*
X178571207Y-131665474D01*
X178533307Y-131684785D01*
X178496411Y-131696773D01*
X178466068Y-131701579D01*
X178444639Y-131704973D01*
X178425243Y-131706500D01*
X120405757Y-131706500D01*
X120386360Y-131704973D01*
X120352098Y-131699546D01*
X120334588Y-131696773D01*
X120297695Y-131684786D01*
X120259790Y-131665472D01*
X120228406Y-131642670D01*
X120198329Y-131612593D01*
X120175528Y-131581211D01*
X120156212Y-131543301D01*
X120144227Y-131506417D01*
X120136025Y-131454629D01*
X120134500Y-131435243D01*
X120134500Y-123568000D01*
X120151113Y-123506000D01*
X120196500Y-123460613D01*
X120258500Y-123444000D01*
X131731760Y-123444000D01*
X131790928Y-123459027D01*
X131835755Y-123500465D01*
X131855378Y-123558271D01*
X131845040Y-123618435D01*
X131807246Y-123666376D01*
X131735343Y-123721549D01*
X131703767Y-123745779D01*
X131684483Y-123770909D01*
X131673792Y-123783099D01*
X130739575Y-124717317D01*
X130683988Y-124749411D01*
X130619800Y-124749411D01*
X130564213Y-124717317D01*
X130538404Y-124691508D01*
X130538401Y-124691505D01*
X130344830Y-124555965D01*
X130130663Y-124456097D01*
X130069501Y-124439709D01*
X129902407Y-124394936D01*
X129667000Y-124374340D01*
X129431592Y-124394936D01*
X129203336Y-124456097D01*
X128989170Y-124555965D01*
X128795598Y-124691505D01*
X128628508Y-124858595D01*
X128498574Y-125044160D01*
X128454255Y-125083026D01*
X128396999Y-125097036D01*
X128339742Y-125083025D01*
X128295426Y-125044161D01*
X128165495Y-124858599D01*
X127998401Y-124691505D01*
X127804830Y-124555965D01*
X127590663Y-124456097D01*
X127529501Y-124439709D01*
X127362407Y-124394936D01*
X127127000Y-124374340D01*
X126891592Y-124394936D01*
X126663336Y-124456097D01*
X126449170Y-124555965D01*
X126255598Y-124691505D01*
X126088508Y-124858595D01*
X125958574Y-125044160D01*
X125914255Y-125083026D01*
X125856999Y-125097036D01*
X125799742Y-125083025D01*
X125755426Y-125044161D01*
X125625495Y-124858599D01*
X125458401Y-124691505D01*
X125264830Y-124555965D01*
X125050663Y-124456097D01*
X124989501Y-124439709D01*
X124822407Y-124394936D01*
X124587000Y-124374340D01*
X124351592Y-124394936D01*
X124123336Y-124456097D01*
X123909170Y-124555965D01*
X123715598Y-124691505D01*
X123548508Y-124858595D01*
X123418574Y-125044160D01*
X123374255Y-125083026D01*
X123316999Y-125097036D01*
X123259742Y-125083025D01*
X123215426Y-125044161D01*
X123085495Y-124858599D01*
X122918401Y-124691505D01*
X122724830Y-124555965D01*
X122510663Y-124456097D01*
X122449501Y-124439709D01*
X122282407Y-124394936D01*
X122047000Y-124374340D01*
X121811592Y-124394936D01*
X121583336Y-124456097D01*
X121369170Y-124555965D01*
X121175598Y-124691505D01*
X121008505Y-124858598D01*
X120872965Y-125052170D01*
X120773097Y-125266336D01*
X120711936Y-125494592D01*
X120691340Y-125729999D01*
X120711936Y-125965407D01*
X120756709Y-126132501D01*
X120773097Y-126193663D01*
X120872965Y-126407830D01*
X121008505Y-126601401D01*
X121008507Y-126601403D01*
X121008508Y-126601404D01*
X121130430Y-126723326D01*
X121161726Y-126776072D01*
X121163915Y-126837365D01*
X121136462Y-126892209D01*
X121086083Y-126927189D01*
X120954669Y-126976204D01*
X120839454Y-127062454D01*
X120753204Y-127177668D01*
X120703623Y-127310601D01*
X120702909Y-127312517D01*
X120696809Y-127369259D01*
X120696500Y-127372130D01*
X120696500Y-129167869D01*
X120702909Y-129227484D01*
X120728056Y-129294906D01*
X120753204Y-129362331D01*
X120839454Y-129477546D01*
X120954669Y-129563796D01*
X121089517Y-129614091D01*
X121149127Y-129620500D01*
X122944872Y-129620499D01*
X123004483Y-129614091D01*
X123139331Y-129563796D01*
X123254546Y-129477546D01*
X123340796Y-129362331D01*
X123389810Y-129230916D01*
X123424789Y-129180537D01*
X123479634Y-129153084D01*
X123540927Y-129155273D01*
X123593673Y-129186569D01*
X123715599Y-129308495D01*
X123909170Y-129444035D01*
X124123337Y-129543903D01*
X124351592Y-129605063D01*
X124587000Y-129625659D01*
X124822408Y-129605063D01*
X125050663Y-129543903D01*
X125264830Y-129444035D01*
X125458401Y-129308495D01*
X125625495Y-129141401D01*
X125755428Y-128955837D01*
X125799742Y-128916975D01*
X125856999Y-128902964D01*
X125914255Y-128916974D01*
X125958573Y-128955839D01*
X126088505Y-129141401D01*
X126255599Y-129308495D01*
X126449170Y-129444035D01*
X126663337Y-129543903D01*
X126891592Y-129605063D01*
X127127000Y-129625659D01*
X127362408Y-129605063D01*
X127590663Y-129543903D01*
X127804830Y-129444035D01*
X127998401Y-129308495D01*
X128165495Y-129141401D01*
X128295428Y-128955837D01*
X128339742Y-128916975D01*
X128396999Y-128902964D01*
X128454255Y-128916974D01*
X128498573Y-128955839D01*
X128628505Y-129141401D01*
X128795599Y-129308495D01*
X128989170Y-129444035D01*
X129203337Y-129543903D01*
X129431592Y-129605063D01*
X129667000Y-129625659D01*
X129902408Y-129605063D01*
X130130663Y-129543903D01*
X130344830Y-129444035D01*
X130538401Y-129308495D01*
X130705495Y-129141401D01*
X130835428Y-128955837D01*
X130879742Y-128916975D01*
X130936999Y-128902964D01*
X130994255Y-128916974D01*
X131038573Y-128955839D01*
X131168505Y-129141401D01*
X131335599Y-129308495D01*
X131529170Y-129444035D01*
X131743337Y-129543903D01*
X131971592Y-129605063D01*
X132207000Y-129625659D01*
X132442408Y-129605063D01*
X132670663Y-129543903D01*
X132884830Y-129444035D01*
X133078401Y-129308495D01*
X133245495Y-129141401D01*
X133375428Y-128955837D01*
X133419742Y-128916975D01*
X133476999Y-128902964D01*
X133534255Y-128916974D01*
X133578573Y-128955839D01*
X133708505Y-129141401D01*
X133875599Y-129308495D01*
X134069170Y-129444035D01*
X134283337Y-129543903D01*
X134511592Y-129605063D01*
X134747000Y-129625659D01*
X134982408Y-129605063D01*
X135210663Y-129543903D01*
X135424830Y-129444035D01*
X135502649Y-129389545D01*
X135555797Y-129368431D01*
X135612772Y-129373416D01*
X135661450Y-129403441D01*
X136961030Y-130703021D01*
X136974415Y-130719728D01*
X137027512Y-130769590D01*
X137030309Y-130772301D01*
X137050717Y-130792709D01*
X137050721Y-130792712D01*
X137050724Y-130792715D01*
X137054237Y-130795439D01*
X137063115Y-130803023D01*
X137096534Y-130834405D01*
X137105796Y-130839497D01*
X137115232Y-130844685D01*
X137131493Y-130855365D01*
X137148355Y-130868445D01*
X137148356Y-130868445D01*
X137148357Y-130868446D01*
X137190425Y-130886650D01*
X137200899Y-130891780D01*
X137241090Y-130913876D01*
X137261757Y-130919182D01*
X137280169Y-130925486D01*
X137299745Y-130933958D01*
X137299746Y-130933958D01*
X137299748Y-130933959D01*
X137345035Y-130941130D01*
X137356457Y-130943496D01*
X137400869Y-130954900D01*
X137422210Y-130954900D01*
X137441607Y-130956426D01*
X137446287Y-130957168D01*
X137462677Y-130959764D01*
X137462677Y-130959763D01*
X137462678Y-130959764D01*
X137508320Y-130955449D01*
X137519987Y-130954900D01*
X146091232Y-130954900D01*
X146112506Y-130957248D01*
X146115066Y-130957167D01*
X146115069Y-130957168D01*
X146185303Y-130954961D01*
X146189199Y-130954900D01*
X146218068Y-130954900D01*
X146218075Y-130954900D01*
X146222489Y-130954342D01*
X146234118Y-130953426D01*
X146279948Y-130951987D01*
X146300441Y-130946033D01*
X146319493Y-130942088D01*
X146327616Y-130941061D01*
X146340660Y-130939414D01*
X146383279Y-130922539D01*
X146394328Y-130918756D01*
X146438359Y-130905965D01*
X146456725Y-130895102D01*
X146474200Y-130886542D01*
X146494034Y-130878689D01*
X146494033Y-130878689D01*
X146494037Y-130878688D01*
X146531132Y-130851735D01*
X146540888Y-130845328D01*
X146559358Y-130834405D01*
X146580348Y-130821992D01*
X146595440Y-130806899D01*
X146610227Y-130794269D01*
X146627493Y-130781726D01*
X146656723Y-130746391D01*
X146664567Y-130737771D01*
X149753022Y-127649316D01*
X149769725Y-127635935D01*
X149771477Y-127634068D01*
X149771482Y-127634066D01*
X149819623Y-127582799D01*
X149822240Y-127580098D01*
X149842714Y-127559626D01*
X149845442Y-127556107D01*
X149853016Y-127547239D01*
X149884405Y-127513815D01*
X149894684Y-127495114D01*
X149905362Y-127478860D01*
X149918445Y-127461995D01*
X149936652Y-127419919D01*
X149941786Y-127409438D01*
X149963876Y-127369259D01*
X149969182Y-127348591D01*
X149975480Y-127330192D01*
X149983959Y-127310601D01*
X149991130Y-127265313D01*
X149993499Y-127253880D01*
X150004900Y-127209481D01*
X150004900Y-127188139D01*
X150006427Y-127168740D01*
X150008151Y-127157853D01*
X150009764Y-127147671D01*
X150005449Y-127102032D01*
X150004900Y-127090365D01*
X150004900Y-124587000D01*
X164848131Y-124587000D01*
X164853230Y-124628991D01*
X164854117Y-124645990D01*
X164853838Y-124662784D01*
X164902418Y-125051418D01*
X164902087Y-125051459D01*
X164904100Y-125070116D01*
X164904100Y-128051943D01*
X164901968Y-128074837D01*
X164900305Y-128083684D01*
X164864690Y-128464156D01*
X164865230Y-128476145D01*
X164864451Y-128496663D01*
X164861131Y-128523999D01*
X164881730Y-128693643D01*
X164942328Y-128853426D01*
X165013019Y-128955840D01*
X165039405Y-128994066D01*
X165167317Y-129107387D01*
X165318632Y-129186803D01*
X165484555Y-129227700D01*
X165655444Y-129227700D01*
X165655445Y-129227700D01*
X165821368Y-129186803D01*
X165972683Y-129107387D01*
X166100595Y-128994066D01*
X166197671Y-128853427D01*
X166258270Y-128693643D01*
X166278868Y-128524000D01*
X166277028Y-128508852D01*
X166276574Y-128504449D01*
X166276528Y-128503915D01*
X166276529Y-128503909D01*
X166270380Y-128431654D01*
X166258956Y-128359350D01*
X166258338Y-128354918D01*
X166257166Y-128345253D01*
X166256088Y-128341199D01*
X166211419Y-128058462D01*
X166209900Y-128039112D01*
X166209900Y-125070115D01*
X166211911Y-125051457D01*
X166211582Y-125051416D01*
X166249332Y-124749411D01*
X166260160Y-124662785D01*
X166259881Y-124645989D01*
X166260767Y-124629001D01*
X166265868Y-124587000D01*
X166245270Y-124417357D01*
X166184671Y-124257573D01*
X166087595Y-124116934D01*
X165959683Y-124003613D01*
X165808368Y-123924197D01*
X165642445Y-123883300D01*
X165471555Y-123883300D01*
X165305632Y-123924197D01*
X165305630Y-123924197D01*
X165305630Y-123924198D01*
X165154317Y-124003613D01*
X165026404Y-124116934D01*
X164929328Y-124257573D01*
X164868730Y-124417356D01*
X164848131Y-124587000D01*
X150004900Y-124587000D01*
X150004900Y-123568000D01*
X150021513Y-123506000D01*
X150066900Y-123460613D01*
X150128900Y-123444000D01*
X151130000Y-123444000D01*
X151130000Y-118830702D01*
X151139439Y-118783249D01*
X151166319Y-118743021D01*
X152319077Y-117590262D01*
X152875347Y-117033991D01*
X152899940Y-117014922D01*
X153071734Y-116913407D01*
X153246217Y-116810304D01*
X153249807Y-116808637D01*
X153257519Y-116803789D01*
X153257522Y-116803789D01*
X153260497Y-116801918D01*
X153263322Y-116800196D01*
X153271251Y-116795512D01*
X153272007Y-116794969D01*
X153278395Y-116790673D01*
X153410262Y-116707816D01*
X153537814Y-116580264D01*
X153537814Y-116580263D01*
X153537816Y-116580262D01*
X153633789Y-116427522D01*
X153693368Y-116257255D01*
X153713565Y-116078000D01*
X153693368Y-115898745D01*
X153633789Y-115728478D01*
X153537816Y-115575738D01*
X153537815Y-115575737D01*
X153537814Y-115575735D01*
X153410264Y-115448185D01*
X153347867Y-115408979D01*
X153257522Y-115352211D01*
X153087255Y-115292632D01*
X153087253Y-115292631D01*
X153087251Y-115292631D01*
X152908000Y-115272434D01*
X152728748Y-115292631D01*
X152728745Y-115292631D01*
X152728745Y-115292632D01*
X152558478Y-115352211D01*
X152558476Y-115352211D01*
X152558476Y-115352212D01*
X152405738Y-115448183D01*
X152278182Y-115575740D01*
X152195324Y-115707605D01*
X152191072Y-115713931D01*
X152190492Y-115714738D01*
X152185799Y-115722678D01*
X152184068Y-115725518D01*
X152177398Y-115736139D01*
X152175742Y-115739700D01*
X151971073Y-116086061D01*
X151951999Y-116110659D01*
X151341681Y-116720978D01*
X151292318Y-116751228D01*
X151234602Y-116755770D01*
X151181115Y-116733615D01*
X151143515Y-116689592D01*
X151130000Y-116633297D01*
X151130000Y-114568900D01*
X151146613Y-114506900D01*
X151192000Y-114461513D01*
X151254000Y-114444900D01*
X152060232Y-114444900D01*
X152081506Y-114447248D01*
X152084066Y-114447167D01*
X152084069Y-114447168D01*
X152154303Y-114444961D01*
X152158199Y-114444900D01*
X152187068Y-114444900D01*
X152187075Y-114444900D01*
X152191489Y-114444342D01*
X152203118Y-114443426D01*
X152248948Y-114441987D01*
X152269441Y-114436033D01*
X152288493Y-114432088D01*
X152296616Y-114431061D01*
X152309660Y-114429414D01*
X152352279Y-114412539D01*
X152363328Y-114408756D01*
X152407359Y-114395965D01*
X152425725Y-114385102D01*
X152443200Y-114376542D01*
X152463034Y-114368689D01*
X152463033Y-114368689D01*
X152463037Y-114368688D01*
X152500132Y-114341735D01*
X152509888Y-114335328D01*
X152511005Y-114334667D01*
X152549348Y-114311992D01*
X152564440Y-114296899D01*
X152579227Y-114284269D01*
X152596493Y-114271726D01*
X152625723Y-114236391D01*
X152633567Y-114227771D01*
X153904120Y-112957219D01*
X153944349Y-112930339D01*
X153991802Y-112920900D01*
X155764918Y-112920900D01*
X155795798Y-112924806D01*
X156213498Y-113032215D01*
X156223139Y-113033795D01*
X156244021Y-113039117D01*
X156284745Y-113053368D01*
X156464000Y-113073565D01*
X156643255Y-113053368D01*
X156813522Y-112993789D01*
X156966262Y-112897816D01*
X157093816Y-112770262D01*
X157189789Y-112617522D01*
X157249368Y-112447255D01*
X157269565Y-112268000D01*
X157249368Y-112088745D01*
X157189789Y-111918478D01*
X157093816Y-111765738D01*
X157093815Y-111765737D01*
X157093814Y-111765735D01*
X156966264Y-111638185D01*
X156877169Y-111582203D01*
X156813522Y-111542211D01*
X156643255Y-111482632D01*
X156643253Y-111482631D01*
X156643251Y-111482631D01*
X156464000Y-111462434D01*
X156284746Y-111482631D01*
X156244023Y-111496880D01*
X156223147Y-111502201D01*
X156213503Y-111503783D01*
X155910629Y-111581665D01*
X155851040Y-111582203D01*
X155798081Y-111554880D01*
X155763983Y-111506007D01*
X155756622Y-111446872D01*
X155777696Y-111391135D01*
X155821671Y-111327427D01*
X155880569Y-111172127D01*
X155907082Y-111130202D01*
X155947907Y-111102022D01*
X155996511Y-111092100D01*
X156840319Y-111092100D01*
X156875681Y-111097249D01*
X156980707Y-111128498D01*
X157121015Y-111170245D01*
X157154490Y-111176953D01*
X157159741Y-111178126D01*
X157267555Y-111204700D01*
X157438444Y-111204700D01*
X157438445Y-111204700D01*
X157604368Y-111163803D01*
X157755683Y-111084387D01*
X157883595Y-110971066D01*
X157980671Y-110830427D01*
X158041270Y-110670643D01*
X158061868Y-110501000D01*
X158041270Y-110331357D01*
X157980671Y-110171573D01*
X157883595Y-110030934D01*
X157755683Y-109917613D01*
X157604368Y-109838197D01*
X157438445Y-109797300D01*
X157267555Y-109797300D01*
X157185248Y-109817586D01*
X157172725Y-109819997D01*
X157152266Y-109822854D01*
X156883366Y-109884741D01*
X156855555Y-109887900D01*
X156002760Y-109887900D01*
X155955307Y-109878461D01*
X155915079Y-109851581D01*
X154707969Y-108644471D01*
X154688604Y-108619377D01*
X154653639Y-108559575D01*
X154559698Y-108398903D01*
X154552400Y-108383630D01*
X154551671Y-108382574D01*
X154551671Y-108382573D01*
X154454595Y-108241934D01*
X154326683Y-108128613D01*
X154175368Y-108049197D01*
X154009445Y-108008300D01*
X153838555Y-108008300D01*
X153672632Y-108049197D01*
X153672630Y-108049197D01*
X153672630Y-108049198D01*
X153521317Y-108128613D01*
X153393404Y-108241934D01*
X153296329Y-108382571D01*
X153235730Y-108542357D01*
X153230018Y-108589393D01*
X153208971Y-108644885D01*
X153164548Y-108684240D01*
X153013318Y-108763611D01*
X152885404Y-108876934D01*
X152788328Y-109017573D01*
X152727730Y-109177356D01*
X152707131Y-109347000D01*
X152727730Y-109516643D01*
X152788328Y-109676426D01*
X152871761Y-109797300D01*
X152885405Y-109817066D01*
X153013317Y-109930387D01*
X153013319Y-109930388D01*
X153081495Y-109966169D01*
X153088188Y-109969951D01*
X153088887Y-109970375D01*
X153088891Y-109970377D01*
X153089329Y-109970642D01*
X153096591Y-109974093D01*
X153164631Y-110009803D01*
X153193913Y-110017020D01*
X153212961Y-110023389D01*
X153219950Y-110026376D01*
X153394240Y-110073181D01*
X153449759Y-110105257D01*
X154410029Y-111065527D01*
X154429394Y-111090621D01*
X154558298Y-111311092D01*
X154565598Y-111326369D01*
X154630683Y-111420660D01*
X154652407Y-111483613D01*
X154638430Y-111548726D01*
X154592783Y-111597217D01*
X154528633Y-111615100D01*
X153755767Y-111615100D01*
X153734496Y-111612751D01*
X153661710Y-111615039D01*
X153657815Y-111615100D01*
X153628923Y-111615100D01*
X153624502Y-111615658D01*
X153612870Y-111616573D01*
X153567051Y-111618013D01*
X153546562Y-111623966D01*
X153527511Y-111627911D01*
X153506338Y-111630585D01*
X153463701Y-111647466D01*
X153452653Y-111651249D01*
X153428893Y-111658152D01*
X153408641Y-111664036D01*
X153390270Y-111674899D01*
X153372809Y-111683453D01*
X153352963Y-111691311D01*
X153315872Y-111718258D01*
X153306114Y-111724668D01*
X153266653Y-111748006D01*
X153251561Y-111763098D01*
X153236773Y-111775728D01*
X153219505Y-111788274D01*
X153190285Y-111823595D01*
X153182424Y-111832234D01*
X151911879Y-113102781D01*
X151871651Y-113129661D01*
X151824198Y-113139100D01*
X151254000Y-113139100D01*
X151192000Y-113122487D01*
X151146613Y-113077100D01*
X151130000Y-113015100D01*
X151130000Y-99060000D01*
X143187081Y-99060000D01*
X143124490Y-99043044D01*
X143079017Y-98996813D01*
X143063098Y-98933950D01*
X143081087Y-98871648D01*
X143128064Y-98826945D01*
X143281233Y-98744053D01*
X143328056Y-98707609D01*
X143045447Y-98425000D01*
X163913434Y-98425000D01*
X163933631Y-98604251D01*
X163933631Y-98604253D01*
X163933632Y-98604255D01*
X163993211Y-98774522D01*
X164026151Y-98826945D01*
X164089185Y-98927264D01*
X164216735Y-99054814D01*
X164216737Y-99054815D01*
X164216738Y-99054816D01*
X164369478Y-99150789D01*
X164539745Y-99210368D01*
X164543997Y-99210847D01*
X164605231Y-99235407D01*
X164645202Y-99287899D01*
X164652591Y-99353462D01*
X164625306Y-99413534D01*
X164571073Y-99451108D01*
X164496479Y-99477210D01*
X164343735Y-99573185D01*
X164216185Y-99700735D01*
X164121327Y-99851702D01*
X164120211Y-99853478D01*
X164088794Y-99943262D01*
X164060631Y-100023748D01*
X164040434Y-100202999D01*
X164060631Y-100382251D01*
X164060631Y-100382253D01*
X164060632Y-100382255D01*
X164120211Y-100552522D01*
X164120212Y-100552523D01*
X164216185Y-100705264D01*
X164343735Y-100832814D01*
X164343737Y-100832815D01*
X164343738Y-100832816D01*
X164496478Y-100928789D01*
X164666745Y-100988368D01*
X164846000Y-101008565D01*
X165025255Y-100988368D01*
X165065978Y-100974117D01*
X165086864Y-100968794D01*
X165096501Y-100967215D01*
X165514201Y-100859806D01*
X165545082Y-100855900D01*
X168588198Y-100855900D01*
X168635651Y-100865339D01*
X168675879Y-100892219D01*
X171141781Y-103358121D01*
X171168661Y-103398349D01*
X171178100Y-103445802D01*
X171178100Y-105091915D01*
X171174193Y-105122796D01*
X171066783Y-105540501D01*
X171065201Y-105550149D01*
X171059880Y-105571023D01*
X171045631Y-105611746D01*
X171025434Y-105791000D01*
X171045631Y-105970253D01*
X171059880Y-106010974D01*
X171065203Y-106031859D01*
X171066784Y-106041499D01*
X171174193Y-106459201D01*
X171178100Y-106490082D01*
X171178100Y-108245232D01*
X171175751Y-108266506D01*
X171178039Y-108339304D01*
X171178100Y-108343199D01*
X171178100Y-108372074D01*
X171178657Y-108376486D01*
X171179572Y-108388120D01*
X171181012Y-108433948D01*
X171186965Y-108454438D01*
X171190909Y-108473482D01*
X171193585Y-108494660D01*
X171210462Y-108537289D01*
X171214245Y-108548337D01*
X171227035Y-108592359D01*
X171233624Y-108603502D01*
X171237900Y-108610732D01*
X171246458Y-108628201D01*
X171254312Y-108648037D01*
X171281255Y-108685121D01*
X171287668Y-108694885D01*
X171311004Y-108734344D01*
X171311007Y-108734347D01*
X171311008Y-108734348D01*
X171326100Y-108749440D01*
X171338733Y-108764232D01*
X171351274Y-108781493D01*
X171386601Y-108810719D01*
X171395241Y-108818581D01*
X173758896Y-111182236D01*
X173785619Y-111222087D01*
X174076769Y-111918478D01*
X174386584Y-112659513D01*
X174407904Y-112710506D01*
X174417500Y-112758336D01*
X174417500Y-113165869D01*
X174423909Y-113225483D01*
X174474204Y-113360331D01*
X174560454Y-113475546D01*
X174675669Y-113561796D01*
X174810517Y-113612091D01*
X174870127Y-113618500D01*
X176665872Y-113618499D01*
X176725483Y-113612091D01*
X176860331Y-113561796D01*
X176975546Y-113475546D01*
X177061796Y-113360331D01*
X177112091Y-113225483D01*
X177118500Y-113165873D01*
X177118499Y-111370128D01*
X177112091Y-111310517D01*
X177061796Y-111175669D01*
X176975546Y-111060454D01*
X176860331Y-110974204D01*
X176785750Y-110946387D01*
X176728916Y-110925189D01*
X176678537Y-110890209D01*
X176651084Y-110835365D01*
X176653273Y-110774072D01*
X176684566Y-110721329D01*
X176806495Y-110599401D01*
X176942035Y-110405830D01*
X177041903Y-110191663D01*
X177103063Y-109963408D01*
X177123659Y-109728000D01*
X177103063Y-109492592D01*
X177041903Y-109264337D01*
X176942035Y-109050171D01*
X176806495Y-108856599D01*
X176639401Y-108689505D01*
X176453839Y-108559573D01*
X176414975Y-108515257D01*
X176400964Y-108458000D01*
X176414975Y-108400743D01*
X176453839Y-108356426D01*
X176639401Y-108226495D01*
X176806495Y-108059401D01*
X176942035Y-107865830D01*
X177041903Y-107651663D01*
X177103063Y-107423408D01*
X177123659Y-107188000D01*
X177103063Y-106952592D01*
X177041903Y-106724337D01*
X176942035Y-106510171D01*
X176806495Y-106316599D01*
X176639401Y-106149505D01*
X176453402Y-106019267D01*
X176414539Y-105974951D01*
X176400528Y-105917694D01*
X176414539Y-105860437D01*
X176453405Y-105816119D01*
X176639078Y-105686109D01*
X176806106Y-105519081D01*
X176941600Y-105325576D01*
X177041430Y-105111492D01*
X177098636Y-104898000D01*
X174437364Y-104898000D01*
X174494569Y-105111492D01*
X174594399Y-105325576D01*
X174729893Y-105519081D01*
X174896918Y-105686106D01*
X175082595Y-105816119D01*
X175121460Y-105860437D01*
X175135471Y-105917694D01*
X175121460Y-105974951D01*
X175082595Y-106019269D01*
X174896595Y-106149508D01*
X174729505Y-106316598D01*
X174593965Y-106510170D01*
X174494097Y-106724336D01*
X174432936Y-106952592D01*
X174412340Y-107188000D01*
X174432936Y-107423407D01*
X174447621Y-107478211D01*
X174494097Y-107651663D01*
X174593965Y-107865830D01*
X174729505Y-108059401D01*
X174896599Y-108226495D01*
X175082160Y-108356426D01*
X175121024Y-108400743D01*
X175135035Y-108458000D01*
X175121024Y-108515257D01*
X175082158Y-108559575D01*
X174904119Y-108684240D01*
X174896595Y-108689508D01*
X174729505Y-108856598D01*
X174593965Y-109050170D01*
X174494097Y-109264336D01*
X174432936Y-109492592D01*
X174414519Y-109703097D01*
X174389367Y-109767776D01*
X174333401Y-109808811D01*
X174264152Y-109813350D01*
X174203310Y-109779970D01*
X172520219Y-108096879D01*
X172493339Y-108056651D01*
X172483900Y-108009198D01*
X172483900Y-106490082D01*
X172487807Y-106459201D01*
X172567442Y-106149508D01*
X172595215Y-106041501D01*
X172596796Y-106031859D01*
X172602117Y-106010978D01*
X172616368Y-105970255D01*
X172636565Y-105791000D01*
X172616368Y-105611745D01*
X172602117Y-105571021D01*
X172596795Y-105550139D01*
X172595215Y-105540498D01*
X172487806Y-105122798D01*
X172483900Y-105091918D01*
X172483900Y-104398000D01*
X174437364Y-104398000D01*
X175518000Y-104398000D01*
X175518000Y-103317364D01*
X176018000Y-103317364D01*
X176018000Y-104398000D01*
X177098636Y-104398000D01*
X177098635Y-104397999D01*
X177041430Y-104184507D01*
X176941599Y-103970421D01*
X176806109Y-103776921D01*
X176639081Y-103609893D01*
X176445576Y-103474399D01*
X176231492Y-103374569D01*
X176018000Y-103317364D01*
X175518000Y-103317364D01*
X175517999Y-103317364D01*
X175304507Y-103374569D01*
X175090421Y-103474400D01*
X174896921Y-103609890D01*
X174729890Y-103776921D01*
X174594400Y-103970421D01*
X174494569Y-104184507D01*
X174437364Y-104397999D01*
X174437364Y-104398000D01*
X172483900Y-104398000D01*
X172483900Y-103209773D01*
X172486249Y-103188491D01*
X172485360Y-103160211D01*
X172483960Y-103115677D01*
X172483900Y-103111783D01*
X172483900Y-103082927D01*
X172483344Y-103078529D01*
X172482426Y-103066870D01*
X172480987Y-103021052D01*
X172475033Y-103000557D01*
X172471088Y-102981513D01*
X172468414Y-102960340D01*
X172451536Y-102917713D01*
X172447756Y-102906669D01*
X172434966Y-102862642D01*
X172424102Y-102844273D01*
X172415541Y-102826798D01*
X172407687Y-102806961D01*
X172380740Y-102769872D01*
X172374326Y-102760108D01*
X172350991Y-102720651D01*
X172335906Y-102705566D01*
X172323269Y-102690771D01*
X172310727Y-102673508D01*
X172310726Y-102673507D01*
X172275391Y-102644275D01*
X172266763Y-102636423D01*
X169432318Y-99801978D01*
X169418935Y-99785273D01*
X169365835Y-99735409D01*
X169363068Y-99732728D01*
X169342626Y-99712286D01*
X169342625Y-99712285D01*
X169342620Y-99712280D01*
X169339113Y-99709560D01*
X169330229Y-99701973D01*
X169296812Y-99670592D01*
X169278113Y-99660312D01*
X169261853Y-99649631D01*
X169244995Y-99636555D01*
X169202920Y-99618347D01*
X169192430Y-99613208D01*
X169138533Y-99583578D01*
X169138957Y-99582804D01*
X169104970Y-99564678D01*
X169071698Y-99516421D01*
X169064309Y-99458274D01*
X169065117Y-99451108D01*
X169080565Y-99314000D01*
X169060368Y-99134745D01*
X169000789Y-98964478D01*
X168904816Y-98811738D01*
X168904815Y-98811737D01*
X168904814Y-98811735D01*
X168777264Y-98684185D01*
X168624520Y-98588210D01*
X168619188Y-98586344D01*
X168597123Y-98576091D01*
X168594210Y-98574372D01*
X168223721Y-98400760D01*
X168188656Y-98376158D01*
X167845396Y-98032898D01*
X167834701Y-98020703D01*
X167815421Y-97995577D01*
X167783849Y-97971351D01*
X167783847Y-97971349D01*
X167689647Y-97899067D01*
X167546930Y-97839951D01*
X167543630Y-97838456D01*
X167417410Y-97821840D01*
X167417395Y-97821839D01*
X167386000Y-97817705D01*
X167354605Y-97821839D01*
X167338420Y-97822900D01*
X165443206Y-97822900D01*
X165401015Y-97815501D01*
X165315028Y-97784387D01*
X165315025Y-97784386D01*
X165313544Y-97783850D01*
X165313546Y-97783851D01*
X165016282Y-97676289D01*
X165016281Y-97676288D01*
X165016279Y-97676288D01*
X164971115Y-97664657D01*
X164961087Y-97661617D01*
X164898254Y-97639631D01*
X164719000Y-97619434D01*
X164539748Y-97639631D01*
X164539745Y-97639631D01*
X164539745Y-97639632D01*
X164369478Y-97699211D01*
X164369476Y-97699211D01*
X164369476Y-97699212D01*
X164216735Y-97795185D01*
X164089185Y-97922735D01*
X164000056Y-98064584D01*
X163993211Y-98075478D01*
X163945253Y-98212535D01*
X163933631Y-98245748D01*
X163913434Y-98425000D01*
X143045447Y-98425000D01*
X142458000Y-97837553D01*
X141587942Y-98707609D01*
X141587942Y-98707610D01*
X141634767Y-98744055D01*
X141787935Y-98826945D01*
X141834912Y-98871648D01*
X141852901Y-98933950D01*
X141836982Y-98996812D01*
X141791509Y-99043044D01*
X141728918Y-99060000D01*
X138688133Y-99060000D01*
X138625542Y-99043044D01*
X138580069Y-98996813D01*
X138564150Y-98933950D01*
X138582139Y-98871648D01*
X138629113Y-98826946D01*
X138781509Y-98744474D01*
X138977744Y-98591738D01*
X139146164Y-98408785D01*
X139282173Y-98200607D01*
X139382063Y-97972881D01*
X139443108Y-97731821D01*
X139463643Y-97484000D01*
X140952858Y-97484000D01*
X140973386Y-97731732D01*
X141034413Y-97972721D01*
X141134268Y-98200370D01*
X141234563Y-98353882D01*
X141234564Y-98353882D01*
X142104447Y-97484001D01*
X142811553Y-97484001D01*
X143681434Y-98353882D01*
X143781730Y-98200369D01*
X143881586Y-97972721D01*
X143942613Y-97731732D01*
X143963141Y-97483999D01*
X143942613Y-97236267D01*
X143881586Y-96995278D01*
X143781730Y-96767630D01*
X143681434Y-96614116D01*
X142811553Y-97484000D01*
X142811553Y-97484001D01*
X142104447Y-97484001D01*
X142104447Y-97484000D01*
X141234564Y-96614116D01*
X141134266Y-96767634D01*
X141034413Y-96995278D01*
X140973386Y-97236267D01*
X140952858Y-97484000D01*
X139463643Y-97484000D01*
X139443108Y-97236179D01*
X139382063Y-96995119D01*
X139282173Y-96767393D01*
X139146164Y-96559215D01*
X138977744Y-96376262D01*
X138935509Y-96343389D01*
X138828873Y-96260390D01*
X141587942Y-96260390D01*
X142458000Y-97130447D01*
X142458001Y-97130447D01*
X143328057Y-96260390D01*
X143328056Y-96260388D01*
X143281235Y-96223947D01*
X143062606Y-96105631D01*
X142827493Y-96024916D01*
X142582293Y-95984000D01*
X142333707Y-95984000D01*
X142088506Y-96024916D01*
X141853393Y-96105631D01*
X141634764Y-96223946D01*
X141587942Y-96260388D01*
X141587942Y-96260390D01*
X138828873Y-96260390D01*
X138781514Y-96223529D01*
X138781510Y-96223526D01*
X138781509Y-96223526D01*
X138562810Y-96105172D01*
X138562806Y-96105170D01*
X138562805Y-96105170D01*
X138327615Y-96024429D01*
X138082335Y-95983500D01*
X137833665Y-95983500D01*
X137588384Y-96024429D01*
X137353194Y-96105170D01*
X137134485Y-96223529D01*
X136938259Y-96376259D01*
X136938256Y-96376261D01*
X136938256Y-96376262D01*
X136804818Y-96521214D01*
X136769837Y-96559214D01*
X136633825Y-96767395D01*
X136533938Y-96995115D01*
X136533936Y-96995119D01*
X136533937Y-96995119D01*
X136515204Y-97069090D01*
X136487378Y-97121365D01*
X136438479Y-97154774D01*
X136379662Y-97161695D01*
X136324344Y-97140547D01*
X136285142Y-97096156D01*
X136271000Y-97038647D01*
X136271000Y-95647000D01*
X160923000Y-95647000D01*
X160923000Y-95997710D01*
X160938419Y-96149339D01*
X160999303Y-96343389D01*
X161098003Y-96521214D01*
X161230479Y-96675531D01*
X161391307Y-96800021D01*
X161573905Y-96889589D01*
X161672999Y-96915246D01*
X161673000Y-96915247D01*
X161673000Y-95647000D01*
X160923000Y-95647000D01*
X136271000Y-95647000D01*
X136271000Y-95147000D01*
X160923000Y-95147000D01*
X161673000Y-95147000D01*
X161673000Y-93878753D01*
X162173000Y-93878753D01*
X162173000Y-96920366D01*
X162174948Y-96920067D01*
X162365663Y-96849435D01*
X162538263Y-96741854D01*
X162685669Y-96601733D01*
X162801855Y-96434805D01*
X162882059Y-96247907D01*
X162923000Y-96048689D01*
X162923000Y-95497384D01*
X162937642Y-95438931D01*
X162978109Y-95394282D01*
X163034846Y-95373981D01*
X163094453Y-95382823D01*
X163202764Y-95427687D01*
X163315279Y-95442500D01*
X163315280Y-95442500D01*
X163390720Y-95442500D01*
X163390721Y-95442500D01*
X163446977Y-95435093D01*
X163503236Y-95427687D01*
X163643233Y-95369698D01*
X163763451Y-95277451D01*
X163855698Y-95157233D01*
X163913687Y-95017236D01*
X163933466Y-94867000D01*
X168552533Y-94867000D01*
X168572312Y-95017235D01*
X168626063Y-95147000D01*
X168630302Y-95157233D01*
X168722549Y-95277451D01*
X168842767Y-95369698D01*
X168902118Y-95394282D01*
X168982764Y-95427687D01*
X169095279Y-95442500D01*
X169095280Y-95442500D01*
X169170720Y-95442500D01*
X169170721Y-95442500D01*
X169226977Y-95435093D01*
X169283236Y-95427687D01*
X169391546Y-95382823D01*
X169451154Y-95373981D01*
X169507891Y-95394282D01*
X169548358Y-95438931D01*
X169563000Y-95497384D01*
X169563000Y-95997710D01*
X169578419Y-96149339D01*
X169639303Y-96343389D01*
X169738003Y-96521214D01*
X169870479Y-96675531D01*
X170031307Y-96800021D01*
X170213905Y-96889589D01*
X170312999Y-96915246D01*
X170313000Y-96915246D01*
X170313000Y-95647000D01*
X170813000Y-95647000D01*
X170813000Y-96920366D01*
X170814948Y-96920067D01*
X171005663Y-96849435D01*
X171178263Y-96741854D01*
X171325669Y-96601733D01*
X171441855Y-96434805D01*
X171522059Y-96247907D01*
X171563000Y-96048689D01*
X171563000Y-95647000D01*
X170813000Y-95647000D01*
X170313000Y-95647000D01*
X170313000Y-93878753D01*
X170813000Y-93878753D01*
X170813000Y-95147000D01*
X171563000Y-95147000D01*
X171563000Y-94796290D01*
X171547580Y-94644660D01*
X171486696Y-94450610D01*
X171387996Y-94272785D01*
X171255520Y-94118468D01*
X171094692Y-93993978D01*
X170912094Y-93904410D01*
X170813000Y-93878753D01*
X170313000Y-93878753D01*
X170313000Y-93873634D01*
X170311051Y-93873932D01*
X170120336Y-93944564D01*
X169947736Y-94052145D01*
X169800330Y-94192266D01*
X169684141Y-94359198D01*
X169680760Y-94367078D01*
X169647678Y-94412177D01*
X169598143Y-94438151D01*
X169542234Y-94439715D01*
X169491326Y-94416551D01*
X169423233Y-94364302D01*
X169410911Y-94359198D01*
X169283235Y-94306312D01*
X169170721Y-94291500D01*
X169170720Y-94291500D01*
X169095280Y-94291500D01*
X169095279Y-94291500D01*
X168982764Y-94306312D01*
X168842768Y-94364301D01*
X168722549Y-94456549D01*
X168630301Y-94576768D01*
X168572312Y-94716764D01*
X168552533Y-94867000D01*
X163933466Y-94867000D01*
X163913687Y-94716764D01*
X163855698Y-94576767D01*
X163763451Y-94456549D01*
X163643233Y-94364302D01*
X163630911Y-94359198D01*
X163503235Y-94306312D01*
X163390721Y-94291500D01*
X163390720Y-94291500D01*
X163315280Y-94291500D01*
X163315279Y-94291500D01*
X163202764Y-94306312D01*
X163062766Y-94364302D01*
X162991744Y-94418799D01*
X162943905Y-94441302D01*
X162891041Y-94441832D01*
X162842760Y-94420293D01*
X162807839Y-94380601D01*
X162747995Y-94272783D01*
X162615520Y-94118468D01*
X162454692Y-93993978D01*
X162272094Y-93904410D01*
X162173000Y-93878753D01*
X161673000Y-93878753D01*
X161673000Y-93873634D01*
X161671051Y-93873932D01*
X161480336Y-93944564D01*
X161307736Y-94052145D01*
X161160330Y-94192266D01*
X161044144Y-94359194D01*
X160963940Y-94546092D01*
X160923000Y-94745311D01*
X160923000Y-95147000D01*
X136271000Y-95147000D01*
X136271000Y-91429353D01*
X136285142Y-91371844D01*
X136324344Y-91327453D01*
X136379662Y-91306305D01*
X136438479Y-91313226D01*
X136487378Y-91346635D01*
X136515204Y-91398909D01*
X136533937Y-91472881D01*
X136533938Y-91472884D01*
X136633825Y-91700604D01*
X136633827Y-91700607D01*
X136769836Y-91908785D01*
X136938256Y-92091738D01*
X136938259Y-92091740D01*
X137134485Y-92244470D01*
X137134487Y-92244471D01*
X137134491Y-92244474D01*
X137353190Y-92362828D01*
X137588386Y-92443571D01*
X137833665Y-92484500D01*
X138082335Y-92484500D01*
X138327614Y-92443571D01*
X138562810Y-92362828D01*
X138781509Y-92244474D01*
X138828872Y-92207610D01*
X141587942Y-92207610D01*
X141634766Y-92244055D01*
X141853393Y-92362368D01*
X142088506Y-92443083D01*
X142333707Y-92484000D01*
X142582293Y-92484000D01*
X142827493Y-92443083D01*
X143062606Y-92362368D01*
X143281233Y-92244053D01*
X143328056Y-92207609D01*
X142458000Y-91337553D01*
X141587942Y-92207609D01*
X141587942Y-92207610D01*
X138828872Y-92207610D01*
X138977744Y-92091738D01*
X139146164Y-91908785D01*
X139282173Y-91700607D01*
X139382063Y-91472881D01*
X139443108Y-91231821D01*
X139463643Y-90984000D01*
X140952858Y-90984000D01*
X140973386Y-91231732D01*
X141034413Y-91472721D01*
X141134268Y-91700370D01*
X141234563Y-91853882D01*
X141234564Y-91853882D01*
X142104447Y-90984001D01*
X142811553Y-90984001D01*
X143681434Y-91853882D01*
X143781730Y-91700369D01*
X143881586Y-91472721D01*
X143942613Y-91231732D01*
X143963141Y-90983999D01*
X143942613Y-90736267D01*
X143881586Y-90495278D01*
X143781730Y-90267630D01*
X143681434Y-90114116D01*
X142811553Y-90984000D01*
X142811553Y-90984001D01*
X142104447Y-90984001D01*
X142104447Y-90984000D01*
X141234564Y-90114116D01*
X141134266Y-90267634D01*
X141034413Y-90495278D01*
X140973386Y-90736267D01*
X140952858Y-90984000D01*
X139463643Y-90984000D01*
X139443108Y-90736179D01*
X139382063Y-90495119D01*
X139282173Y-90267393D01*
X139146164Y-90059215D01*
X138977744Y-89876262D01*
X138868246Y-89791036D01*
X138828872Y-89760390D01*
X141587942Y-89760390D01*
X142458000Y-90630447D01*
X142458001Y-90630447D01*
X143328057Y-89760390D01*
X143328056Y-89760388D01*
X143281235Y-89723947D01*
X143062606Y-89605631D01*
X142827493Y-89524916D01*
X142582293Y-89484000D01*
X142333707Y-89484000D01*
X142088506Y-89524916D01*
X141853393Y-89605631D01*
X141634764Y-89723946D01*
X141587942Y-89760388D01*
X141587942Y-89760390D01*
X138828872Y-89760390D01*
X138781514Y-89723529D01*
X138781510Y-89723526D01*
X138781509Y-89723526D01*
X138562810Y-89605172D01*
X138562806Y-89605170D01*
X138562805Y-89605170D01*
X138327615Y-89524429D01*
X138082335Y-89483500D01*
X137833665Y-89483500D01*
X137588384Y-89524429D01*
X137353194Y-89605170D01*
X137134485Y-89723529D01*
X136938259Y-89876259D01*
X136938256Y-89876261D01*
X136938256Y-89876262D01*
X136769836Y-90059215D01*
X136733968Y-90114116D01*
X136633825Y-90267395D01*
X136533938Y-90495115D01*
X136533936Y-90495119D01*
X136533937Y-90495119D01*
X136515204Y-90569090D01*
X136487378Y-90621365D01*
X136438479Y-90654774D01*
X136379662Y-90661695D01*
X136324344Y-90640547D01*
X136285142Y-90596156D01*
X136271000Y-90538647D01*
X136271000Y-89270500D01*
X136287613Y-89208500D01*
X136333000Y-89163113D01*
X136395000Y-89146500D01*
X148174656Y-89146500D01*
X148234772Y-89162047D01*
G37*
%TD.AperFunction*%
%TA.AperFunction,Conductor*%
G36*
X145087983Y-123961762D02*
G01*
X145143948Y-124002797D01*
X145215350Y-124095849D01*
X145215351Y-124095852D01*
X145239577Y-124127423D01*
X145264708Y-124146707D01*
X145276902Y-124157401D01*
X145324086Y-124204585D01*
X145356180Y-124260172D01*
X145356180Y-124324360D01*
X145324086Y-124379947D01*
X145268498Y-124412041D01*
X145204311Y-124412041D01*
X145157000Y-124399364D01*
X145157000Y-125856000D01*
X145140387Y-125918000D01*
X145095000Y-125963387D01*
X145033000Y-125980000D01*
X144781000Y-125980000D01*
X144719000Y-125963387D01*
X144673613Y-125918000D01*
X144657000Y-125856000D01*
X144657000Y-124342858D01*
X144666439Y-124295405D01*
X144693316Y-124255180D01*
X144957896Y-123990600D01*
X145018734Y-123957223D01*
X145087983Y-123961762D01*
G37*
%TD.AperFunction*%
%TD*%
%TA.AperFunction,Conductor*%
%TO.N,/Core/PA8*%
G36*
X141355522Y-113243797D02*
G01*
X141529322Y-113316713D01*
X141535299Y-113322346D01*
X141536100Y-113330520D01*
X141453318Y-113640618D01*
X141449141Y-113646879D01*
X141442014Y-113649300D01*
X141259986Y-113649300D01*
X141252859Y-113646879D01*
X141248682Y-113640618D01*
X141165899Y-113330517D01*
X141166700Y-113322346D01*
X141172675Y-113316713D01*
X141346477Y-113243797D01*
X141351000Y-113242887D01*
X141355522Y-113243797D01*
G37*
%TD.AperFunction*%
%TD*%
%TA.AperFunction,Conductor*%
%TO.N,VCC*%
G36*
X135532896Y-125411078D02*
G01*
X135536508Y-125416115D01*
X136054246Y-126817289D01*
X136054700Y-126823848D01*
X136051544Y-126829617D01*
X135846617Y-127034544D01*
X135840848Y-127037700D01*
X135834289Y-127037246D01*
X134433115Y-126519508D01*
X134428078Y-126515896D01*
X134425592Y-126510218D01*
X134426355Y-126504069D01*
X134744439Y-125733780D01*
X134746978Y-125729978D01*
X134750780Y-125727439D01*
X135521069Y-125409355D01*
X135527218Y-125408592D01*
X135532896Y-125411078D01*
G37*
%TD.AperFunction*%
%TD*%
%TA.AperFunction,Conductor*%
%TO.N,VCC*%
G36*
X152640199Y-115967039D02*
G01*
X152850033Y-116053200D01*
X152904184Y-116075436D01*
X152908013Y-116077986D01*
X152910563Y-116081815D01*
X153018959Y-116345797D01*
X153019228Y-116353963D01*
X153014088Y-116360314D01*
X152599309Y-116605411D01*
X152591889Y-116606945D01*
X152585084Y-116603611D01*
X152382388Y-116400915D01*
X152379054Y-116394110D01*
X152380588Y-116386690D01*
X152560742Y-116081815D01*
X152625686Y-115971910D01*
X152632036Y-115966771D01*
X152640199Y-115967039D01*
G37*
%TD.AperFunction*%
%TD*%
%TA.AperFunction,Conductor*%
%TO.N,/Core/PB7*%
G36*
X146151253Y-127049195D02*
G01*
X146155517Y-127054939D01*
X146155641Y-127062093D01*
X145696032Y-128582924D01*
X145692556Y-128588327D01*
X145686750Y-128591081D01*
X145680366Y-128590353D01*
X144911488Y-128272853D01*
X144907683Y-128270315D01*
X144905143Y-128266512D01*
X144586584Y-127496463D01*
X144585843Y-127490133D01*
X144588530Y-127484354D01*
X144593843Y-127480843D01*
X145955268Y-127047559D01*
X145958817Y-127047008D01*
X146144441Y-127047008D01*
X146151253Y-127049195D01*
G37*
%TD.AperFunction*%
%TD*%
%TA.AperFunction,Conductor*%
%TO.N,/Core/PB7*%
G36*
X145673522Y-104902897D02*
G01*
X145807771Y-104959220D01*
X145847364Y-104975831D01*
X145853329Y-104981440D01*
X145854156Y-104989586D01*
X145772889Y-105299666D01*
X145768719Y-105305963D01*
X145761571Y-105308400D01*
X145576429Y-105308400D01*
X145569281Y-105305963D01*
X145565111Y-105299666D01*
X145483843Y-104989586D01*
X145484670Y-104981440D01*
X145490635Y-104975831D01*
X145664477Y-104902897D01*
X145669000Y-104901987D01*
X145673522Y-104902897D01*
G37*
%TD.AperFunction*%
%TD*%
%TA.AperFunction,Conductor*%
%TO.N,/Core/PB6*%
G36*
X145038523Y-105283897D02*
G01*
X145147720Y-105329710D01*
X145212364Y-105356831D01*
X145218329Y-105362440D01*
X145219156Y-105370586D01*
X145137889Y-105680666D01*
X145133719Y-105686963D01*
X145126571Y-105689400D01*
X144941429Y-105689400D01*
X144934281Y-105686963D01*
X144930111Y-105680666D01*
X144848843Y-105370586D01*
X144849670Y-105362440D01*
X144855635Y-105356831D01*
X145029478Y-105283896D01*
X145033999Y-105282987D01*
X145038523Y-105283897D01*
G37*
%TD.AperFunction*%
%TD*%
%TA.AperFunction,Conductor*%
%TO.N,/Core/PB6*%
G36*
X143502364Y-124461202D02*
G01*
X143635797Y-124594635D01*
X143638914Y-124600232D01*
X143638616Y-124606632D01*
X143156282Y-126043411D01*
X143152734Y-126048630D01*
X143146991Y-126051248D01*
X143140724Y-126050501D01*
X142370785Y-125732562D01*
X142366978Y-125730021D01*
X142364438Y-125726216D01*
X142046498Y-124956275D01*
X142045751Y-124950008D01*
X142048369Y-124944265D01*
X142053586Y-124940718D01*
X143490370Y-124458382D01*
X143496767Y-124458085D01*
X143502364Y-124461202D01*
G37*
%TD.AperFunction*%
%TD*%
%TA.AperFunction,Conductor*%
%TO.N,/Core/PB5*%
G36*
X141243629Y-126998382D02*
G01*
X142680411Y-127480717D01*
X142685630Y-127484265D01*
X142688248Y-127490008D01*
X142687501Y-127496275D01*
X142369562Y-128266214D01*
X142367021Y-128270021D01*
X142363214Y-128272562D01*
X141593275Y-128590501D01*
X141587008Y-128591248D01*
X141581265Y-128588630D01*
X141577717Y-128583411D01*
X141095382Y-127146629D01*
X141095085Y-127140232D01*
X141098200Y-127134637D01*
X141231637Y-127001200D01*
X141237232Y-126998085D01*
X141243629Y-126998382D01*
G37*
%TD.AperFunction*%
%TD*%
%TA.AperFunction,Conductor*%
%TO.N,/Core/PB5*%
G36*
X144530522Y-105791897D02*
G01*
X144664771Y-105848220D01*
X144704364Y-105864831D01*
X144710329Y-105870440D01*
X144711156Y-105878586D01*
X144629889Y-106188666D01*
X144625719Y-106194963D01*
X144618571Y-106197400D01*
X144433429Y-106197400D01*
X144426281Y-106194963D01*
X144422111Y-106188666D01*
X144340843Y-105878586D01*
X144341670Y-105870440D01*
X144347635Y-105864831D01*
X144521477Y-105791897D01*
X144526000Y-105790987D01*
X144530522Y-105791897D01*
G37*
%TD.AperFunction*%
%TD*%
%TA.AperFunction,Conductor*%
%TO.N,/Core/PB4*%
G36*
X143929457Y-106299897D02*
G01*
X144063706Y-106356220D01*
X144103299Y-106372831D01*
X144109264Y-106378440D01*
X144110091Y-106386586D01*
X144028824Y-106696666D01*
X144024654Y-106702963D01*
X144017506Y-106705400D01*
X143832364Y-106705400D01*
X143825216Y-106702963D01*
X143821046Y-106696666D01*
X143739778Y-106386586D01*
X143740605Y-106378440D01*
X143746570Y-106372831D01*
X143920412Y-106299897D01*
X143924935Y-106298987D01*
X143929457Y-106299897D01*
G37*
%TD.AperFunction*%
%TD*%
%TA.AperFunction,Conductor*%
%TO.N,/Core/PB4*%
G36*
X140962364Y-124461202D02*
G01*
X141095797Y-124594635D01*
X141098914Y-124600232D01*
X141098616Y-124606632D01*
X140941053Y-125075980D01*
X140938234Y-125080529D01*
X140919578Y-125099186D01*
X140916522Y-125101385D01*
X140911790Y-125103742D01*
X140878628Y-125140118D01*
X140878255Y-125140509D01*
X140863589Y-125155175D01*
X140860079Y-125160299D01*
X140859074Y-125161568D01*
X140835699Y-125187210D01*
X140828450Y-125205923D01*
X140827193Y-125208308D01*
X140815853Y-125224863D01*
X140807910Y-125258629D01*
X140807431Y-125260176D01*
X140794900Y-125292527D01*
X140794900Y-125312595D01*
X140794589Y-125315274D01*
X140789995Y-125334805D01*
X140794788Y-125369166D01*
X140794900Y-125370782D01*
X140794900Y-125509432D01*
X140794292Y-125513156D01*
X140616282Y-126043411D01*
X140612734Y-126048630D01*
X140606991Y-126051248D01*
X140600724Y-126050501D01*
X139830785Y-125732562D01*
X139826978Y-125730021D01*
X139824438Y-125726216D01*
X139506498Y-124956275D01*
X139505751Y-124950008D01*
X139508369Y-124944265D01*
X139513586Y-124940718D01*
X140950370Y-124458382D01*
X140956767Y-124458085D01*
X140962364Y-124461202D01*
G37*
%TD.AperFunction*%
%TD*%
%TA.AperFunction,Conductor*%
%TO.N,/Core/PB3*%
G36*
X138778731Y-127047559D02*
G01*
X138916363Y-127091361D01*
X140140154Y-127480842D01*
X140145469Y-127484354D01*
X140148156Y-127490133D01*
X140147415Y-127496463D01*
X139828856Y-128266512D01*
X139826316Y-128270315D01*
X139822511Y-128272853D01*
X139053633Y-128590353D01*
X139047249Y-128591081D01*
X139041443Y-128588327D01*
X139037968Y-128582925D01*
X138578358Y-127062093D01*
X138578483Y-127054939D01*
X138582747Y-127049195D01*
X138589559Y-127047008D01*
X138775183Y-127047008D01*
X138778731Y-127047559D01*
G37*
%TD.AperFunction*%
%TD*%
%TA.AperFunction,Conductor*%
%TO.N,/Core/PB3*%
G36*
X143387523Y-106680897D02*
G01*
X143496720Y-106726710D01*
X143561364Y-106753831D01*
X143567329Y-106759440D01*
X143568156Y-106767586D01*
X143486889Y-107077666D01*
X143482719Y-107083963D01*
X143475571Y-107086400D01*
X143293408Y-107086400D01*
X143287036Y-107084512D01*
X143282719Y-107079459D01*
X143281852Y-107072870D01*
X143283732Y-107060999D01*
X143263727Y-106934695D01*
X143218814Y-106846549D01*
X143217926Y-106844216D01*
X143197843Y-106767585D01*
X143198670Y-106759440D01*
X143204635Y-106753831D01*
X143378478Y-106680896D01*
X143382999Y-106679987D01*
X143387523Y-106680897D01*
G37*
%TD.AperFunction*%
%TD*%
%TA.AperFunction,Conductor*%
%TO.N,/Core/PA15*%
G36*
X133422061Y-124481483D02*
G01*
X133427805Y-124485747D01*
X133429992Y-124492559D01*
X133429992Y-124678183D01*
X133429441Y-124681731D01*
X132996158Y-126043152D01*
X132992645Y-126048469D01*
X132986866Y-126051156D01*
X132980536Y-126050415D01*
X132210487Y-125731856D01*
X132206684Y-125729316D01*
X132204146Y-125725511D01*
X131886646Y-124956633D01*
X131885918Y-124950249D01*
X131888672Y-124944443D01*
X131894072Y-124940968D01*
X133400387Y-124485747D01*
X133414907Y-124481359D01*
X133422061Y-124481483D01*
G37*
%TD.AperFunction*%
%TD*%
%TA.AperFunction,Conductor*%
%TO.N,/Core/PA15*%
G36*
X142879522Y-107061897D02*
G01*
X143013771Y-107118220D01*
X143053364Y-107134831D01*
X143059329Y-107140440D01*
X143060156Y-107148586D01*
X142978889Y-107458666D01*
X142974719Y-107464963D01*
X142967571Y-107467400D01*
X142782429Y-107467400D01*
X142775281Y-107464963D01*
X142771111Y-107458666D01*
X142689843Y-107148586D01*
X142690670Y-107140440D01*
X142696635Y-107134831D01*
X142870477Y-107061897D01*
X142875000Y-107060987D01*
X142879522Y-107061897D01*
G37*
%TD.AperFunction*%
%TD*%
%TA.AperFunction,Conductor*%
%TO.N,/Core/NRST*%
G36*
X126731485Y-97484862D02*
G01*
X127639091Y-97861787D01*
X127639310Y-97861878D01*
X127644271Y-97865782D01*
X127646481Y-97871696D01*
X127645297Y-97877897D01*
X126850829Y-99473735D01*
X126846515Y-99478468D01*
X126840355Y-99480221D01*
X126651495Y-99480221D01*
X126645429Y-99478525D01*
X126641120Y-99473930D01*
X125809021Y-97878001D01*
X125807726Y-97871751D01*
X125809905Y-97865750D01*
X125814909Y-97861787D01*
X126722514Y-97484862D01*
X126727000Y-97483968D01*
X126731485Y-97484862D01*
G37*
%TD.AperFunction*%
%TD*%
%TA.AperFunction,Conductor*%
%TO.N,/Core/NRST*%
G36*
X129639719Y-109959037D02*
G01*
X129643889Y-109965334D01*
X129725156Y-110275413D01*
X129724329Y-110283559D01*
X129718364Y-110289168D01*
X129544525Y-110362101D01*
X129539999Y-110363012D01*
X129535474Y-110362101D01*
X129494434Y-110344883D01*
X129361635Y-110289168D01*
X129355670Y-110283559D01*
X129354843Y-110275413D01*
X129436111Y-109965334D01*
X129440281Y-109959037D01*
X129447429Y-109956600D01*
X129632571Y-109956600D01*
X129639719Y-109959037D01*
G37*
%TD.AperFunction*%
%TD*%
%TA.AperFunction,Conductor*%
%TO.N,VDD*%
G36*
X132846508Y-111379883D02*
G01*
X133109823Y-111489902D01*
X133115786Y-111495485D01*
X133116642Y-111503611D01*
X132996659Y-111970214D01*
X132992497Y-111976546D01*
X132985328Y-111979000D01*
X132698672Y-111979000D01*
X132691503Y-111976546D01*
X132687341Y-111970214D01*
X132649154Y-111821712D01*
X132567357Y-111503609D01*
X132568213Y-111495485D01*
X132574174Y-111489903D01*
X132837493Y-111379882D01*
X132841999Y-111378980D01*
X132846508Y-111379883D01*
G37*
%TD.AperFunction*%
%TD*%
%TA.AperFunction,Conductor*%
%TO.N,VDD*%
G36*
X138756309Y-113270588D02*
G01*
X139171088Y-113515685D01*
X139176228Y-113522036D01*
X139175959Y-113530202D01*
X139067563Y-113794184D01*
X139065013Y-113798013D01*
X139061184Y-113800563D01*
X138797202Y-113908959D01*
X138789036Y-113909228D01*
X138782685Y-113904088D01*
X138537588Y-113489309D01*
X138536054Y-113481889D01*
X138539387Y-113475085D01*
X138742085Y-113272387D01*
X138748889Y-113269054D01*
X138756309Y-113270588D01*
G37*
%TD.AperFunction*%
%TD*%
%TA.AperFunction,Conductor*%
%TO.N,/Core/PA8*%
G36*
X131083629Y-126998382D02*
G01*
X132520411Y-127480717D01*
X132525630Y-127484265D01*
X132528248Y-127490008D01*
X132527501Y-127496275D01*
X132209562Y-128266214D01*
X132207021Y-128270021D01*
X132203214Y-128272562D01*
X131433275Y-128590501D01*
X131427008Y-128591248D01*
X131421265Y-128588630D01*
X131417717Y-128583411D01*
X130935382Y-127146629D01*
X130935085Y-127140232D01*
X130938200Y-127134637D01*
X131071637Y-127001200D01*
X131077232Y-126998085D01*
X131083629Y-126998382D01*
G37*
%TD.AperFunction*%
%TD*%
%TA.AperFunction,Conductor*%
%TO.N,VDD*%
G36*
X132992497Y-110781454D02*
G01*
X132996659Y-110787786D01*
X133116642Y-111254388D01*
X133115786Y-111262514D01*
X133109822Y-111268098D01*
X132846511Y-111378115D01*
X132842000Y-111379019D01*
X132837489Y-111378115D01*
X132574177Y-111268098D01*
X132568213Y-111262514D01*
X132567357Y-111254390D01*
X132687340Y-110787786D01*
X132691503Y-110781454D01*
X132698672Y-110779000D01*
X132985328Y-110779000D01*
X132992497Y-110781454D01*
G37*
%TD.AperFunction*%
%TD*%
%TA.AperFunction,Conductor*%
%TO.N,VDD*%
G36*
X132846507Y-108204883D02*
G01*
X133109823Y-108314902D01*
X133115786Y-108320485D01*
X133116642Y-108328611D01*
X132996659Y-108795214D01*
X132992497Y-108801546D01*
X132985328Y-108804000D01*
X132698672Y-108804000D01*
X132691503Y-108801546D01*
X132687341Y-108795214D01*
X132649154Y-108646712D01*
X132567357Y-108328609D01*
X132568213Y-108320485D01*
X132574174Y-108314903D01*
X132837492Y-108204883D01*
X132842000Y-108203980D01*
X132846507Y-108204883D01*
G37*
%TD.AperFunction*%
%TD*%
%TA.AperFunction,Conductor*%
%TO.N,VDD*%
G36*
X156347514Y-111994213D02*
G01*
X156353098Y-112000177D01*
X156463115Y-112263488D01*
X156464019Y-112267999D01*
X156463115Y-112272510D01*
X156353098Y-112535822D01*
X156347514Y-112541786D01*
X156339388Y-112542642D01*
X155872786Y-112422659D01*
X155866454Y-112418497D01*
X155864000Y-112411328D01*
X155864000Y-112124672D01*
X155866454Y-112117503D01*
X155872786Y-112113341D01*
X155984595Y-112084589D01*
X156339390Y-111993357D01*
X156347514Y-111994213D01*
G37*
%TD.AperFunction*%
%TD*%
%TA.AperFunction,Conductor*%
%TO.N,VDD*%
G36*
X150937712Y-113599154D02*
G01*
X151086214Y-113637341D01*
X151092546Y-113641503D01*
X151095000Y-113648672D01*
X151095000Y-113935328D01*
X151092546Y-113942497D01*
X151086214Y-113946659D01*
X150619611Y-114066642D01*
X150611485Y-114065786D01*
X150605902Y-114059823D01*
X150495883Y-113796507D01*
X150494980Y-113792000D01*
X150495883Y-113787492D01*
X150605903Y-113524174D01*
X150611485Y-113518213D01*
X150619609Y-113517357D01*
X150937712Y-113599154D01*
G37*
%TD.AperFunction*%
%TD*%
%TA.AperFunction,Conductor*%
%TO.N,+5V*%
G36*
X171835508Y-105791883D02*
G01*
X172098823Y-105901902D01*
X172104786Y-105907485D01*
X172105642Y-105915611D01*
X171985659Y-106382214D01*
X171981497Y-106388546D01*
X171974328Y-106391000D01*
X171687672Y-106391000D01*
X171680503Y-106388546D01*
X171676341Y-106382214D01*
X171638154Y-106233712D01*
X171556357Y-105915609D01*
X171557213Y-105907485D01*
X171563174Y-105901903D01*
X171826493Y-105791882D01*
X171830999Y-105790980D01*
X171835508Y-105791883D01*
G37*
%TD.AperFunction*%
%TD*%
%TA.AperFunction,Conductor*%
%TO.N,+5V*%
G36*
X165288712Y-100010154D02*
G01*
X165437214Y-100048341D01*
X165443546Y-100052503D01*
X165446000Y-100059672D01*
X165446000Y-100346328D01*
X165443546Y-100353497D01*
X165437214Y-100357659D01*
X164970611Y-100477642D01*
X164962485Y-100476786D01*
X164956902Y-100470823D01*
X164846883Y-100207507D01*
X164845980Y-100203000D01*
X164846883Y-100198492D01*
X164956903Y-99935174D01*
X164962485Y-99929213D01*
X164970609Y-99928357D01*
X165288712Y-100010154D01*
G37*
%TD.AperFunction*%
%TD*%
%TA.AperFunction,Conductor*%
%TO.N,+5V*%
G36*
X171981497Y-105193454D02*
G01*
X171985659Y-105199786D01*
X172105642Y-105666388D01*
X172104786Y-105674514D01*
X172098822Y-105680098D01*
X171835510Y-105790115D01*
X171830999Y-105791019D01*
X171826488Y-105790115D01*
X171563176Y-105680097D01*
X171557213Y-105674514D01*
X171556357Y-105666390D01*
X171676340Y-105199786D01*
X171680503Y-105193454D01*
X171687672Y-105191000D01*
X171974328Y-105191000D01*
X171981497Y-105193454D01*
G37*
%TD.AperFunction*%
%TD*%
%TA.AperFunction,Conductor*%
%TO.N,+5V*%
G36*
X174431960Y-110712223D02*
G01*
X176109333Y-111413506D01*
X176115635Y-111419836D01*
X176115634Y-111428768D01*
X175770562Y-112264215D01*
X175768021Y-112268021D01*
X175764215Y-112270562D01*
X174928768Y-112615634D01*
X174919836Y-112615635D01*
X174913506Y-112609333D01*
X174212223Y-110931960D01*
X174211539Y-110925183D01*
X174214743Y-110919176D01*
X174419176Y-110714743D01*
X174425183Y-110711539D01*
X174431960Y-110712223D01*
G37*
%TD.AperFunction*%
%TD*%
%TA.AperFunction,Conductor*%
%TO.N,Net-(U3-SPLIT)*%
G36*
X165747012Y-124586935D02*
G01*
X165753251Y-124588774D01*
X165757544Y-124593662D01*
X165758564Y-124600086D01*
X165710681Y-124983151D01*
X165706814Y-124990471D01*
X165699071Y-124993400D01*
X165414929Y-124993400D01*
X165407186Y-124990471D01*
X165403319Y-124983151D01*
X165396478Y-124928427D01*
X165355435Y-124600083D01*
X165356455Y-124593662D01*
X165360748Y-124588774D01*
X165366986Y-124586935D01*
X165557000Y-124586000D01*
X165747012Y-124586935D01*
G37*
%TD.AperFunction*%
%TD*%
%TA.AperFunction,Conductor*%
%TO.N,Net-(U3-SPLIT)*%
G36*
X165707003Y-128122991D02*
G01*
X165710960Y-128130060D01*
X165771073Y-128510541D01*
X165770211Y-128517111D01*
X165765919Y-128522159D01*
X165759574Y-128524067D01*
X165570058Y-128524999D01*
X165569942Y-128524999D01*
X165379582Y-128524062D01*
X165373445Y-128522287D01*
X165369155Y-128517553D01*
X165367991Y-128511272D01*
X165368060Y-128510541D01*
X165403606Y-128130796D01*
X165407378Y-128123236D01*
X165415256Y-128120186D01*
X165699403Y-128120186D01*
X165707003Y-128122991D01*
G37*
%TD.AperFunction*%
%TD*%
%TA.AperFunction,Conductor*%
%TO.N,/Core/SWDIO*%
G36*
X153562662Y-109208846D02*
G01*
X153567908Y-109212063D01*
X153814312Y-109474134D01*
X153817487Y-109482327D01*
X153814061Y-109490420D01*
X153683179Y-109621302D01*
X153677931Y-109624331D01*
X153671871Y-109624329D01*
X153351057Y-109538174D01*
X153345475Y-109534788D01*
X153342576Y-109528938D01*
X153343261Y-109522448D01*
X153414391Y-109348497D01*
X153416986Y-109344615D01*
X153551155Y-109211761D01*
X153556509Y-109208736D01*
X153562662Y-109208846D01*
G37*
%TD.AperFunction*%
%TD*%
%TA.AperFunction,Conductor*%
%TO.N,/Core/SWDIO*%
G36*
X154986265Y-110643345D02*
G01*
X155262991Y-110805140D01*
X155268167Y-110811484D01*
X155267916Y-110819668D01*
X155196565Y-110994163D01*
X155194008Y-110998008D01*
X155190163Y-111000565D01*
X155015668Y-111071916D01*
X155007484Y-111072167D01*
X155001140Y-111066991D01*
X154839345Y-110790265D01*
X154837842Y-110782868D01*
X154841172Y-110776091D01*
X154972091Y-110645172D01*
X154978868Y-110641842D01*
X154986265Y-110643345D01*
G37*
%TD.AperFunction*%
%TD*%
%TA.AperFunction,Conductor*%
%TO.N,/Core/SWCLK*%
G36*
X157273598Y-110316467D02*
G01*
X157279050Y-110322353D01*
X157352101Y-110496474D01*
X157353012Y-110501000D01*
X157352101Y-110505526D01*
X157279301Y-110679049D01*
X157273519Y-110685098D01*
X157265175Y-110685737D01*
X156957151Y-110594088D01*
X156951109Y-110589869D01*
X156948788Y-110582874D01*
X156948788Y-110397713D01*
X156951334Y-110390426D01*
X156957863Y-110386311D01*
X157265639Y-110315477D01*
X157273598Y-110316467D01*
G37*
%TD.AperFunction*%
%TD*%
%TA.AperFunction,Conductor*%
%TO.N,/Core/SWCLK*%
G36*
X154116859Y-108643008D02*
G01*
X154278653Y-108919732D01*
X154280157Y-108927131D01*
X154276826Y-108933909D01*
X154145909Y-109064826D01*
X154139131Y-109068157D01*
X154131732Y-109066653D01*
X153855008Y-108904859D01*
X153849832Y-108898515D01*
X153850083Y-108890331D01*
X153921437Y-108715830D01*
X153923991Y-108711991D01*
X153927830Y-108709437D01*
X154102331Y-108638082D01*
X154110515Y-108637832D01*
X154116859Y-108643008D01*
G37*
%TD.AperFunction*%
%TD*%
%TA.AperFunction,Conductor*%
%TO.N,Net-(J4-CC2)*%
G36*
X167930012Y-98821377D02*
G01*
X168379713Y-99032107D01*
X168385650Y-99038454D01*
X168385571Y-99047145D01*
X168277563Y-99310184D01*
X168275013Y-99314013D01*
X168271184Y-99316563D01*
X168008145Y-99424571D01*
X167999454Y-99424650D01*
X167993107Y-99418713D01*
X167782377Y-98969012D01*
X167781447Y-98962026D01*
X167784696Y-98955776D01*
X167916776Y-98823696D01*
X167923026Y-98820447D01*
X167930012Y-98821377D01*
G37*
%TD.AperFunction*%
%TD*%
%TA.AperFunction,Conductor*%
%TO.N,Net-(J4-CC2)*%
G36*
X165143028Y-98259725D02*
G01*
X165311281Y-98320607D01*
X165316878Y-98324889D01*
X165319000Y-98331609D01*
X165319000Y-98518391D01*
X165316878Y-98525111D01*
X165311281Y-98529393D01*
X164844285Y-98698371D01*
X164835598Y-98698081D01*
X164829508Y-98691880D01*
X164719883Y-98429507D01*
X164718980Y-98425000D01*
X164719883Y-98420492D01*
X164829508Y-98158118D01*
X164835598Y-98151918D01*
X164844285Y-98151628D01*
X165143028Y-98259725D01*
G37*
%TD.AperFunction*%
%TD*%
M02*
