%TF.GenerationSoftware,KiCad,Pcbnew,7.0.1*%
%TF.CreationDate,2023-04-25T22:28:34+08:00*%
%TF.ProjectId,MM32F0140_CAN_Core,4d4d3332-4630-4313-9430-5f43414e5f43,rev?*%
%TF.SameCoordinates,Original*%
%TF.FileFunction,Legend,Bot*%
%TF.FilePolarity,Positive*%
%FSLAX46Y46*%
G04 Gerber Fmt 4.6, Leading zero omitted, Abs format (unit mm)*
G04 Created by KiCad (PCBNEW 7.0.1) date 2023-04-25 22:28:34*
%MOMM*%
%LPD*%
G01*
G04 APERTURE LIST*
G04 Aperture macros list*
%AMRoundRect*
0 Rectangle with rounded corners*
0 $1 Rounding radius*
0 $2 $3 $4 $5 $6 $7 $8 $9 X,Y pos of 4 corners*
0 Add a 4 corners polygon primitive as box body*
4,1,4,$2,$3,$4,$5,$6,$7,$8,$9,$2,$3,0*
0 Add four circle primitives for the rounded corners*
1,1,$1+$1,$2,$3*
1,1,$1+$1,$4,$5*
1,1,$1+$1,$6,$7*
1,1,$1+$1,$8,$9*
0 Add four rect primitives between the rounded corners*
20,1,$1+$1,$2,$3,$4,$5,0*
20,1,$1+$1,$4,$5,$6,$7,0*
20,1,$1+$1,$6,$7,$8,$9,0*
20,1,$1+$1,$8,$9,$2,$3,0*%
G04 Aperture macros list end*
%ADD10R,1.700000X1.700000*%
%ADD11O,1.700000X1.700000*%
%ADD12C,2.700000*%
%ADD13RoundRect,0.250001X-1.099999X1.099999X-1.099999X-1.099999X1.099999X-1.099999X1.099999X1.099999X0*%
%ADD14C,2.000000*%
%ADD15C,0.650000*%
%ADD16O,1.000000X2.100000*%
%ADD17O,1.000000X1.600000*%
%ADD18C,1.500000*%
G04 APERTURE END LIST*
%LPC*%
D10*
%TO.C,J2*%
X122047000Y-128270000D03*
D11*
X122047000Y-125730000D03*
X124587000Y-128270000D03*
X124587000Y-125730000D03*
X127127000Y-128270000D03*
X127127000Y-125730000D03*
X129667000Y-128270000D03*
X129667000Y-125730000D03*
X132207000Y-128270000D03*
X132207000Y-125730000D03*
X134747000Y-128270000D03*
X134747000Y-125730000D03*
X137287000Y-128270000D03*
X137287000Y-125730000D03*
X139827000Y-128270000D03*
X139827000Y-125730000D03*
X142367000Y-128270000D03*
X142367000Y-125730000D03*
X144907000Y-128270000D03*
X144907000Y-125730000D03*
%TD*%
D12*
%TO.C,J5*%
X177165000Y-128825000D03*
D13*
X177165000Y-123825000D03*
%TD*%
D14*
%TO.C,SW2*%
X137958000Y-97484000D03*
X137958000Y-90984000D03*
X142458000Y-97484000D03*
X142458000Y-90984000D03*
%TD*%
D15*
%TO.C,J4*%
X169133000Y-94867000D03*
X163353000Y-94867000D03*
D16*
X170563000Y-95397000D03*
D17*
X170563000Y-91217000D03*
D16*
X161923000Y-95397000D03*
D17*
X161923000Y-91217000D03*
%TD*%
D14*
%TO.C,SW1*%
X126727000Y-97484000D03*
X126727000Y-90984000D03*
X131227000Y-97484000D03*
X131227000Y-90984000D03*
%TD*%
D10*
%TO.C,J1*%
X175768000Y-112268000D03*
D11*
X175768000Y-109728000D03*
X175768000Y-107188000D03*
X175768000Y-104648000D03*
%TD*%
D18*
%TO.C,Y1*%
X123952000Y-104856000D03*
X123952000Y-109736000D03*
%TD*%
D10*
%TO.C,J3*%
X156718000Y-90424000D03*
D11*
X154178000Y-90424000D03*
X151638000Y-90424000D03*
X149098000Y-90424000D03*
%TD*%
M02*
