%TF.GenerationSoftware,KiCad,Pcbnew,7.0.1*%
%TF.CreationDate,2023-04-25T22:28:34+08:00*%
%TF.ProjectId,MM32F0140_CAN_Core,4d4d3332-4630-4313-9430-5f43414e5f43,rev?*%
%TF.SameCoordinates,Original*%
%TF.FileFunction,Paste,Top*%
%TF.FilePolarity,Positive*%
%FSLAX46Y46*%
G04 Gerber Fmt 4.6, Leading zero omitted, Abs format (unit mm)*
G04 Created by KiCad (PCBNEW 7.0.1) date 2023-04-25 22:28:34*
%MOMM*%
%LPD*%
G01*
G04 APERTURE LIST*
G04 Aperture macros list*
%AMRoundRect*
0 Rectangle with rounded corners*
0 $1 Rounding radius*
0 $2 $3 $4 $5 $6 $7 $8 $9 X,Y pos of 4 corners*
0 Add a 4 corners polygon primitive as box body*
4,1,4,$2,$3,$4,$5,$6,$7,$8,$9,$2,$3,0*
0 Add four circle primitives for the rounded corners*
1,1,$1+$1,$2,$3*
1,1,$1+$1,$4,$5*
1,1,$1+$1,$6,$7*
1,1,$1+$1,$8,$9*
0 Add four rect primitives between the rounded corners*
20,1,$1+$1,$2,$3,$4,$5,0*
20,1,$1+$1,$4,$5,$6,$7,0*
20,1,$1+$1,$6,$7,$8,$9,0*
20,1,$1+$1,$8,$9,$2,$3,0*%
G04 Aperture macros list end*
%ADD10RoundRect,0.150000X-0.150000X0.825000X-0.150000X-0.825000X0.150000X-0.825000X0.150000X0.825000X0*%
%ADD11RoundRect,0.160000X0.160000X-0.197500X0.160000X0.197500X-0.160000X0.197500X-0.160000X-0.197500X0*%
%ADD12RoundRect,0.150000X-0.825000X-0.150000X0.825000X-0.150000X0.825000X0.150000X-0.825000X0.150000X0*%
%ADD13RoundRect,0.250000X-0.400000X-1.075000X0.400000X-1.075000X0.400000X1.075000X-0.400000X1.075000X0*%
%ADD14RoundRect,0.160000X-0.197500X-0.160000X0.197500X-0.160000X0.197500X0.160000X-0.197500X0.160000X0*%
%ADD15RoundRect,0.250000X0.350000X0.450000X-0.350000X0.450000X-0.350000X-0.450000X0.350000X-0.450000X0*%
%ADD16RoundRect,0.155000X0.155000X-0.212500X0.155000X0.212500X-0.155000X0.212500X-0.155000X-0.212500X0*%
%ADD17RoundRect,0.155000X0.212500X0.155000X-0.212500X0.155000X-0.212500X-0.155000X0.212500X-0.155000X0*%
%ADD18RoundRect,0.237500X-0.237500X0.300000X-0.237500X-0.300000X0.237500X-0.300000X0.237500X0.300000X0*%
%ADD19RoundRect,0.250000X-0.450000X0.325000X-0.450000X-0.325000X0.450000X-0.325000X0.450000X0.325000X0*%
%ADD20RoundRect,0.160000X-0.160000X0.197500X-0.160000X-0.197500X0.160000X-0.197500X0.160000X0.197500X0*%
%ADD21RoundRect,0.155000X-0.155000X0.212500X-0.155000X-0.212500X0.155000X-0.212500X0.155000X0.212500X0*%
%ADD22R,0.600000X1.450000*%
%ADD23R,0.300000X1.450000*%
%ADD24RoundRect,0.155000X-0.212500X-0.155000X0.212500X-0.155000X0.212500X0.155000X-0.212500X0.155000X0*%
%ADD25RoundRect,0.237500X0.300000X0.237500X-0.300000X0.237500X-0.300000X-0.237500X0.300000X-0.237500X0*%
%ADD26R,2.000000X1.500000*%
%ADD27R,2.000000X3.800000*%
%ADD28RoundRect,0.250000X0.450000X-0.350000X0.450000X0.350000X-0.450000X0.350000X-0.450000X-0.350000X0*%
%ADD29RoundRect,0.250000X0.400000X1.075000X-0.400000X1.075000X-0.400000X-1.075000X0.400000X-1.075000X0*%
%ADD30RoundRect,0.250000X-0.412500X-1.100000X0.412500X-1.100000X0.412500X1.100000X-0.412500X1.100000X0*%
%ADD31RoundRect,0.237500X0.237500X-0.300000X0.237500X0.300000X-0.237500X0.300000X-0.237500X-0.300000X0*%
%ADD32RoundRect,0.125000X-0.625000X-0.125000X0.625000X-0.125000X0.625000X0.125000X-0.625000X0.125000X0*%
%ADD33RoundRect,0.125000X-0.125000X-0.625000X0.125000X-0.625000X0.125000X0.625000X-0.125000X0.625000X0*%
G04 APERTURE END LIST*
D10*
%TO.C,U1*%
X171831000Y-102681000D03*
X170561000Y-102681000D03*
X169291000Y-102681000D03*
X168021000Y-102681000D03*
X166751000Y-102681000D03*
X165481000Y-102681000D03*
X164211000Y-102681000D03*
X162941000Y-102681000D03*
X162941000Y-107631000D03*
X164211000Y-107631000D03*
X165481000Y-107631000D03*
X166751000Y-107631000D03*
X168021000Y-107631000D03*
X169291000Y-107631000D03*
X170561000Y-107631000D03*
X171831000Y-107631000D03*
%TD*%
D11*
%TO.C,R6*%
X133890666Y-101532500D03*
X133890666Y-100337500D03*
%TD*%
D12*
%TO.C,U3*%
X158256000Y-124714000D03*
X158256000Y-125984000D03*
X158256000Y-127254000D03*
X158256000Y-128524000D03*
X163206000Y-128524000D03*
X163206000Y-127254000D03*
X163206000Y-125984000D03*
X163206000Y-124714000D03*
%TD*%
D13*
%TO.C,R16*%
X167055000Y-129413000D03*
X170155000Y-129413000D03*
%TD*%
D14*
%TO.C,R15*%
X158888500Y-123051000D03*
X160083500Y-123051000D03*
%TD*%
D15*
%TO.C,R13*%
X150352000Y-118745000D03*
X148352000Y-118745000D03*
%TD*%
D16*
%TO.C,C16*%
X156159000Y-126932500D03*
X156159000Y-125797500D03*
%TD*%
D17*
%TO.C,C3*%
X131699000Y-111506000D03*
X130564000Y-111506000D03*
%TD*%
D18*
%TO.C,C1*%
X148717000Y-113792000D03*
X148717000Y-115517000D03*
%TD*%
D19*
%TO.C,D1*%
X150082250Y-93819500D03*
X150082250Y-95869500D03*
%TD*%
D20*
%TO.C,R5*%
X136053000Y-100337500D03*
X136053000Y-101532500D03*
%TD*%
D21*
%TO.C,C5*%
X129576000Y-100347500D03*
X129576000Y-101482500D03*
%TD*%
D16*
%TO.C,C7*%
X127762000Y-109795500D03*
X127762000Y-108660500D03*
%TD*%
D21*
%TO.C,C6*%
X127762000Y-104910000D03*
X127762000Y-106045000D03*
%TD*%
D17*
%TO.C,C9*%
X163762500Y-98617000D03*
X162627500Y-98617000D03*
%TD*%
D21*
%TO.C,C13*%
X155575000Y-118364000D03*
X155575000Y-119499000D03*
%TD*%
D16*
%TO.C,C4*%
X131699000Y-108204000D03*
X131699000Y-107069000D03*
%TD*%
D22*
%TO.C,J4*%
X169493000Y-96312000D03*
X168693000Y-96312000D03*
D23*
X167493000Y-96312000D03*
X166493000Y-96312000D03*
X165993000Y-96312000D03*
X164993000Y-96312000D03*
D22*
X163793000Y-96312000D03*
X162993000Y-96312000D03*
X162993000Y-96312000D03*
X163793000Y-96312000D03*
D23*
X164493000Y-96312000D03*
X165493000Y-96312000D03*
X166993000Y-96312000D03*
X167993000Y-96312000D03*
D22*
X168693000Y-96312000D03*
X169493000Y-96312000D03*
%TD*%
D16*
%TO.C,C14*%
X155702000Y-116078000D03*
X155702000Y-114943000D03*
%TD*%
D19*
%TO.C,D4*%
X147447000Y-93819500D03*
X147447000Y-95869500D03*
%TD*%
D14*
%TO.C,R17*%
X161505000Y-123063000D03*
X162700000Y-123063000D03*
%TD*%
D24*
%TO.C,C11*%
X170763000Y-100649000D03*
X171898000Y-100649000D03*
%TD*%
D25*
%TO.C,C8*%
X163707500Y-100141000D03*
X161982500Y-100141000D03*
%TD*%
D26*
%TO.C,U2*%
X158267000Y-113778000D03*
X158267000Y-116078000D03*
D27*
X164567000Y-116078000D03*
D26*
X158267000Y-118378000D03*
%TD*%
D28*
%TO.C,R12*%
X168021000Y-116062000D03*
X168021000Y-114062000D03*
%TD*%
D29*
%TO.C,R14*%
X170155000Y-123317000D03*
X167055000Y-123317000D03*
%TD*%
D11*
%TO.C,R2*%
X150082250Y-101906000D03*
X150082250Y-100711000D03*
%TD*%
%TO.C,R8*%
X157988000Y-101906000D03*
X157988000Y-100711000D03*
%TD*%
%TO.C,R4*%
X155352750Y-101906000D03*
X155352750Y-100711000D03*
%TD*%
D18*
%TO.C,C12*%
X154178000Y-118364000D03*
X154178000Y-120089000D03*
%TD*%
D21*
%TO.C,C2*%
X146685000Y-113792000D03*
X146685000Y-114927000D03*
%TD*%
D11*
%TO.C,R3*%
X152717500Y-101906000D03*
X152717500Y-100711000D03*
%TD*%
D30*
%TO.C,C17*%
X167042500Y-119888000D03*
X170167500Y-119888000D03*
%TD*%
D14*
%TO.C,R9*%
X170763000Y-99379000D03*
X171958000Y-99379000D03*
%TD*%
D28*
%TO.C,R11*%
X170307000Y-116078000D03*
X170307000Y-114078000D03*
%TD*%
D31*
%TO.C,C15*%
X154178000Y-116078000D03*
X154178000Y-114353000D03*
%TD*%
D19*
%TO.C,D2*%
X152717500Y-93819500D03*
X152717500Y-95869500D03*
%TD*%
%TO.C,D3*%
X155352750Y-93819500D03*
X155352750Y-95869500D03*
%TD*%
D11*
%TO.C,R7*%
X147447000Y-101906000D03*
X147447000Y-100711000D03*
%TD*%
D19*
%TO.C,D5*%
X157988000Y-93819500D03*
X157988000Y-95869500D03*
%TD*%
D14*
%TO.C,R10*%
X170763000Y-98363000D03*
X171958000Y-98363000D03*
%TD*%
D11*
%TO.C,R1*%
X131728333Y-101532500D03*
X131728333Y-100337500D03*
%TD*%
D32*
%TO.C,IC1*%
X134382000Y-108198000D03*
X134382000Y-108998000D03*
X134382000Y-109798000D03*
X134382000Y-110598000D03*
X134382000Y-111398000D03*
X134382000Y-112198000D03*
X134382000Y-112998000D03*
X134382000Y-113798000D03*
D33*
X135757000Y-115173000D03*
X136557000Y-115173000D03*
X137357000Y-115173000D03*
X138157000Y-115173000D03*
X138957000Y-115173000D03*
X139757000Y-115173000D03*
X140557000Y-115173000D03*
X141357000Y-115173000D03*
D32*
X142732000Y-113798000D03*
X142732000Y-112998000D03*
X142732000Y-112198000D03*
X142732000Y-111398000D03*
X142732000Y-110598000D03*
X142732000Y-109798000D03*
X142732000Y-108998000D03*
X142732000Y-108198000D03*
D33*
X141357000Y-106823000D03*
X140557000Y-106823000D03*
X139757000Y-106823000D03*
X138957000Y-106823000D03*
X138157000Y-106823000D03*
X137357000Y-106823000D03*
X136557000Y-106823000D03*
X135757000Y-106823000D03*
%TD*%
D17*
%TO.C,C10*%
X171831000Y-109855000D03*
X170696000Y-109855000D03*
%TD*%
M02*
