%TF.GenerationSoftware,KiCad,Pcbnew,7.0.1*%
%TF.CreationDate,2023-04-25T22:28:34+08:00*%
%TF.ProjectId,MM32F0140_CAN_Core,4d4d3332-4630-4313-9430-5f43414e5f43,rev?*%
%TF.SameCoordinates,Original*%
%TF.FileFunction,Copper,L1,Top*%
%TF.FilePolarity,Positive*%
%FSLAX46Y46*%
G04 Gerber Fmt 4.6, Leading zero omitted, Abs format (unit mm)*
G04 Created by KiCad (PCBNEW 7.0.1) date 2023-04-25 22:28:34*
%MOMM*%
%LPD*%
G01*
G04 APERTURE LIST*
G04 Aperture macros list*
%AMRoundRect*
0 Rectangle with rounded corners*
0 $1 Rounding radius*
0 $2 $3 $4 $5 $6 $7 $8 $9 X,Y pos of 4 corners*
0 Add a 4 corners polygon primitive as box body*
4,1,4,$2,$3,$4,$5,$6,$7,$8,$9,$2,$3,0*
0 Add four circle primitives for the rounded corners*
1,1,$1+$1,$2,$3*
1,1,$1+$1,$4,$5*
1,1,$1+$1,$6,$7*
1,1,$1+$1,$8,$9*
0 Add four rect primitives between the rounded corners*
20,1,$1+$1,$2,$3,$4,$5,0*
20,1,$1+$1,$4,$5,$6,$7,0*
20,1,$1+$1,$6,$7,$8,$9,0*
20,1,$1+$1,$8,$9,$2,$3,0*%
G04 Aperture macros list end*
%TA.AperFunction,SMDPad,CuDef*%
%ADD10RoundRect,0.150000X-0.150000X0.825000X-0.150000X-0.825000X0.150000X-0.825000X0.150000X0.825000X0*%
%TD*%
%TA.AperFunction,SMDPad,CuDef*%
%ADD11RoundRect,0.160000X0.160000X-0.197500X0.160000X0.197500X-0.160000X0.197500X-0.160000X-0.197500X0*%
%TD*%
%TA.AperFunction,SMDPad,CuDef*%
%ADD12RoundRect,0.150000X-0.825000X-0.150000X0.825000X-0.150000X0.825000X0.150000X-0.825000X0.150000X0*%
%TD*%
%TA.AperFunction,ComponentPad*%
%ADD13R,1.700000X1.700000*%
%TD*%
%TA.AperFunction,ComponentPad*%
%ADD14O,1.700000X1.700000*%
%TD*%
%TA.AperFunction,SMDPad,CuDef*%
%ADD15RoundRect,0.250000X-0.400000X-1.075000X0.400000X-1.075000X0.400000X1.075000X-0.400000X1.075000X0*%
%TD*%
%TA.AperFunction,SMDPad,CuDef*%
%ADD16RoundRect,0.160000X-0.197500X-0.160000X0.197500X-0.160000X0.197500X0.160000X-0.197500X0.160000X0*%
%TD*%
%TA.AperFunction,SMDPad,CuDef*%
%ADD17RoundRect,0.250000X0.350000X0.450000X-0.350000X0.450000X-0.350000X-0.450000X0.350000X-0.450000X0*%
%TD*%
%TA.AperFunction,SMDPad,CuDef*%
%ADD18RoundRect,0.155000X0.155000X-0.212500X0.155000X0.212500X-0.155000X0.212500X-0.155000X-0.212500X0*%
%TD*%
%TA.AperFunction,SMDPad,CuDef*%
%ADD19RoundRect,0.155000X0.212500X0.155000X-0.212500X0.155000X-0.212500X-0.155000X0.212500X-0.155000X0*%
%TD*%
%TA.AperFunction,SMDPad,CuDef*%
%ADD20RoundRect,0.237500X-0.237500X0.300000X-0.237500X-0.300000X0.237500X-0.300000X0.237500X0.300000X0*%
%TD*%
%TA.AperFunction,SMDPad,CuDef*%
%ADD21RoundRect,0.250000X-0.450000X0.325000X-0.450000X-0.325000X0.450000X-0.325000X0.450000X0.325000X0*%
%TD*%
%TA.AperFunction,SMDPad,CuDef*%
%ADD22RoundRect,0.160000X-0.160000X0.197500X-0.160000X-0.197500X0.160000X-0.197500X0.160000X0.197500X0*%
%TD*%
%TA.AperFunction,ComponentPad*%
%ADD23C,2.700000*%
%TD*%
%TA.AperFunction,ComponentPad*%
%ADD24RoundRect,0.250001X-1.099999X1.099999X-1.099999X-1.099999X1.099999X-1.099999X1.099999X1.099999X0*%
%TD*%
%TA.AperFunction,SMDPad,CuDef*%
%ADD25RoundRect,0.155000X-0.155000X0.212500X-0.155000X-0.212500X0.155000X-0.212500X0.155000X0.212500X0*%
%TD*%
%TA.AperFunction,ComponentPad*%
%ADD26C,2.000000*%
%TD*%
%TA.AperFunction,SMDPad,CuDef*%
%ADD27R,0.600000X1.450000*%
%TD*%
%TA.AperFunction,SMDPad,CuDef*%
%ADD28R,0.300000X1.450000*%
%TD*%
%TA.AperFunction,ComponentPad*%
%ADD29O,1.000000X2.100000*%
%TD*%
%TA.AperFunction,ComponentPad*%
%ADD30O,1.000000X1.600000*%
%TD*%
%TA.AperFunction,SMDPad,CuDef*%
%ADD31RoundRect,0.155000X-0.212500X-0.155000X0.212500X-0.155000X0.212500X0.155000X-0.212500X0.155000X0*%
%TD*%
%TA.AperFunction,SMDPad,CuDef*%
%ADD32RoundRect,0.237500X0.300000X0.237500X-0.300000X0.237500X-0.300000X-0.237500X0.300000X-0.237500X0*%
%TD*%
%TA.AperFunction,SMDPad,CuDef*%
%ADD33R,2.000000X1.500000*%
%TD*%
%TA.AperFunction,SMDPad,CuDef*%
%ADD34R,2.000000X3.800000*%
%TD*%
%TA.AperFunction,SMDPad,CuDef*%
%ADD35RoundRect,0.250000X0.450000X-0.350000X0.450000X0.350000X-0.450000X0.350000X-0.450000X-0.350000X0*%
%TD*%
%TA.AperFunction,SMDPad,CuDef*%
%ADD36RoundRect,0.250000X0.400000X1.075000X-0.400000X1.075000X-0.400000X-1.075000X0.400000X-1.075000X0*%
%TD*%
%TA.AperFunction,SMDPad,CuDef*%
%ADD37RoundRect,0.250000X-0.412500X-1.100000X0.412500X-1.100000X0.412500X1.100000X-0.412500X1.100000X0*%
%TD*%
%TA.AperFunction,SMDPad,CuDef*%
%ADD38RoundRect,0.237500X0.237500X-0.300000X0.237500X0.300000X-0.237500X0.300000X-0.237500X-0.300000X0*%
%TD*%
%TA.AperFunction,ComponentPad*%
%ADD39C,1.500000*%
%TD*%
%TA.AperFunction,SMDPad,CuDef*%
%ADD40RoundRect,0.125000X-0.625000X-0.125000X0.625000X-0.125000X0.625000X0.125000X-0.625000X0.125000X0*%
%TD*%
%TA.AperFunction,SMDPad,CuDef*%
%ADD41RoundRect,0.125000X-0.125000X-0.625000X0.125000X-0.625000X0.125000X0.625000X-0.125000X0.625000X0*%
%TD*%
%TA.AperFunction,ViaPad*%
%ADD42C,0.600000*%
%TD*%
%TA.AperFunction,ViaPad*%
%ADD43C,0.406400*%
%TD*%
%TA.AperFunction,Conductor*%
%ADD44C,0.200000*%
%TD*%
%TA.AperFunction,Conductor*%
%ADD45C,0.304800*%
%TD*%
%TA.AperFunction,Conductor*%
%ADD46C,0.203200*%
%TD*%
G04 APERTURE END LIST*
D10*
%TO.P,U1,1,GND*%
%TO.N,GND*%
X171831000Y-102681000D03*
%TO.P,U1,2,TXD*%
%TO.N,/Core/UART3_TX*%
X170561000Y-102681000D03*
%TO.P,U1,3,RXD*%
%TO.N,/Core/UART3_RX*%
X169291000Y-102681000D03*
%TO.P,U1,4,V3*%
%TO.N,Net-(U1-V3)*%
X168021000Y-102681000D03*
%TO.P,U1,5,UD+*%
%TO.N,/USB/D-*%
X166751000Y-102681000D03*
%TO.P,U1,6,UD-*%
%TO.N,/USB/D+*%
X165481000Y-102681000D03*
%TO.P,U1,7,NC*%
%TO.N,unconnected-(U1-NC-Pad7)*%
X164211000Y-102681000D03*
%TO.P,U1,8,NC*%
%TO.N,unconnected-(U1-NC-Pad8)*%
X162941000Y-102681000D03*
%TO.P,U1,9,~{CTS}*%
%TO.N,unconnected-(U1-~{CTS}-Pad9)*%
X162941000Y-107631000D03*
%TO.P,U1,10,~{DSR}*%
%TO.N,unconnected-(U1-~{DSR}-Pad10)*%
X164211000Y-107631000D03*
%TO.P,U1,11,~{RI}*%
%TO.N,unconnected-(U1-~{RI}-Pad11)*%
X165481000Y-107631000D03*
%TO.P,U1,12,~{DCD}*%
%TO.N,unconnected-(U1-~{DCD}-Pad12)*%
X166751000Y-107631000D03*
%TO.P,U1,13,~{DTR}*%
%TO.N,unconnected-(U1-~{DTR}-Pad13)*%
X168021000Y-107631000D03*
%TO.P,U1,14,~{RTS}*%
%TO.N,unconnected-(U1-~{RTS}-Pad14)*%
X169291000Y-107631000D03*
%TO.P,U1,15,R232*%
%TO.N,unconnected-(U1-R232-Pad15)*%
X170561000Y-107631000D03*
%TO.P,U1,16,VCC*%
%TO.N,+5V*%
X171831000Y-107631000D03*
%TD*%
D11*
%TO.P,R6,1*%
%TO.N,/Core/BOOT0*%
X133890666Y-101532500D03*
%TO.P,R6,2*%
%TO.N,VSS*%
X133890666Y-100337500D03*
%TD*%
D12*
%TO.P,U3,1,TXD*%
%TO.N,/CAN/CAN_TX*%
X158256000Y-124714000D03*
%TO.P,U3,2,GND*%
%TO.N,GND*%
X158256000Y-125984000D03*
%TO.P,U3,3,VCC*%
%TO.N,+5V*%
X158256000Y-127254000D03*
%TO.P,U3,4,RXD*%
%TO.N,/CAN/CAN_RX*%
X158256000Y-128524000D03*
%TO.P,U3,5,SPLIT*%
%TO.N,Net-(U3-SPLIT)*%
X163206000Y-128524000D03*
%TO.P,U3,6,CANL*%
%TO.N,Net-(J5-Pin_2)*%
X163206000Y-127254000D03*
%TO.P,U3,7,CANH*%
%TO.N,Net-(J5-Pin_1)*%
X163206000Y-125984000D03*
%TO.P,U3,8,STB*%
%TO.N,Net-(U3-STB)*%
X163206000Y-124714000D03*
%TD*%
D13*
%TO.P,J2,1,Pin_1*%
%TO.N,/Core/PA0*%
X122047000Y-128270000D03*
D14*
%TO.P,J2,2,Pin_2*%
%TO.N,/Core/PA1*%
X122047000Y-125730000D03*
%TO.P,J2,3,Pin_3*%
%TO.N,/Core/PA2*%
X124587000Y-128270000D03*
%TO.P,J2,4,Pin_4*%
%TO.N,/Core/PA3*%
X124587000Y-125730000D03*
%TO.P,J2,5,Pin_5*%
%TO.N,/Core/PA4*%
X127127000Y-128270000D03*
%TO.P,J2,6,Pin_6*%
%TO.N,/Core/PA5*%
X127127000Y-125730000D03*
%TO.P,J2,7,Pin_7*%
%TO.N,/Core/PA6*%
X129667000Y-128270000D03*
%TO.P,J2,8,Pin_8*%
%TO.N,/Core/PA7*%
X129667000Y-125730000D03*
%TO.P,J2,9,Pin_9*%
%TO.N,/Core/PA8*%
X132207000Y-128270000D03*
%TO.P,J2,10,Pin_10*%
%TO.N,/Core/PA15*%
X132207000Y-125730000D03*
%TO.P,J2,11,Pin_11*%
%TO.N,+5V*%
X134747000Y-128270000D03*
%TO.P,J2,12,Pin_12*%
%TO.N,VCC*%
X134747000Y-125730000D03*
%TO.P,J2,13,Pin_13*%
%TO.N,/Core/PB0*%
X137287000Y-128270000D03*
%TO.P,J2,14,Pin_14*%
%TO.N,/Core/PB1*%
X137287000Y-125730000D03*
%TO.P,J2,15,Pin_15*%
%TO.N,/Core/PB3*%
X139827000Y-128270000D03*
%TO.P,J2,16,Pin_16*%
%TO.N,/Core/PB4*%
X139827000Y-125730000D03*
%TO.P,J2,17,Pin_17*%
%TO.N,/Core/PB5*%
X142367000Y-128270000D03*
%TO.P,J2,18,Pin_18*%
%TO.N,/Core/PB6*%
X142367000Y-125730000D03*
%TO.P,J2,19,Pin_19*%
%TO.N,/Core/PB7*%
X144907000Y-128270000D03*
%TO.P,J2,20,Pin_20*%
%TO.N,GND*%
X144907000Y-125730000D03*
%TD*%
D15*
%TO.P,R16,1*%
%TO.N,Net-(U3-SPLIT)*%
X167055000Y-129413000D03*
%TO.P,R16,2*%
%TO.N,Net-(J5-Pin_2)*%
X170155000Y-129413000D03*
%TD*%
D16*
%TO.P,R15,1*%
%TO.N,+5V*%
X158888500Y-123051000D03*
%TO.P,R15,2*%
%TO.N,Net-(U3-STB)*%
X160083500Y-123051000D03*
%TD*%
D17*
%TO.P,R13,1*%
%TO.N,GND*%
X150352000Y-118745000D03*
%TO.P,R13,2*%
%TO.N,VSS*%
X148352000Y-118745000D03*
%TD*%
D18*
%TO.P,C16,1*%
%TO.N,+5V*%
X156159000Y-126932500D03*
%TO.P,C16,2*%
%TO.N,GND*%
X156159000Y-125797500D03*
%TD*%
D19*
%TO.P,C3,1*%
%TO.N,VDD*%
X131699000Y-111506000D03*
%TO.P,C3,2*%
%TO.N,VSS*%
X130564000Y-111506000D03*
%TD*%
D20*
%TO.P,C1,1*%
%TO.N,VDD*%
X148717000Y-113792000D03*
%TO.P,C1,2*%
%TO.N,VSS*%
X148717000Y-115517000D03*
%TD*%
D21*
%TO.P,D1,1,K*%
%TO.N,Net-(D1-K)*%
X150082250Y-93819500D03*
%TO.P,D1,2,A*%
%TO.N,Net-(D1-A)*%
X150082250Y-95869500D03*
%TD*%
D22*
%TO.P,R5,1*%
%TO.N,VDD*%
X136053000Y-100337500D03*
%TO.P,R5,2*%
%TO.N,/Core/BOOT0*%
X136053000Y-101532500D03*
%TD*%
D23*
%TO.P,J5,2,Pin_2*%
%TO.N,Net-(J5-Pin_2)*%
X177165000Y-128825000D03*
D24*
%TO.P,J5,1,Pin_1*%
%TO.N,Net-(J5-Pin_1)*%
X177165000Y-123825000D03*
%TD*%
D25*
%TO.P,C5,1*%
%TO.N,/Core/NRST*%
X129576000Y-100347500D03*
%TO.P,C5,2*%
%TO.N,VSS*%
X129576000Y-101482500D03*
%TD*%
D26*
%TO.P,SW2,1,1*%
%TO.N,Net-(D4-K)*%
X137958000Y-97484000D03*
X137958000Y-90984000D03*
%TO.P,SW2,2,2*%
%TO.N,GND*%
X142458000Y-97484000D03*
X142458000Y-90984000D03*
%TD*%
D18*
%TO.P,C7,1*%
%TO.N,/Core/OSC_O*%
X127762000Y-109795500D03*
%TO.P,C7,2*%
%TO.N,VSS*%
X127762000Y-108660500D03*
%TD*%
D25*
%TO.P,C6,1*%
%TO.N,/Core/OSC_I*%
X127762000Y-104910000D03*
%TO.P,C6,2*%
%TO.N,VSS*%
X127762000Y-106045000D03*
%TD*%
D19*
%TO.P,C9,1*%
%TO.N,+5V*%
X163762500Y-98617000D03*
%TO.P,C9,2*%
%TO.N,GND*%
X162627500Y-98617000D03*
%TD*%
D25*
%TO.P,C13,1*%
%TO.N,+5V*%
X155575000Y-118364000D03*
%TO.P,C13,2*%
%TO.N,GND*%
X155575000Y-119499000D03*
%TD*%
D18*
%TO.P,C4,1*%
%TO.N,VDD*%
X131699000Y-108204000D03*
%TO.P,C4,2*%
%TO.N,VSS*%
X131699000Y-107069000D03*
%TD*%
D27*
%TO.P,J4,A1,GND*%
%TO.N,GND*%
X169493000Y-96312000D03*
%TO.P,J4,A4,VBUS*%
%TO.N,+5V*%
X168693000Y-96312000D03*
D28*
%TO.P,J4,A5,CC1*%
%TO.N,Net-(J4-CC1)*%
X167493000Y-96312000D03*
%TO.P,J4,A6,D+*%
%TO.N,/USB/D+*%
X166493000Y-96312000D03*
%TO.P,J4,A7,D-*%
%TO.N,/USB/D-*%
X165993000Y-96312000D03*
%TO.P,J4,A8,SBU1*%
%TO.N,unconnected-(J4-SBU1-PadA8)*%
X164993000Y-96312000D03*
D27*
%TO.P,J4,A9,VBUS*%
%TO.N,+5V*%
X163793000Y-96312000D03*
%TO.P,J4,A12,GND*%
%TO.N,GND*%
X162993000Y-96312000D03*
%TO.P,J4,B1,GND*%
X162993000Y-96312000D03*
%TO.P,J4,B4,VBUS*%
%TO.N,+5V*%
X163793000Y-96312000D03*
D28*
%TO.P,J4,B5,CC2*%
%TO.N,Net-(J4-CC2)*%
X164493000Y-96312000D03*
%TO.P,J4,B6,D+*%
%TO.N,/USB/D+*%
X165493000Y-96312000D03*
%TO.P,J4,B7,D-*%
%TO.N,/USB/D-*%
X166993000Y-96312000D03*
%TO.P,J4,B8,SBU2*%
%TO.N,unconnected-(J4-SBU2-PadB8)*%
X167993000Y-96312000D03*
D27*
%TO.P,J4,B9,VBUS*%
%TO.N,+5V*%
X168693000Y-96312000D03*
%TO.P,J4,B12,GND*%
%TO.N,GND*%
X169493000Y-96312000D03*
D29*
%TO.P,J4,S1,SHIELD*%
X170563000Y-95397000D03*
D30*
X170563000Y-91217000D03*
D29*
X161923000Y-95397000D03*
D30*
X161923000Y-91217000D03*
%TD*%
D18*
%TO.P,C14,1*%
%TO.N,VCC*%
X155702000Y-116078000D03*
%TO.P,C14,2*%
%TO.N,GND*%
X155702000Y-114943000D03*
%TD*%
D26*
%TO.P,SW1,1,1*%
%TO.N,/Core/NRST*%
X126727000Y-97484000D03*
X126727000Y-90984000D03*
%TO.P,SW1,2,2*%
%TO.N,VSS*%
X131227000Y-97484000D03*
X131227000Y-90984000D03*
%TD*%
D21*
%TO.P,D4,1,K*%
%TO.N,Net-(D4-K)*%
X147447000Y-93819500D03*
%TO.P,D4,2,A*%
%TO.N,Net-(D4-A)*%
X147447000Y-95869500D03*
%TD*%
D16*
%TO.P,R17,1*%
%TO.N,Net-(U3-STB)*%
X161505000Y-123063000D03*
%TO.P,R17,2*%
%TO.N,GND*%
X162700000Y-123063000D03*
%TD*%
D31*
%TO.P,C11,1*%
%TO.N,Net-(U1-V3)*%
X170763000Y-100649000D03*
%TO.P,C11,2*%
%TO.N,GND*%
X171898000Y-100649000D03*
%TD*%
D32*
%TO.P,C8,1*%
%TO.N,+5V*%
X163707500Y-100141000D03*
%TO.P,C8,2*%
%TO.N,GND*%
X161982500Y-100141000D03*
%TD*%
D33*
%TO.P,U2,1,ADJ*%
%TO.N,GND*%
X158267000Y-113778000D03*
%TO.P,U2,2,VO*%
%TO.N,VCC*%
X158267000Y-116078000D03*
D34*
X164567000Y-116078000D03*
D33*
%TO.P,U2,3,VI*%
%TO.N,+5V*%
X158267000Y-118378000D03*
%TD*%
D35*
%TO.P,R12,1*%
%TO.N,VCC*%
X168021000Y-116062000D03*
%TO.P,R12,2*%
%TO.N,VDD*%
X168021000Y-114062000D03*
%TD*%
D36*
%TO.P,R14,1*%
%TO.N,Net-(J5-Pin_1)*%
X170155000Y-123317000D03*
%TO.P,R14,2*%
%TO.N,Net-(U3-SPLIT)*%
X167055000Y-123317000D03*
%TD*%
D11*
%TO.P,R2,1*%
%TO.N,+5V*%
X150082250Y-101906000D03*
%TO.P,R2,2*%
%TO.N,Net-(D1-A)*%
X150082250Y-100711000D03*
%TD*%
D13*
%TO.P,J1,1,Pin_1*%
%TO.N,+5V*%
X175768000Y-112268000D03*
D14*
%TO.P,J1,2,Pin_2*%
%TO.N,/Core/SWDIO*%
X175768000Y-109728000D03*
%TO.P,J1,3,Pin_3*%
%TO.N,/Core/SWCLK*%
X175768000Y-107188000D03*
%TO.P,J1,4,Pin_4*%
%TO.N,GND*%
X175768000Y-104648000D03*
%TD*%
D11*
%TO.P,R8,1*%
%TO.N,+5V*%
X157988000Y-101906000D03*
%TO.P,R8,2*%
%TO.N,Net-(D5-A)*%
X157988000Y-100711000D03*
%TD*%
%TO.P,R4,1*%
%TO.N,+5V*%
X155352750Y-101906000D03*
%TO.P,R4,2*%
%TO.N,Net-(D3-A)*%
X155352750Y-100711000D03*
%TD*%
D20*
%TO.P,C12,1*%
%TO.N,+5V*%
X154178000Y-118364000D03*
%TO.P,C12,2*%
%TO.N,GND*%
X154178000Y-120089000D03*
%TD*%
D25*
%TO.P,C2,1*%
%TO.N,VDD*%
X146685000Y-113792000D03*
%TO.P,C2,2*%
%TO.N,VSS*%
X146685000Y-114927000D03*
%TD*%
D11*
%TO.P,R3,1*%
%TO.N,+5V*%
X152717500Y-101906000D03*
%TO.P,R3,2*%
%TO.N,Net-(D2-A)*%
X152717500Y-100711000D03*
%TD*%
D37*
%TO.P,C17,1*%
%TO.N,Net-(U3-SPLIT)*%
X167042500Y-119888000D03*
%TO.P,C17,2*%
%TO.N,GND*%
X170167500Y-119888000D03*
%TD*%
D16*
%TO.P,R9,1*%
%TO.N,Net-(J4-CC2)*%
X170763000Y-99379000D03*
%TO.P,R9,2*%
%TO.N,GND*%
X171958000Y-99379000D03*
%TD*%
D35*
%TO.P,R11,1*%
%TO.N,+5V*%
X170307000Y-116078000D03*
%TO.P,R11,2*%
%TO.N,VDD*%
X170307000Y-114078000D03*
%TD*%
D38*
%TO.P,C15,1*%
%TO.N,VCC*%
X154178000Y-116078000D03*
%TO.P,C15,2*%
%TO.N,GND*%
X154178000Y-114353000D03*
%TD*%
D39*
%TO.P,Y1,1,1*%
%TO.N,/Core/OSC_I*%
X123952000Y-104856000D03*
%TO.P,Y1,2,2*%
%TO.N,/Core/OSC_O*%
X123952000Y-109736000D03*
%TD*%
D21*
%TO.P,D2,1,K*%
%TO.N,Net-(D2-K)*%
X152717500Y-93819500D03*
%TO.P,D2,2,A*%
%TO.N,Net-(D2-A)*%
X152717500Y-95869500D03*
%TD*%
%TO.P,D3,1,K*%
%TO.N,Net-(D3-K)*%
X155352750Y-93819500D03*
%TO.P,D3,2,A*%
%TO.N,Net-(D3-A)*%
X155352750Y-95869500D03*
%TD*%
D11*
%TO.P,R7,1*%
%TO.N,+5V*%
X147447000Y-101906000D03*
%TO.P,R7,2*%
%TO.N,Net-(D4-A)*%
X147447000Y-100711000D03*
%TD*%
D21*
%TO.P,D5,1,K*%
%TO.N,GND*%
X157988000Y-93819500D03*
%TO.P,D5,2,A*%
%TO.N,Net-(D5-A)*%
X157988000Y-95869500D03*
%TD*%
D16*
%TO.P,R10,1*%
%TO.N,Net-(J4-CC1)*%
X170763000Y-98363000D03*
%TO.P,R10,2*%
%TO.N,GND*%
X171958000Y-98363000D03*
%TD*%
D11*
%TO.P,R1,1*%
%TO.N,VDD*%
X131728333Y-101532500D03*
%TO.P,R1,2*%
%TO.N,/Core/NRST*%
X131728333Y-100337500D03*
%TD*%
D13*
%TO.P,J3,1,Pin_1*%
%TO.N,Net-(D3-K)*%
X156718000Y-90424000D03*
D14*
%TO.P,J3,2,Pin_2*%
%TO.N,Net-(D2-K)*%
X154178000Y-90424000D03*
%TO.P,J3,3,Pin_3*%
%TO.N,Net-(D1-K)*%
X151638000Y-90424000D03*
%TO.P,J3,4,Pin_4*%
%TO.N,Net-(D4-K)*%
X149098000Y-90424000D03*
%TD*%
D40*
%TO.P,IC1,1,VDD_1*%
%TO.N,VDD*%
X134382000Y-108198000D03*
%TO.P,IC1,2,PD0-OSC_IN*%
%TO.N,/Core/OSC_I*%
X134382000Y-108998000D03*
%TO.P,IC1,3,PD1-OSC_OUT*%
%TO.N,/Core/OSC_O*%
X134382000Y-109798000D03*
%TO.P,IC1,4,NRST1*%
%TO.N,/Core/NRST*%
X134382000Y-110598000D03*
%TO.P,IC1,5,VDDA*%
%TO.N,VDD*%
X134382000Y-111398000D03*
%TO.P,IC1,6,PA0-WKUP*%
%TO.N,/Core/PA0*%
X134382000Y-112198000D03*
%TO.P,IC1,7,PA1*%
%TO.N,/Core/PA1*%
X134382000Y-112998000D03*
%TO.P,IC1,8,PA2*%
%TO.N,/Core/PA2*%
X134382000Y-113798000D03*
D41*
%TO.P,IC1,9,PA3*%
%TO.N,/Core/PA3*%
X135757000Y-115173000D03*
%TO.P,IC1,10,PA4*%
%TO.N,/Core/PA4*%
X136557000Y-115173000D03*
%TO.P,IC1,11,PA5*%
%TO.N,/Core/PA5*%
X137357000Y-115173000D03*
%TO.P,IC1,12,PA6*%
%TO.N,/Core/PA6*%
X138157000Y-115173000D03*
%TO.P,IC1,13,PA7*%
%TO.N,/Core/PA7*%
X138957000Y-115173000D03*
%TO.P,IC1,14,PB0*%
%TO.N,/Core/PB0*%
X139757000Y-115173000D03*
%TO.P,IC1,15,PB1*%
%TO.N,/Core/PB1*%
X140557000Y-115173000D03*
%TO.P,IC1,16,VSS_1*%
%TO.N,VSS*%
X141357000Y-115173000D03*
D40*
%TO.P,IC1,17,VDD_2*%
%TO.N,VDD*%
X142732000Y-113798000D03*
%TO.P,IC1,18,PA8*%
%TO.N,/Core/PA8*%
X142732000Y-112998000D03*
%TO.P,IC1,19,PA9*%
%TO.N,/CAN/CAN_RX*%
X142732000Y-112198000D03*
%TO.P,IC1,20,PA10*%
%TO.N,/CAN/CAN_TX*%
X142732000Y-111398000D03*
%TO.P,IC1,21,PA11*%
%TO.N,/Core/UART3_TX*%
X142732000Y-110598000D03*
%TO.P,IC1,22,PA12*%
%TO.N,/Core/UART3_RX*%
X142732000Y-109798000D03*
%TO.P,IC1,23,PA13*%
%TO.N,/Core/SWDIO*%
X142732000Y-108998000D03*
%TO.P,IC1,24,PA14*%
%TO.N,/Core/SWCLK*%
X142732000Y-108198000D03*
D41*
%TO.P,IC1,25,PA15*%
%TO.N,/Core/PA15*%
X141357000Y-106823000D03*
%TO.P,IC1,26,PB3*%
%TO.N,/Core/PB3*%
X140557000Y-106823000D03*
%TO.P,IC1,27,PB4*%
%TO.N,/Core/PB4*%
X139757000Y-106823000D03*
%TO.P,IC1,28,PB5*%
%TO.N,/Core/PB5*%
X138957000Y-106823000D03*
%TO.P,IC1,29,PB6*%
%TO.N,/Core/PB6*%
X138157000Y-106823000D03*
%TO.P,IC1,30,PB7*%
%TO.N,/Core/PB7*%
X137357000Y-106823000D03*
%TO.P,IC1,31,PD5-BOOT0*%
%TO.N,/Core/BOOT0*%
X136557000Y-106823000D03*
%TO.P,IC1,32,VSS_2*%
%TO.N,VSS*%
X135757000Y-106823000D03*
%TD*%
D19*
%TO.P,C10,1*%
%TO.N,+5V*%
X171831000Y-109855000D03*
%TO.P,C10,2*%
%TO.N,GND*%
X170696000Y-109855000D03*
%TD*%
D42*
%TO.N,VSS*%
X147193000Y-118745000D03*
%TO.N,GND*%
X173039000Y-98363000D03*
X154178000Y-121666000D03*
X154178000Y-113284000D03*
X157988000Y-92710000D03*
X172974000Y-100649000D03*
X168602952Y-109836072D03*
X172339000Y-119888000D03*
X162687000Y-122047000D03*
X155134500Y-125797500D03*
X151003000Y-124460000D03*
X151257000Y-126492000D03*
D43*
%TO.N,/Core/PA8*%
X141351000Y-113242900D03*
%TO.N,/Core/PA15*%
X142875000Y-107061000D03*
%TO.N,/Core/PB3*%
X143383000Y-106680000D03*
%TO.N,/Core/PB4*%
X143924935Y-106299000D03*
%TO.N,/Core/PB5*%
X144526000Y-105791000D03*
%TO.N,/Core/PB6*%
X145034000Y-105283000D03*
%TO.N,/Core/PB7*%
X145669000Y-104902000D03*
%TO.N,/Core/NRST*%
X129540000Y-110363000D03*
D42*
%TO.N,VSS*%
X126492000Y-103886000D03*
X141357000Y-117088000D03*
X131699000Y-105791000D03*
X126746000Y-108712000D03*
X128524000Y-100203000D03*
X133604000Y-99441000D03*
X126492000Y-106045000D03*
X126746000Y-110617000D03*
%TO.N,VDD*%
X132842000Y-111379000D03*
X156464000Y-112268000D03*
X150495000Y-113792000D03*
X132842000Y-108204000D03*
X139065000Y-113798000D03*
%TO.N,+5V*%
X164846000Y-100203000D03*
X171831000Y-105791000D03*
%TO.N,VCC*%
X152908000Y-116078000D03*
D43*
%TO.N,Net-(U3-SPLIT)*%
X165557000Y-124587000D03*
X165570000Y-128524000D03*
%TO.N,/Core/SWDIO*%
X153416000Y-109347000D03*
X155194000Y-110998000D03*
%TO.N,/Core/SWCLK*%
X153924000Y-108712000D03*
X157353000Y-110501000D03*
D42*
%TO.N,Net-(J4-CC2)*%
X164719000Y-98425000D03*
X168275000Y-99314000D03*
%TD*%
D44*
%TO.N,/Core/PA8*%
X141351000Y-113242900D02*
X141595900Y-112998000D01*
X141595900Y-112998000D02*
X142732000Y-112998000D01*
D45*
%TO.N,VSS*%
X141357000Y-115173000D02*
X141357000Y-117088000D01*
X148352000Y-118745000D02*
X147193000Y-118745000D01*
%TO.N,Net-(U3-SPLIT)*%
X165557000Y-123876000D02*
X165557000Y-124587000D01*
X166116000Y-123317000D02*
X165557000Y-123876000D01*
X167055000Y-123317000D02*
X166116000Y-123317000D01*
%TO.N,Net-(J5-Pin_1)*%
X172898000Y-123317000D02*
X170155000Y-123317000D01*
X177165000Y-123825000D02*
X173406000Y-123825000D01*
X173406000Y-123825000D02*
X172898000Y-123317000D01*
%TO.N,Net-(J5-Pin_2)*%
X172546000Y-128825000D02*
X177165000Y-128825000D01*
X171958000Y-129413000D02*
X172546000Y-128825000D01*
X170155000Y-129413000D02*
X171958000Y-129413000D01*
D46*
%TO.N,/Core/PB7*%
X137357000Y-103181000D02*
X137357000Y-106823000D01*
X138684000Y-101854000D02*
X137357000Y-103181000D01*
X144526000Y-101854000D02*
X138684000Y-101854000D01*
X145669000Y-102997000D02*
X144526000Y-101854000D01*
X145669000Y-104902000D02*
X145669000Y-102997000D01*
%TO.N,/Core/PB6*%
X138157000Y-103143000D02*
X138157000Y-106823000D01*
X138811000Y-102489000D02*
X138157000Y-103143000D01*
X143828790Y-102489000D02*
X138811000Y-102489000D01*
X145034000Y-103694210D02*
X143828790Y-102489000D01*
X145034000Y-105283000D02*
X145034000Y-103694210D01*
%TO.N,/Core/PB5*%
X138957000Y-103359000D02*
X138957000Y-106823000D01*
X139423800Y-102892200D02*
X138957000Y-103359000D01*
X144526000Y-103759000D02*
X143659200Y-102892200D01*
X144526000Y-105791000D02*
X144526000Y-103759000D01*
X143659200Y-102892200D02*
X139423800Y-102892200D01*
%TO.N,/Core/PB4*%
X139757000Y-104210000D02*
X139757000Y-106823000D01*
X140671600Y-103295400D02*
X139757000Y-104210000D01*
X143300400Y-103295400D02*
X140671600Y-103295400D01*
X143924935Y-103919935D02*
X143300400Y-103295400D01*
X143924935Y-106299000D02*
X143924935Y-103919935D01*
%TO.N,/Core/PB3*%
X140557000Y-104680000D02*
X140557000Y-106823000D01*
X141351000Y-103886000D02*
X140557000Y-104680000D01*
X142748000Y-103886000D02*
X141351000Y-103886000D01*
X143383000Y-106680000D02*
X143383000Y-104521000D01*
X143383000Y-104521000D02*
X142748000Y-103886000D01*
%TO.N,/Core/PA15*%
X141732000Y-104648000D02*
X141357000Y-105023000D01*
X142875000Y-105029000D02*
X142494000Y-104648000D01*
X141357000Y-105023000D02*
X141357000Y-106823000D01*
X142875000Y-107061000D02*
X142875000Y-105029000D01*
X142494000Y-104648000D02*
X141732000Y-104648000D01*
%TO.N,/Core/OSC_O*%
X134312000Y-109728000D02*
X134382000Y-109798000D01*
X127829500Y-109728000D02*
X134312000Y-109728000D01*
X127762000Y-109795500D02*
X127829500Y-109728000D01*
X127702500Y-109736000D02*
X127762000Y-109795500D01*
X123952000Y-109736000D02*
X127702500Y-109736000D01*
%TO.N,/Core/OSC_I*%
X130842000Y-108998000D02*
X134382000Y-108998000D01*
X129413000Y-107569000D02*
X130842000Y-108998000D01*
X129413000Y-105664000D02*
X129413000Y-107569000D01*
X127770000Y-104902000D02*
X128651000Y-104902000D01*
X127762000Y-104910000D02*
X127770000Y-104902000D01*
X128651000Y-104902000D02*
X129413000Y-105664000D01*
X127754000Y-104902000D02*
X127762000Y-104910000D01*
X123952000Y-104856000D02*
X123998000Y-104902000D01*
X123998000Y-104902000D02*
X127754000Y-104902000D01*
D45*
%TO.N,VSS*%
X133604000Y-99441000D02*
X133890666Y-99727666D01*
X133890666Y-99727666D02*
X133890666Y-100337500D01*
D46*
%TO.N,/Core/NRST*%
X129576000Y-98522000D02*
X129576000Y-100347500D01*
X128538000Y-97484000D02*
X129576000Y-98522000D01*
X126727000Y-97484000D02*
X128538000Y-97484000D01*
%TO.N,Net-(D4-K)*%
X147574000Y-91948000D02*
X147574000Y-93692500D01*
X147574000Y-93692500D02*
X147447000Y-93819500D01*
X149098000Y-90424000D02*
X147574000Y-91948000D01*
%TO.N,Net-(D1-K)*%
X150082250Y-91979750D02*
X150082250Y-93819500D01*
X151638000Y-90424000D02*
X150082250Y-91979750D01*
%TO.N,Net-(D2-K)*%
X152717500Y-91884500D02*
X154178000Y-90424000D01*
X152717500Y-93819500D02*
X152717500Y-91884500D01*
%TO.N,Net-(D3-K)*%
X156718000Y-91440000D02*
X156718000Y-90170000D01*
X155352750Y-92805250D02*
X156718000Y-91440000D01*
X155352750Y-93819500D02*
X155352750Y-92805250D01*
D45*
%TO.N,+5V*%
X158256000Y-127254000D02*
X158750000Y-127254000D01*
X158750000Y-127254000D02*
X159893000Y-126111000D01*
X159893000Y-124460000D02*
X159893000Y-126111000D01*
X158242000Y-130683000D02*
X137160000Y-130683000D01*
X137160000Y-130683000D02*
X134747000Y-128270000D01*
X159583400Y-128165899D02*
X159583400Y-129341600D01*
X158671501Y-127254000D02*
X159583400Y-128165899D01*
X158256000Y-127254000D02*
X158671501Y-127254000D01*
X159583400Y-129341600D02*
X158242000Y-130683000D01*
X158888500Y-123455500D02*
X159893000Y-124460000D01*
X158888500Y-123051000D02*
X158888500Y-123455500D01*
X156650500Y-126932500D02*
X156972000Y-127254000D01*
X156972000Y-127254000D02*
X158256000Y-127254000D01*
X156159000Y-126932500D02*
X156650500Y-126932500D01*
%TO.N,GND*%
X154178000Y-114353000D02*
X154178000Y-113284000D01*
X154178000Y-120089000D02*
X154178000Y-121539000D01*
X155575000Y-119499000D02*
X154768000Y-119499000D01*
X154768000Y-119499000D02*
X154178000Y-120089000D01*
X156867000Y-113778000D02*
X155702000Y-114943000D01*
X158267000Y-113778000D02*
X156867000Y-113778000D01*
X155112000Y-114353000D02*
X155702000Y-114943000D01*
X154178000Y-114353000D02*
X155112000Y-114353000D01*
D46*
%TO.N,/Core/PA0*%
X127832000Y-112198000D02*
X120269000Y-119761000D01*
X120269000Y-126492000D02*
X122047000Y-128270000D01*
X134382000Y-112198000D02*
X127832000Y-112198000D01*
X120269000Y-119761000D02*
X120269000Y-126492000D01*
D45*
%TO.N,GND*%
X171958000Y-98363000D02*
X173039000Y-98363000D01*
X171898000Y-100649000D02*
X172974000Y-100649000D01*
X171898000Y-102614000D02*
X171831000Y-102681000D01*
X171898000Y-100649000D02*
X171898000Y-102614000D01*
D44*
%TO.N,Net-(J4-CC1)*%
X168569000Y-98363000D02*
X170763000Y-98363000D01*
X167493000Y-97287000D02*
X168569000Y-98363000D01*
X167493000Y-96312000D02*
X167493000Y-97287000D01*
D45*
%TO.N,GND*%
X157988000Y-93819500D02*
X157988000Y-92710000D01*
X162993000Y-96312000D02*
X162838000Y-96312000D01*
X162838000Y-96312000D02*
X161923000Y-95397000D01*
X169493000Y-96312000D02*
X169648000Y-96312000D01*
X169648000Y-96312000D02*
X170563000Y-95397000D01*
X168656000Y-109855000D02*
X170696000Y-109855000D01*
X162700000Y-122060000D02*
X162687000Y-122047000D01*
X162700000Y-123063000D02*
X162700000Y-122060000D01*
X170167500Y-119888000D02*
X172339000Y-119888000D01*
X156159000Y-125797500D02*
X155134500Y-125797500D01*
X150352000Y-123809000D02*
X151003000Y-124460000D01*
X150352000Y-118745000D02*
X150352000Y-123809000D01*
D46*
%TO.N,/CAN/CAN_RX*%
X151869800Y-124310800D02*
X156083000Y-128524000D01*
X151869800Y-113515800D02*
X151869800Y-124310800D01*
X150622000Y-112268000D02*
X151869800Y-113515800D01*
X142802000Y-112268000D02*
X150622000Y-112268000D01*
X156083000Y-128524000D02*
X158256000Y-128524000D01*
X142732000Y-112198000D02*
X142802000Y-112268000D01*
%TO.N,/CAN/CAN_TX*%
X152273000Y-123190000D02*
X153797000Y-124714000D01*
X150768000Y-111398000D02*
X152273000Y-112903000D01*
X152273000Y-112903000D02*
X152273000Y-123190000D01*
X142732000Y-111398000D02*
X150768000Y-111398000D01*
X153797000Y-124714000D02*
X158256000Y-124714000D01*
D45*
%TO.N,GND*%
X150495000Y-125730000D02*
X151257000Y-126492000D01*
X144907000Y-125730000D02*
X150495000Y-125730000D01*
%TO.N,VDD*%
X141472000Y-113798000D02*
X139065000Y-113798000D01*
X142732000Y-113798000D02*
X139065000Y-113798000D01*
X141478000Y-113792000D02*
X141472000Y-113798000D01*
D46*
%TO.N,/Core/PA1*%
X128429000Y-112998000D02*
X134382000Y-112998000D01*
X122047000Y-125730000D02*
X122047000Y-119380000D01*
X122047000Y-119380000D02*
X128429000Y-112998000D01*
%TO.N,/Core/PA2*%
X123198600Y-126881600D02*
X124587000Y-128270000D01*
X134382000Y-113798000D02*
X131820000Y-113798000D01*
X123198600Y-122419400D02*
X123198600Y-126881600D01*
X131820000Y-113798000D02*
X123198600Y-122419400D01*
%TO.N,/Core/PA3*%
X124587000Y-123698000D02*
X131191000Y-117094000D01*
X131191000Y-117094000D02*
X135255000Y-117094000D01*
X124587000Y-125730000D02*
X124587000Y-123698000D01*
X135255000Y-117094000D02*
X135763000Y-116586000D01*
X135763000Y-115179000D02*
X135757000Y-115173000D01*
X135763000Y-116586000D02*
X135763000Y-115179000D01*
%TO.N,/Core/PA4*%
X136557000Y-116681000D02*
X135636000Y-117602000D01*
X136557000Y-115173000D02*
X136557000Y-116681000D01*
X125857000Y-124206000D02*
X125857000Y-127000000D01*
X135636000Y-117602000D02*
X132461000Y-117602000D01*
X132461000Y-117602000D02*
X125857000Y-124206000D01*
X125857000Y-127000000D02*
X127127000Y-128270000D01*
%TO.N,/Core/PA5*%
X127127000Y-125730000D02*
X127127000Y-124079000D01*
X137357000Y-116643000D02*
X137357000Y-115173000D01*
X127127000Y-124079000D02*
X132715000Y-118491000D01*
X132715000Y-118491000D02*
X135509000Y-118491000D01*
X135509000Y-118491000D02*
X137357000Y-116643000D01*
%TO.N,/Core/PA6*%
X138157000Y-116413210D02*
X138157000Y-115173000D01*
X135190210Y-119380000D02*
X138157000Y-116413210D01*
X129667000Y-128270000D02*
X128515400Y-127118400D01*
X128515400Y-127118400D02*
X128515400Y-123706600D01*
X128515400Y-123706600D02*
X132842000Y-119380000D01*
X132842000Y-119380000D02*
X135190210Y-119380000D01*
%TO.N,/Core/PA7*%
X135252420Y-119888000D02*
X133604000Y-119888000D01*
X138957000Y-116183420D02*
X135252420Y-119888000D01*
X138957000Y-115173000D02*
X138957000Y-116183420D01*
X129667000Y-123825000D02*
X129667000Y-125730000D01*
X133604000Y-119888000D02*
X129667000Y-123825000D01*
%TO.N,/Core/PB0*%
X136135400Y-124214600D02*
X136135400Y-127118400D01*
X139757000Y-115173000D02*
X139757000Y-120593000D01*
X136135400Y-127118400D02*
X137287000Y-128270000D01*
X139757000Y-120593000D02*
X136135400Y-124214600D01*
%TO.N,/Core/PB1*%
X137287000Y-125730000D02*
X137287000Y-123825000D01*
X140557000Y-120555000D02*
X140557000Y-115173000D01*
X137287000Y-123825000D02*
X140557000Y-120555000D01*
%TO.N,/Core/NRST*%
X129576000Y-100347500D02*
X131718333Y-100347500D01*
X131718333Y-100347500D02*
X131728333Y-100337500D01*
X126727000Y-90984000D02*
X126727000Y-97484000D01*
X129775000Y-110598000D02*
X134382000Y-110598000D01*
X129540000Y-110363000D02*
X129775000Y-110598000D01*
D45*
%TO.N,VSS*%
X121158000Y-102870000D02*
X121158000Y-111760000D01*
X126797500Y-108660500D02*
X126746000Y-108712000D01*
X126746000Y-110617000D02*
X127635000Y-111506000D01*
X126492000Y-103886000D02*
X126492000Y-102616000D01*
X122555000Y-101473000D02*
X121158000Y-102870000D01*
X125349000Y-101473000D02*
X122555000Y-101473000D01*
X127762000Y-106045000D02*
X126492000Y-106045000D01*
X148717000Y-115517000D02*
X148717000Y-116713000D01*
X128524000Y-103886000D02*
X129576000Y-102834000D01*
X135511000Y-107069000D02*
X135757000Y-106823000D01*
X128524000Y-101092000D02*
X128524000Y-100203000D01*
X125095000Y-113284000D02*
X126746000Y-111633000D01*
X141603000Y-114927000D02*
X141357000Y-115173000D01*
X126492000Y-102616000D02*
X125349000Y-101473000D01*
X128914500Y-101482500D02*
X128524000Y-101092000D01*
X126492000Y-103886000D02*
X128524000Y-103886000D01*
X121158000Y-111760000D02*
X122682000Y-113284000D01*
X122682000Y-113284000D02*
X125095000Y-113284000D01*
X148336000Y-118729000D02*
X148352000Y-118745000D01*
X129576000Y-101482500D02*
X128914500Y-101482500D01*
X131699000Y-107069000D02*
X131699000Y-105791000D01*
X146685000Y-114927000D02*
X148127000Y-114927000D01*
X148127000Y-114927000D02*
X148717000Y-115517000D01*
X127762000Y-108660500D02*
X126797500Y-108660500D01*
X127635000Y-111506000D02*
X130564000Y-111506000D01*
X146685000Y-114927000D02*
X141603000Y-114927000D01*
X127762000Y-106045000D02*
X127762000Y-108660500D01*
X148717000Y-116713000D02*
X148336000Y-117094000D01*
X126746000Y-111633000D02*
X126746000Y-110617000D01*
X129576000Y-102834000D02*
X129576000Y-101482500D01*
X148336000Y-117094000D02*
X148336000Y-118729000D01*
X131699000Y-107069000D02*
X135511000Y-107069000D01*
%TO.N,VDD*%
X131728333Y-101532500D02*
X131728333Y-102713667D01*
X150495000Y-113792000D02*
X148717000Y-113792000D01*
X167386000Y-112268000D02*
X156464000Y-112268000D01*
X131728333Y-102713667D02*
X130556000Y-103886000D01*
X168021000Y-112903000D02*
X167386000Y-112268000D01*
X170307000Y-114078000D02*
X168037000Y-114078000D01*
X130556000Y-103886000D02*
X130556000Y-107315000D01*
X134382000Y-111398000D02*
X131807000Y-111398000D01*
X132751000Y-101189000D02*
X132751000Y-99278000D01*
X146685000Y-113792000D02*
X148717000Y-113792000D01*
X131807000Y-111398000D02*
X131699000Y-111506000D01*
X131445000Y-108204000D02*
X131699000Y-108204000D01*
X134940000Y-98679000D02*
X136053000Y-99792000D01*
X146685000Y-113792000D02*
X142738000Y-113792000D01*
X142738000Y-113792000D02*
X142732000Y-113798000D01*
X131728333Y-101532500D02*
X132407500Y-101532500D01*
X136053000Y-99792000D02*
X136053000Y-100337500D01*
X131705000Y-108198000D02*
X134382000Y-108198000D01*
X131699000Y-108204000D02*
X131705000Y-108198000D01*
X132751000Y-99278000D02*
X133350000Y-98679000D01*
X132407500Y-101532500D02*
X132751000Y-101189000D01*
X130556000Y-107315000D02*
X131445000Y-108204000D01*
X168021000Y-114062000D02*
X168021000Y-112903000D01*
X133350000Y-98679000D02*
X134940000Y-98679000D01*
X168037000Y-114078000D02*
X168021000Y-114062000D01*
%TO.N,+5V*%
X164719000Y-100203000D02*
X164846000Y-100203000D01*
X158267000Y-118378000D02*
X158267000Y-120802000D01*
X163990600Y-95234600D02*
X163990600Y-96114400D01*
X175768000Y-112268000D02*
X171958000Y-116078000D01*
X168693000Y-95455699D02*
X167844301Y-94607000D01*
X171831000Y-107631000D02*
X171831000Y-110047000D01*
X166878000Y-117475000D02*
X165975000Y-118378000D01*
X163990600Y-96114400D02*
X163793000Y-96312000D01*
X170307000Y-117221000D02*
X170053000Y-117475000D01*
X164973000Y-94615000D02*
X164610200Y-94615000D01*
X154192000Y-118378000D02*
X154178000Y-118364000D01*
X163793000Y-100055500D02*
X163707500Y-100141000D01*
X163707500Y-100141000D02*
X161942500Y-101906000D01*
X158267000Y-120802000D02*
X158888500Y-121423500D01*
X158267000Y-118378000D02*
X154192000Y-118378000D01*
X165975000Y-118378000D02*
X158267000Y-118378000D01*
X161942500Y-101906000D02*
X157988000Y-101906000D01*
X163769500Y-100203000D02*
X164719000Y-100203000D01*
X158888500Y-121423500D02*
X158888500Y-123051000D01*
X168693000Y-96312000D02*
X168693000Y-95455699D01*
X163793000Y-96312000D02*
X163793000Y-100055500D01*
X167844301Y-94607000D02*
X164981000Y-94607000D01*
X147447000Y-101906000D02*
X157988000Y-101906000D01*
X171958000Y-116078000D02*
X171577000Y-116078000D01*
X170307000Y-116078000D02*
X170307000Y-117221000D01*
X164981000Y-94607000D02*
X164973000Y-94615000D01*
X170307000Y-116078000D02*
X171577000Y-116078000D01*
X163707500Y-100141000D02*
X163769500Y-100203000D01*
X164610200Y-94615000D02*
X163990600Y-95234600D01*
X170053000Y-117475000D02*
X166878000Y-117475000D01*
X171831000Y-105791000D02*
X171831000Y-107631000D01*
%TO.N,GND*%
X161925000Y-100083500D02*
X161982500Y-100141000D01*
X162687000Y-97855000D02*
X162687000Y-98557500D01*
X162627500Y-98617000D02*
X162179000Y-98617000D01*
X162179000Y-98617000D02*
X161925000Y-98871000D01*
X162993000Y-97549000D02*
X162687000Y-97855000D01*
X161925000Y-98871000D02*
X161925000Y-100083500D01*
X162993000Y-96312000D02*
X162993000Y-97549000D01*
X171958000Y-100589000D02*
X171898000Y-100649000D01*
X162687000Y-98557500D02*
X162627500Y-98617000D01*
X158256000Y-125984000D02*
X156345500Y-125984000D01*
X171958000Y-98363000D02*
X171958000Y-100589000D01*
%TO.N,VCC*%
X158267000Y-116078000D02*
X154178000Y-116078000D01*
X168005000Y-116078000D02*
X168021000Y-116062000D01*
X164567000Y-116078000D02*
X158267000Y-116078000D01*
X164567000Y-116078000D02*
X168005000Y-116078000D01*
X154178000Y-116078000D02*
X152908000Y-116078000D01*
D46*
%TO.N,Net-(U1-V3)*%
X168021000Y-100903000D02*
X168021000Y-102681000D01*
X168275000Y-100649000D02*
X168021000Y-100903000D01*
X170763000Y-100649000D02*
X168477000Y-100649000D01*
D45*
%TO.N,Net-(U3-SPLIT)*%
X165557000Y-128524000D02*
X165570000Y-128524000D01*
D44*
X167042500Y-119888000D02*
X167042500Y-123304500D01*
D45*
X163206000Y-128524000D02*
X165557000Y-128524000D01*
X166166000Y-128524000D02*
X167055000Y-129413000D01*
D44*
X167042500Y-123304500D02*
X167055000Y-123317000D01*
D45*
X165570000Y-128524000D02*
X166166000Y-128524000D01*
D46*
%TO.N,Net-(U3-STB)*%
X160083500Y-123051000D02*
X161493000Y-123051000D01*
X161493000Y-123051000D02*
X161505000Y-123063000D01*
X161505000Y-123063000D02*
X161505000Y-124345000D01*
X161747000Y-124587000D02*
X163079000Y-124587000D01*
X163079000Y-124587000D02*
X163206000Y-124714000D01*
X161505000Y-124345000D02*
X161747000Y-124587000D01*
%TO.N,/Core/UART3_TX*%
X142732000Y-110598000D02*
X153689000Y-110598000D01*
X170180000Y-105283000D02*
X170561000Y-104902000D01*
X159004000Y-105283000D02*
X170180000Y-105283000D01*
X153689000Y-110598000D02*
X159004000Y-105283000D01*
X170561000Y-104902000D02*
X170561000Y-102681000D01*
%TO.N,/Core/UART3_RX*%
X142789000Y-109855000D02*
X142732000Y-109798000D01*
X168783000Y-104648000D02*
X158877000Y-104648000D01*
X169291000Y-102681000D02*
X169291000Y-104140000D01*
X158877000Y-104648000D02*
X153670000Y-109855000D01*
X153670000Y-109855000D02*
X142789000Y-109855000D01*
X169291000Y-104140000D02*
X168783000Y-104648000D01*
%TO.N,/Core/SWDIO*%
X155194000Y-110998000D02*
X157136104Y-110998000D01*
X157562096Y-111005800D02*
X157569896Y-110998000D01*
X157569896Y-110998000D02*
X174498000Y-110998000D01*
X174498000Y-110998000D02*
X175768000Y-109728000D01*
X157136104Y-110998000D02*
X157143904Y-111005800D01*
X157143904Y-111005800D02*
X157562096Y-111005800D01*
X153067000Y-108998000D02*
X142732000Y-108998000D01*
X153416000Y-109347000D02*
X153067000Y-108998000D01*
%TO.N,/Core/SWCLK*%
X171631947Y-110490000D02*
X171642947Y-110501000D01*
X172455000Y-110501000D02*
X175768000Y-107188000D01*
X153416000Y-108204000D02*
X142738000Y-108204000D01*
X171642947Y-110501000D02*
X172455000Y-110501000D01*
X142738000Y-108204000D02*
X142732000Y-108198000D01*
X157364000Y-110490000D02*
X171631947Y-110490000D01*
X153924000Y-108712000D02*
X153416000Y-108204000D01*
X157353000Y-110501000D02*
X157364000Y-110490000D01*
%TO.N,/Core/BOOT0*%
X136525000Y-103378000D02*
X136525000Y-106791000D01*
X133890666Y-101532500D02*
X136053000Y-101532500D01*
X136053000Y-102906000D02*
X136525000Y-103378000D01*
X136525000Y-106791000D02*
X136557000Y-106823000D01*
X136053000Y-101532500D02*
X136053000Y-102906000D01*
%TO.N,/USB/D-*%
X165993000Y-96312000D02*
X165993000Y-98621000D01*
X166993000Y-99137000D02*
X166751000Y-99379000D01*
X166993000Y-96312000D02*
X166993000Y-99137000D01*
X166751000Y-99379000D02*
X166751000Y-102681000D01*
X165993000Y-98621000D02*
X166751000Y-99379000D01*
%TO.N,/USB/D+*%
X166493000Y-96312000D02*
X166493000Y-95311000D01*
X166243000Y-95061000D02*
X165735000Y-95061000D01*
X165735000Y-95061000D02*
X165493000Y-95303000D01*
X165493000Y-96312000D02*
X165493000Y-102669000D01*
X165493000Y-95303000D02*
X165493000Y-96312000D01*
X166493000Y-95311000D02*
X166243000Y-95061000D01*
%TO.N,Net-(D1-A)*%
X150082250Y-95869500D02*
X150082250Y-100711000D01*
%TO.N,Net-(D2-A)*%
X152717500Y-95869500D02*
X152717500Y-100711000D01*
%TO.N,Net-(D3-A)*%
X155352750Y-95869500D02*
X155352750Y-100711000D01*
%TO.N,Net-(D4-K)*%
X144281759Y-93819500D02*
X145288000Y-93819500D01*
X137958000Y-97484000D02*
X140617259Y-97484000D01*
X147447000Y-93819500D02*
X145288000Y-93819500D01*
X137958000Y-97484000D02*
X137958000Y-90984000D01*
X140617259Y-97484000D02*
X144281759Y-93819500D01*
%TO.N,Net-(D4-A)*%
X147447000Y-95869500D02*
X147447000Y-100711000D01*
%TO.N,Net-(D5-A)*%
X157988000Y-95869500D02*
X157988000Y-100711000D01*
%TO.N,Net-(J4-CC2)*%
X168477000Y-99314000D02*
X170698000Y-99314000D01*
X170698000Y-99314000D02*
X170763000Y-99379000D01*
X164493000Y-96312000D02*
X164493000Y-98199000D01*
X164493000Y-98199000D02*
X164719000Y-98425000D01*
D45*
%TO.N,Net-(J5-Pin_1)*%
X167488000Y-125984000D02*
X163206000Y-125984000D01*
X170155000Y-123317000D02*
X167488000Y-125984000D01*
%TO.N,Net-(J5-Pin_2)*%
X170155000Y-129413000D02*
X167996000Y-127254000D01*
X167996000Y-127254000D02*
X163206000Y-127254000D01*
%TD*%
%TA.AperFunction,Conductor*%
%TO.N,/Core/PA8*%
G36*
X141653548Y-112908340D02*
G01*
X141655959Y-112915453D01*
X141655959Y-113095107D01*
X141654612Y-113100558D01*
X141543693Y-113311236D01*
X141537326Y-113316785D01*
X141528883Y-113316603D01*
X141354522Y-113244763D01*
X141350695Y-113242207D01*
X141348149Y-113238373D01*
X141290752Y-113098000D01*
X141277660Y-113065980D01*
X141277698Y-113057035D01*
X141284044Y-113050730D01*
X141639814Y-112904629D01*
X141647310Y-112904158D01*
X141653548Y-112908340D01*
G37*
%TD.AperFunction*%
%TD*%
%TA.AperFunction,Conductor*%
%TO.N,/Core/PA8*%
G36*
X142343607Y-112859029D02*
G01*
X142702124Y-112986981D01*
X142707754Y-112991259D01*
X142709891Y-112998000D01*
X142707754Y-113004741D01*
X142702124Y-113009019D01*
X142063492Y-113236940D01*
X142054943Y-113236672D01*
X141739084Y-113101042D01*
X141733930Y-113096728D01*
X141732000Y-113090291D01*
X141732000Y-112905709D01*
X141733930Y-112899272D01*
X141739084Y-112894958D01*
X142054945Y-112759326D01*
X142063491Y-112759059D01*
X142343607Y-112859029D01*
G37*
%TD.AperFunction*%
%TD*%
%TA.AperFunction,Conductor*%
%TO.N,VSS*%
G36*
X141507497Y-116490454D02*
G01*
X141511659Y-116496786D01*
X141631642Y-116963388D01*
X141630786Y-116971514D01*
X141624822Y-116977098D01*
X141361511Y-117087115D01*
X141357000Y-117088019D01*
X141352489Y-117087115D01*
X141089177Y-116977098D01*
X141083213Y-116971514D01*
X141082357Y-116963390D01*
X141202340Y-116496786D01*
X141206503Y-116490454D01*
X141213672Y-116488000D01*
X141500328Y-116488000D01*
X141507497Y-116490454D01*
G37*
%TD.AperFunction*%
%TD*%
%TA.AperFunction,Conductor*%
%TO.N,VSS*%
G36*
X141363741Y-115197245D02*
G01*
X141368019Y-115202875D01*
X141596255Y-115842390D01*
X141596534Y-115849365D01*
X141511731Y-116164342D01*
X141507550Y-116170587D01*
X141500433Y-116173000D01*
X141213567Y-116173000D01*
X141206450Y-116170587D01*
X141202269Y-116164342D01*
X141117465Y-115849365D01*
X141117744Y-115842390D01*
X141345981Y-115202875D01*
X141350259Y-115197245D01*
X141357000Y-115195108D01*
X141363741Y-115197245D01*
G37*
%TD.AperFunction*%
%TD*%
%TA.AperFunction,Conductor*%
%TO.N,VSS*%
G36*
X147635712Y-118552154D02*
G01*
X147784214Y-118590341D01*
X147790546Y-118594503D01*
X147793000Y-118601672D01*
X147793000Y-118888328D01*
X147790546Y-118895497D01*
X147784214Y-118899659D01*
X147317611Y-119019642D01*
X147309485Y-119018786D01*
X147303902Y-119012823D01*
X147193883Y-118749507D01*
X147192980Y-118745000D01*
X147193883Y-118740492D01*
X147303903Y-118477174D01*
X147309485Y-118471213D01*
X147317609Y-118470357D01*
X147635712Y-118552154D01*
G37*
%TD.AperFunction*%
%TD*%
%TA.AperFunction,Conductor*%
%TO.N,VSS*%
G36*
X147814393Y-118152765D02*
G01*
X148345840Y-118737128D01*
X148348884Y-118745000D01*
X148345840Y-118752872D01*
X147814393Y-119337234D01*
X147806923Y-119341002D01*
X147798847Y-119338818D01*
X147459362Y-119091471D01*
X147197808Y-118900903D01*
X147194272Y-118896754D01*
X147193000Y-118891449D01*
X147193000Y-118598551D01*
X147194272Y-118593246D01*
X147197808Y-118589096D01*
X147798847Y-118151180D01*
X147806923Y-118148997D01*
X147814393Y-118152765D01*
G37*
%TD.AperFunction*%
%TD*%
%TA.AperFunction,Conductor*%
%TO.N,Net-(U3-SPLIT)*%
G36*
X165706814Y-124183529D02*
G01*
X165710681Y-124190849D01*
X165758564Y-124573913D01*
X165757544Y-124580337D01*
X165753251Y-124585225D01*
X165747012Y-124587064D01*
X165557058Y-124587999D01*
X165556942Y-124587999D01*
X165366987Y-124587064D01*
X165360748Y-124585225D01*
X165356455Y-124580337D01*
X165355435Y-124573916D01*
X165403318Y-124190849D01*
X165407186Y-124183529D01*
X165414929Y-124180600D01*
X165699071Y-124180600D01*
X165706814Y-124183529D01*
G37*
%TD.AperFunction*%
%TD*%
%TA.AperFunction,Conductor*%
%TO.N,Net-(U3-SPLIT)*%
G36*
X166413319Y-122797651D02*
G01*
X167046593Y-123308935D01*
X167050161Y-123313833D01*
X167050800Y-123319860D01*
X167048338Y-123325398D01*
X166413213Y-124110275D01*
X166407913Y-124113982D01*
X166401454Y-124114308D01*
X166395808Y-124111151D01*
X165968517Y-123680046D01*
X165761111Y-123472641D01*
X165757684Y-123464463D01*
X165760976Y-123456232D01*
X166397564Y-122798615D01*
X166405253Y-122795076D01*
X166413319Y-122797651D01*
G37*
%TD.AperFunction*%
%TD*%
%TA.AperFunction,Conductor*%
%TO.N,Net-(J5-Pin_1)*%
G36*
X170813132Y-122673225D02*
G01*
X171450412Y-123161088D01*
X171453790Y-123165197D01*
X171455000Y-123170378D01*
X171455000Y-123463622D01*
X171453790Y-123468803D01*
X171450412Y-123472912D01*
X170813132Y-123960774D01*
X170805253Y-123963159D01*
X170797753Y-123959764D01*
X170701198Y-123863358D01*
X170162290Y-123325278D01*
X170159258Y-123320031D01*
X170159258Y-123313969D01*
X170162290Y-123308721D01*
X170797754Y-122674234D01*
X170805253Y-122670840D01*
X170813132Y-122673225D01*
G37*
%TD.AperFunction*%
%TD*%
%TA.AperFunction,Conductor*%
%TO.N,Net-(J5-Pin_1)*%
G36*
X175822452Y-122830516D02*
G01*
X177153295Y-123815596D01*
X177157472Y-123821417D01*
X177157472Y-123828583D01*
X177153295Y-123834404D01*
X175822453Y-124819483D01*
X175815107Y-124821773D01*
X175807927Y-124819004D01*
X174819136Y-123980905D01*
X174816085Y-123976898D01*
X174815001Y-123971980D01*
X174815001Y-123678020D01*
X174816085Y-123673102D01*
X174819136Y-123669095D01*
X175807928Y-122830994D01*
X175815106Y-122828226D01*
X175822452Y-122830516D01*
G37*
%TD.AperFunction*%
%TD*%
%TA.AperFunction,Conductor*%
%TO.N,Net-(J5-Pin_2)*%
G36*
X176294755Y-127832203D02*
G01*
X177159227Y-128817283D01*
X177162133Y-128825000D01*
X177159227Y-128832717D01*
X176294755Y-129817796D01*
X176287874Y-129821622D01*
X176280127Y-129820221D01*
X174820866Y-128980774D01*
X174816572Y-128976490D01*
X174815000Y-128970632D01*
X174815000Y-128679368D01*
X174816572Y-128673510D01*
X174820866Y-128669226D01*
X175418199Y-128325606D01*
X176280128Y-127829777D01*
X176287874Y-127828377D01*
X176294755Y-127832203D01*
G37*
%TD.AperFunction*%
%TD*%
%TA.AperFunction,Conductor*%
%TO.N,Net-(J5-Pin_2)*%
G36*
X170813132Y-128769225D02*
G01*
X171450412Y-129257088D01*
X171453790Y-129261197D01*
X171455000Y-129266378D01*
X171455000Y-129559622D01*
X171453790Y-129564803D01*
X171450412Y-129568912D01*
X170813132Y-130056774D01*
X170805253Y-130059159D01*
X170797753Y-130055764D01*
X170701198Y-129959358D01*
X170162290Y-129421278D01*
X170159258Y-129416031D01*
X170159258Y-129409969D01*
X170162290Y-129404721D01*
X170797754Y-128770234D01*
X170805253Y-128766840D01*
X170813132Y-128769225D01*
G37*
%TD.AperFunction*%
%TD*%
%TA.AperFunction,Conductor*%
%TO.N,/Core/PB7*%
G36*
X137457314Y-105824943D02*
G01*
X137461626Y-105830128D01*
X137595700Y-106145961D01*
X137595949Y-106154466D01*
X137368019Y-106793124D01*
X137363741Y-106798754D01*
X137357000Y-106800891D01*
X137350259Y-106798754D01*
X137345981Y-106793124D01*
X137118050Y-106154466D01*
X137118298Y-106145962D01*
X137252374Y-105830127D01*
X137256686Y-105824943D01*
X137263144Y-105823000D01*
X137450856Y-105823000D01*
X137457314Y-105824943D01*
G37*
%TD.AperFunction*%
%TD*%
%TA.AperFunction,Conductor*%
%TO.N,/Core/PB7*%
G36*
X145768719Y-104498037D02*
G01*
X145772889Y-104504334D01*
X145854156Y-104814413D01*
X145853329Y-104822559D01*
X145847364Y-104828168D01*
X145673526Y-104901101D01*
X145669000Y-104902012D01*
X145664474Y-104901101D01*
X145490635Y-104828168D01*
X145484670Y-104822559D01*
X145483843Y-104814413D01*
X145565111Y-104504334D01*
X145569281Y-104498037D01*
X145576429Y-104495600D01*
X145761571Y-104495600D01*
X145768719Y-104498037D01*
G37*
%TD.AperFunction*%
%TD*%
%TA.AperFunction,Conductor*%
%TO.N,/Core/PB6*%
G36*
X138257314Y-105824943D02*
G01*
X138261626Y-105830128D01*
X138395700Y-106145961D01*
X138395949Y-106154466D01*
X138168019Y-106793124D01*
X138163741Y-106798754D01*
X138157000Y-106800891D01*
X138150259Y-106798754D01*
X138145981Y-106793124D01*
X137918050Y-106154466D01*
X137918298Y-106145962D01*
X138052374Y-105830127D01*
X138056686Y-105824943D01*
X138063144Y-105823000D01*
X138250856Y-105823000D01*
X138257314Y-105824943D01*
G37*
%TD.AperFunction*%
%TD*%
%TA.AperFunction,Conductor*%
%TO.N,/Core/PB6*%
G36*
X145133719Y-104879037D02*
G01*
X145137889Y-104885334D01*
X145219156Y-105195413D01*
X145218329Y-105203559D01*
X145212364Y-105209168D01*
X145038526Y-105282101D01*
X145034000Y-105283012D01*
X145029474Y-105282101D01*
X144855635Y-105209168D01*
X144849670Y-105203559D01*
X144848843Y-105195413D01*
X144930111Y-104885334D01*
X144934281Y-104879037D01*
X144941429Y-104876600D01*
X145126571Y-104876600D01*
X145133719Y-104879037D01*
G37*
%TD.AperFunction*%
%TD*%
%TA.AperFunction,Conductor*%
%TO.N,/Core/PB5*%
G36*
X139057314Y-105824943D02*
G01*
X139061626Y-105830128D01*
X139195700Y-106145961D01*
X139195949Y-106154466D01*
X138968019Y-106793124D01*
X138963741Y-106798754D01*
X138957000Y-106800891D01*
X138950259Y-106798754D01*
X138945981Y-106793124D01*
X138718050Y-106154466D01*
X138718298Y-106145962D01*
X138852374Y-105830127D01*
X138856686Y-105824943D01*
X138863144Y-105823000D01*
X139050856Y-105823000D01*
X139057314Y-105824943D01*
G37*
%TD.AperFunction*%
%TD*%
%TA.AperFunction,Conductor*%
%TO.N,/Core/PB5*%
G36*
X144625719Y-105387037D02*
G01*
X144629889Y-105393334D01*
X144711156Y-105703413D01*
X144710329Y-105711559D01*
X144704364Y-105717168D01*
X144530526Y-105790101D01*
X144526000Y-105791012D01*
X144521474Y-105790101D01*
X144347635Y-105717168D01*
X144341670Y-105711559D01*
X144340843Y-105703413D01*
X144422111Y-105393334D01*
X144426281Y-105387037D01*
X144433429Y-105384600D01*
X144618571Y-105384600D01*
X144625719Y-105387037D01*
G37*
%TD.AperFunction*%
%TD*%
%TA.AperFunction,Conductor*%
%TO.N,/Core/PB4*%
G36*
X139857314Y-105824943D02*
G01*
X139861626Y-105830128D01*
X139995700Y-106145961D01*
X139995949Y-106154466D01*
X139768019Y-106793124D01*
X139763741Y-106798754D01*
X139757000Y-106800891D01*
X139750259Y-106798754D01*
X139745981Y-106793124D01*
X139518050Y-106154466D01*
X139518298Y-106145962D01*
X139652374Y-105830127D01*
X139656686Y-105824943D01*
X139663144Y-105823000D01*
X139850856Y-105823000D01*
X139857314Y-105824943D01*
G37*
%TD.AperFunction*%
%TD*%
%TA.AperFunction,Conductor*%
%TO.N,/Core/PB4*%
G36*
X144024654Y-105895037D02*
G01*
X144028824Y-105901334D01*
X144110091Y-106211413D01*
X144109264Y-106219559D01*
X144103299Y-106225168D01*
X143929461Y-106298101D01*
X143924935Y-106299012D01*
X143920409Y-106298101D01*
X143746570Y-106225168D01*
X143740605Y-106219559D01*
X143739778Y-106211413D01*
X143821046Y-105901334D01*
X143825216Y-105895037D01*
X143832364Y-105892600D01*
X144017506Y-105892600D01*
X144024654Y-105895037D01*
G37*
%TD.AperFunction*%
%TD*%
%TA.AperFunction,Conductor*%
%TO.N,/Core/PB3*%
G36*
X140657314Y-105824943D02*
G01*
X140661626Y-105830128D01*
X140795700Y-106145961D01*
X140795949Y-106154466D01*
X140568019Y-106793124D01*
X140563741Y-106798754D01*
X140557000Y-106800891D01*
X140550259Y-106798754D01*
X140545981Y-106793124D01*
X140318050Y-106154466D01*
X140318298Y-106145962D01*
X140452374Y-105830127D01*
X140456686Y-105824943D01*
X140463144Y-105823000D01*
X140650856Y-105823000D01*
X140657314Y-105824943D01*
G37*
%TD.AperFunction*%
%TD*%
%TA.AperFunction,Conductor*%
%TO.N,/Core/PB3*%
G36*
X143482719Y-106276037D02*
G01*
X143486889Y-106282334D01*
X143568156Y-106592413D01*
X143567329Y-106600559D01*
X143561364Y-106606168D01*
X143387526Y-106679101D01*
X143383000Y-106680012D01*
X143378474Y-106679101D01*
X143204635Y-106606168D01*
X143198670Y-106600559D01*
X143197843Y-106592413D01*
X143279111Y-106282334D01*
X143283281Y-106276037D01*
X143290429Y-106273600D01*
X143475571Y-106273600D01*
X143482719Y-106276037D01*
G37*
%TD.AperFunction*%
%TD*%
%TA.AperFunction,Conductor*%
%TO.N,/Core/PA15*%
G36*
X141457314Y-105824943D02*
G01*
X141461626Y-105830128D01*
X141595700Y-106145961D01*
X141595949Y-106154466D01*
X141368019Y-106793124D01*
X141363741Y-106798754D01*
X141357000Y-106800891D01*
X141350259Y-106798754D01*
X141345981Y-106793124D01*
X141118050Y-106154466D01*
X141118298Y-106145962D01*
X141252374Y-105830127D01*
X141256686Y-105824943D01*
X141263144Y-105823000D01*
X141450856Y-105823000D01*
X141457314Y-105824943D01*
G37*
%TD.AperFunction*%
%TD*%
%TA.AperFunction,Conductor*%
%TO.N,/Core/PA15*%
G36*
X142970964Y-106656488D02*
G01*
X142975281Y-106661541D01*
X142976148Y-106668130D01*
X142974267Y-106680000D01*
X142994272Y-106806304D01*
X143039181Y-106894443D01*
X143040074Y-106896789D01*
X143060156Y-106973413D01*
X143059329Y-106981559D01*
X143053364Y-106987168D01*
X142879526Y-107060101D01*
X142875000Y-107061012D01*
X142870474Y-107060101D01*
X142696635Y-106987168D01*
X142690670Y-106981559D01*
X142689843Y-106973413D01*
X142771111Y-106663334D01*
X142775281Y-106657037D01*
X142782429Y-106654600D01*
X142964592Y-106654600D01*
X142970964Y-106656488D01*
G37*
%TD.AperFunction*%
%TD*%
%TA.AperFunction,Conductor*%
%TO.N,/Core/OSC_O*%
G36*
X128011392Y-109461292D02*
G01*
X128375061Y-109623309D01*
X128380113Y-109627625D01*
X128382000Y-109633996D01*
X128382000Y-109823755D01*
X128380767Y-109828983D01*
X128377327Y-109833110D01*
X128062727Y-110069438D01*
X128055017Y-110071763D01*
X128047630Y-110068554D01*
X127796795Y-109829600D01*
X127768355Y-109802507D01*
X127764778Y-109795141D01*
X127766907Y-109787235D01*
X127997113Y-109465174D01*
X128003560Y-109460689D01*
X128011392Y-109461292D01*
G37*
%TD.AperFunction*%
%TD*%
%TA.AperFunction,Conductor*%
%TO.N,/Core/OSC_O*%
G36*
X133712275Y-109558624D02*
G01*
X134348157Y-109785564D01*
X134353907Y-109790018D01*
X134355915Y-109797010D01*
X134353403Y-109803837D01*
X134347342Y-109807860D01*
X133664553Y-109996682D01*
X133659828Y-109996994D01*
X133655366Y-109995409D01*
X133387632Y-109833016D01*
X133383505Y-109828752D01*
X133382000Y-109823012D01*
X133382000Y-109635893D01*
X133384614Y-109628521D01*
X133391288Y-109624444D01*
X133705934Y-109558195D01*
X133712275Y-109558624D01*
G37*
%TD.AperFunction*%
%TD*%
%TA.AperFunction,Conductor*%
%TO.N,/Core/OSC_O*%
G36*
X127522394Y-109468195D02*
G01*
X127756964Y-109787289D01*
X127759197Y-109795184D01*
X127755696Y-109802605D01*
X127478696Y-110072101D01*
X127471353Y-110075387D01*
X127463624Y-110073154D01*
X127146787Y-109841106D01*
X127143265Y-109836959D01*
X127142000Y-109831667D01*
X127142000Y-109641869D01*
X127143838Y-109635574D01*
X127148774Y-109631256D01*
X127508044Y-109464511D01*
X127515875Y-109463792D01*
X127522394Y-109468195D01*
G37*
%TD.AperFunction*%
%TD*%
%TA.AperFunction,Conductor*%
%TO.N,/Core/OSC_O*%
G36*
X124250176Y-109048531D02*
G01*
X124262538Y-109054558D01*
X125445427Y-109631196D01*
X125450222Y-109635512D01*
X125452000Y-109641713D01*
X125452000Y-109830287D01*
X125450222Y-109836488D01*
X125445427Y-109840804D01*
X124250177Y-110423467D01*
X124244000Y-110424603D01*
X124238125Y-110422381D01*
X124234246Y-110417441D01*
X124179781Y-110286410D01*
X123952865Y-109740487D01*
X123951970Y-109736000D01*
X123952865Y-109731512D01*
X124234246Y-109054557D01*
X124238125Y-109049618D01*
X124244000Y-109047396D01*
X124250176Y-109048531D01*
G37*
%TD.AperFunction*%
%TD*%
%TA.AperFunction,Conductor*%
%TO.N,/Core/OSC_I*%
G36*
X134352125Y-108986981D02*
G01*
X134357754Y-108991258D01*
X134359891Y-108997999D01*
X134357754Y-109004740D01*
X134352124Y-109009018D01*
X133713466Y-109236949D01*
X133704961Y-109236700D01*
X133389128Y-109102626D01*
X133383943Y-109098314D01*
X133382000Y-109091856D01*
X133382000Y-108904144D01*
X133383943Y-108897686D01*
X133389128Y-108893374D01*
X133704962Y-108759298D01*
X133713466Y-108759050D01*
X134352125Y-108986981D01*
G37*
%TD.AperFunction*%
%TD*%
%TA.AperFunction,Conductor*%
%TO.N,/Core/OSC_I*%
G36*
X128040722Y-104601370D02*
G01*
X128376194Y-104797014D01*
X128380445Y-104801293D01*
X128382000Y-104807121D01*
X128382000Y-104997072D01*
X128380517Y-105002773D01*
X128376444Y-105007027D01*
X128245623Y-105087757D01*
X128045351Y-105211344D01*
X128037547Y-105212969D01*
X128030515Y-105209217D01*
X127898430Y-105062576D01*
X127767914Y-104917675D01*
X127764908Y-104909961D01*
X127767759Y-104902189D01*
X128025982Y-104603819D01*
X128032910Y-104599935D01*
X128040722Y-104601370D01*
G37*
%TD.AperFunction*%
%TD*%
%TA.AperFunction,Conductor*%
%TO.N,/Core/OSC_I*%
G36*
X127498017Y-104603820D02*
G01*
X127756239Y-104902188D01*
X127759091Y-104909961D01*
X127756085Y-104917675D01*
X127493484Y-105209217D01*
X127486451Y-105212969D01*
X127478647Y-105211344D01*
X127474095Y-105208535D01*
X127147555Y-105007028D01*
X127143483Y-105002773D01*
X127142000Y-104997072D01*
X127142000Y-104807121D01*
X127143555Y-104801293D01*
X127147806Y-104797014D01*
X127151353Y-104794944D01*
X127483278Y-104601369D01*
X127491088Y-104599935D01*
X127498017Y-104603820D01*
G37*
%TD.AperFunction*%
%TD*%
%TA.AperFunction,Conductor*%
%TO.N,/Core/OSC_I*%
G36*
X124250362Y-104169098D02*
G01*
X125436624Y-104797104D01*
X125441173Y-104801409D01*
X125442850Y-104807444D01*
X125442850Y-104996055D01*
X125440983Y-105002396D01*
X125435978Y-105006713D01*
X124250010Y-105543928D01*
X124243912Y-105544901D01*
X124238169Y-105542635D01*
X124234379Y-105537763D01*
X123952865Y-104860487D01*
X123951970Y-104856000D01*
X123952865Y-104851512D01*
X124234085Y-104174945D01*
X124238068Y-104169931D01*
X124244097Y-104167765D01*
X124250362Y-104169098D01*
G37*
%TD.AperFunction*%
%TD*%
%TA.AperFunction,Conductor*%
%TO.N,VSS*%
G36*
X133881241Y-99333416D02*
G01*
X133884638Y-99338985D01*
X134039055Y-99907493D01*
X134038767Y-99914537D01*
X134034486Y-99920136D01*
X134027764Y-99922260D01*
X133742276Y-99922260D01*
X133735098Y-99919799D01*
X133728325Y-99914537D01*
X133620767Y-99830971D01*
X133402315Y-99661248D01*
X133398486Y-99655975D01*
X133398071Y-99649472D01*
X133401198Y-99643757D01*
X133602338Y-99441669D01*
X133606181Y-99439104D01*
X133868904Y-99331228D01*
X133875389Y-99330532D01*
X133881241Y-99333416D01*
G37*
%TD.AperFunction*%
%TD*%
%TA.AperFunction,Conductor*%
%TO.N,VSS*%
G36*
X133952680Y-99581587D02*
G01*
X133957761Y-99586830D01*
X134188573Y-100061765D01*
X134189528Y-100069147D01*
X134185837Y-100075611D01*
X133898935Y-100331463D01*
X133891318Y-100334430D01*
X133883618Y-100331686D01*
X133590036Y-100084818D01*
X133586088Y-100078130D01*
X133587196Y-100070446D01*
X133734229Y-99789162D01*
X133736319Y-99786317D01*
X133938967Y-99583669D01*
X133945480Y-99580377D01*
X133952680Y-99581587D01*
G37*
%TD.AperFunction*%
%TD*%
%TA.AperFunction,Conductor*%
%TO.N,/Core/NRST*%
G36*
X129676481Y-99671786D02*
G01*
X129680797Y-99676598D01*
X129870397Y-100067836D01*
X129871359Y-100075139D01*
X129867766Y-100081570D01*
X129583898Y-100341274D01*
X129576000Y-100344342D01*
X129568102Y-100341274D01*
X129284233Y-100081570D01*
X129280640Y-100075139D01*
X129281602Y-100067836D01*
X129471203Y-99676598D01*
X129475519Y-99671786D01*
X129481732Y-99670000D01*
X129670268Y-99670000D01*
X129676481Y-99671786D01*
G37*
%TD.AperFunction*%
%TD*%
%TA.AperFunction,Conductor*%
%TO.N,/Core/NRST*%
G36*
X127121318Y-96567139D02*
G01*
X128647308Y-97487777D01*
X128730686Y-97538079D01*
X128735308Y-97543289D01*
X128736151Y-97550203D01*
X128732915Y-97556370D01*
X128601204Y-97688081D01*
X128598012Y-97690347D01*
X127120831Y-98402505D01*
X127114662Y-98403615D01*
X127108806Y-98401383D01*
X127104943Y-98396449D01*
X126728151Y-97487775D01*
X126727260Y-97483292D01*
X126728154Y-97478810D01*
X127104471Y-96572669D01*
X127108632Y-96567527D01*
X127114918Y-96565463D01*
X127121318Y-96567139D01*
G37*
%TD.AperFunction*%
%TD*%
%TA.AperFunction,Conductor*%
%TO.N,Net-(D4-K)*%
G36*
X147674769Y-92670987D02*
G01*
X147679026Y-92675071D01*
X148074461Y-93318037D01*
X148076009Y-93326244D01*
X148071689Y-93333393D01*
X147455514Y-93813860D01*
X147447349Y-93816293D01*
X147439699Y-93812543D01*
X146937880Y-93265630D01*
X146934801Y-93257709D01*
X146937894Y-93249794D01*
X147468924Y-92673273D01*
X147472833Y-92670485D01*
X147477531Y-92669500D01*
X147669060Y-92669500D01*
X147674769Y-92670987D01*
G37*
%TD.AperFunction*%
%TD*%
%TA.AperFunction,Conductor*%
%TO.N,Net-(D4-K)*%
G36*
X148324275Y-90103498D02*
G01*
X149094216Y-90421438D01*
X149098021Y-90423978D01*
X149100562Y-90427785D01*
X149418501Y-91197724D01*
X149419248Y-91203991D01*
X149416630Y-91209734D01*
X149411411Y-91213282D01*
X147974632Y-91695616D01*
X147968232Y-91695914D01*
X147962635Y-91692797D01*
X147829202Y-91559364D01*
X147826085Y-91553767D01*
X147826382Y-91547370D01*
X148308718Y-90110586D01*
X148312265Y-90105369D01*
X148318008Y-90102751D01*
X148324275Y-90103498D01*
G37*
%TD.AperFunction*%
%TD*%
%TA.AperFunction,Conductor*%
%TO.N,Net-(D1-K)*%
G36*
X150183260Y-92670700D02*
G01*
X150187363Y-92674053D01*
X150650748Y-93274699D01*
X150653146Y-93282793D01*
X150649473Y-93290394D01*
X150090239Y-93813033D01*
X150082250Y-93816185D01*
X150074261Y-93813033D01*
X149515026Y-93290394D01*
X149511353Y-93282793D01*
X149513750Y-93274701D01*
X149977138Y-92674051D01*
X149981240Y-92670700D01*
X149986401Y-92669500D01*
X150178099Y-92669500D01*
X150183260Y-92670700D01*
G37*
%TD.AperFunction*%
%TD*%
%TA.AperFunction,Conductor*%
%TO.N,Net-(D1-K)*%
G36*
X150864275Y-90103498D02*
G01*
X151634216Y-90421438D01*
X151638021Y-90423978D01*
X151640562Y-90427785D01*
X151958501Y-91197724D01*
X151959248Y-91203991D01*
X151956630Y-91209734D01*
X151951411Y-91213282D01*
X150514632Y-91695616D01*
X150508232Y-91695914D01*
X150502635Y-91692797D01*
X150369202Y-91559364D01*
X150366085Y-91553767D01*
X150366382Y-91547370D01*
X150848718Y-90110586D01*
X150852265Y-90105369D01*
X150858008Y-90102751D01*
X150864275Y-90103498D01*
G37*
%TD.AperFunction*%
%TD*%
%TA.AperFunction,Conductor*%
%TO.N,Net-(D2-K)*%
G36*
X153404275Y-90103498D02*
G01*
X154174216Y-90421438D01*
X154178021Y-90423978D01*
X154180562Y-90427785D01*
X154498501Y-91197724D01*
X154499248Y-91203991D01*
X154496630Y-91209734D01*
X154491411Y-91213282D01*
X153054632Y-91695616D01*
X153048232Y-91695914D01*
X153042635Y-91692797D01*
X152909202Y-91559364D01*
X152906085Y-91553767D01*
X152906382Y-91547370D01*
X153388718Y-90110586D01*
X153392265Y-90105369D01*
X153398008Y-90102751D01*
X153404275Y-90103498D01*
G37*
%TD.AperFunction*%
%TD*%
%TA.AperFunction,Conductor*%
%TO.N,Net-(D2-K)*%
G36*
X152818510Y-92670700D02*
G01*
X152822613Y-92674053D01*
X153285998Y-93274699D01*
X153288396Y-93282793D01*
X153284723Y-93290394D01*
X152725489Y-93813033D01*
X152717500Y-93816185D01*
X152709511Y-93813033D01*
X152150276Y-93290394D01*
X152146603Y-93282793D01*
X152149000Y-93274701D01*
X152612388Y-92674051D01*
X152616490Y-92670700D01*
X152621651Y-92669500D01*
X152813349Y-92669500D01*
X152818510Y-92670700D01*
G37*
%TD.AperFunction*%
%TD*%
%TA.AperFunction,Conductor*%
%TO.N,Net-(D3-K)*%
G36*
X156721486Y-90430325D02*
G01*
X156726759Y-90434368D01*
X157330261Y-91264363D01*
X157332441Y-91270087D01*
X157331430Y-91276128D01*
X157327506Y-91280830D01*
X156314223Y-91989876D01*
X156306493Y-91991945D01*
X156299242Y-91988563D01*
X156163807Y-91853128D01*
X156161656Y-91850168D01*
X155871860Y-91281574D01*
X155870728Y-91274431D01*
X155874009Y-91267990D01*
X156709025Y-90432974D01*
X156714862Y-90429805D01*
X156721486Y-90430325D01*
G37*
%TD.AperFunction*%
%TD*%
%TA.AperFunction,Conductor*%
%TO.N,Net-(D3-K)*%
G36*
X155385673Y-92646195D02*
G01*
X155520240Y-92780762D01*
X155520881Y-92781456D01*
X155934594Y-93268033D01*
X155965577Y-93304472D01*
X155968186Y-93310023D01*
X155967628Y-93316131D01*
X155964057Y-93321118D01*
X155360476Y-93813329D01*
X155352321Y-93815937D01*
X155344574Y-93812292D01*
X154830959Y-93268032D01*
X154827770Y-93260179D01*
X154830721Y-93252234D01*
X155368655Y-92646696D01*
X155373929Y-92643295D01*
X155380205Y-92643109D01*
X155385673Y-92646195D01*
G37*
%TD.AperFunction*%
%TD*%
%TA.AperFunction,Conductor*%
%TO.N,+5V*%
G36*
X159159463Y-126639200D02*
G01*
X159363570Y-126843307D01*
X159366894Y-126850032D01*
X159365451Y-126857393D01*
X159232032Y-127090449D01*
X159228547Y-127094249D01*
X159223768Y-127096182D01*
X158266075Y-127252942D01*
X158257686Y-127251125D01*
X158252795Y-127244071D01*
X158187128Y-126964429D01*
X158188311Y-126956035D01*
X158194851Y-126950644D01*
X159147526Y-126636361D01*
X159153896Y-126636090D01*
X159159463Y-126639200D01*
G37*
%TD.AperFunction*%
%TD*%
%TA.AperFunction,Conductor*%
%TO.N,+5V*%
G36*
X135532896Y-127951078D02*
G01*
X135536508Y-127956115D01*
X136054246Y-129357289D01*
X136054700Y-129363848D01*
X136051544Y-129369617D01*
X135846617Y-129574544D01*
X135840848Y-129577700D01*
X135834289Y-129577246D01*
X134433115Y-129059508D01*
X134428078Y-129055896D01*
X134425592Y-129050218D01*
X134426355Y-129044069D01*
X134744439Y-128273780D01*
X134746978Y-128269978D01*
X134750780Y-128267439D01*
X135521069Y-127949355D01*
X135527218Y-127948592D01*
X135532896Y-127951078D01*
G37*
%TD.AperFunction*%
%TD*%
%TA.AperFunction,Conductor*%
%TO.N,+5V*%
G36*
X159216078Y-127443716D02*
G01*
X159221584Y-127446456D01*
X159224940Y-127451612D01*
X159289210Y-127651566D01*
X159289443Y-127657895D01*
X159286344Y-127663419D01*
X159081102Y-127868661D01*
X159075398Y-127871803D01*
X159068898Y-127871408D01*
X158189239Y-127557575D01*
X158182848Y-127552063D01*
X158181827Y-127543686D01*
X158252569Y-127264058D01*
X158257661Y-127257039D01*
X158266186Y-127255452D01*
X159216078Y-127443716D01*
G37*
%TD.AperFunction*%
%TD*%
%TA.AperFunction,Conductor*%
%TO.N,+5V*%
G36*
X158896789Y-123056063D02*
G01*
X159226443Y-123267497D01*
X159231086Y-123273251D01*
X159231352Y-123280640D01*
X159163627Y-123511393D01*
X159160674Y-123516371D01*
X158956390Y-123720655D01*
X158950773Y-123723777D01*
X158944354Y-123723460D01*
X158939071Y-123719802D01*
X158651471Y-123369181D01*
X158648818Y-123361915D01*
X158651278Y-123354583D01*
X158881234Y-123058730D01*
X158888494Y-123054379D01*
X158896789Y-123056063D01*
G37*
%TD.AperFunction*%
%TD*%
%TA.AperFunction,Conductor*%
%TO.N,+5V*%
G36*
X158222953Y-127242878D02*
G01*
X158228791Y-127247130D01*
X158231020Y-127254000D01*
X158228791Y-127260870D01*
X158222953Y-127265122D01*
X157377341Y-127541358D01*
X157369874Y-127541290D01*
X157161135Y-127468884D01*
X156988864Y-127409128D01*
X156983167Y-127404858D01*
X156981000Y-127398075D01*
X156981000Y-127109925D01*
X156983167Y-127103142D01*
X156988864Y-127098871D01*
X157369875Y-126966708D01*
X157377341Y-126966641D01*
X158222953Y-127242878D01*
G37*
%TD.AperFunction*%
%TD*%
%TA.AperFunction,Conductor*%
%TO.N,+5V*%
G36*
X156465538Y-126669855D02*
G01*
X156836882Y-126907757D01*
X156841322Y-126912993D01*
X156842061Y-126919818D01*
X156838844Y-126925882D01*
X156634619Y-127130107D01*
X156632371Y-127131864D01*
X156393732Y-127275213D01*
X156385062Y-127276580D01*
X156377881Y-127271534D01*
X156163738Y-126940217D01*
X156161970Y-126932292D01*
X156165786Y-126925125D01*
X156451451Y-126670965D01*
X156458308Y-126668043D01*
X156465538Y-126669855D01*
G37*
%TD.AperFunction*%
%TD*%
%TA.AperFunction,Conductor*%
%TO.N,GND*%
G36*
X154182507Y-113284883D02*
G01*
X154445823Y-113394902D01*
X154451786Y-113400485D01*
X154452642Y-113408611D01*
X154332659Y-113875214D01*
X154328497Y-113881546D01*
X154321328Y-113884000D01*
X154034672Y-113884000D01*
X154027503Y-113881546D01*
X154023341Y-113875214D01*
X153985154Y-113726712D01*
X153903357Y-113408609D01*
X153904213Y-113400485D01*
X153910174Y-113394903D01*
X154173492Y-113284883D01*
X154178000Y-113283980D01*
X154182507Y-113284883D01*
G37*
%TD.AperFunction*%
%TD*%
%TA.AperFunction,Conductor*%
%TO.N,GND*%
G36*
X154329294Y-113342272D02*
G01*
X154333610Y-113347053D01*
X154630937Y-113953980D01*
X154631889Y-113961488D01*
X154628047Y-113968008D01*
X154185617Y-114347467D01*
X154178000Y-114350286D01*
X154170383Y-114347467D01*
X153727952Y-113968008D01*
X153724110Y-113961488D01*
X153725061Y-113953983D01*
X154022389Y-113347053D01*
X154026706Y-113342272D01*
X154032897Y-113340500D01*
X154323103Y-113340500D01*
X154329294Y-113342272D01*
G37*
%TD.AperFunction*%
%TD*%
%TA.AperFunction,Conductor*%
%TO.N,GND*%
G36*
X154328497Y-121068454D02*
G01*
X154332659Y-121074786D01*
X154452642Y-121541388D01*
X154451786Y-121549514D01*
X154445822Y-121555098D01*
X154182511Y-121665115D01*
X154178000Y-121666019D01*
X154173489Y-121665115D01*
X153910177Y-121555098D01*
X153904213Y-121549514D01*
X153903357Y-121541390D01*
X154023340Y-121074786D01*
X154027503Y-121068454D01*
X154034672Y-121066000D01*
X154321328Y-121066000D01*
X154328497Y-121068454D01*
G37*
%TD.AperFunction*%
%TD*%
%TA.AperFunction,Conductor*%
%TO.N,GND*%
G36*
X154185615Y-120094531D02*
G01*
X154628047Y-120473991D01*
X154631889Y-120480511D01*
X154630937Y-120488019D01*
X154333610Y-121094947D01*
X154329294Y-121099728D01*
X154323103Y-121101500D01*
X154032897Y-121101500D01*
X154026706Y-121099728D01*
X154022390Y-121094947D01*
X153952202Y-120951674D01*
X153725061Y-120488016D01*
X153724110Y-120480511D01*
X153727950Y-120473993D01*
X154170384Y-120094531D01*
X154178000Y-120091713D01*
X154185615Y-120094531D01*
G37*
%TD.AperFunction*%
%TD*%
%TA.AperFunction,Conductor*%
%TO.N,GND*%
G36*
X155308038Y-119195486D02*
G01*
X155569163Y-119491257D01*
X155572092Y-119499000D01*
X155569163Y-119506743D01*
X155308038Y-119802513D01*
X155301715Y-119806211D01*
X155294432Y-119805424D01*
X154961865Y-119654515D01*
X154956865Y-119650198D01*
X154955000Y-119643861D01*
X154955000Y-119354139D01*
X154956865Y-119347802D01*
X154961865Y-119343485D01*
X155015035Y-119319357D01*
X155294434Y-119192574D01*
X155301715Y-119191788D01*
X155308038Y-119195486D01*
G37*
%TD.AperFunction*%
%TD*%
%TA.AperFunction,Conductor*%
%TO.N,GND*%
G36*
X155009975Y-119350369D02*
G01*
X155015363Y-119354670D01*
X155017394Y-119361258D01*
X155017394Y-119648478D01*
X155016019Y-119653980D01*
X154658435Y-120324994D01*
X154651589Y-120330663D01*
X154642735Y-120329884D01*
X154182545Y-120091868D01*
X154178285Y-120088114D01*
X154176295Y-120082797D01*
X154117117Y-119561906D01*
X154119200Y-119553817D01*
X154126148Y-119549178D01*
X154673163Y-119424843D01*
X155003101Y-119349849D01*
X155009975Y-119350369D01*
G37*
%TD.AperFunction*%
%TD*%
%TA.AperFunction,Conductor*%
%TO.N,GND*%
G36*
X156107165Y-114334493D02*
G01*
X156310250Y-114537578D01*
X156313577Y-114544324D01*
X156312109Y-114551702D01*
X156017116Y-115062545D01*
X156010760Y-115067768D01*
X156002536Y-115067516D01*
X155707151Y-114946114D01*
X155702535Y-114942691D01*
X155700106Y-114937483D01*
X155632717Y-114584013D01*
X155633671Y-114576742D01*
X155638763Y-114571467D01*
X156093448Y-114332409D01*
X156100648Y-114331199D01*
X156107165Y-114334493D01*
G37*
%TD.AperFunction*%
%TD*%
%TA.AperFunction,Conductor*%
%TO.N,GND*%
G36*
X157274812Y-113174274D02*
G01*
X158252922Y-113768314D01*
X158257739Y-113774036D01*
X158258105Y-113781506D01*
X158253870Y-113787672D01*
X157273933Y-114522798D01*
X157266983Y-114525139D01*
X157260005Y-114522883D01*
X156728001Y-114133780D01*
X156726635Y-114132609D01*
X156520062Y-113926036D01*
X156517029Y-113920774D01*
X156517043Y-113914699D01*
X156520101Y-113909451D01*
X157260506Y-113175963D01*
X157267369Y-113172656D01*
X157274812Y-113174274D01*
G37*
%TD.AperFunction*%
%TD*%
%TA.AperFunction,Conductor*%
%TO.N,GND*%
G36*
X155310552Y-114332410D02*
G01*
X155765234Y-114571466D01*
X155770328Y-114576742D01*
X155771282Y-114584013D01*
X155703893Y-114937483D01*
X155701464Y-114942691D01*
X155696848Y-114946114D01*
X155401463Y-115067516D01*
X155393239Y-115067768D01*
X155386883Y-115062545D01*
X155091889Y-114551699D01*
X155090422Y-114544324D01*
X155093748Y-114537579D01*
X155296836Y-114334491D01*
X155303351Y-114331199D01*
X155310552Y-114332410D01*
G37*
%TD.AperFunction*%
%TD*%
%TA.AperFunction,Conductor*%
%TO.N,GND*%
G36*
X154587809Y-113887192D02*
G01*
X155217820Y-114248940D01*
X155222590Y-114254125D01*
X155223518Y-114261109D01*
X155220267Y-114267359D01*
X155015991Y-114471635D01*
X155015068Y-114472465D01*
X154592230Y-114813839D01*
X154583843Y-114816390D01*
X154576038Y-114812399D01*
X154280719Y-114471635D01*
X154183890Y-114359905D01*
X154181033Y-114352281D01*
X154183842Y-114344639D01*
X154573095Y-113889729D01*
X154579993Y-113885808D01*
X154587809Y-113887192D01*
G37*
%TD.AperFunction*%
%TD*%
%TA.AperFunction,Conductor*%
%TO.N,/Core/PA0*%
G36*
X120674912Y-126749881D02*
G01*
X122387944Y-127415671D01*
X122392880Y-127419315D01*
X122395293Y-127424956D01*
X122394520Y-127431043D01*
X122049562Y-128266215D01*
X122047021Y-128270021D01*
X122043215Y-128272562D01*
X121208043Y-128617520D01*
X121201956Y-128618293D01*
X121196315Y-128615880D01*
X121192671Y-128610944D01*
X121058688Y-128266215D01*
X120526881Y-126897912D01*
X120526338Y-126891269D01*
X120529512Y-126885407D01*
X120662407Y-126752512D01*
X120668269Y-126749338D01*
X120674912Y-126749881D01*
G37*
%TD.AperFunction*%
%TD*%
%TA.AperFunction,Conductor*%
%TO.N,/Core/PA0*%
G36*
X134352124Y-112186981D02*
G01*
X134357754Y-112191259D01*
X134359891Y-112198000D01*
X134357754Y-112204741D01*
X134352124Y-112209019D01*
X133713466Y-112436949D01*
X133704961Y-112436700D01*
X133389128Y-112302626D01*
X133383943Y-112298314D01*
X133382000Y-112291856D01*
X133382000Y-112104144D01*
X133383943Y-112097686D01*
X133389128Y-112093374D01*
X133704962Y-111959298D01*
X133713466Y-111959050D01*
X134352124Y-112186981D01*
G37*
%TD.AperFunction*%
%TD*%
%TA.AperFunction,Conductor*%
%TO.N,GND*%
G36*
X172922514Y-98089213D02*
G01*
X172928098Y-98095177D01*
X173038115Y-98358489D01*
X173039019Y-98363000D01*
X173038115Y-98367511D01*
X172928098Y-98630822D01*
X172922514Y-98636786D01*
X172914388Y-98637642D01*
X172447786Y-98517659D01*
X172441454Y-98513497D01*
X172439000Y-98506328D01*
X172439000Y-98219672D01*
X172441454Y-98212503D01*
X172447786Y-98208341D01*
X172559595Y-98179589D01*
X172914390Y-98088357D01*
X172922514Y-98089213D01*
G37*
%TD.AperFunction*%
%TD*%
%TA.AperFunction,Conductor*%
%TO.N,GND*%
G36*
X172224437Y-98058039D02*
G01*
X172297374Y-98085109D01*
X172627871Y-98207769D01*
X172633405Y-98212057D01*
X172635500Y-98218738D01*
X172635500Y-98507262D01*
X172633405Y-98513943D01*
X172627871Y-98518231D01*
X172224438Y-98667959D01*
X172217390Y-98668305D01*
X172211425Y-98664535D01*
X171963366Y-98370544D01*
X171960608Y-98362999D01*
X171963365Y-98355456D01*
X172211426Y-98061462D01*
X172217390Y-98057694D01*
X172224437Y-98058039D01*
G37*
%TD.AperFunction*%
%TD*%
%TA.AperFunction,Conductor*%
%TO.N,GND*%
G36*
X172857514Y-100375213D02*
G01*
X172863098Y-100381177D01*
X172973115Y-100644488D01*
X172974019Y-100648999D01*
X172973115Y-100653510D01*
X172863098Y-100916822D01*
X172857514Y-100922786D01*
X172849388Y-100923642D01*
X172382786Y-100803659D01*
X172376454Y-100799497D01*
X172374000Y-100792328D01*
X172374000Y-100505672D01*
X172376454Y-100498503D01*
X172382786Y-100494341D01*
X172494595Y-100465589D01*
X172849390Y-100374357D01*
X172857514Y-100375213D01*
G37*
%TD.AperFunction*%
%TD*%
%TA.AperFunction,Conductor*%
%TO.N,GND*%
G36*
X172177144Y-100353432D02*
G01*
X172567757Y-100493817D01*
X172573370Y-100498098D01*
X172575500Y-100504828D01*
X172575500Y-100793172D01*
X172573370Y-100799902D01*
X172567757Y-100804182D01*
X172473496Y-100838059D01*
X172177146Y-100944566D01*
X172170381Y-100944913D01*
X172164557Y-100941453D01*
X171904225Y-100656897D01*
X171901157Y-100648999D01*
X171904223Y-100641104D01*
X172164559Y-100356544D01*
X172170381Y-100353086D01*
X172177144Y-100353432D01*
G37*
%TD.AperFunction*%
%TD*%
%TA.AperFunction,Conductor*%
%TO.N,GND*%
G36*
X172048118Y-101408727D02*
G01*
X172052126Y-101415637D01*
X172130445Y-101852902D01*
X172129925Y-101858959D01*
X171843667Y-102647123D01*
X171839177Y-102652853D01*
X171832168Y-102654818D01*
X171825353Y-102652259D01*
X171821371Y-102646165D01*
X171580829Y-101750976D01*
X171581609Y-101742818D01*
X171742397Y-101412578D01*
X171746713Y-101407780D01*
X171752916Y-101406000D01*
X172040609Y-101406000D01*
X172048118Y-101408727D01*
G37*
%TD.AperFunction*%
%TD*%
%TA.AperFunction,Conductor*%
%TO.N,GND*%
G36*
X171905743Y-100654836D02*
G01*
X172201513Y-100915961D01*
X172205211Y-100922284D01*
X172204424Y-100929567D01*
X172053515Y-101262135D01*
X172049198Y-101267135D01*
X172042861Y-101269000D01*
X171753139Y-101269000D01*
X171746802Y-101267135D01*
X171742485Y-101262135D01*
X171591575Y-100929567D01*
X171590788Y-100922284D01*
X171594485Y-100915962D01*
X171890257Y-100654835D01*
X171898000Y-100651907D01*
X171905743Y-100654836D01*
G37*
%TD.AperFunction*%
%TD*%
%TA.AperFunction,Conductor*%
%TO.N,Net-(J4-CC1)*%
G36*
X170510190Y-98062194D02*
G01*
X170757633Y-98355454D01*
X170760391Y-98362999D01*
X170757633Y-98370544D01*
X170510190Y-98663805D01*
X170503626Y-98667716D01*
X170496047Y-98666740D01*
X170091999Y-98466225D01*
X170087257Y-98461911D01*
X170085500Y-98455745D01*
X170085500Y-98270255D01*
X170087257Y-98264089D01*
X170091999Y-98259775D01*
X170151470Y-98230261D01*
X170496050Y-98059258D01*
X170503626Y-98058283D01*
X170510190Y-98062194D01*
G37*
%TD.AperFunction*%
%TD*%
%TA.AperFunction,Conductor*%
%TO.N,Net-(J4-CC1)*%
G36*
X167500389Y-96359751D02*
G01*
X167504458Y-96366456D01*
X167642258Y-97033409D01*
X167642500Y-97035776D01*
X167642500Y-97036600D01*
X167641900Y-97040300D01*
X167595667Y-97179000D01*
X167591408Y-97184792D01*
X167584567Y-97187000D01*
X167401433Y-97187000D01*
X167394592Y-97184792D01*
X167390333Y-97179000D01*
X167344100Y-97040300D01*
X167343500Y-97036600D01*
X167343500Y-97035776D01*
X167343742Y-97033409D01*
X167481542Y-96366456D01*
X167485611Y-96359751D01*
X167493000Y-96357123D01*
X167500389Y-96359751D01*
G37*
%TD.AperFunction*%
%TD*%
%TA.AperFunction,Conductor*%
%TO.N,GND*%
G36*
X157992507Y-92710883D02*
G01*
X158255823Y-92820902D01*
X158261786Y-92826485D01*
X158262642Y-92834611D01*
X158142659Y-93301214D01*
X158138497Y-93307546D01*
X158131328Y-93310000D01*
X157844672Y-93310000D01*
X157837503Y-93307546D01*
X157833341Y-93301214D01*
X157795154Y-93152712D01*
X157713357Y-92834609D01*
X157714213Y-92826485D01*
X157720174Y-92820903D01*
X157983492Y-92710883D01*
X157988000Y-92709980D01*
X157992507Y-92710883D01*
G37*
%TD.AperFunction*%
%TD*%
%TA.AperFunction,Conductor*%
%TO.N,GND*%
G36*
X158139765Y-92711257D02*
G01*
X158143907Y-92714756D01*
X158556819Y-93274745D01*
X158559053Y-93282763D01*
X158555391Y-93290237D01*
X157995989Y-93813033D01*
X157988000Y-93816185D01*
X157980011Y-93813033D01*
X157420608Y-93290237D01*
X157416946Y-93282763D01*
X157419179Y-93274746D01*
X157832093Y-92714755D01*
X157836235Y-92711257D01*
X157841510Y-92710000D01*
X158134490Y-92710000D01*
X158139765Y-92711257D01*
G37*
%TD.AperFunction*%
%TD*%
%TA.AperFunction,Conductor*%
%TO.N,GND*%
G36*
X162695364Y-95746505D02*
G01*
X162700585Y-95751594D01*
X162988273Y-96302306D01*
X162989592Y-96308228D01*
X162987768Y-96314014D01*
X162983291Y-96318109D01*
X162701590Y-96464240D01*
X162693734Y-96465291D01*
X162687011Y-96461094D01*
X162379536Y-96070795D01*
X162377047Y-96062864D01*
X162380453Y-96055283D01*
X162588632Y-95847105D01*
X162681727Y-95748958D01*
X162688143Y-95745496D01*
X162695364Y-95746505D01*
G37*
%TD.AperFunction*%
%TD*%
%TA.AperFunction,Conductor*%
%TO.N,GND*%
G36*
X162695364Y-95746505D02*
G01*
X162700585Y-95751594D01*
X162988273Y-96302306D01*
X162989592Y-96308228D01*
X162987768Y-96314014D01*
X162983291Y-96318109D01*
X162701590Y-96464240D01*
X162693734Y-96465291D01*
X162687011Y-96461094D01*
X162379536Y-96070795D01*
X162377047Y-96062864D01*
X162380453Y-96055283D01*
X162588632Y-95847105D01*
X162681727Y-95748958D01*
X162688143Y-95745496D01*
X162695364Y-95746505D01*
G37*
%TD.AperFunction*%
%TD*%
%TA.AperFunction,Conductor*%
%TO.N,GND*%
G36*
X162427801Y-95199812D02*
G01*
X162880690Y-96135302D01*
X162881696Y-96142348D01*
X162878432Y-96148673D01*
X162672165Y-96354940D01*
X162664016Y-96358366D01*
X162191443Y-96363384D01*
X162184250Y-96361008D01*
X162180020Y-96354723D01*
X161924964Y-95406227D01*
X161925772Y-95398010D01*
X161931803Y-95392372D01*
X162412813Y-95194092D01*
X162421441Y-95193979D01*
X162427801Y-95199812D01*
G37*
%TD.AperFunction*%
%TD*%
%TA.AperFunction,Conductor*%
%TO.N,GND*%
G36*
X169804273Y-95748960D02*
G01*
X169838222Y-95784751D01*
X169897368Y-95847105D01*
X169897382Y-95847119D01*
X170105545Y-96055282D01*
X170108952Y-96062864D01*
X170106463Y-96070795D01*
X169798988Y-96461094D01*
X169792265Y-96465291D01*
X169784409Y-96464240D01*
X169502708Y-96318109D01*
X169498231Y-96314014D01*
X169496407Y-96308228D01*
X169497726Y-96302306D01*
X169785415Y-95751593D01*
X169790635Y-95746506D01*
X169797856Y-95745497D01*
X169804273Y-95748960D01*
G37*
%TD.AperFunction*%
%TD*%
%TA.AperFunction,Conductor*%
%TO.N,GND*%
G36*
X169804273Y-95748960D02*
G01*
X169838222Y-95784751D01*
X169897368Y-95847105D01*
X169897382Y-95847119D01*
X170105545Y-96055282D01*
X170108952Y-96062864D01*
X170106463Y-96070795D01*
X169798988Y-96461094D01*
X169792265Y-96465291D01*
X169784409Y-96464240D01*
X169502708Y-96318109D01*
X169498231Y-96314014D01*
X169496407Y-96308228D01*
X169497726Y-96302306D01*
X169785415Y-95751593D01*
X169790635Y-95746506D01*
X169797856Y-95745497D01*
X169804273Y-95748960D01*
G37*
%TD.AperFunction*%
%TD*%
%TA.AperFunction,Conductor*%
%TO.N,GND*%
G36*
X170073186Y-95194092D02*
G01*
X170554195Y-95392372D01*
X170560227Y-95398010D01*
X170561035Y-95406227D01*
X170305978Y-96354723D01*
X170301748Y-96361008D01*
X170294555Y-96363384D01*
X169821983Y-96358366D01*
X169813834Y-96354940D01*
X169607567Y-96148673D01*
X169604303Y-96142348D01*
X169605309Y-96135302D01*
X170058198Y-95199811D01*
X170064558Y-95193979D01*
X170073186Y-95194092D01*
G37*
%TD.AperFunction*%
%TD*%
%TA.AperFunction,Conductor*%
%TO.N,GND*%
G36*
X169190833Y-109700107D02*
G01*
X169196869Y-109704327D01*
X169199187Y-109711318D01*
X169199187Y-109997993D01*
X169196605Y-110005324D01*
X169189999Y-110009419D01*
X169094377Y-110030440D01*
X168727298Y-110111138D01*
X168719390Y-110110093D01*
X168713991Y-110104223D01*
X168603835Y-109840580D01*
X168602932Y-109836071D01*
X168603834Y-109831565D01*
X168713700Y-109568616D01*
X168719485Y-109562556D01*
X168727841Y-109561918D01*
X169190833Y-109700107D01*
G37*
%TD.AperFunction*%
%TD*%
%TA.AperFunction,Conductor*%
%TO.N,GND*%
G36*
X170429441Y-109562545D02*
G01*
X170689774Y-109847102D01*
X170692842Y-109854999D01*
X170689774Y-109862897D01*
X170429442Y-110147453D01*
X170423618Y-110150913D01*
X170416853Y-110150566D01*
X170192217Y-110069833D01*
X170026242Y-110010182D01*
X170020630Y-110005902D01*
X170018500Y-109999172D01*
X170018500Y-109710828D01*
X170020630Y-109704098D01*
X170026243Y-109699818D01*
X170416853Y-109559434D01*
X170423618Y-109559086D01*
X170429441Y-109562545D01*
G37*
%TD.AperFunction*%
%TD*%
%TA.AperFunction,Conductor*%
%TO.N,GND*%
G36*
X162691507Y-122047883D02*
G01*
X162955048Y-122157996D01*
X162960948Y-122163453D01*
X162961934Y-122171431D01*
X162854498Y-122635354D01*
X162850380Y-122641873D01*
X162843100Y-122644414D01*
X162556428Y-122644414D01*
X162549381Y-122642054D01*
X162545177Y-122635926D01*
X162412690Y-122171804D01*
X162413398Y-122163519D01*
X162419429Y-122157796D01*
X162682492Y-122047883D01*
X162687000Y-122046980D01*
X162691507Y-122047883D01*
G37*
%TD.AperFunction*%
%TD*%
%TA.AperFunction,Conductor*%
%TO.N,GND*%
G36*
X162851160Y-122424901D02*
G01*
X162855475Y-122429988D01*
X163016407Y-122795711D01*
X163017071Y-122803168D01*
X163013078Y-122809502D01*
X162707380Y-123058000D01*
X162700000Y-123060621D01*
X162692620Y-123058000D01*
X162386921Y-122809502D01*
X162382928Y-122803168D01*
X162383591Y-122795713D01*
X162544525Y-122429987D01*
X162548840Y-122424901D01*
X162555234Y-122423000D01*
X162844766Y-122423000D01*
X162851160Y-122424901D01*
G37*
%TD.AperFunction*%
%TD*%
%TA.AperFunction,Conductor*%
%TO.N,GND*%
G36*
X172222514Y-119614213D02*
G01*
X172228098Y-119620177D01*
X172338115Y-119883489D01*
X172339019Y-119888000D01*
X172338115Y-119892511D01*
X172228098Y-120155822D01*
X172222514Y-120161786D01*
X172214388Y-120162642D01*
X171747786Y-120042659D01*
X171741454Y-120038497D01*
X171739000Y-120031328D01*
X171739000Y-119744672D01*
X171741454Y-119737503D01*
X171747786Y-119733341D01*
X171859595Y-119704589D01*
X172214390Y-119613357D01*
X172222514Y-119614213D01*
G37*
%TD.AperFunction*%
%TD*%
%TA.AperFunction,Conductor*%
%TO.N,GND*%
G36*
X170838136Y-119231764D02*
G01*
X171487938Y-119732088D01*
X171491298Y-119736191D01*
X171492500Y-119741357D01*
X171492500Y-120034643D01*
X171491298Y-120039809D01*
X171487938Y-120043911D01*
X171263145Y-120216994D01*
X170838137Y-120544234D01*
X170830248Y-120546640D01*
X170822732Y-120543243D01*
X170174791Y-119896279D01*
X170171757Y-119891031D01*
X170171757Y-119884969D01*
X170174791Y-119879721D01*
X170318538Y-119736191D01*
X170822733Y-119232755D01*
X170830248Y-119229359D01*
X170838136Y-119231764D01*
G37*
%TD.AperFunction*%
%TD*%
%TA.AperFunction,Conductor*%
%TO.N,GND*%
G36*
X155577212Y-125604654D02*
G01*
X155725714Y-125642841D01*
X155732046Y-125647003D01*
X155734500Y-125654172D01*
X155734500Y-125940828D01*
X155732046Y-125947997D01*
X155725714Y-125952159D01*
X155259111Y-126072142D01*
X155250985Y-126071286D01*
X155245402Y-126065323D01*
X155135383Y-125802007D01*
X155134480Y-125797500D01*
X155135383Y-125792992D01*
X155245403Y-125529674D01*
X155250985Y-125523713D01*
X155259109Y-125522857D01*
X155577212Y-125604654D01*
G37*
%TD.AperFunction*%
%TD*%
%TA.AperFunction,Conductor*%
%TO.N,GND*%
G36*
X155892038Y-125493986D02*
G01*
X156153163Y-125789757D01*
X156156092Y-125797500D01*
X156153163Y-125805243D01*
X155892038Y-126101013D01*
X155885715Y-126104711D01*
X155878432Y-126103924D01*
X155545865Y-125953015D01*
X155540865Y-125948698D01*
X155539000Y-125942361D01*
X155539000Y-125652639D01*
X155540865Y-125646302D01*
X155545865Y-125641985D01*
X155599036Y-125617857D01*
X155878434Y-125491074D01*
X155885715Y-125490288D01*
X155892038Y-125493986D01*
G37*
%TD.AperFunction*%
%TD*%
%TA.AperFunction,Conductor*%
%TO.N,GND*%
G36*
X150694309Y-123932588D02*
G01*
X151109088Y-124177685D01*
X151114228Y-124184036D01*
X151113959Y-124192202D01*
X151005563Y-124456184D01*
X151003013Y-124460013D01*
X150999184Y-124462563D01*
X150735202Y-124570959D01*
X150727036Y-124571228D01*
X150720685Y-124566088D01*
X150475588Y-124151309D01*
X150474054Y-124143889D01*
X150477387Y-124137085D01*
X150680085Y-123934387D01*
X150686889Y-123931054D01*
X150694309Y-123932588D01*
G37*
%TD.AperFunction*%
%TD*%
%TA.AperFunction,Conductor*%
%TO.N,GND*%
G36*
X150360016Y-118751543D02*
G01*
X150926271Y-119284367D01*
X150929822Y-119291145D01*
X150928426Y-119298668D01*
X150507763Y-120039080D01*
X150503475Y-120043412D01*
X150497590Y-120045000D01*
X150206410Y-120045000D01*
X150200525Y-120043412D01*
X150196237Y-120039080D01*
X149775573Y-119298668D01*
X149774177Y-119291145D01*
X149777726Y-119284369D01*
X150343983Y-118751543D01*
X150352000Y-118748365D01*
X150360016Y-118751543D01*
G37*
%TD.AperFunction*%
%TD*%
%TA.AperFunction,Conductor*%
%TO.N,/CAN/CAN_RX*%
G36*
X143458632Y-112000589D02*
G01*
X143726368Y-112162984D01*
X143730495Y-112167248D01*
X143732000Y-112172988D01*
X143732000Y-112360107D01*
X143729386Y-112367479D01*
X143722711Y-112371555D01*
X143636051Y-112389802D01*
X143408067Y-112437804D01*
X143401723Y-112437374D01*
X142765843Y-112210435D01*
X142760092Y-112205981D01*
X142758084Y-112198989D01*
X142760596Y-112192162D01*
X142766656Y-112188139D01*
X143449447Y-111999315D01*
X143454170Y-111999004D01*
X143458632Y-112000589D01*
G37*
%TD.AperFunction*%
%TD*%
%TA.AperFunction,Conductor*%
%TO.N,/CAN/CAN_RX*%
G36*
X158222955Y-128512878D02*
G01*
X158228791Y-128517129D01*
X158231020Y-128523999D01*
X158228791Y-128530869D01*
X158222953Y-128535121D01*
X157378039Y-128811130D01*
X157369375Y-128810571D01*
X156987669Y-128628776D01*
X156982807Y-128624459D01*
X156981000Y-128618213D01*
X156981000Y-128429787D01*
X156982807Y-128423541D01*
X156987669Y-128419224D01*
X157075382Y-128377448D01*
X157369376Y-128237427D01*
X157378039Y-128236869D01*
X158222955Y-128512878D01*
G37*
%TD.AperFunction*%
%TD*%
%TA.AperFunction,Conductor*%
%TO.N,/CAN/CAN_TX*%
G36*
X143409037Y-111159298D02*
G01*
X143724872Y-111293374D01*
X143730057Y-111297686D01*
X143732000Y-111304144D01*
X143732000Y-111491856D01*
X143730057Y-111498314D01*
X143724872Y-111502626D01*
X143409038Y-111636700D01*
X143400533Y-111636949D01*
X142761875Y-111409019D01*
X142756245Y-111404741D01*
X142754108Y-111398000D01*
X142756245Y-111391259D01*
X142761875Y-111386981D01*
X143012078Y-111297686D01*
X143400533Y-111159050D01*
X143409037Y-111159298D01*
G37*
%TD.AperFunction*%
%TD*%
%TA.AperFunction,Conductor*%
%TO.N,/CAN/CAN_TX*%
G36*
X158222953Y-124702878D02*
G01*
X158228791Y-124707130D01*
X158231020Y-124714000D01*
X158228791Y-124720870D01*
X158222953Y-124725122D01*
X157378039Y-125001130D01*
X157369375Y-125000571D01*
X156987669Y-124818776D01*
X156982807Y-124814459D01*
X156981000Y-124808213D01*
X156981000Y-124619787D01*
X156982807Y-124613541D01*
X156987669Y-124609224D01*
X157075382Y-124567448D01*
X157369376Y-124427427D01*
X157378039Y-124426869D01*
X158222953Y-124702878D01*
G37*
%TD.AperFunction*%
%TD*%
%TA.AperFunction,Conductor*%
%TO.N,GND*%
G36*
X150948309Y-125964588D02*
G01*
X151363088Y-126209685D01*
X151368228Y-126216036D01*
X151367959Y-126224202D01*
X151259563Y-126488184D01*
X151257013Y-126492013D01*
X151253184Y-126494563D01*
X150989202Y-126602959D01*
X150981036Y-126603228D01*
X150974685Y-126598088D01*
X150729588Y-126183309D01*
X150728054Y-126175889D01*
X150731387Y-126169085D01*
X150934085Y-125966387D01*
X150940889Y-125963054D01*
X150948309Y-125964588D01*
G37*
%TD.AperFunction*%
%TD*%
%TA.AperFunction,Conductor*%
%TO.N,GND*%
G36*
X145243314Y-124949781D02*
G01*
X146600193Y-125574466D01*
X146605152Y-125578784D01*
X146607000Y-125585094D01*
X146607000Y-125874906D01*
X146605152Y-125881216D01*
X146600193Y-125885534D01*
X145243317Y-126510217D01*
X145237201Y-126511225D01*
X145231429Y-126508968D01*
X145227619Y-126504078D01*
X144966206Y-125874906D01*
X144907864Y-125734488D01*
X144906970Y-125730000D01*
X144907865Y-125725511D01*
X145227620Y-124955919D01*
X145231429Y-124951031D01*
X145237201Y-124948774D01*
X145243314Y-124949781D01*
G37*
%TD.AperFunction*%
%TD*%
%TA.AperFunction,Conductor*%
%TO.N,VDD*%
G36*
X139507712Y-113605154D02*
G01*
X139656214Y-113643341D01*
X139662546Y-113647503D01*
X139665000Y-113654672D01*
X139665000Y-113941328D01*
X139662546Y-113948497D01*
X139656214Y-113952659D01*
X139189611Y-114072642D01*
X139181485Y-114071786D01*
X139175902Y-114065823D01*
X139065883Y-113802508D01*
X139064980Y-113797999D01*
X139065882Y-113793493D01*
X139175903Y-113530174D01*
X139181485Y-113524213D01*
X139189609Y-113523357D01*
X139507712Y-113605154D01*
G37*
%TD.AperFunction*%
%TD*%
%TA.AperFunction,Conductor*%
%TO.N,VDD*%
G36*
X139507712Y-113605154D02*
G01*
X139656214Y-113643341D01*
X139662546Y-113647503D01*
X139665000Y-113654672D01*
X139665000Y-113941328D01*
X139662546Y-113948497D01*
X139656214Y-113952659D01*
X139189611Y-114072642D01*
X139181485Y-114071786D01*
X139175902Y-114065823D01*
X139065883Y-113802508D01*
X139064980Y-113797999D01*
X139065882Y-113793493D01*
X139175903Y-113530174D01*
X139181485Y-113524213D01*
X139189609Y-113523357D01*
X139507712Y-113605154D01*
G37*
%TD.AperFunction*%
%TD*%
%TA.AperFunction,Conductor*%
%TO.N,VDD*%
G36*
X142062609Y-113558744D02*
G01*
X142702124Y-113786981D01*
X142707754Y-113791259D01*
X142709891Y-113798000D01*
X142707754Y-113804741D01*
X142702124Y-113809019D01*
X142062609Y-114037255D01*
X142055634Y-114037534D01*
X141740658Y-113952731D01*
X141734413Y-113948550D01*
X141732000Y-113941433D01*
X141732000Y-113654567D01*
X141734413Y-113647450D01*
X141740658Y-113643269D01*
X141764724Y-113636789D01*
X142055636Y-113558465D01*
X142062609Y-113558744D01*
G37*
%TD.AperFunction*%
%TD*%
%TA.AperFunction,Conductor*%
%TO.N,/Core/PA1*%
G36*
X134352124Y-112986981D02*
G01*
X134357754Y-112991259D01*
X134359891Y-112998000D01*
X134357754Y-113004741D01*
X134352124Y-113009019D01*
X133713466Y-113236949D01*
X133704961Y-113236700D01*
X133389128Y-113102626D01*
X133383943Y-113098314D01*
X133382000Y-113091856D01*
X133382000Y-112904144D01*
X133383943Y-112897686D01*
X133389128Y-112893374D01*
X133704962Y-112759298D01*
X133713466Y-112759050D01*
X134352124Y-112986981D01*
G37*
%TD.AperFunction*%
%TD*%
%TA.AperFunction,Conductor*%
%TO.N,/Core/PA1*%
G36*
X122147514Y-124031754D02*
G01*
X122151828Y-124036490D01*
X122826722Y-125393508D01*
X122827904Y-125399707D01*
X122825694Y-125405619D01*
X122820735Y-125409523D01*
X122051489Y-125729134D01*
X122047000Y-125730029D01*
X122042511Y-125729134D01*
X121273264Y-125409523D01*
X121268305Y-125405619D01*
X121266095Y-125399707D01*
X121267276Y-125393510D01*
X121942172Y-124036489D01*
X121946486Y-124031754D01*
X121952648Y-124030000D01*
X122141352Y-124030000D01*
X122147514Y-124031754D01*
G37*
%TD.AperFunction*%
%TD*%
%TA.AperFunction,Conductor*%
%TO.N,/Core/PA2*%
G36*
X123463629Y-126998382D02*
G01*
X124900411Y-127480717D01*
X124905630Y-127484265D01*
X124908248Y-127490008D01*
X124907501Y-127496275D01*
X124589562Y-128266214D01*
X124587021Y-128270021D01*
X124583214Y-128272562D01*
X123813275Y-128590501D01*
X123807008Y-128591248D01*
X123801265Y-128588630D01*
X123797717Y-128583411D01*
X123315382Y-127146629D01*
X123315085Y-127140232D01*
X123318200Y-127134637D01*
X123451637Y-127001200D01*
X123457232Y-126998085D01*
X123463629Y-126998382D01*
G37*
%TD.AperFunction*%
%TD*%
%TA.AperFunction,Conductor*%
%TO.N,/Core/PA2*%
G36*
X134352124Y-113786981D02*
G01*
X134357754Y-113791259D01*
X134359891Y-113798000D01*
X134357754Y-113804741D01*
X134352124Y-113809019D01*
X133713466Y-114036949D01*
X133704961Y-114036700D01*
X133389128Y-113902626D01*
X133383943Y-113898314D01*
X133382000Y-113891856D01*
X133382000Y-113704144D01*
X133383943Y-113697686D01*
X133389128Y-113693374D01*
X133704962Y-113559298D01*
X133713466Y-113559050D01*
X134352124Y-113786981D01*
G37*
%TD.AperFunction*%
%TD*%
%TA.AperFunction,Conductor*%
%TO.N,/Core/PA3*%
G36*
X124687514Y-124031754D02*
G01*
X124691828Y-124036490D01*
X125366722Y-125393508D01*
X125367904Y-125399707D01*
X125365694Y-125405619D01*
X125360735Y-125409523D01*
X124591489Y-125729134D01*
X124587000Y-125730029D01*
X124582511Y-125729134D01*
X123813264Y-125409523D01*
X123808305Y-125405619D01*
X123806095Y-125399707D01*
X123807276Y-125393510D01*
X124482172Y-124036489D01*
X124486486Y-124031754D01*
X124492648Y-124030000D01*
X124681352Y-124030000D01*
X124687514Y-124031754D01*
G37*
%TD.AperFunction*%
%TD*%
%TA.AperFunction,Conductor*%
%TO.N,/Core/PA3*%
G36*
X135763741Y-115197245D02*
G01*
X135768019Y-115202875D01*
X135995985Y-115841632D01*
X135995806Y-115849968D01*
X135867564Y-116165703D01*
X135863258Y-116171006D01*
X135856724Y-116173000D01*
X135669015Y-116173000D01*
X135662633Y-116171106D01*
X135658317Y-116166038D01*
X135518406Y-115850105D01*
X135518085Y-115841435D01*
X135745981Y-115202874D01*
X135750259Y-115197245D01*
X135757000Y-115195108D01*
X135763741Y-115197245D01*
G37*
%TD.AperFunction*%
%TD*%
%TA.AperFunction,Conductor*%
%TO.N,/Core/PA4*%
G36*
X136563741Y-115197245D02*
G01*
X136568019Y-115202875D01*
X136795949Y-115841533D01*
X136795700Y-115850038D01*
X136661626Y-116165872D01*
X136657314Y-116171057D01*
X136650856Y-116173000D01*
X136463144Y-116173000D01*
X136456686Y-116171057D01*
X136452374Y-116165872D01*
X136318299Y-115850038D01*
X136318050Y-115841533D01*
X136545981Y-115202875D01*
X136550259Y-115197245D01*
X136557000Y-115195108D01*
X136563741Y-115197245D01*
G37*
%TD.AperFunction*%
%TD*%
%TA.AperFunction,Conductor*%
%TO.N,/Core/PA4*%
G36*
X126003629Y-126998382D02*
G01*
X127440411Y-127480717D01*
X127445630Y-127484265D01*
X127448248Y-127490008D01*
X127447501Y-127496275D01*
X127129562Y-128266214D01*
X127127021Y-128270021D01*
X127123214Y-128272562D01*
X126353275Y-128590501D01*
X126347008Y-128591248D01*
X126341265Y-128588630D01*
X126337717Y-128583411D01*
X125855382Y-127146629D01*
X125855085Y-127140232D01*
X125858200Y-127134637D01*
X125991637Y-127001200D01*
X125997232Y-126998085D01*
X126003629Y-126998382D01*
G37*
%TD.AperFunction*%
%TD*%
%TA.AperFunction,Conductor*%
%TO.N,/Core/PA5*%
G36*
X127101073Y-123983776D02*
G01*
X127232238Y-124114941D01*
X127234316Y-124117761D01*
X127906320Y-125393372D01*
X127907641Y-125399635D01*
X127905468Y-125405656D01*
X127900451Y-125409632D01*
X127130780Y-125728846D01*
X127126294Y-125729739D01*
X127121809Y-125728844D01*
X126353496Y-125409619D01*
X126348491Y-125405652D01*
X126346315Y-125399649D01*
X126347614Y-125393400D01*
X127082430Y-123986631D01*
X127087559Y-123981589D01*
X127094669Y-123980499D01*
X127101073Y-123983776D01*
G37*
%TD.AperFunction*%
%TD*%
%TA.AperFunction,Conductor*%
%TO.N,/Core/PA5*%
G36*
X137363741Y-115197245D02*
G01*
X137368019Y-115202875D01*
X137595949Y-115841533D01*
X137595700Y-115850038D01*
X137461626Y-116165872D01*
X137457314Y-116171057D01*
X137450856Y-116173000D01*
X137263144Y-116173000D01*
X137256686Y-116171057D01*
X137252374Y-116165872D01*
X137118299Y-115850038D01*
X137118050Y-115841533D01*
X137345981Y-115202875D01*
X137350259Y-115197245D01*
X137357000Y-115195108D01*
X137363741Y-115197245D01*
G37*
%TD.AperFunction*%
%TD*%
%TA.AperFunction,Conductor*%
%TO.N,/Core/PA6*%
G36*
X138163741Y-115197245D02*
G01*
X138168019Y-115202875D01*
X138395949Y-115841533D01*
X138395700Y-115850038D01*
X138261626Y-116165872D01*
X138257314Y-116171057D01*
X138250856Y-116173000D01*
X138063144Y-116173000D01*
X138056686Y-116171057D01*
X138052374Y-116165872D01*
X137918299Y-115850038D01*
X137918050Y-115841533D01*
X138145981Y-115202875D01*
X138150259Y-115197245D01*
X138157000Y-115195108D01*
X138163741Y-115197245D01*
G37*
%TD.AperFunction*%
%TD*%
%TA.AperFunction,Conductor*%
%TO.N,/Core/PA6*%
G36*
X128618731Y-127047559D02*
G01*
X128756363Y-127091361D01*
X129980154Y-127480842D01*
X129985469Y-127484354D01*
X129988156Y-127490133D01*
X129987415Y-127496463D01*
X129668856Y-128266512D01*
X129666316Y-128270315D01*
X129662511Y-128272853D01*
X128893633Y-128590353D01*
X128887249Y-128591081D01*
X128881443Y-128588327D01*
X128877968Y-128582925D01*
X128418358Y-127062093D01*
X128418483Y-127054939D01*
X128422747Y-127049195D01*
X128429559Y-127047008D01*
X128615183Y-127047008D01*
X128618731Y-127047559D01*
G37*
%TD.AperFunction*%
%TD*%
%TA.AperFunction,Conductor*%
%TO.N,/Core/PA7*%
G36*
X138963741Y-115197245D02*
G01*
X138968019Y-115202875D01*
X139195949Y-115841533D01*
X139195700Y-115850038D01*
X139061626Y-116165872D01*
X139057314Y-116171057D01*
X139050856Y-116173000D01*
X138863144Y-116173000D01*
X138856686Y-116171057D01*
X138852374Y-116165872D01*
X138718299Y-115850038D01*
X138718050Y-115841533D01*
X138945981Y-115202875D01*
X138950259Y-115197245D01*
X138957000Y-115195108D01*
X138963741Y-115197245D01*
G37*
%TD.AperFunction*%
%TD*%
%TA.AperFunction,Conductor*%
%TO.N,/Core/PA7*%
G36*
X129767514Y-124031754D02*
G01*
X129771828Y-124036490D01*
X130446722Y-125393508D01*
X130447904Y-125399707D01*
X130445694Y-125405619D01*
X130440735Y-125409523D01*
X129671489Y-125729134D01*
X129667000Y-125730029D01*
X129662511Y-125729134D01*
X128893264Y-125409523D01*
X128888305Y-125405619D01*
X128886095Y-125399707D01*
X128887276Y-125393510D01*
X129562172Y-124036489D01*
X129566486Y-124031754D01*
X129572648Y-124030000D01*
X129761352Y-124030000D01*
X129767514Y-124031754D01*
G37*
%TD.AperFunction*%
%TD*%
%TA.AperFunction,Conductor*%
%TO.N,/Core/PB0*%
G36*
X139763741Y-115197245D02*
G01*
X139768019Y-115202875D01*
X139995949Y-115841533D01*
X139995700Y-115850038D01*
X139861626Y-116165872D01*
X139857314Y-116171057D01*
X139850856Y-116173000D01*
X139663144Y-116173000D01*
X139656686Y-116171057D01*
X139652374Y-116165872D01*
X139518299Y-115850038D01*
X139518050Y-115841533D01*
X139745981Y-115202875D01*
X139750259Y-115197245D01*
X139757000Y-115195108D01*
X139763741Y-115197245D01*
G37*
%TD.AperFunction*%
%TD*%
%TA.AperFunction,Conductor*%
%TO.N,/Core/PB0*%
G36*
X136238731Y-127047559D02*
G01*
X136376363Y-127091361D01*
X137600154Y-127480842D01*
X137605469Y-127484354D01*
X137608156Y-127490133D01*
X137607415Y-127496463D01*
X137288856Y-128266512D01*
X137286316Y-128270315D01*
X137282511Y-128272853D01*
X136513633Y-128590353D01*
X136507249Y-128591081D01*
X136501443Y-128588327D01*
X136497968Y-128582925D01*
X136038358Y-127062093D01*
X136038483Y-127054939D01*
X136042747Y-127049195D01*
X136049559Y-127047008D01*
X136235183Y-127047008D01*
X136238731Y-127047559D01*
G37*
%TD.AperFunction*%
%TD*%
%TA.AperFunction,Conductor*%
%TO.N,/Core/PB1*%
G36*
X137387514Y-124031754D02*
G01*
X137391828Y-124036490D01*
X138066722Y-125393508D01*
X138067904Y-125399707D01*
X138065694Y-125405619D01*
X138060735Y-125409523D01*
X137291489Y-125729134D01*
X137287000Y-125730029D01*
X137282511Y-125729134D01*
X136513264Y-125409523D01*
X136508305Y-125405619D01*
X136506095Y-125399707D01*
X136507276Y-125393510D01*
X137182172Y-124036489D01*
X137186486Y-124031754D01*
X137192648Y-124030000D01*
X137381352Y-124030000D01*
X137387514Y-124031754D01*
G37*
%TD.AperFunction*%
%TD*%
%TA.AperFunction,Conductor*%
%TO.N,/Core/PB1*%
G36*
X140563741Y-115197245D02*
G01*
X140568019Y-115202875D01*
X140795949Y-115841533D01*
X140795700Y-115850038D01*
X140661626Y-116165872D01*
X140657314Y-116171057D01*
X140650856Y-116173000D01*
X140463144Y-116173000D01*
X140456686Y-116171057D01*
X140452374Y-116165872D01*
X140318299Y-115850038D01*
X140318050Y-115841533D01*
X140545981Y-115202875D01*
X140550259Y-115197245D01*
X140557000Y-115195108D01*
X140563741Y-115197245D01*
G37*
%TD.AperFunction*%
%TD*%
%TA.AperFunction,Conductor*%
%TO.N,/Core/NRST*%
G36*
X129857035Y-100042509D02*
G01*
X130190320Y-100242493D01*
X130194481Y-100246761D01*
X130196000Y-100252525D01*
X130196000Y-100442475D01*
X130194481Y-100448239D01*
X130190320Y-100452508D01*
X129857035Y-100652491D01*
X129849226Y-100654020D01*
X129842244Y-100650201D01*
X129581836Y-100355243D01*
X129578907Y-100347500D01*
X129581836Y-100339757D01*
X129667707Y-100242493D01*
X129842245Y-100044797D01*
X129849226Y-100040979D01*
X129857035Y-100042509D01*
G37*
%TD.AperFunction*%
%TD*%
%TA.AperFunction,Conductor*%
%TO.N,/Core/NRST*%
G36*
X131469463Y-100029224D02*
G01*
X131723200Y-100330225D01*
X131725952Y-100337560D01*
X131723460Y-100344987D01*
X131481330Y-100653687D01*
X131474469Y-100657929D01*
X131466493Y-100656722D01*
X131094402Y-100452432D01*
X131089964Y-100448135D01*
X131088333Y-100442176D01*
X131088333Y-100252533D01*
X131089855Y-100246763D01*
X131094024Y-100242494D01*
X131172245Y-100195674D01*
X131454510Y-100026725D01*
X131462445Y-100025225D01*
X131469463Y-100029224D01*
G37*
%TD.AperFunction*%
%TD*%
%TA.AperFunction,Conductor*%
%TO.N,/Core/NRST*%
G36*
X126827541Y-95485727D02*
G01*
X126831852Y-95490397D01*
X127645153Y-97090054D01*
X127646388Y-97096278D01*
X127644192Y-97102231D01*
X127639211Y-97106162D01*
X126731487Y-97483136D01*
X126727000Y-97484031D01*
X126722513Y-97483136D01*
X125814788Y-97106162D01*
X125809807Y-97102231D01*
X125807611Y-97096278D01*
X125808846Y-97090054D01*
X126622148Y-95490397D01*
X126626459Y-95485727D01*
X126632577Y-95484000D01*
X126821423Y-95484000D01*
X126827541Y-95485727D01*
G37*
%TD.AperFunction*%
%TD*%
%TA.AperFunction,Conductor*%
%TO.N,/Core/NRST*%
G36*
X126731485Y-90984862D02*
G01*
X127495925Y-91302331D01*
X127639211Y-91361837D01*
X127644192Y-91365768D01*
X127646388Y-91371721D01*
X127645153Y-91377945D01*
X126831852Y-92977603D01*
X126827541Y-92982273D01*
X126821423Y-92984000D01*
X126632577Y-92984000D01*
X126626459Y-92982273D01*
X126622148Y-92977603D01*
X125808846Y-91377945D01*
X125807611Y-91371721D01*
X125809807Y-91365768D01*
X125814787Y-91361837D01*
X126722514Y-90984862D01*
X126727000Y-90983968D01*
X126731485Y-90984862D01*
G37*
%TD.AperFunction*%
%TD*%
%TA.AperFunction,Conductor*%
%TO.N,/Core/NRST*%
G36*
X134352125Y-110586981D02*
G01*
X134357754Y-110591258D01*
X134359891Y-110597999D01*
X134357754Y-110604740D01*
X134352124Y-110609018D01*
X133713466Y-110836949D01*
X133704961Y-110836700D01*
X133389128Y-110702626D01*
X133383943Y-110698314D01*
X133382000Y-110691856D01*
X133382000Y-110504144D01*
X133383943Y-110497686D01*
X133389128Y-110493374D01*
X133704962Y-110359298D01*
X133713466Y-110359050D01*
X134352125Y-110586981D01*
G37*
%TD.AperFunction*%
%TD*%
%TA.AperFunction,Conductor*%
%TO.N,/Core/NRST*%
G36*
X129732844Y-110294137D02*
G01*
X129847505Y-110493694D01*
X129849060Y-110499523D01*
X129849060Y-110682561D01*
X129846702Y-110689605D01*
X129840579Y-110693810D01*
X129833158Y-110693480D01*
X129473387Y-110555022D01*
X129468439Y-110551395D01*
X129466007Y-110545763D01*
X129466758Y-110539678D01*
X129537149Y-110367524D01*
X129539695Y-110363692D01*
X129543518Y-110361138D01*
X129718244Y-110289147D01*
X129726482Y-110288894D01*
X129732844Y-110294137D01*
G37*
%TD.AperFunction*%
%TD*%
%TA.AperFunction,Conductor*%
%TO.N,VSS*%
G36*
X127028314Y-110510911D02*
G01*
X127273411Y-110925690D01*
X127274945Y-110933110D01*
X127271611Y-110939915D01*
X127068915Y-111142611D01*
X127062110Y-111145945D01*
X127054690Y-111144411D01*
X126639911Y-110899314D01*
X126634771Y-110892963D01*
X126635039Y-110884800D01*
X126743436Y-110620814D01*
X126745986Y-110616986D01*
X126749815Y-110614436D01*
X127013800Y-110506039D01*
X127021963Y-110505771D01*
X127028314Y-110510911D01*
G37*
%TD.AperFunction*%
%TD*%
%TA.AperFunction,Conductor*%
%TO.N,VSS*%
G36*
X126642497Y-103288454D02*
G01*
X126646659Y-103294786D01*
X126766642Y-103761388D01*
X126765786Y-103769514D01*
X126759822Y-103775098D01*
X126496510Y-103885115D01*
X126491999Y-103886019D01*
X126487488Y-103885115D01*
X126224176Y-103775097D01*
X126218213Y-103769514D01*
X126217357Y-103761390D01*
X126337340Y-103294786D01*
X126341503Y-103288454D01*
X126348672Y-103286000D01*
X126635328Y-103286000D01*
X126642497Y-103288454D01*
G37*
%TD.AperFunction*%
%TD*%
%TA.AperFunction,Conductor*%
%TO.N,VSS*%
G36*
X126934712Y-105852154D02*
G01*
X127083214Y-105890341D01*
X127089546Y-105894503D01*
X127092000Y-105901672D01*
X127092000Y-106188328D01*
X127089546Y-106195497D01*
X127083214Y-106199659D01*
X126616611Y-106319642D01*
X126608485Y-106318786D01*
X126602902Y-106312823D01*
X126492883Y-106049508D01*
X126491980Y-106044999D01*
X126492882Y-106040493D01*
X126602903Y-105777174D01*
X126608485Y-105771213D01*
X126616609Y-105770357D01*
X126934712Y-105852154D01*
G37*
%TD.AperFunction*%
%TD*%
%TA.AperFunction,Conductor*%
%TO.N,VSS*%
G36*
X127495038Y-105741486D02*
G01*
X127756163Y-106037257D01*
X127759092Y-106045000D01*
X127756163Y-106052743D01*
X127495038Y-106348513D01*
X127488715Y-106352211D01*
X127481432Y-106351424D01*
X127148865Y-106200515D01*
X127143865Y-106196198D01*
X127142000Y-106189861D01*
X127142000Y-105900139D01*
X127143865Y-105893802D01*
X127148865Y-105889485D01*
X127202035Y-105865357D01*
X127481434Y-105738574D01*
X127488715Y-105737788D01*
X127495038Y-105741486D01*
G37*
%TD.AperFunction*%
%TD*%
%TA.AperFunction,Conductor*%
%TO.N,VSS*%
G36*
X148724615Y-115522531D02*
G01*
X149167047Y-115901991D01*
X149170889Y-115908511D01*
X149169937Y-115916019D01*
X148872610Y-116522947D01*
X148868294Y-116527728D01*
X148862103Y-116529500D01*
X148571897Y-116529500D01*
X148565706Y-116527728D01*
X148561390Y-116522947D01*
X148491202Y-116379674D01*
X148264061Y-115916016D01*
X148263110Y-115908511D01*
X148266950Y-115901993D01*
X148709384Y-115522531D01*
X148717000Y-115519713D01*
X148724615Y-115522531D01*
G37*
%TD.AperFunction*%
%TD*%
%TA.AperFunction,Conductor*%
%TO.N,VSS*%
G36*
X128528507Y-100203883D02*
G01*
X128791823Y-100313902D01*
X128797786Y-100319485D01*
X128798642Y-100327611D01*
X128678659Y-100794214D01*
X128674497Y-100800546D01*
X128667328Y-100803000D01*
X128380672Y-100803000D01*
X128373503Y-100800546D01*
X128369341Y-100794214D01*
X128331154Y-100645712D01*
X128249357Y-100327609D01*
X128250213Y-100319485D01*
X128256174Y-100313903D01*
X128519492Y-100203883D01*
X128524000Y-100202980D01*
X128528507Y-100203883D01*
G37*
%TD.AperFunction*%
%TD*%
%TA.AperFunction,Conductor*%
%TO.N,VSS*%
G36*
X126934712Y-103693154D02*
G01*
X127083214Y-103731341D01*
X127089546Y-103735503D01*
X127092000Y-103742672D01*
X127092000Y-104029328D01*
X127089546Y-104036497D01*
X127083214Y-104040659D01*
X126616611Y-104160642D01*
X126608485Y-104159786D01*
X126602902Y-104153823D01*
X126492883Y-103890507D01*
X126491980Y-103886000D01*
X126492883Y-103881492D01*
X126602903Y-103618174D01*
X126608485Y-103612213D01*
X126616609Y-103611357D01*
X126934712Y-103693154D01*
G37*
%TD.AperFunction*%
%TD*%
%TA.AperFunction,Conductor*%
%TO.N,VSS*%
G36*
X129309038Y-101178986D02*
G01*
X129570163Y-101474757D01*
X129573092Y-101482500D01*
X129570163Y-101490243D01*
X129309038Y-101786013D01*
X129302715Y-101789711D01*
X129295432Y-101788924D01*
X128962865Y-101638015D01*
X128957865Y-101633698D01*
X128956000Y-101627361D01*
X128956000Y-101337639D01*
X128957865Y-101331302D01*
X128962865Y-101326985D01*
X129016035Y-101302857D01*
X129295434Y-101176074D01*
X129302715Y-101175288D01*
X129309038Y-101178986D01*
G37*
%TD.AperFunction*%
%TD*%
%TA.AperFunction,Conductor*%
%TO.N,VSS*%
G36*
X131703508Y-105791883D02*
G01*
X131966823Y-105901902D01*
X131972786Y-105907485D01*
X131973642Y-105915611D01*
X131853659Y-106382214D01*
X131849497Y-106388546D01*
X131842328Y-106391000D01*
X131555672Y-106391000D01*
X131548503Y-106388546D01*
X131544341Y-106382214D01*
X131506154Y-106233712D01*
X131424357Y-105915609D01*
X131425213Y-105907485D01*
X131431174Y-105901903D01*
X131694493Y-105791882D01*
X131698999Y-105790980D01*
X131703508Y-105791883D01*
G37*
%TD.AperFunction*%
%TD*%
%TA.AperFunction,Conductor*%
%TO.N,VSS*%
G36*
X131849902Y-106393630D02*
G01*
X131854183Y-106399243D01*
X131994566Y-106789853D01*
X131994913Y-106796618D01*
X131991453Y-106802442D01*
X131706898Y-107062774D01*
X131699000Y-107065842D01*
X131691102Y-107062774D01*
X131406546Y-106802442D01*
X131403086Y-106796618D01*
X131403434Y-106789853D01*
X131543818Y-106399243D01*
X131548098Y-106393630D01*
X131554828Y-106391500D01*
X131843172Y-106391500D01*
X131849902Y-106393630D01*
G37*
%TD.AperFunction*%
%TD*%
%TA.AperFunction,Conductor*%
%TO.N,VSS*%
G36*
X146965566Y-114620574D02*
G01*
X146971982Y-114623486D01*
X147298135Y-114771485D01*
X147303135Y-114775802D01*
X147305000Y-114782139D01*
X147305000Y-115071861D01*
X147303135Y-115078198D01*
X147298135Y-115082515D01*
X146965567Y-115233424D01*
X146958284Y-115234211D01*
X146951961Y-115230513D01*
X146690836Y-114934742D01*
X146687907Y-114926999D01*
X146690835Y-114919257D01*
X146951962Y-114623485D01*
X146958284Y-114619788D01*
X146965566Y-114620574D01*
G37*
%TD.AperFunction*%
%TD*%
%TA.AperFunction,Conductor*%
%TO.N,VSS*%
G36*
X148421323Y-114898186D02*
G01*
X148768850Y-114977178D01*
X148775799Y-114981817D01*
X148777882Y-114989908D01*
X148718704Y-115510797D01*
X148716714Y-115516114D01*
X148712454Y-115519868D01*
X148252264Y-115757884D01*
X148243410Y-115758663D01*
X148236564Y-115752994D01*
X148112331Y-115519868D01*
X147878981Y-115081980D01*
X147877606Y-115076478D01*
X147877606Y-114789258D01*
X147879637Y-114782670D01*
X147885025Y-114778369D01*
X147891899Y-114777849D01*
X148421323Y-114898186D01*
G37*
%TD.AperFunction*%
%TD*%
%TA.AperFunction,Conductor*%
%TO.N,VSS*%
G36*
X127325938Y-108506500D02*
G01*
X127332970Y-108510469D01*
X127335756Y-108518048D01*
X127335756Y-108804762D01*
X127333661Y-108811443D01*
X127328127Y-108815731D01*
X126871340Y-108985254D01*
X126862607Y-108985016D01*
X126856473Y-108978796D01*
X126786549Y-108811443D01*
X126745910Y-108714178D01*
X126745007Y-108709636D01*
X126745954Y-108425713D01*
X126747865Y-108419344D01*
X126752939Y-108415045D01*
X126759533Y-108414205D01*
X127325938Y-108506500D01*
G37*
%TD.AperFunction*%
%TD*%
%TA.AperFunction,Conductor*%
%TO.N,VSS*%
G36*
X127495038Y-108356986D02*
G01*
X127756163Y-108652757D01*
X127759092Y-108660500D01*
X127756163Y-108668243D01*
X127495038Y-108964013D01*
X127488715Y-108967711D01*
X127481432Y-108966924D01*
X127148865Y-108816015D01*
X127143865Y-108811698D01*
X127142000Y-108805361D01*
X127142000Y-108515639D01*
X127143865Y-108509302D01*
X127148865Y-108504985D01*
X127202036Y-108480857D01*
X127481434Y-108354074D01*
X127488715Y-108353288D01*
X127495038Y-108356986D01*
G37*
%TD.AperFunction*%
%TD*%
%TA.AperFunction,Conductor*%
%TO.N,VSS*%
G36*
X130297441Y-111213545D02*
G01*
X130557774Y-111498102D01*
X130560842Y-111505999D01*
X130557774Y-111513897D01*
X130297442Y-111798453D01*
X130291618Y-111801913D01*
X130284853Y-111801566D01*
X130060217Y-111720833D01*
X129894242Y-111661182D01*
X129888630Y-111656902D01*
X129886500Y-111650172D01*
X129886500Y-111361828D01*
X129888630Y-111355098D01*
X129894243Y-111350818D01*
X130284853Y-111210434D01*
X130291618Y-111210086D01*
X130297441Y-111213545D01*
G37*
%TD.AperFunction*%
%TD*%
%TA.AperFunction,Conductor*%
%TO.N,VSS*%
G36*
X146418038Y-114623486D02*
G01*
X146679163Y-114919257D01*
X146682092Y-114927000D01*
X146679163Y-114934743D01*
X146418038Y-115230513D01*
X146411715Y-115234211D01*
X146404432Y-115233424D01*
X146071865Y-115082515D01*
X146066865Y-115078198D01*
X146065000Y-115071861D01*
X146065000Y-114782139D01*
X146066865Y-114775802D01*
X146071865Y-114771485D01*
X146125036Y-114747357D01*
X146404434Y-114620574D01*
X146411715Y-114619788D01*
X146418038Y-114623486D01*
G37*
%TD.AperFunction*%
%TD*%
%TA.AperFunction,Conductor*%
%TO.N,VSS*%
G36*
X127912902Y-107985130D02*
G01*
X127917183Y-107990743D01*
X128057566Y-108381353D01*
X128057913Y-108388118D01*
X128054453Y-108393942D01*
X127769897Y-108654274D01*
X127761999Y-108657342D01*
X127754102Y-108654274D01*
X127469545Y-108393941D01*
X127466086Y-108388118D01*
X127466434Y-108381353D01*
X127606818Y-107990743D01*
X127611098Y-107985130D01*
X127617828Y-107983000D01*
X127906172Y-107983000D01*
X127912902Y-107985130D01*
G37*
%TD.AperFunction*%
%TD*%
%TA.AperFunction,Conductor*%
%TO.N,VSS*%
G36*
X127769896Y-106051224D02*
G01*
X128054453Y-106311557D01*
X128057913Y-106317381D01*
X128057566Y-106324146D01*
X127917183Y-106714757D01*
X127912902Y-106720370D01*
X127906172Y-106722500D01*
X127617828Y-106722500D01*
X127611098Y-106720370D01*
X127606817Y-106714757D01*
X127466433Y-106324146D01*
X127466086Y-106317381D01*
X127469544Y-106311559D01*
X127754103Y-106051224D01*
X127762000Y-106048157D01*
X127769896Y-106051224D01*
G37*
%TD.AperFunction*%
%TD*%
%TA.AperFunction,Conductor*%
%TO.N,VSS*%
G36*
X126750507Y-110617883D02*
G01*
X127013823Y-110727902D01*
X127019786Y-110733485D01*
X127020642Y-110741611D01*
X126900659Y-111208214D01*
X126896497Y-111214546D01*
X126889328Y-111217000D01*
X126602672Y-111217000D01*
X126595503Y-111214546D01*
X126591341Y-111208214D01*
X126553154Y-111059712D01*
X126471357Y-110741609D01*
X126472213Y-110733485D01*
X126478174Y-110727903D01*
X126741492Y-110617883D01*
X126746000Y-110616980D01*
X126750507Y-110617883D01*
G37*
%TD.AperFunction*%
%TD*%
%TA.AperFunction,Conductor*%
%TO.N,VSS*%
G36*
X129583896Y-101488724D02*
G01*
X129868453Y-101749057D01*
X129871913Y-101754881D01*
X129871566Y-101761646D01*
X129731183Y-102152257D01*
X129726902Y-102157870D01*
X129720172Y-102160000D01*
X129431828Y-102160000D01*
X129425098Y-102157870D01*
X129420817Y-102152257D01*
X129280433Y-101761646D01*
X129280086Y-101754881D01*
X129283544Y-101749059D01*
X129568103Y-101488724D01*
X129576000Y-101485657D01*
X129583896Y-101488724D01*
G37*
%TD.AperFunction*%
%TD*%
%TA.AperFunction,Conductor*%
%TO.N,VSS*%
G36*
X148487519Y-117446541D02*
G01*
X148491794Y-117450759D01*
X148928222Y-118191274D01*
X148929725Y-118198866D01*
X148926160Y-118205736D01*
X148360018Y-118738455D01*
X148352000Y-118741634D01*
X148343982Y-118738455D01*
X147777617Y-118205527D01*
X147774080Y-118198843D01*
X147775369Y-118191394D01*
X148180271Y-117451085D01*
X148184569Y-117446636D01*
X148190536Y-117445000D01*
X148481714Y-117445000D01*
X148487519Y-117446541D01*
G37*
%TD.AperFunction*%
%TD*%
%TA.AperFunction,Conductor*%
%TO.N,VSS*%
G36*
X131979566Y-106762574D02*
G01*
X131985982Y-106765486D01*
X132312135Y-106913485D01*
X132317135Y-106917802D01*
X132319000Y-106924139D01*
X132319000Y-107213861D01*
X132317135Y-107220198D01*
X132312135Y-107224515D01*
X131979567Y-107375424D01*
X131972284Y-107376211D01*
X131965961Y-107372513D01*
X131704836Y-107076743D01*
X131701907Y-107069000D01*
X131704836Y-107061257D01*
X131965962Y-106765485D01*
X131972284Y-106761788D01*
X131979566Y-106762574D01*
G37*
%TD.AperFunction*%
%TD*%
%TA.AperFunction,Conductor*%
%TO.N,VDD*%
G36*
X131735878Y-101537866D02*
G01*
X132029868Y-101785925D01*
X132033638Y-101791890D01*
X132033292Y-101798938D01*
X131883564Y-102202371D01*
X131879276Y-102207905D01*
X131872595Y-102210000D01*
X131584071Y-102210000D01*
X131577390Y-102207905D01*
X131573102Y-102202371D01*
X131423373Y-101798938D01*
X131423027Y-101791890D01*
X131426795Y-101785926D01*
X131720788Y-101537865D01*
X131728333Y-101535108D01*
X131735878Y-101537866D01*
G37*
%TD.AperFunction*%
%TD*%
%TA.AperFunction,Conductor*%
%TO.N,VDD*%
G36*
X150378514Y-113518213D02*
G01*
X150384098Y-113524177D01*
X150494115Y-113787489D01*
X150495019Y-113792000D01*
X150494115Y-113796511D01*
X150384098Y-114059822D01*
X150378514Y-114065786D01*
X150370388Y-114066642D01*
X149903786Y-113946659D01*
X149897454Y-113942497D01*
X149895000Y-113935328D01*
X149895000Y-113648672D01*
X149897454Y-113641503D01*
X149903786Y-113637341D01*
X150015595Y-113608589D01*
X150370390Y-113517357D01*
X150378514Y-113518213D01*
G37*
%TD.AperFunction*%
%TD*%
%TA.AperFunction,Conductor*%
%TO.N,VDD*%
G36*
X149120411Y-113321964D02*
G01*
X149661179Y-113636217D01*
X149665441Y-113640497D01*
X149667000Y-113646333D01*
X149667000Y-113937667D01*
X149665441Y-113943503D01*
X149661179Y-113947783D01*
X149120411Y-114262035D01*
X149112497Y-114263441D01*
X149105544Y-114259410D01*
X148722243Y-113799491D01*
X148719531Y-113792000D01*
X148722243Y-113784509D01*
X149105544Y-113324589D01*
X149112497Y-113320558D01*
X149120411Y-113321964D01*
G37*
%TD.AperFunction*%
%TD*%
%TA.AperFunction,Conductor*%
%TO.N,VDD*%
G36*
X156906712Y-112075154D02*
G01*
X157055214Y-112113341D01*
X157061546Y-112117503D01*
X157064000Y-112124672D01*
X157064000Y-112411328D01*
X157061546Y-112418497D01*
X157055214Y-112422659D01*
X156588611Y-112542642D01*
X156580485Y-112541786D01*
X156574902Y-112535823D01*
X156464883Y-112272508D01*
X156463980Y-112267999D01*
X156464882Y-112263493D01*
X156574903Y-112000174D01*
X156580485Y-111994213D01*
X156588609Y-111993357D01*
X156906712Y-112075154D01*
G37*
%TD.AperFunction*%
%TD*%
%TA.AperFunction,Conductor*%
%TO.N,VDD*%
G36*
X168574725Y-113485777D02*
G01*
X169315241Y-113922206D01*
X169319459Y-113926481D01*
X169321000Y-113932286D01*
X169321000Y-114223464D01*
X169319364Y-114229431D01*
X169314914Y-114233728D01*
X169017114Y-114396605D01*
X168574607Y-114638629D01*
X168567156Y-114639919D01*
X168560472Y-114636382D01*
X168513840Y-114586824D01*
X168027543Y-114070016D01*
X168024365Y-114062000D01*
X168027543Y-114053983D01*
X168560264Y-113487837D01*
X168567133Y-113484274D01*
X168574725Y-113485777D01*
G37*
%TD.AperFunction*%
%TD*%
%TA.AperFunction,Conductor*%
%TO.N,VDD*%
G36*
X169767632Y-113503728D02*
G01*
X170300455Y-114069982D01*
X170303634Y-114078000D01*
X170300455Y-114086018D01*
X169767632Y-114652271D01*
X169760854Y-114655822D01*
X169753331Y-114654426D01*
X169012920Y-114233763D01*
X169008588Y-114229475D01*
X169007000Y-114223590D01*
X169007000Y-113932410D01*
X169008588Y-113926525D01*
X169012920Y-113922237D01*
X169229928Y-113798943D01*
X169753333Y-113501572D01*
X169760854Y-113500177D01*
X169767632Y-113503728D01*
G37*
%TD.AperFunction*%
%TD*%
%TA.AperFunction,Conductor*%
%TO.N,VDD*%
G36*
X132366041Y-111244484D02*
G01*
X132373501Y-111248296D01*
X132376500Y-111256118D01*
X132376500Y-111543864D01*
X132375014Y-111549570D01*
X132370934Y-111553826D01*
X132296506Y-111599647D01*
X132029739Y-111763880D01*
X132022860Y-111765593D01*
X132016254Y-111763019D01*
X131706433Y-111512810D01*
X131702205Y-111505389D01*
X131704147Y-111497073D01*
X131907550Y-111201734D01*
X131912300Y-111197741D01*
X131918423Y-111196738D01*
X132366041Y-111244484D01*
G37*
%TD.AperFunction*%
%TD*%
%TA.AperFunction,Conductor*%
%TO.N,VDD*%
G36*
X133712609Y-111158744D02*
G01*
X134352124Y-111386981D01*
X134357754Y-111391259D01*
X134359891Y-111398000D01*
X134357754Y-111404741D01*
X134352124Y-111409019D01*
X133712609Y-111637255D01*
X133705634Y-111637534D01*
X133390658Y-111552731D01*
X133384413Y-111548550D01*
X133382000Y-111541433D01*
X133382000Y-111254567D01*
X133384413Y-111247450D01*
X133390658Y-111243269D01*
X133414724Y-111236789D01*
X133705636Y-111158465D01*
X133712609Y-111158744D01*
G37*
%TD.AperFunction*%
%TD*%
%TA.AperFunction,Conductor*%
%TO.N,VDD*%
G36*
X148328455Y-113324589D02*
G01*
X148711756Y-113784509D01*
X148714468Y-113792000D01*
X148711756Y-113799491D01*
X148328455Y-114259410D01*
X148321502Y-114263441D01*
X148313588Y-114262035D01*
X147772821Y-113947783D01*
X147768559Y-113943503D01*
X147767000Y-113937667D01*
X147767000Y-113646333D01*
X147768559Y-113640497D01*
X147772821Y-113636217D01*
X148313589Y-113321963D01*
X148321502Y-113320558D01*
X148328455Y-113324589D01*
G37*
%TD.AperFunction*%
%TD*%
%TA.AperFunction,Conductor*%
%TO.N,VDD*%
G36*
X146965566Y-113485574D02*
G01*
X146971982Y-113488486D01*
X147298135Y-113636485D01*
X147303135Y-113640802D01*
X147305000Y-113647139D01*
X147305000Y-113936861D01*
X147303135Y-113943198D01*
X147298135Y-113947515D01*
X146965567Y-114098424D01*
X146958284Y-114099211D01*
X146951961Y-114095513D01*
X146690836Y-113799743D01*
X146687907Y-113792000D01*
X146690836Y-113784257D01*
X146951962Y-113488485D01*
X146958284Y-113484788D01*
X146965566Y-113485574D01*
G37*
%TD.AperFunction*%
%TD*%
%TA.AperFunction,Conductor*%
%TO.N,VDD*%
G36*
X146418038Y-113488486D02*
G01*
X146679163Y-113784257D01*
X146682092Y-113792000D01*
X146679163Y-113799743D01*
X146418038Y-114095513D01*
X146411715Y-114099211D01*
X146404432Y-114098424D01*
X146071865Y-113947515D01*
X146066865Y-113943198D01*
X146065000Y-113936861D01*
X146065000Y-113647139D01*
X146066865Y-113640802D01*
X146071865Y-113636485D01*
X146125036Y-113612357D01*
X146404434Y-113485574D01*
X146411715Y-113484788D01*
X146418038Y-113488486D01*
G37*
%TD.AperFunction*%
%TD*%
%TA.AperFunction,Conductor*%
%TO.N,VDD*%
G36*
X143723147Y-113637379D02*
G01*
X143729525Y-113641531D01*
X143732000Y-113648727D01*
X143732000Y-113935591D01*
X143729647Y-113942629D01*
X143723534Y-113946834D01*
X143537244Y-114000407D01*
X143408454Y-114037444D01*
X143401287Y-114037219D01*
X142761874Y-113809018D01*
X142756245Y-113804741D01*
X142754108Y-113798000D01*
X142756245Y-113791259D01*
X142761875Y-113786981D01*
X143149260Y-113648727D01*
X143401495Y-113558706D01*
X143408274Y-113558378D01*
X143723147Y-113637379D01*
G37*
%TD.AperFunction*%
%TD*%
%TA.AperFunction,Conductor*%
%TO.N,VDD*%
G36*
X131995619Y-101216091D02*
G01*
X132361345Y-101377025D01*
X132366432Y-101381340D01*
X132368333Y-101387734D01*
X132368333Y-101677266D01*
X132366432Y-101683660D01*
X132361345Y-101687975D01*
X131995621Y-101848907D01*
X131988164Y-101849571D01*
X131981830Y-101845578D01*
X131733332Y-101539880D01*
X131730711Y-101532500D01*
X131733332Y-101525120D01*
X131851217Y-101380100D01*
X131981832Y-101219419D01*
X131988164Y-101215428D01*
X131995619Y-101216091D01*
G37*
%TD.AperFunction*%
%TD*%
%TA.AperFunction,Conductor*%
%TO.N,VDD*%
G36*
X136069912Y-99599160D02*
G01*
X136075115Y-99603824D01*
X136328366Y-100029376D01*
X136329947Y-100036587D01*
X136326895Y-100043310D01*
X136061285Y-100330026D01*
X136053429Y-100333752D01*
X136045172Y-100331030D01*
X136019305Y-100309279D01*
X135751605Y-100084174D01*
X135747797Y-100078105D01*
X135748241Y-100070954D01*
X135851009Y-99808694D01*
X135853626Y-99804696D01*
X136056790Y-99601532D01*
X136062979Y-99598294D01*
X136069912Y-99599160D01*
G37*
%TD.AperFunction*%
%TD*%
%TA.AperFunction,Conductor*%
%TO.N,VDD*%
G36*
X131977813Y-107894843D02*
G01*
X132229049Y-108005854D01*
X132312029Y-108042520D01*
X132317103Y-108046836D01*
X132319000Y-108053222D01*
X132319000Y-108342943D01*
X132317166Y-108349231D01*
X132312240Y-108353549D01*
X131981319Y-108507690D01*
X131974031Y-108508546D01*
X131967666Y-108504893D01*
X131704894Y-108211692D01*
X131701907Y-108203970D01*
X131704778Y-108196206D01*
X131964260Y-107897866D01*
X131970539Y-107894127D01*
X131977813Y-107894843D01*
G37*
%TD.AperFunction*%
%TD*%
%TA.AperFunction,Conductor*%
%TO.N,VDD*%
G36*
X133712609Y-107958744D02*
G01*
X134352124Y-108186981D01*
X134357754Y-108191259D01*
X134359891Y-108198000D01*
X134357754Y-108204741D01*
X134352124Y-108209019D01*
X133712609Y-108437255D01*
X133705634Y-108437534D01*
X133390658Y-108352731D01*
X133384413Y-108348550D01*
X133382000Y-108341433D01*
X133382000Y-108054567D01*
X133384413Y-108047450D01*
X133390658Y-108043269D01*
X133414724Y-108036789D01*
X133705636Y-107958465D01*
X133712609Y-107958744D01*
G37*
%TD.AperFunction*%
%TD*%
%TA.AperFunction,Conductor*%
%TO.N,VDD*%
G36*
X131653597Y-107836092D02*
G01*
X131661162Y-107839277D01*
X131664774Y-107846647D01*
X131698991Y-108197369D01*
X131697804Y-108203752D01*
X131693396Y-108208519D01*
X131397191Y-108387484D01*
X131389484Y-108389052D01*
X131382525Y-108385386D01*
X131069621Y-108044818D01*
X131066540Y-108036655D01*
X131069963Y-108028630D01*
X131273939Y-107824654D01*
X131277950Y-107822032D01*
X131282673Y-107821238D01*
X131653597Y-107836092D01*
G37*
%TD.AperFunction*%
%TD*%
%TA.AperFunction,Conductor*%
%TO.N,VDD*%
G36*
X168102474Y-112773641D02*
G01*
X168107732Y-112777875D01*
X168602405Y-113500432D01*
X168604384Y-113508287D01*
X168600786Y-113515545D01*
X168029438Y-114055401D01*
X168021627Y-114058595D01*
X168013700Y-114055703D01*
X168013355Y-114055401D01*
X167416913Y-113533646D01*
X167413543Y-113528616D01*
X167413140Y-113522573D01*
X167415811Y-113517140D01*
X167884000Y-112982051D01*
X167884504Y-112981512D01*
X168089807Y-112776209D01*
X168095752Y-112773017D01*
X168102474Y-112773641D01*
G37*
%TD.AperFunction*%
%TD*%
%TA.AperFunction,Conductor*%
%TO.N,+5V*%
G36*
X158275279Y-118385290D02*
G01*
X159009619Y-119120610D01*
X159013022Y-119128223D01*
X159010490Y-119136169D01*
X158422913Y-119873591D01*
X158418842Y-119876840D01*
X158413763Y-119878000D01*
X158120237Y-119878000D01*
X158115158Y-119876840D01*
X158111087Y-119873591D01*
X157523509Y-119136169D01*
X157520977Y-119128223D01*
X157524380Y-119120610D01*
X158258721Y-118385290D01*
X158263969Y-118382257D01*
X158270031Y-118382257D01*
X158275279Y-118385290D01*
G37*
%TD.AperFunction*%
%TD*%
%TA.AperFunction,Conductor*%
%TO.N,+5V*%
G36*
X164136741Y-95288661D02*
G01*
X164141044Y-95293173D01*
X164142419Y-95299254D01*
X164093581Y-96329369D01*
X164091636Y-96335294D01*
X164086924Y-96339379D01*
X164080783Y-96340462D01*
X163801415Y-96313803D01*
X163794804Y-96310946D01*
X163791119Y-96304759D01*
X163628467Y-95592074D01*
X163628394Y-95587213D01*
X163630302Y-95582742D01*
X163834706Y-95291971D01*
X163838885Y-95288317D01*
X163844278Y-95287000D01*
X164130732Y-95287000D01*
X164136741Y-95288661D01*
G37*
%TD.AperFunction*%
%TD*%
%TA.AperFunction,Conductor*%
%TO.N,+5V*%
G36*
X164136741Y-95288661D02*
G01*
X164141044Y-95293173D01*
X164142419Y-95299254D01*
X164093581Y-96329369D01*
X164091636Y-96335294D01*
X164086924Y-96339379D01*
X164080783Y-96340462D01*
X163801415Y-96313803D01*
X163794804Y-96310946D01*
X163791119Y-96304759D01*
X163628467Y-95592074D01*
X163628394Y-95587213D01*
X163630302Y-95582742D01*
X163834706Y-95291971D01*
X163838885Y-95288317D01*
X163844278Y-95287000D01*
X164130732Y-95287000D01*
X164136741Y-95288661D01*
G37*
%TD.AperFunction*%
%TD*%
%TA.AperFunction,Conductor*%
%TO.N,+5V*%
G36*
X175764217Y-112265438D02*
G01*
X175768021Y-112267978D01*
X175770562Y-112271784D01*
X176115634Y-113107231D01*
X176115635Y-113116163D01*
X176109333Y-113122493D01*
X174431960Y-113823776D01*
X174425183Y-113824460D01*
X174419174Y-113821254D01*
X174214745Y-113616825D01*
X174211539Y-113610816D01*
X174212223Y-113604039D01*
X174770809Y-112267978D01*
X174913506Y-111926665D01*
X174919836Y-111920364D01*
X174928766Y-111920364D01*
X175764217Y-112265438D01*
G37*
%TD.AperFunction*%
%TD*%
%TA.AperFunction,Conductor*%
%TO.N,+5V*%
G36*
X171837870Y-107658208D02*
G01*
X171842122Y-107664046D01*
X172118358Y-108509658D01*
X172118290Y-108517125D01*
X171986129Y-108898134D01*
X171981858Y-108903833D01*
X171975075Y-108906000D01*
X171686925Y-108906000D01*
X171680142Y-108903833D01*
X171675871Y-108898134D01*
X171543709Y-108517125D01*
X171543641Y-108509658D01*
X171819878Y-107664046D01*
X171824130Y-107658208D01*
X171831000Y-107655979D01*
X171837870Y-107658208D01*
G37*
%TD.AperFunction*%
%TD*%
%TA.AperFunction,Conductor*%
%TO.N,+5V*%
G36*
X171982198Y-109236865D02*
G01*
X171986515Y-109241865D01*
X172137424Y-109574432D01*
X172138211Y-109581715D01*
X172134513Y-109588038D01*
X171838743Y-109849163D01*
X171831000Y-109852092D01*
X171823257Y-109849163D01*
X171527486Y-109588038D01*
X171523788Y-109581715D01*
X171524574Y-109574434D01*
X171675484Y-109241865D01*
X171679802Y-109236865D01*
X171686139Y-109235000D01*
X171975861Y-109235000D01*
X171982198Y-109236865D01*
G37*
%TD.AperFunction*%
%TD*%
%TA.AperFunction,Conductor*%
%TO.N,+5V*%
G36*
X163702465Y-100138868D02*
G01*
X163707285Y-100141362D01*
X163710462Y-100145765D01*
X163899992Y-100605665D01*
X163900076Y-100614372D01*
X163894122Y-100620726D01*
X163056341Y-101011645D01*
X163049364Y-101012565D01*
X163043121Y-101009315D01*
X162838971Y-100805165D01*
X162835759Y-100799124D01*
X162836474Y-100792320D01*
X163110978Y-100145765D01*
X163166099Y-100015933D01*
X163171643Y-100010039D01*
X163179685Y-100009151D01*
X163702465Y-100138868D01*
G37*
%TD.AperFunction*%
%TD*%
%TA.AperFunction,Conductor*%
%TO.N,+5V*%
G36*
X157274235Y-117633421D02*
G01*
X157487988Y-117793576D01*
X158255503Y-118368637D01*
X158259632Y-118374438D01*
X158259632Y-118381560D01*
X158255503Y-118387362D01*
X157274235Y-119122578D01*
X157267045Y-119124914D01*
X157259928Y-119122365D01*
X156521409Y-118533913D01*
X156518160Y-118529842D01*
X156517000Y-118524763D01*
X156517000Y-118231237D01*
X156518160Y-118226158D01*
X156521409Y-118222087D01*
X156584901Y-118171496D01*
X157259930Y-117633633D01*
X157267045Y-117631085D01*
X157274235Y-117633421D01*
G37*
%TD.AperFunction*%
%TD*%
%TA.AperFunction,Conductor*%
%TO.N,+5V*%
G36*
X154590164Y-117900024D02*
G01*
X155122359Y-118222185D01*
X155126493Y-118226449D01*
X155128000Y-118232194D01*
X155128000Y-118523528D01*
X155126389Y-118529453D01*
X155121998Y-118533747D01*
X154572877Y-118839945D01*
X154564946Y-118841211D01*
X154558067Y-118837066D01*
X154183119Y-118371596D01*
X154180533Y-118364059D01*
X154183371Y-118356615D01*
X154575249Y-117902390D01*
X154582274Y-117898478D01*
X154590164Y-117900024D01*
G37*
%TD.AperFunction*%
%TD*%
%TA.AperFunction,Conductor*%
%TO.N,+5V*%
G36*
X159274071Y-117633634D02*
G01*
X160012591Y-118222087D01*
X160015840Y-118226158D01*
X160017000Y-118231237D01*
X160017000Y-118524763D01*
X160015840Y-118529842D01*
X160012591Y-118533913D01*
X159274071Y-119122365D01*
X159266954Y-119124914D01*
X159259764Y-119122578D01*
X158278496Y-118387362D01*
X158274367Y-118381560D01*
X158274367Y-118374438D01*
X158278493Y-118368638D01*
X159259765Y-117633420D01*
X159266954Y-117631085D01*
X159274071Y-117633634D01*
G37*
%TD.AperFunction*%
%TD*%
%TA.AperFunction,Conductor*%
%TO.N,+5V*%
G36*
X158255286Y-101589591D02*
G01*
X158621012Y-101750525D01*
X158626099Y-101754840D01*
X158628000Y-101761234D01*
X158628000Y-102050766D01*
X158626099Y-102057160D01*
X158621012Y-102061475D01*
X158255288Y-102222407D01*
X158247831Y-102223071D01*
X158241497Y-102219078D01*
X157992999Y-101913380D01*
X157990378Y-101906000D01*
X157992999Y-101898620D01*
X158110884Y-101753600D01*
X158241499Y-101592919D01*
X158247831Y-101588928D01*
X158255286Y-101589591D01*
G37*
%TD.AperFunction*%
%TD*%
%TA.AperFunction,Conductor*%
%TO.N,+5V*%
G36*
X164729514Y-99929213D02*
G01*
X164735098Y-99935177D01*
X164845115Y-100198488D01*
X164846019Y-100202999D01*
X164845115Y-100207510D01*
X164735098Y-100470822D01*
X164729514Y-100476786D01*
X164721388Y-100477642D01*
X164254786Y-100357659D01*
X164248454Y-100353497D01*
X164246000Y-100346328D01*
X164246000Y-100059672D01*
X164248454Y-100052503D01*
X164254786Y-100048341D01*
X164366595Y-100019589D01*
X164721390Y-99928357D01*
X164729514Y-99929213D01*
G37*
%TD.AperFunction*%
%TD*%
%TA.AperFunction,Conductor*%
%TO.N,+5V*%
G36*
X164114934Y-99694474D02*
G01*
X164714235Y-100047207D01*
X164718457Y-100051482D01*
X164720000Y-100057290D01*
X164720000Y-100347405D01*
X164717960Y-100354006D01*
X164712553Y-100358305D01*
X164106118Y-100594904D01*
X164099028Y-100595355D01*
X164092984Y-100591621D01*
X163713141Y-100148743D01*
X163710322Y-100141031D01*
X163713266Y-100133366D01*
X164100247Y-99696794D01*
X164107172Y-99693001D01*
X164114934Y-99694474D01*
G37*
%TD.AperFunction*%
%TD*%
%TA.AperFunction,Conductor*%
%TO.N,+5V*%
G36*
X159039660Y-122412901D02*
G01*
X159043975Y-122417988D01*
X159204907Y-122783711D01*
X159205571Y-122791168D01*
X159201578Y-122797502D01*
X158895880Y-123046000D01*
X158888500Y-123048621D01*
X158881120Y-123046000D01*
X158575421Y-122797502D01*
X158571428Y-122791168D01*
X158572091Y-122783713D01*
X158733025Y-122417987D01*
X158737340Y-122412901D01*
X158743734Y-122411000D01*
X159033266Y-122411000D01*
X159039660Y-122412901D01*
G37*
%TD.AperFunction*%
%TD*%
%TA.AperFunction,Conductor*%
%TO.N,+5V*%
G36*
X168684053Y-95236567D02*
G01*
X168689281Y-95241065D01*
X168903962Y-95582536D01*
X168905646Y-95587155D01*
X168905283Y-95592059D01*
X168703048Y-96280889D01*
X168699082Y-96286768D01*
X168692449Y-96289276D01*
X168685586Y-96287492D01*
X168681013Y-96282072D01*
X168395096Y-95592059D01*
X168395066Y-95591987D01*
X168394185Y-95587047D01*
X168395454Y-95582193D01*
X168465111Y-95445813D01*
X168467253Y-95442869D01*
X168671105Y-95239017D01*
X168677200Y-95235796D01*
X168684053Y-95236567D01*
G37*
%TD.AperFunction*%
%TD*%
%TA.AperFunction,Conductor*%
%TO.N,+5V*%
G36*
X168684053Y-95236567D02*
G01*
X168689281Y-95241065D01*
X168903962Y-95582536D01*
X168905646Y-95587155D01*
X168905283Y-95592059D01*
X168703048Y-96280889D01*
X168699082Y-96286768D01*
X168692449Y-96289276D01*
X168685586Y-96287492D01*
X168681013Y-96282072D01*
X168395096Y-95592059D01*
X168395066Y-95591987D01*
X168394185Y-95587047D01*
X168395454Y-95582193D01*
X168465111Y-95445813D01*
X168467253Y-95442869D01*
X168671105Y-95239017D01*
X168677200Y-95235796D01*
X168684053Y-95236567D01*
G37*
%TD.AperFunction*%
%TD*%
%TA.AperFunction,Conductor*%
%TO.N,+5V*%
G36*
X163799504Y-96331910D02*
G01*
X163803813Y-96337167D01*
X164090980Y-97032112D01*
X164091861Y-97036962D01*
X164090665Y-97041745D01*
X163948615Y-97330465D01*
X163944300Y-97335233D01*
X163938117Y-97337000D01*
X163647883Y-97337000D01*
X163641700Y-97335233D01*
X163637385Y-97330465D01*
X163596264Y-97246888D01*
X163495333Y-97041742D01*
X163494138Y-97036962D01*
X163495018Y-97032115D01*
X163782187Y-96337166D01*
X163786496Y-96331910D01*
X163793000Y-96329935D01*
X163799504Y-96331910D01*
G37*
%TD.AperFunction*%
%TD*%
%TA.AperFunction,Conductor*%
%TO.N,+5V*%
G36*
X163799504Y-96331910D02*
G01*
X163803813Y-96337167D01*
X164090980Y-97032112D01*
X164091861Y-97036962D01*
X164090665Y-97041745D01*
X163948615Y-97330465D01*
X163944300Y-97335233D01*
X163938117Y-97337000D01*
X163647883Y-97337000D01*
X163641700Y-97335233D01*
X163637385Y-97330465D01*
X163596264Y-97246888D01*
X163495333Y-97041742D01*
X163494138Y-97036962D01*
X163495018Y-97032115D01*
X163782187Y-96337166D01*
X163786496Y-96331910D01*
X163793000Y-96329935D01*
X163799504Y-96331910D01*
G37*
%TD.AperFunction*%
%TD*%
%TA.AperFunction,Conductor*%
%TO.N,+5V*%
G36*
X163944179Y-99192883D02*
G01*
X163948495Y-99197927D01*
X164211567Y-99786676D01*
X164212142Y-99794638D01*
X164207476Y-99801116D01*
X163715391Y-100136619D01*
X163707792Y-100138609D01*
X163700648Y-100135345D01*
X163356548Y-99801116D01*
X163276070Y-99722946D01*
X163272572Y-99715628D01*
X163274674Y-99707793D01*
X163637103Y-99195939D01*
X163641277Y-99192308D01*
X163646652Y-99191000D01*
X163937813Y-99191000D01*
X163944179Y-99192883D01*
G37*
%TD.AperFunction*%
%TD*%
%TA.AperFunction,Conductor*%
%TO.N,+5V*%
G36*
X157734502Y-101592921D02*
G01*
X157983000Y-101898620D01*
X157985621Y-101906000D01*
X157983000Y-101913380D01*
X157734502Y-102219078D01*
X157728168Y-102223071D01*
X157720711Y-102222407D01*
X157354988Y-102061475D01*
X157349901Y-102057160D01*
X157348000Y-102050766D01*
X157348000Y-101761234D01*
X157349901Y-101754840D01*
X157354988Y-101750525D01*
X157720713Y-101589591D01*
X157728168Y-101588928D01*
X157734502Y-101592921D01*
G37*
%TD.AperFunction*%
%TD*%
%TA.AperFunction,Conductor*%
%TO.N,+5V*%
G36*
X147714286Y-101589591D02*
G01*
X148080012Y-101750525D01*
X148085099Y-101754840D01*
X148087000Y-101761234D01*
X148087000Y-102050766D01*
X148085099Y-102057160D01*
X148080012Y-102061475D01*
X147714288Y-102222407D01*
X147706831Y-102223071D01*
X147700497Y-102219078D01*
X147451999Y-101913380D01*
X147449378Y-101906000D01*
X147451999Y-101898620D01*
X147569884Y-101753600D01*
X147700499Y-101592919D01*
X147706831Y-101588928D01*
X147714286Y-101589591D01*
G37*
%TD.AperFunction*%
%TD*%
%TA.AperFunction,Conductor*%
%TO.N,+5V*%
G36*
X170315384Y-116084660D02*
G01*
X170866979Y-116613966D01*
X170881518Y-116627917D01*
X170885061Y-116635220D01*
X170883000Y-116643072D01*
X170382455Y-117357650D01*
X170377190Y-117361811D01*
X170370505Y-117362395D01*
X170364599Y-117359210D01*
X170159234Y-117153845D01*
X170158661Y-117153230D01*
X169717023Y-116643072D01*
X169696550Y-116619423D01*
X169693906Y-116613966D01*
X169694348Y-116607917D01*
X169697759Y-116602903D01*
X170299647Y-116084238D01*
X170307596Y-116081406D01*
X170315384Y-116084660D01*
G37*
%TD.AperFunction*%
%TD*%
%TA.AperFunction,Conductor*%
%TO.N,+5V*%
G36*
X170860666Y-115501572D02*
G01*
X171248024Y-115721649D01*
X171601080Y-115922237D01*
X171605412Y-115926525D01*
X171607000Y-115932410D01*
X171607000Y-116223590D01*
X171605412Y-116229475D01*
X171601080Y-116233763D01*
X170860668Y-116654426D01*
X170853145Y-116655822D01*
X170846367Y-116652271D01*
X170452567Y-116233763D01*
X170313543Y-116086016D01*
X170310365Y-116078000D01*
X170313543Y-116069983D01*
X170846369Y-115503726D01*
X170853145Y-115500177D01*
X170860666Y-115501572D01*
G37*
%TD.AperFunction*%
%TD*%
%TA.AperFunction,Conductor*%
%TO.N,+5V*%
G36*
X171835508Y-105791883D02*
G01*
X172098823Y-105901902D01*
X172104786Y-105907485D01*
X172105642Y-105915611D01*
X171985659Y-106382214D01*
X171981497Y-106388546D01*
X171974328Y-106391000D01*
X171687672Y-106391000D01*
X171680503Y-106388546D01*
X171676341Y-106382214D01*
X171638154Y-106233712D01*
X171556357Y-105915609D01*
X171557213Y-105907485D01*
X171563174Y-105901903D01*
X171826493Y-105791882D01*
X171830999Y-105790980D01*
X171835508Y-105791883D01*
G37*
%TD.AperFunction*%
%TD*%
%TA.AperFunction,Conductor*%
%TO.N,+5V*%
G36*
X171981858Y-106358167D02*
G01*
X171986129Y-106363866D01*
X172118290Y-106744874D01*
X172118358Y-106752341D01*
X171842122Y-107597953D01*
X171837870Y-107603791D01*
X171831000Y-107606020D01*
X171824130Y-107603791D01*
X171819878Y-107597953D01*
X171543641Y-106752341D01*
X171543709Y-106744874D01*
X171675871Y-106363866D01*
X171680142Y-106358167D01*
X171686925Y-106356000D01*
X171975075Y-106356000D01*
X171981858Y-106358167D01*
G37*
%TD.AperFunction*%
%TD*%
%TA.AperFunction,Conductor*%
%TO.N,GND*%
G36*
X162837791Y-97999223D02*
G01*
X162842044Y-98005048D01*
X162959868Y-98363668D01*
X162959896Y-98370886D01*
X162955683Y-98376747D01*
X162635710Y-98611964D01*
X162627815Y-98614197D01*
X162620394Y-98610696D01*
X162350175Y-98332954D01*
X162346950Y-98326238D01*
X162348433Y-98318938D01*
X162531221Y-98002843D01*
X162535502Y-97998565D01*
X162541349Y-97997000D01*
X162830929Y-97997000D01*
X162837791Y-97999223D01*
G37*
%TD.AperFunction*%
%TD*%
%TA.AperFunction,Conductor*%
%TO.N,GND*%
G36*
X162288747Y-98392254D02*
G01*
X162618264Y-98609731D01*
X162622314Y-98614325D01*
X162623489Y-98620335D01*
X162621466Y-98626116D01*
X162419092Y-98921035D01*
X162414170Y-98925119D01*
X162407835Y-98926004D01*
X162128722Y-98887229D01*
X162122059Y-98883913D01*
X161918781Y-98680635D01*
X161915628Y-98674879D01*
X161916070Y-98668331D01*
X161919966Y-98663054D01*
X162275218Y-98392707D01*
X162281909Y-98390326D01*
X162288747Y-98392254D01*
G37*
%TD.AperFunction*%
%TD*%
%TA.AperFunction,Conductor*%
%TO.N,GND*%
G36*
X162076660Y-99192383D02*
G01*
X162080874Y-99196205D01*
X162427558Y-99715680D01*
X162429446Y-99723543D01*
X162425783Y-99730752D01*
X161989554Y-100135455D01*
X161982295Y-100138557D01*
X161974717Y-100136342D01*
X161492698Y-99785945D01*
X161488224Y-99779306D01*
X161489065Y-99771347D01*
X161769393Y-99197563D01*
X161773708Y-99192776D01*
X161779905Y-99191000D01*
X162071142Y-99191000D01*
X162076660Y-99192383D01*
G37*
%TD.AperFunction*%
%TD*%
%TA.AperFunction,Conductor*%
%TO.N,GND*%
G36*
X162999504Y-96331910D02*
G01*
X163003813Y-96337167D01*
X163290980Y-97032112D01*
X163291861Y-97036962D01*
X163290665Y-97041745D01*
X163148615Y-97330465D01*
X163144300Y-97335233D01*
X163138117Y-97337000D01*
X162847883Y-97337000D01*
X162841700Y-97335233D01*
X162837385Y-97330465D01*
X162796264Y-97246888D01*
X162695333Y-97041742D01*
X162694138Y-97036962D01*
X162695018Y-97032115D01*
X162982187Y-96337166D01*
X162986496Y-96331910D01*
X162993000Y-96329935D01*
X162999504Y-96331910D01*
G37*
%TD.AperFunction*%
%TD*%
%TA.AperFunction,Conductor*%
%TO.N,GND*%
G36*
X162999504Y-96331910D02*
G01*
X163003813Y-96337167D01*
X163290980Y-97032112D01*
X163291861Y-97036962D01*
X163290665Y-97041745D01*
X163148615Y-97330465D01*
X163144300Y-97335233D01*
X163138117Y-97337000D01*
X162847883Y-97337000D01*
X162841700Y-97335233D01*
X162837385Y-97330465D01*
X162796264Y-97246888D01*
X162695333Y-97041742D01*
X162694138Y-97036962D01*
X162695018Y-97032115D01*
X162982187Y-96337166D01*
X162986496Y-96331910D01*
X162993000Y-96329935D01*
X162999504Y-96331910D01*
G37*
%TD.AperFunction*%
%TD*%
%TA.AperFunction,Conductor*%
%TO.N,GND*%
G36*
X158222955Y-125972878D02*
G01*
X158228791Y-125977129D01*
X158231020Y-125983999D01*
X158228791Y-125990869D01*
X158222953Y-125995121D01*
X157377341Y-126271358D01*
X157369874Y-126271290D01*
X157161135Y-126198884D01*
X156988864Y-126139128D01*
X156983167Y-126134858D01*
X156981000Y-126128075D01*
X156981000Y-125839925D01*
X156983167Y-125833142D01*
X156988864Y-125828871D01*
X157369875Y-125696708D01*
X157377341Y-125696641D01*
X158222955Y-125972878D01*
G37*
%TD.AperFunction*%
%TD*%
%TA.AperFunction,Conductor*%
%TO.N,GND*%
G36*
X156472371Y-125572128D02*
G01*
X156774858Y-125828095D01*
X156777914Y-125832103D01*
X156779000Y-125837026D01*
X156779000Y-126125397D01*
X156775823Y-126133412D01*
X156768018Y-126137075D01*
X156322256Y-126164492D01*
X156315383Y-126162764D01*
X156310768Y-126157386D01*
X156174778Y-125837026D01*
X156161571Y-125805914D01*
X156161041Y-125798315D01*
X156165300Y-125792000D01*
X156457775Y-125571712D01*
X156465145Y-125569364D01*
X156472371Y-125572128D01*
G37*
%TD.AperFunction*%
%TD*%
%TA.AperFunction,Conductor*%
%TO.N,GND*%
G36*
X172108786Y-100031227D02*
G01*
X172113039Y-100037059D01*
X172230570Y-100395958D01*
X172230591Y-100403175D01*
X172226373Y-100409032D01*
X171906213Y-100643972D01*
X171898317Y-100646198D01*
X171890900Y-100642692D01*
X171620898Y-100364808D01*
X171617677Y-100358090D01*
X171619164Y-100350792D01*
X171802219Y-100034834D01*
X171806501Y-100030563D01*
X171812343Y-100029000D01*
X172101920Y-100029000D01*
X172108786Y-100031227D01*
G37*
%TD.AperFunction*%
%TD*%
%TA.AperFunction,Conductor*%
%TO.N,GND*%
G36*
X171965380Y-98367999D02*
G01*
X172271078Y-98616497D01*
X172275071Y-98622831D01*
X172274407Y-98630288D01*
X172113475Y-98996012D01*
X172109160Y-99001099D01*
X172102766Y-99003000D01*
X171813234Y-99003000D01*
X171806840Y-99001099D01*
X171802525Y-98996012D01*
X171641592Y-98630288D01*
X171640928Y-98622831D01*
X171644919Y-98616499D01*
X171950620Y-98367998D01*
X171958000Y-98365378D01*
X171965380Y-98367999D01*
G37*
%TD.AperFunction*%
%TD*%
%TA.AperFunction,Conductor*%
%TO.N,VCC*%
G36*
X157274235Y-115333421D02*
G01*
X158255503Y-116068637D01*
X158259632Y-116074439D01*
X158259632Y-116081561D01*
X158255503Y-116087363D01*
X157274235Y-116822578D01*
X157267045Y-116824914D01*
X157259928Y-116822365D01*
X156521409Y-116233913D01*
X156518160Y-116229842D01*
X156517000Y-116224763D01*
X156517000Y-115931237D01*
X156518160Y-115926158D01*
X156521409Y-115922087D01*
X156584901Y-115871496D01*
X157259930Y-115333633D01*
X157267045Y-115331085D01*
X157274235Y-115333421D01*
G37*
%TD.AperFunction*%
%TD*%
%TA.AperFunction,Conductor*%
%TO.N,VCC*%
G36*
X154581411Y-115607964D02*
G01*
X155122179Y-115922217D01*
X155126441Y-115926497D01*
X155128000Y-115932333D01*
X155128000Y-116223667D01*
X155126441Y-116229503D01*
X155122179Y-116233783D01*
X154581411Y-116548035D01*
X154573497Y-116549441D01*
X154566544Y-116545410D01*
X154183243Y-116085491D01*
X154180531Y-116078000D01*
X154183243Y-116070509D01*
X154566544Y-115610589D01*
X154573497Y-115606558D01*
X154581411Y-115607964D01*
G37*
%TD.AperFunction*%
%TD*%
%TA.AperFunction,Conductor*%
%TO.N,VCC*%
G36*
X159274071Y-115333634D02*
G01*
X160012591Y-115922087D01*
X160015840Y-115926158D01*
X160017000Y-115931237D01*
X160017000Y-116224763D01*
X160015840Y-116229842D01*
X160012591Y-116233913D01*
X159274071Y-116822365D01*
X159266954Y-116824914D01*
X159259764Y-116822578D01*
X158468658Y-116229842D01*
X158278495Y-116087362D01*
X158274367Y-116081561D01*
X158274367Y-116074439D01*
X158278496Y-116068637D01*
X159259765Y-115333420D01*
X159266954Y-115331085D01*
X159274071Y-115333634D01*
G37*
%TD.AperFunction*%
%TD*%
%TA.AperFunction,Conductor*%
%TO.N,VCC*%
G36*
X163574618Y-115085611D02*
G01*
X164559714Y-116069723D01*
X164562746Y-116074970D01*
X164562746Y-116081030D01*
X164559714Y-116086277D01*
X163574618Y-117070388D01*
X163566827Y-117073801D01*
X163558784Y-117071036D01*
X162571135Y-116233905D01*
X162568084Y-116229898D01*
X162567000Y-116224980D01*
X162567000Y-115931020D01*
X162568084Y-115926102D01*
X162571135Y-115922095D01*
X163558785Y-115084962D01*
X163566827Y-115082198D01*
X163574618Y-115085611D01*
G37*
%TD.AperFunction*%
%TD*%
%TA.AperFunction,Conductor*%
%TO.N,VCC*%
G36*
X165575214Y-115084962D02*
G01*
X165575979Y-115085611D01*
X166562865Y-115922095D01*
X166565916Y-115926102D01*
X166567000Y-115931020D01*
X166567000Y-116224980D01*
X166565916Y-116229898D01*
X166562865Y-116233905D01*
X165575215Y-117071036D01*
X165567172Y-117073801D01*
X165559381Y-117070388D01*
X164574285Y-116086276D01*
X164571253Y-116081029D01*
X164571253Y-116074969D01*
X164574283Y-116069725D01*
X165559381Y-115085610D01*
X165567172Y-115082198D01*
X165575214Y-115084962D01*
G37*
%TD.AperFunction*%
%TD*%
%TA.AperFunction,Conductor*%
%TO.N,VCC*%
G36*
X167481736Y-115487839D02*
G01*
X168014455Y-116053982D01*
X168017634Y-116061999D01*
X168014455Y-116070017D01*
X167481527Y-116636382D01*
X167474843Y-116639919D01*
X167467392Y-116638629D01*
X167463284Y-116636382D01*
X166727085Y-116233728D01*
X166722636Y-116229431D01*
X166721000Y-116223464D01*
X166721000Y-115932286D01*
X166722541Y-115926481D01*
X166726759Y-115922206D01*
X166940768Y-115796077D01*
X167467274Y-115485776D01*
X167474866Y-115484274D01*
X167481736Y-115487839D01*
G37*
%TD.AperFunction*%
%TD*%
%TA.AperFunction,Conductor*%
%TO.N,VCC*%
G36*
X153350712Y-115885154D02*
G01*
X153499214Y-115923341D01*
X153505546Y-115927503D01*
X153508000Y-115934672D01*
X153508000Y-116221328D01*
X153505546Y-116228497D01*
X153499214Y-116232659D01*
X153032611Y-116352642D01*
X153024485Y-116351786D01*
X153018902Y-116345823D01*
X152908883Y-116082508D01*
X152907980Y-116077999D01*
X152908882Y-116073493D01*
X153018903Y-115810174D01*
X153024485Y-115804213D01*
X153032609Y-115803357D01*
X153350712Y-115885154D01*
G37*
%TD.AperFunction*%
%TD*%
%TA.AperFunction,Conductor*%
%TO.N,VCC*%
G36*
X153789455Y-115610589D02*
G01*
X154172756Y-116070509D01*
X154175468Y-116078000D01*
X154172756Y-116085491D01*
X153789455Y-116545410D01*
X153782502Y-116549441D01*
X153774588Y-116548035D01*
X153233821Y-116233783D01*
X153229559Y-116229503D01*
X153228000Y-116223667D01*
X153228000Y-115932333D01*
X153229559Y-115926497D01*
X153233821Y-115922217D01*
X153774589Y-115607963D01*
X153782502Y-115606558D01*
X153789455Y-115610589D01*
G37*
%TD.AperFunction*%
%TD*%
%TA.AperFunction,Conductor*%
%TO.N,Net-(U1-V3)*%
G36*
X168121459Y-101407807D02*
G01*
X168125776Y-101412669D01*
X168307571Y-101794375D01*
X168308130Y-101803039D01*
X168032122Y-102647953D01*
X168027870Y-102653791D01*
X168021000Y-102656020D01*
X168014130Y-102653791D01*
X168009878Y-102647953D01*
X167733869Y-101803039D01*
X167734427Y-101794376D01*
X167916223Y-101412669D01*
X167920541Y-101407807D01*
X167926787Y-101406000D01*
X168115213Y-101406000D01*
X168121459Y-101407807D01*
G37*
%TD.AperFunction*%
%TD*%
%TA.AperFunction,Conductor*%
%TO.N,Net-(U1-V3)*%
G36*
X170497070Y-100357233D02*
G01*
X170756774Y-100641102D01*
X170759842Y-100648999D01*
X170756774Y-100656897D01*
X170497070Y-100940766D01*
X170490639Y-100944359D01*
X170483336Y-100943397D01*
X170092098Y-100753797D01*
X170087286Y-100749481D01*
X170085500Y-100743268D01*
X170085500Y-100554732D01*
X170087286Y-100548519D01*
X170092098Y-100544203D01*
X170346554Y-100420888D01*
X170483336Y-100354601D01*
X170490639Y-100353640D01*
X170497070Y-100357233D01*
G37*
%TD.AperFunction*%
%TD*%
%TA.AperFunction,Conductor*%
%TO.N,Net-(U3-SPLIT)*%
G36*
X167141775Y-121343366D02*
G01*
X167145980Y-121347144D01*
X167628082Y-122059762D01*
X167630052Y-122065364D01*
X167629019Y-122071211D01*
X167064808Y-123296695D01*
X167058743Y-123302576D01*
X167050299Y-123302840D01*
X167043879Y-123297349D01*
X167038117Y-123286650D01*
X166427303Y-122152407D01*
X166425914Y-122146403D01*
X166427770Y-122140526D01*
X166939044Y-121347360D01*
X166943278Y-121343427D01*
X166948878Y-121342000D01*
X167136289Y-121342000D01*
X167141775Y-121343366D01*
G37*
%TD.AperFunction*%
%TD*%
%TA.AperFunction,Conductor*%
%TO.N,Net-(U3-SPLIT)*%
G36*
X167052805Y-119906164D02*
G01*
X167682646Y-121077491D01*
X167684028Y-121083580D01*
X167682082Y-121089513D01*
X167145972Y-121895281D01*
X167141756Y-121899113D01*
X167136231Y-121900500D01*
X166948769Y-121900500D01*
X166943244Y-121899113D01*
X166939028Y-121895281D01*
X166402917Y-121089513D01*
X166400971Y-121083580D01*
X166402353Y-121077491D01*
X167032195Y-119906164D01*
X167038388Y-119900751D01*
X167046612Y-119900751D01*
X167052805Y-119906164D01*
G37*
%TD.AperFunction*%
%TD*%
%TA.AperFunction,Conductor*%
%TO.N,Net-(U3-SPLIT)*%
G36*
X165563337Y-128323455D02*
G01*
X165568225Y-128327748D01*
X165570064Y-128333987D01*
X165570999Y-128523942D01*
X165570999Y-128524058D01*
X165570064Y-128714012D01*
X165568225Y-128720251D01*
X165563337Y-128724544D01*
X165556913Y-128725564D01*
X165173849Y-128677681D01*
X165166529Y-128673814D01*
X165163600Y-128666071D01*
X165163600Y-128381929D01*
X165166529Y-128374186D01*
X165173849Y-128370319D01*
X165221731Y-128364333D01*
X165556916Y-128322435D01*
X165563337Y-128323455D01*
G37*
%TD.AperFunction*%
%TD*%
%TA.AperFunction,Conductor*%
%TO.N,Net-(U3-SPLIT)*%
G36*
X164092124Y-128236708D02*
G01*
X164473135Y-128368871D01*
X164478833Y-128373142D01*
X164481000Y-128379925D01*
X164481000Y-128668075D01*
X164478833Y-128674858D01*
X164473135Y-128679128D01*
X164343094Y-128724235D01*
X164092125Y-128811290D01*
X164084658Y-128811358D01*
X163416952Y-128593238D01*
X163239045Y-128535121D01*
X163233208Y-128530870D01*
X163230979Y-128524000D01*
X163233208Y-128517130D01*
X163239045Y-128512878D01*
X164084659Y-128236641D01*
X164092124Y-128236708D01*
G37*
%TD.AperFunction*%
%TD*%
%TA.AperFunction,Conductor*%
%TO.N,Net-(U3-SPLIT)*%
G36*
X166469527Y-128175491D02*
G01*
X166475460Y-128181239D01*
X167051135Y-129402678D01*
X167051611Y-129411484D01*
X167045803Y-129418121D01*
X166415325Y-129734796D01*
X166406464Y-129735470D01*
X166399685Y-129729723D01*
X165855308Y-128678931D01*
X165853997Y-128673549D01*
X165853997Y-128380112D01*
X165856236Y-128373229D01*
X165862095Y-128368980D01*
X166048972Y-128308509D01*
X166461277Y-128175095D01*
X166469527Y-128175491D01*
G37*
%TD.AperFunction*%
%TD*%
%TA.AperFunction,Conductor*%
%TO.N,Net-(U3-SPLIT)*%
G36*
X165911427Y-128363478D02*
G01*
X165966151Y-128370319D01*
X165973471Y-128374186D01*
X165976400Y-128381929D01*
X165976400Y-128666071D01*
X165973471Y-128673814D01*
X165966151Y-128677681D01*
X165583086Y-128725564D01*
X165576662Y-128724544D01*
X165571774Y-128720251D01*
X165569935Y-128714012D01*
X165569000Y-128524058D01*
X165569000Y-128523942D01*
X165569935Y-128333987D01*
X165571774Y-128327748D01*
X165576662Y-128323455D01*
X165583083Y-128322435D01*
X165911427Y-128363478D01*
G37*
%TD.AperFunction*%
%TD*%
%TA.AperFunction,Conductor*%
%TO.N,Net-(U3-STB)*%
G36*
X160350436Y-122747220D02*
G01*
X160657523Y-122898443D01*
X160754469Y-122946184D01*
X160759234Y-122950499D01*
X160761000Y-122956680D01*
X160761000Y-123145320D01*
X160759234Y-123151501D01*
X160754469Y-123155816D01*
X160350438Y-123354778D01*
X160342874Y-123355734D01*
X160336328Y-123351827D01*
X160088865Y-123058544D01*
X160086108Y-123051000D01*
X160088866Y-123043455D01*
X160336330Y-122750170D01*
X160342874Y-122746265D01*
X160350436Y-122747220D01*
G37*
%TD.AperFunction*%
%TD*%
%TA.AperFunction,Conductor*%
%TO.N,Net-(U3-STB)*%
G36*
X161252031Y-122762006D02*
G01*
X161499633Y-123055455D01*
X161502391Y-123063000D01*
X161499633Y-123070545D01*
X161252312Y-123363660D01*
X161245634Y-123367594D01*
X161237963Y-123366491D01*
X160833793Y-123155879D01*
X160829196Y-123151571D01*
X160827500Y-123145503D01*
X160827500Y-122956871D01*
X160829339Y-122950574D01*
X160834277Y-122946257D01*
X160868178Y-122930534D01*
X161238168Y-122758936D01*
X161245618Y-122758127D01*
X161252031Y-122762006D01*
G37*
%TD.AperFunction*%
%TD*%
%TA.AperFunction,Conductor*%
%TO.N,Net-(U3-STB)*%
G36*
X161512380Y-123067999D02*
G01*
X161817283Y-123315851D01*
X161821406Y-123322792D01*
X161820053Y-123330750D01*
X161609972Y-123697120D01*
X161605687Y-123701424D01*
X161599822Y-123703000D01*
X161410178Y-123703000D01*
X161404313Y-123701424D01*
X161400028Y-123697120D01*
X161189946Y-123330750D01*
X161188593Y-123322792D01*
X161192715Y-123315852D01*
X161497620Y-123067998D01*
X161505000Y-123065378D01*
X161512380Y-123067999D01*
G37*
%TD.AperFunction*%
%TD*%
%TA.AperFunction,Conductor*%
%TO.N,Net-(U3-STB)*%
G36*
X162383838Y-124415030D02*
G01*
X163028014Y-124648993D01*
X163168621Y-124700061D01*
X163174436Y-124704680D01*
X163176299Y-124711868D01*
X163173460Y-124718730D01*
X163167063Y-124722502D01*
X162247193Y-124918338D01*
X162242268Y-124918326D01*
X162237784Y-124916289D01*
X161935727Y-124692108D01*
X161932248Y-124687972D01*
X161931000Y-124682713D01*
X161931000Y-124495389D01*
X161933802Y-124487792D01*
X161940865Y-124483834D01*
X162378016Y-124414473D01*
X162383838Y-124415030D01*
G37*
%TD.AperFunction*%
%TD*%
%TA.AperFunction,Conductor*%
%TO.N,/Core/UART3_TX*%
G36*
X143409037Y-110359298D02*
G01*
X143724872Y-110493374D01*
X143730057Y-110497686D01*
X143732000Y-110504144D01*
X143732000Y-110691856D01*
X143730057Y-110698314D01*
X143724872Y-110702626D01*
X143409038Y-110836700D01*
X143400533Y-110836949D01*
X142761875Y-110609018D01*
X142756245Y-110604740D01*
X142754108Y-110597999D01*
X142756245Y-110591258D01*
X142761872Y-110586981D01*
X143400533Y-110359050D01*
X143409037Y-110359298D01*
G37*
%TD.AperFunction*%
%TD*%
%TA.AperFunction,Conductor*%
%TO.N,/Core/UART3_TX*%
G36*
X170567870Y-102708208D02*
G01*
X170572122Y-102714046D01*
X170848130Y-103558960D01*
X170847571Y-103567624D01*
X170665776Y-103949331D01*
X170661459Y-103954193D01*
X170655213Y-103956000D01*
X170466787Y-103956000D01*
X170460541Y-103954193D01*
X170456224Y-103949331D01*
X170274428Y-103567624D01*
X170273869Y-103558960D01*
X170549878Y-102714046D01*
X170554130Y-102708208D01*
X170561000Y-102705979D01*
X170567870Y-102708208D01*
G37*
%TD.AperFunction*%
%TD*%
%TA.AperFunction,Conductor*%
%TO.N,/Core/UART3_RX*%
G36*
X169297870Y-102708208D02*
G01*
X169302122Y-102714046D01*
X169578130Y-103558960D01*
X169577571Y-103567624D01*
X169395776Y-103949331D01*
X169391459Y-103954193D01*
X169385213Y-103956000D01*
X169196787Y-103956000D01*
X169190541Y-103954193D01*
X169186224Y-103949331D01*
X169004428Y-103567624D01*
X169003869Y-103558960D01*
X169279878Y-102714046D01*
X169284130Y-102708208D01*
X169291000Y-102705979D01*
X169297870Y-102708208D01*
G37*
%TD.AperFunction*%
%TD*%
%TA.AperFunction,Conductor*%
%TO.N,/Core/UART3_RX*%
G36*
X143452272Y-109590939D02*
G01*
X143726176Y-109750018D01*
X143730440Y-109754298D01*
X143732000Y-109760135D01*
X143732000Y-109947467D01*
X143729523Y-109954666D01*
X143723141Y-109958817D01*
X143408271Y-110037624D01*
X143401497Y-110037293D01*
X142764977Y-109810126D01*
X142759250Y-109805708D01*
X142757215Y-109798765D01*
X142759651Y-109791954D01*
X142765625Y-109787877D01*
X143443115Y-109589825D01*
X143447807Y-109589441D01*
X143452272Y-109590939D01*
G37*
%TD.AperFunction*%
%TD*%
%TA.AperFunction,Conductor*%
%TO.N,/Core/SWDIO*%
G36*
X155591666Y-110894111D02*
G01*
X155597963Y-110898281D01*
X155600400Y-110905429D01*
X155600400Y-111090571D01*
X155597963Y-111097719D01*
X155591666Y-111101889D01*
X155281586Y-111183156D01*
X155273440Y-111182329D01*
X155267831Y-111176364D01*
X155251220Y-111136771D01*
X155194897Y-111002522D01*
X155193987Y-110998000D01*
X155194897Y-110993477D01*
X155267831Y-110819634D01*
X155273440Y-110813670D01*
X155281586Y-110812843D01*
X155591666Y-110894111D01*
G37*
%TD.AperFunction*%
%TD*%
%TA.AperFunction,Conductor*%
%TO.N,/Core/SWDIO*%
G36*
X174994275Y-109407498D02*
G01*
X175764216Y-109725438D01*
X175768021Y-109727978D01*
X175770562Y-109731785D01*
X176088501Y-110501724D01*
X176089248Y-110507991D01*
X176086630Y-110513734D01*
X176081411Y-110517282D01*
X174644632Y-110999616D01*
X174638232Y-110999914D01*
X174632635Y-110996797D01*
X174499202Y-110863364D01*
X174496085Y-110857767D01*
X174496382Y-110851370D01*
X174978718Y-109414586D01*
X174982265Y-109409369D01*
X174988008Y-109406751D01*
X174994275Y-109407498D01*
G37*
%TD.AperFunction*%
%TD*%
%TA.AperFunction,Conductor*%
%TO.N,/Core/SWDIO*%
G36*
X143409037Y-108759298D02*
G01*
X143724872Y-108893374D01*
X143730057Y-108897686D01*
X143732000Y-108904144D01*
X143732000Y-109091856D01*
X143730057Y-109098314D01*
X143724872Y-109102626D01*
X143409038Y-109236700D01*
X143400533Y-109236949D01*
X142761875Y-109009018D01*
X142756245Y-109004740D01*
X142754108Y-108997999D01*
X142756245Y-108991258D01*
X142761872Y-108986981D01*
X143400533Y-108759050D01*
X143409037Y-108759298D01*
G37*
%TD.AperFunction*%
%TD*%
%TA.AperFunction,Conductor*%
%TO.N,/Core/SWDIO*%
G36*
X153208265Y-108992345D02*
G01*
X153484991Y-109154140D01*
X153490167Y-109160484D01*
X153489916Y-109168668D01*
X153418565Y-109343163D01*
X153416008Y-109347008D01*
X153412163Y-109349565D01*
X153237668Y-109420916D01*
X153229484Y-109421167D01*
X153223140Y-109415991D01*
X153061345Y-109139265D01*
X153059842Y-109131868D01*
X153063172Y-109125091D01*
X153194091Y-108994172D01*
X153200868Y-108990842D01*
X153208265Y-108992345D01*
G37*
%TD.AperFunction*%
%TD*%
%TA.AperFunction,Conductor*%
%TO.N,/Core/SWCLK*%
G36*
X174994275Y-106867498D02*
G01*
X175764216Y-107185438D01*
X175768021Y-107187978D01*
X175770562Y-107191785D01*
X176088501Y-107961724D01*
X176089248Y-107967991D01*
X176086630Y-107973734D01*
X176081411Y-107977282D01*
X174644632Y-108459616D01*
X174638232Y-108459914D01*
X174632635Y-108456797D01*
X174499202Y-108323364D01*
X174496085Y-108317767D01*
X174496382Y-108311370D01*
X174978718Y-106874586D01*
X174982265Y-106869369D01*
X174988008Y-106866751D01*
X174994275Y-106867498D01*
G37*
%TD.AperFunction*%
%TD*%
%TA.AperFunction,Conductor*%
%TO.N,/Core/SWCLK*%
G36*
X143409105Y-107959406D02*
G01*
X143725038Y-108099317D01*
X143730106Y-108103633D01*
X143732000Y-108110015D01*
X143732000Y-108297724D01*
X143730006Y-108304258D01*
X143724703Y-108308564D01*
X143408968Y-108436806D01*
X143400632Y-108436985D01*
X142761874Y-108209018D01*
X142756245Y-108204741D01*
X142754108Y-108198000D01*
X142756245Y-108191259D01*
X142761875Y-108186981D01*
X143400435Y-107959085D01*
X143409105Y-107959406D01*
G37*
%TD.AperFunction*%
%TD*%
%TA.AperFunction,Conductor*%
%TO.N,/Core/SWCLK*%
G36*
X157748136Y-110386311D02*
G01*
X157754666Y-110390426D01*
X157757212Y-110397713D01*
X157757212Y-110582874D01*
X157754891Y-110589869D01*
X157748849Y-110594088D01*
X157440824Y-110685737D01*
X157432480Y-110685098D01*
X157426699Y-110679050D01*
X157353897Y-110505522D01*
X157352987Y-110501000D01*
X157353897Y-110496477D01*
X157426949Y-110322352D01*
X157432401Y-110316467D01*
X157440360Y-110315477D01*
X157748136Y-110386311D01*
G37*
%TD.AperFunction*%
%TD*%
%TA.AperFunction,Conductor*%
%TO.N,/Core/SWCLK*%
G36*
X153716265Y-108357345D02*
G01*
X153992991Y-108519140D01*
X153998167Y-108525484D01*
X153997916Y-108533668D01*
X153926565Y-108708163D01*
X153924008Y-108712008D01*
X153920163Y-108714565D01*
X153745668Y-108785916D01*
X153737484Y-108786167D01*
X153731140Y-108780991D01*
X153569345Y-108504265D01*
X153567842Y-108496868D01*
X153571172Y-108490091D01*
X153702091Y-108359172D01*
X153708868Y-108355842D01*
X153716265Y-108357345D01*
G37*
%TD.AperFunction*%
%TD*%
%TA.AperFunction,Conductor*%
%TO.N,/Core/BOOT0*%
G36*
X136625554Y-105824715D02*
G01*
X136629863Y-105829355D01*
X136708599Y-105982694D01*
X136782752Y-106127108D01*
X136784008Y-106131538D01*
X136783457Y-106136111D01*
X136567666Y-106791599D01*
X136563470Y-106797376D01*
X136556698Y-106799639D01*
X136549872Y-106797545D01*
X136545534Y-106791873D01*
X136317859Y-106153931D01*
X136317756Y-106146365D01*
X136324048Y-106127108D01*
X136420765Y-105831067D01*
X136425018Y-105825229D01*
X136431887Y-105823000D01*
X136619456Y-105823000D01*
X136625554Y-105824715D01*
G37*
%TD.AperFunction*%
%TD*%
%TA.AperFunction,Conductor*%
%TO.N,/Core/BOOT0*%
G36*
X134158415Y-101217445D02*
G01*
X134524786Y-101427528D01*
X134529090Y-101431813D01*
X134530666Y-101437678D01*
X134530666Y-101627322D01*
X134529090Y-101633187D01*
X134524786Y-101637471D01*
X134412329Y-101701956D01*
X134158416Y-101847553D01*
X134150458Y-101848906D01*
X134143517Y-101844783D01*
X133895665Y-101539880D01*
X133893044Y-101532500D01*
X133895665Y-101525120D01*
X134143518Y-101220215D01*
X134150458Y-101216093D01*
X134158415Y-101217445D01*
G37*
%TD.AperFunction*%
%TD*%
%TA.AperFunction,Conductor*%
%TO.N,/Core/BOOT0*%
G36*
X135800148Y-101220216D02*
G01*
X136048000Y-101525120D01*
X136050621Y-101532500D01*
X136048000Y-101539880D01*
X135800148Y-101844783D01*
X135793207Y-101848906D01*
X135785249Y-101847553D01*
X135668819Y-101780790D01*
X135418879Y-101637471D01*
X135414576Y-101633187D01*
X135413000Y-101627322D01*
X135413000Y-101437678D01*
X135414576Y-101431813D01*
X135418879Y-101427528D01*
X135785251Y-101217445D01*
X135793207Y-101216093D01*
X135800148Y-101220216D01*
G37*
%TD.AperFunction*%
%TD*%
%TA.AperFunction,Conductor*%
%TO.N,/Core/BOOT0*%
G36*
X136060544Y-101537865D02*
G01*
X136353827Y-101785328D01*
X136357734Y-101791874D01*
X136356778Y-101799438D01*
X136157816Y-102203469D01*
X136153501Y-102208234D01*
X136147320Y-102210000D01*
X135958680Y-102210000D01*
X135952499Y-102208234D01*
X135948184Y-102203469D01*
X135749221Y-101799438D01*
X135748265Y-101791874D01*
X135752170Y-101785330D01*
X136045455Y-101537865D01*
X136053000Y-101535108D01*
X136060544Y-101537865D01*
G37*
%TD.AperFunction*%
%TD*%
%TA.AperFunction,Conductor*%
%TO.N,/USB/D-*%
G36*
X166000388Y-96359751D02*
G01*
X166004457Y-96366456D01*
X166142258Y-97033409D01*
X166142500Y-97035776D01*
X166142500Y-97036708D01*
X166141935Y-97040301D01*
X166097216Y-97178893D01*
X166092968Y-97184758D01*
X166086081Y-97187000D01*
X165899919Y-97187000D01*
X165893032Y-97184758D01*
X165888784Y-97178893D01*
X165847714Y-97051611D01*
X165847186Y-97047114D01*
X165848000Y-97036708D01*
X165848000Y-97035776D01*
X165847136Y-97018840D01*
X165847362Y-97015884D01*
X165981542Y-96366453D01*
X165985610Y-96359751D01*
X165992999Y-96357123D01*
X166000388Y-96359751D01*
G37*
%TD.AperFunction*%
%TD*%
%TA.AperFunction,Conductor*%
%TO.N,/USB/D-*%
G36*
X167000388Y-96359751D02*
G01*
X167004457Y-96366456D01*
X167138635Y-97015880D01*
X167138862Y-97018842D01*
X167138000Y-97035776D01*
X167138000Y-97036603D01*
X167138837Y-97047000D01*
X167138310Y-97051532D01*
X167097216Y-97178893D01*
X167092968Y-97184758D01*
X167086081Y-97187000D01*
X166899919Y-97187000D01*
X166893032Y-97184758D01*
X166888784Y-97178893D01*
X166844065Y-97040301D01*
X166843500Y-97036708D01*
X166843500Y-97035776D01*
X166843742Y-97033409D01*
X166850348Y-97001431D01*
X166981542Y-96366453D01*
X166985610Y-96359751D01*
X166992999Y-96357123D01*
X167000388Y-96359751D01*
G37*
%TD.AperFunction*%
%TD*%
%TA.AperFunction,Conductor*%
%TO.N,/USB/D-*%
G36*
X166851459Y-101407807D02*
G01*
X166855776Y-101412669D01*
X167037571Y-101794375D01*
X167038130Y-101803039D01*
X166762122Y-102647953D01*
X166757870Y-102653791D01*
X166751000Y-102656020D01*
X166744130Y-102653791D01*
X166739878Y-102647953D01*
X166463869Y-101803039D01*
X166464427Y-101794376D01*
X166646223Y-101412669D01*
X166650541Y-101407807D01*
X166656787Y-101406000D01*
X166845213Y-101406000D01*
X166851459Y-101407807D01*
G37*
%TD.AperFunction*%
%TD*%
%TA.AperFunction,Conductor*%
%TO.N,/USB/D+*%
G36*
X166592968Y-95439242D02*
G01*
X166597216Y-95445107D01*
X166641935Y-95583699D01*
X166642500Y-95587292D01*
X166642500Y-95588224D01*
X166642258Y-95590591D01*
X166504458Y-96257543D01*
X166500389Y-96264248D01*
X166493000Y-96266876D01*
X166485611Y-96264248D01*
X166481542Y-96257543D01*
X166343742Y-95590591D01*
X166343500Y-95588224D01*
X166343500Y-95587292D01*
X166344065Y-95583699D01*
X166388784Y-95445107D01*
X166393032Y-95439242D01*
X166399919Y-95437000D01*
X166586081Y-95437000D01*
X166592968Y-95439242D01*
G37*
%TD.AperFunction*%
%TD*%
%TA.AperFunction,Conductor*%
%TO.N,/USB/D+*%
G36*
X165593375Y-101407886D02*
G01*
X165597692Y-101412937D01*
X165767748Y-101794482D01*
X165768183Y-101802878D01*
X165492122Y-102647953D01*
X165487870Y-102653791D01*
X165481000Y-102656020D01*
X165474130Y-102653791D01*
X165469878Y-102647953D01*
X165193921Y-101803199D01*
X165194606Y-101794278D01*
X165388150Y-101412411D01*
X165392463Y-101407731D01*
X165398587Y-101406000D01*
X165587005Y-101406000D01*
X165593375Y-101407886D01*
G37*
%TD.AperFunction*%
%TD*%
%TA.AperFunction,Conductor*%
%TO.N,/USB/D+*%
G36*
X165500389Y-96359751D02*
G01*
X165504458Y-96366456D01*
X165642258Y-97033409D01*
X165642500Y-97035776D01*
X165642500Y-97036708D01*
X165641935Y-97040301D01*
X165597216Y-97178893D01*
X165592968Y-97184758D01*
X165586081Y-97187000D01*
X165399919Y-97187000D01*
X165393032Y-97184758D01*
X165388784Y-97178893D01*
X165344065Y-97040301D01*
X165343500Y-97036708D01*
X165343500Y-97035776D01*
X165343742Y-97033409D01*
X165481542Y-96366456D01*
X165485611Y-96359751D01*
X165493000Y-96357123D01*
X165500389Y-96359751D01*
G37*
%TD.AperFunction*%
%TD*%
%TA.AperFunction,Conductor*%
%TO.N,/USB/D+*%
G36*
X165592968Y-95439242D02*
G01*
X165597216Y-95445107D01*
X165641935Y-95583699D01*
X165642500Y-95587292D01*
X165642500Y-95588224D01*
X165642258Y-95590591D01*
X165504458Y-96257543D01*
X165500389Y-96264248D01*
X165493000Y-96266876D01*
X165485611Y-96264248D01*
X165481542Y-96257543D01*
X165343742Y-95590591D01*
X165343500Y-95588224D01*
X165343500Y-95587292D01*
X165344065Y-95583699D01*
X165388784Y-95445107D01*
X165393032Y-95439242D01*
X165399919Y-95437000D01*
X165586081Y-95437000D01*
X165592968Y-95439242D01*
G37*
%TD.AperFunction*%
%TD*%
%TA.AperFunction,Conductor*%
%TO.N,Net-(D1-A)*%
G36*
X150090239Y-95875966D02*
G01*
X150649473Y-96398605D01*
X150653146Y-96406206D01*
X150650748Y-96414300D01*
X150187363Y-97014947D01*
X150183260Y-97018300D01*
X150178099Y-97019500D01*
X149986401Y-97019500D01*
X149981240Y-97018300D01*
X149977137Y-97014947D01*
X149513751Y-96414300D01*
X149511353Y-96406206D01*
X149515025Y-96398606D01*
X150074261Y-95875965D01*
X150082250Y-95872814D01*
X150090239Y-95875966D01*
G37*
%TD.AperFunction*%
%TD*%
%TA.AperFunction,Conductor*%
%TO.N,Net-(D1-A)*%
G36*
X150182751Y-100035266D02*
G01*
X150187066Y-100040031D01*
X150386028Y-100444061D01*
X150386984Y-100451625D01*
X150383077Y-100458172D01*
X150089795Y-100705633D01*
X150082250Y-100708391D01*
X150074705Y-100705633D01*
X149901391Y-100559397D01*
X149781421Y-100458170D01*
X149777515Y-100451625D01*
X149778470Y-100444063D01*
X149977433Y-100040031D01*
X149981749Y-100035266D01*
X149987930Y-100033500D01*
X150176570Y-100033500D01*
X150182751Y-100035266D01*
G37*
%TD.AperFunction*%
%TD*%
%TA.AperFunction,Conductor*%
%TO.N,Net-(D2-A)*%
G36*
X152818001Y-100035266D02*
G01*
X152822316Y-100040031D01*
X153021278Y-100444061D01*
X153022234Y-100451625D01*
X153018327Y-100458172D01*
X152725045Y-100705633D01*
X152717500Y-100708391D01*
X152709955Y-100705633D01*
X152536641Y-100559397D01*
X152416671Y-100458170D01*
X152412765Y-100451625D01*
X152413720Y-100444063D01*
X152612683Y-100040031D01*
X152616999Y-100035266D01*
X152623180Y-100033500D01*
X152811820Y-100033500D01*
X152818001Y-100035266D01*
G37*
%TD.AperFunction*%
%TD*%
%TA.AperFunction,Conductor*%
%TO.N,Net-(D2-A)*%
G36*
X152725489Y-95875966D02*
G01*
X153284723Y-96398605D01*
X153288396Y-96406206D01*
X153285998Y-96414300D01*
X152822613Y-97014947D01*
X152818510Y-97018300D01*
X152813349Y-97019500D01*
X152621651Y-97019500D01*
X152616490Y-97018300D01*
X152612387Y-97014947D01*
X152149001Y-96414300D01*
X152146603Y-96406206D01*
X152150275Y-96398606D01*
X152709511Y-95875965D01*
X152717500Y-95872814D01*
X152725489Y-95875966D01*
G37*
%TD.AperFunction*%
%TD*%
%TA.AperFunction,Conductor*%
%TO.N,Net-(D3-A)*%
G36*
X155453251Y-100035266D02*
G01*
X155457566Y-100040031D01*
X155656528Y-100444061D01*
X155657484Y-100451625D01*
X155653577Y-100458172D01*
X155360295Y-100705633D01*
X155352750Y-100708391D01*
X155345205Y-100705633D01*
X155171891Y-100559397D01*
X155051921Y-100458170D01*
X155048015Y-100451625D01*
X155048970Y-100444063D01*
X155247933Y-100040031D01*
X155252249Y-100035266D01*
X155258430Y-100033500D01*
X155447070Y-100033500D01*
X155453251Y-100035266D01*
G37*
%TD.AperFunction*%
%TD*%
%TA.AperFunction,Conductor*%
%TO.N,Net-(D3-A)*%
G36*
X155360739Y-95875966D02*
G01*
X155919973Y-96398605D01*
X155923646Y-96406206D01*
X155921248Y-96414300D01*
X155457863Y-97014947D01*
X155453760Y-97018300D01*
X155448599Y-97019500D01*
X155256901Y-97019500D01*
X155251740Y-97018300D01*
X155247637Y-97014947D01*
X154784251Y-96414300D01*
X154781853Y-96406206D01*
X154785525Y-96398606D01*
X155344761Y-95875965D01*
X155352750Y-95872814D01*
X155360739Y-95875966D01*
G37*
%TD.AperFunction*%
%TD*%
%TA.AperFunction,Conductor*%
%TO.N,Net-(D4-K)*%
G36*
X138351945Y-96565846D02*
G01*
X139951603Y-97379148D01*
X139956273Y-97383459D01*
X139958000Y-97389577D01*
X139958000Y-97578423D01*
X139956273Y-97584541D01*
X139951603Y-97588852D01*
X138351945Y-98402153D01*
X138345721Y-98403388D01*
X138339768Y-98401192D01*
X138335837Y-98396211D01*
X138276331Y-98252925D01*
X137958862Y-97488485D01*
X137957968Y-97484000D01*
X137958863Y-97479513D01*
X138000545Y-97379148D01*
X138335837Y-96571787D01*
X138339768Y-96566807D01*
X138345721Y-96564611D01*
X138351945Y-96565846D01*
G37*
%TD.AperFunction*%
%TD*%
%TA.AperFunction,Conductor*%
%TO.N,Net-(D4-K)*%
G36*
X146907902Y-93270215D02*
G01*
X147439934Y-93811297D01*
X147443291Y-93819500D01*
X147439934Y-93827703D01*
X146907902Y-94368784D01*
X146900940Y-94372199D01*
X146893372Y-94370512D01*
X146420272Y-94075773D01*
X146177512Y-93924533D01*
X146173471Y-93920283D01*
X146172000Y-93914604D01*
X146172000Y-93724396D01*
X146173471Y-93718717D01*
X146177512Y-93714466D01*
X146893372Y-93268486D01*
X146900940Y-93266800D01*
X146907902Y-93270215D01*
G37*
%TD.AperFunction*%
%TD*%
%TA.AperFunction,Conductor*%
%TO.N,Net-(D4-K)*%
G36*
X138058541Y-95485727D02*
G01*
X138062852Y-95490397D01*
X138876153Y-97090054D01*
X138877388Y-97096278D01*
X138875192Y-97102231D01*
X138870211Y-97106162D01*
X137962487Y-97483136D01*
X137958000Y-97484031D01*
X137953513Y-97483136D01*
X137045788Y-97106162D01*
X137040807Y-97102231D01*
X137038611Y-97096278D01*
X137039846Y-97090054D01*
X137853148Y-95490397D01*
X137857459Y-95485727D01*
X137863577Y-95484000D01*
X138052423Y-95484000D01*
X138058541Y-95485727D01*
G37*
%TD.AperFunction*%
%TD*%
%TA.AperFunction,Conductor*%
%TO.N,Net-(D4-K)*%
G36*
X137962485Y-90984862D02*
G01*
X138726925Y-91302331D01*
X138870211Y-91361837D01*
X138875192Y-91365768D01*
X138877388Y-91371721D01*
X138876153Y-91377945D01*
X138062852Y-92977603D01*
X138058541Y-92982273D01*
X138052423Y-92984000D01*
X137863577Y-92984000D01*
X137857459Y-92982273D01*
X137853148Y-92977603D01*
X137039846Y-91377945D01*
X137038611Y-91371721D01*
X137040807Y-91365768D01*
X137045787Y-91361837D01*
X137953514Y-90984862D01*
X137958000Y-90983968D01*
X137962485Y-90984862D01*
G37*
%TD.AperFunction*%
%TD*%
%TA.AperFunction,Conductor*%
%TO.N,Net-(D4-A)*%
G36*
X147454989Y-95875966D02*
G01*
X148014223Y-96398605D01*
X148017896Y-96406206D01*
X148015498Y-96414300D01*
X147552113Y-97014947D01*
X147548010Y-97018300D01*
X147542849Y-97019500D01*
X147351151Y-97019500D01*
X147345990Y-97018300D01*
X147341887Y-97014947D01*
X146878501Y-96414300D01*
X146876103Y-96406206D01*
X146879775Y-96398606D01*
X147439011Y-95875965D01*
X147447000Y-95872814D01*
X147454989Y-95875966D01*
G37*
%TD.AperFunction*%
%TD*%
%TA.AperFunction,Conductor*%
%TO.N,Net-(D4-A)*%
G36*
X147547501Y-100035266D02*
G01*
X147551816Y-100040031D01*
X147750778Y-100444061D01*
X147751734Y-100451625D01*
X147747827Y-100458172D01*
X147454545Y-100705633D01*
X147447000Y-100708391D01*
X147439455Y-100705633D01*
X147266141Y-100559397D01*
X147146171Y-100458170D01*
X147142265Y-100451625D01*
X147143220Y-100444063D01*
X147342183Y-100040031D01*
X147346499Y-100035266D01*
X147352680Y-100033500D01*
X147541320Y-100033500D01*
X147547501Y-100035266D01*
G37*
%TD.AperFunction*%
%TD*%
%TA.AperFunction,Conductor*%
%TO.N,Net-(D5-A)*%
G36*
X158088501Y-100035266D02*
G01*
X158092816Y-100040031D01*
X158291778Y-100444061D01*
X158292734Y-100451625D01*
X158288827Y-100458172D01*
X157995545Y-100705633D01*
X157988000Y-100708391D01*
X157980455Y-100705633D01*
X157807141Y-100559397D01*
X157687171Y-100458170D01*
X157683265Y-100451625D01*
X157684220Y-100444063D01*
X157883183Y-100040031D01*
X157887499Y-100035266D01*
X157893680Y-100033500D01*
X158082320Y-100033500D01*
X158088501Y-100035266D01*
G37*
%TD.AperFunction*%
%TD*%
%TA.AperFunction,Conductor*%
%TO.N,Net-(D5-A)*%
G36*
X157995989Y-95875966D02*
G01*
X158555223Y-96398605D01*
X158558896Y-96406206D01*
X158556498Y-96414300D01*
X158093113Y-97014947D01*
X158089010Y-97018300D01*
X158083849Y-97019500D01*
X157892151Y-97019500D01*
X157886990Y-97018300D01*
X157882887Y-97014947D01*
X157419501Y-96414300D01*
X157417103Y-96406206D01*
X157420775Y-96398606D01*
X157980011Y-95875965D01*
X157988000Y-95872814D01*
X157995989Y-95875966D01*
G37*
%TD.AperFunction*%
%TD*%
%TA.AperFunction,Conductor*%
%TO.N,Net-(J4-CC2)*%
G36*
X168699028Y-99148725D02*
G01*
X168867281Y-99209607D01*
X168872878Y-99213889D01*
X168875000Y-99220609D01*
X168875000Y-99407391D01*
X168872878Y-99414111D01*
X168867281Y-99418393D01*
X168400285Y-99587371D01*
X168391598Y-99587081D01*
X168385508Y-99580880D01*
X168275883Y-99318507D01*
X168274980Y-99314000D01*
X168275883Y-99309492D01*
X168385508Y-99047118D01*
X168391598Y-99040918D01*
X168400285Y-99040628D01*
X168699028Y-99148725D01*
G37*
%TD.AperFunction*%
%TD*%
%TA.AperFunction,Conductor*%
%TO.N,Net-(J4-CC2)*%
G36*
X170509406Y-99077265D02*
G01*
X170757251Y-99371001D01*
X170760004Y-99378884D01*
X170756800Y-99386595D01*
X170491322Y-99666649D01*
X170484221Y-99670217D01*
X170476478Y-99668425D01*
X170289650Y-99547613D01*
X170090846Y-99419057D01*
X170086923Y-99414826D01*
X170085500Y-99409233D01*
X170085500Y-99220802D01*
X170087697Y-99213978D01*
X170093460Y-99209715D01*
X170496727Y-99073722D01*
X170503611Y-99073541D01*
X170509406Y-99077265D01*
G37*
%TD.AperFunction*%
%TD*%
%TA.AperFunction,Conductor*%
%TO.N,Net-(J4-CC2)*%
G36*
X164500389Y-96359751D02*
G01*
X164504458Y-96366456D01*
X164642258Y-97033409D01*
X164642500Y-97035776D01*
X164642500Y-97036708D01*
X164641935Y-97040301D01*
X164597216Y-97178893D01*
X164592968Y-97184758D01*
X164586081Y-97187000D01*
X164399919Y-97187000D01*
X164393032Y-97184758D01*
X164388784Y-97178893D01*
X164343947Y-97039936D01*
X164343624Y-97033979D01*
X164481542Y-96366455D01*
X164485611Y-96359751D01*
X164493000Y-96357123D01*
X164500389Y-96359751D01*
G37*
%TD.AperFunction*%
%TD*%
%TA.AperFunction,Conductor*%
%TO.N,Net-(J4-CC2)*%
G36*
X164597907Y-97921504D02*
G01*
X164608709Y-97930949D01*
X164921735Y-98204652D01*
X164925186Y-98209921D01*
X164925404Y-98216217D01*
X164922327Y-98221713D01*
X164722446Y-98422537D01*
X164718625Y-98425095D01*
X164714114Y-98425983D01*
X164430043Y-98425036D01*
X164422023Y-98421818D01*
X164418399Y-98413973D01*
X164407920Y-98221713D01*
X164392072Y-97930947D01*
X164393417Y-97924834D01*
X164397722Y-97920287D01*
X164403755Y-97918612D01*
X164590206Y-97918612D01*
X164597907Y-97921504D01*
G37*
%TD.AperFunction*%
%TD*%
%TA.AperFunction,Conductor*%
%TO.N,Net-(J5-Pin_1)*%
G36*
X164092124Y-125696708D02*
G01*
X164473135Y-125828871D01*
X164478833Y-125833142D01*
X164481000Y-125839925D01*
X164481000Y-126128075D01*
X164478833Y-126134858D01*
X164473135Y-126139128D01*
X164343094Y-126184235D01*
X164092125Y-126271290D01*
X164084658Y-126271358D01*
X163416952Y-126053238D01*
X163239045Y-125995121D01*
X163233208Y-125990870D01*
X163230979Y-125984000D01*
X163233208Y-125977130D01*
X163239045Y-125972878D01*
X164084659Y-125696641D01*
X164092124Y-125696708D01*
G37*
%TD.AperFunction*%
%TD*%
%TA.AperFunction,Conductor*%
%TO.N,Net-(J5-Pin_1)*%
G36*
X169515509Y-123052098D02*
G01*
X170145867Y-123312232D01*
X170151983Y-123318050D01*
X170152591Y-123326471D01*
X169753228Y-124631126D01*
X169748140Y-124637685D01*
X169739982Y-124639219D01*
X169156759Y-124535027D01*
X169150544Y-124531782D01*
X168943309Y-124324547D01*
X168940077Y-124318401D01*
X168940897Y-124311508D01*
X169500366Y-123058142D01*
X169506711Y-123052048D01*
X169515509Y-123052098D01*
G37*
%TD.AperFunction*%
%TD*%
%TA.AperFunction,Conductor*%
%TO.N,Net-(J5-Pin_2)*%
G36*
X169748140Y-128092313D02*
G01*
X169753228Y-128098872D01*
X170152591Y-129403528D01*
X170151983Y-129411949D01*
X170145866Y-129417768D01*
X169515511Y-129677900D01*
X169506711Y-129677951D01*
X169500365Y-129671855D01*
X168940897Y-128418491D01*
X168940077Y-128411598D01*
X168943307Y-128405454D01*
X169150546Y-128198215D01*
X169156758Y-128194972D01*
X169739982Y-128090779D01*
X169748140Y-128092313D01*
G37*
%TD.AperFunction*%
%TD*%
%TA.AperFunction,Conductor*%
%TO.N,Net-(J5-Pin_2)*%
G36*
X164092124Y-126966708D02*
G01*
X164473135Y-127098871D01*
X164478833Y-127103142D01*
X164481000Y-127109925D01*
X164481000Y-127398075D01*
X164478833Y-127404858D01*
X164473135Y-127409128D01*
X164343094Y-127454235D01*
X164092125Y-127541290D01*
X164084658Y-127541358D01*
X163416952Y-127323238D01*
X163239045Y-127265121D01*
X163233208Y-127260870D01*
X163230979Y-127254000D01*
X163233208Y-127247130D01*
X163239045Y-127242878D01*
X164084659Y-126966641D01*
X164092124Y-126966708D01*
G37*
%TD.AperFunction*%
%TD*%
M02*
