%TF.GenerationSoftware,KiCad,Pcbnew,7.0.1*%
%TF.CreationDate,2023-04-25T22:28:34+08:00*%
%TF.ProjectId,MM32F0140_CAN_Core,4d4d3332-4630-4313-9430-5f43414e5f43,rev?*%
%TF.SameCoordinates,Original*%
%TF.FileFunction,Legend,Top*%
%TF.FilePolarity,Positive*%
%FSLAX46Y46*%
G04 Gerber Fmt 4.6, Leading zero omitted, Abs format (unit mm)*
G04 Created by KiCad (PCBNEW 7.0.1) date 2023-04-25 22:28:34*
%MOMM*%
%LPD*%
G01*
G04 APERTURE LIST*
G04 Aperture macros list*
%AMRoundRect*
0 Rectangle with rounded corners*
0 $1 Rounding radius*
0 $2 $3 $4 $5 $6 $7 $8 $9 X,Y pos of 4 corners*
0 Add a 4 corners polygon primitive as box body*
4,1,4,$2,$3,$4,$5,$6,$7,$8,$9,$2,$3,0*
0 Add four circle primitives for the rounded corners*
1,1,$1+$1,$2,$3*
1,1,$1+$1,$4,$5*
1,1,$1+$1,$6,$7*
1,1,$1+$1,$8,$9*
0 Add four rect primitives between the rounded corners*
20,1,$1+$1,$2,$3,$4,$5,0*
20,1,$1+$1,$4,$5,$6,$7,0*
20,1,$1+$1,$6,$7,$8,$9,0*
20,1,$1+$1,$8,$9,$2,$3,0*%
G04 Aperture macros list end*
%ADD10C,0.150000*%
%ADD11C,0.120000*%
%ADD12RoundRect,0.150000X-0.150000X0.825000X-0.150000X-0.825000X0.150000X-0.825000X0.150000X0.825000X0*%
%ADD13RoundRect,0.160000X0.160000X-0.197500X0.160000X0.197500X-0.160000X0.197500X-0.160000X-0.197500X0*%
%ADD14RoundRect,0.150000X-0.825000X-0.150000X0.825000X-0.150000X0.825000X0.150000X-0.825000X0.150000X0*%
%ADD15R,1.700000X1.700000*%
%ADD16O,1.700000X1.700000*%
%ADD17RoundRect,0.250000X-0.400000X-1.075000X0.400000X-1.075000X0.400000X1.075000X-0.400000X1.075000X0*%
%ADD18RoundRect,0.160000X-0.197500X-0.160000X0.197500X-0.160000X0.197500X0.160000X-0.197500X0.160000X0*%
%ADD19RoundRect,0.250000X0.350000X0.450000X-0.350000X0.450000X-0.350000X-0.450000X0.350000X-0.450000X0*%
%ADD20RoundRect,0.155000X0.155000X-0.212500X0.155000X0.212500X-0.155000X0.212500X-0.155000X-0.212500X0*%
%ADD21RoundRect,0.155000X0.212500X0.155000X-0.212500X0.155000X-0.212500X-0.155000X0.212500X-0.155000X0*%
%ADD22RoundRect,0.237500X-0.237500X0.300000X-0.237500X-0.300000X0.237500X-0.300000X0.237500X0.300000X0*%
%ADD23RoundRect,0.250000X-0.450000X0.325000X-0.450000X-0.325000X0.450000X-0.325000X0.450000X0.325000X0*%
%ADD24RoundRect,0.160000X-0.160000X0.197500X-0.160000X-0.197500X0.160000X-0.197500X0.160000X0.197500X0*%
%ADD25C,2.700000*%
%ADD26RoundRect,0.250001X-1.099999X1.099999X-1.099999X-1.099999X1.099999X-1.099999X1.099999X1.099999X0*%
%ADD27RoundRect,0.155000X-0.155000X0.212500X-0.155000X-0.212500X0.155000X-0.212500X0.155000X0.212500X0*%
%ADD28C,2.000000*%
%ADD29C,0.650000*%
%ADD30R,0.600000X1.450000*%
%ADD31R,0.300000X1.450000*%
%ADD32O,1.000000X2.100000*%
%ADD33O,1.000000X1.600000*%
%ADD34RoundRect,0.155000X-0.212500X-0.155000X0.212500X-0.155000X0.212500X0.155000X-0.212500X0.155000X0*%
%ADD35RoundRect,0.237500X0.300000X0.237500X-0.300000X0.237500X-0.300000X-0.237500X0.300000X-0.237500X0*%
%ADD36R,2.000000X1.500000*%
%ADD37R,2.000000X3.800000*%
%ADD38RoundRect,0.250000X0.450000X-0.350000X0.450000X0.350000X-0.450000X0.350000X-0.450000X-0.350000X0*%
%ADD39RoundRect,0.250000X0.400000X1.075000X-0.400000X1.075000X-0.400000X-1.075000X0.400000X-1.075000X0*%
%ADD40RoundRect,0.250000X-0.412500X-1.100000X0.412500X-1.100000X0.412500X1.100000X-0.412500X1.100000X0*%
%ADD41RoundRect,0.237500X0.237500X-0.300000X0.237500X0.300000X-0.237500X0.300000X-0.237500X-0.300000X0*%
%ADD42C,1.500000*%
%ADD43RoundRect,0.125000X-0.625000X-0.125000X0.625000X-0.125000X0.625000X0.125000X-0.625000X0.125000X0*%
%ADD44RoundRect,0.125000X-0.125000X-0.625000X0.125000X-0.625000X0.125000X0.625000X-0.125000X0.625000X0*%
G04 APERTURE END LIST*
D10*
%TO.C,U1*%
X160752619Y-106044904D02*
X161562142Y-106044904D01*
X161562142Y-106044904D02*
X161657380Y-105997285D01*
X161657380Y-105997285D02*
X161705000Y-105949666D01*
X161705000Y-105949666D02*
X161752619Y-105854428D01*
X161752619Y-105854428D02*
X161752619Y-105663952D01*
X161752619Y-105663952D02*
X161705000Y-105568714D01*
X161705000Y-105568714D02*
X161657380Y-105521095D01*
X161657380Y-105521095D02*
X161562142Y-105473476D01*
X161562142Y-105473476D02*
X160752619Y-105473476D01*
X161752619Y-104473476D02*
X161752619Y-105044904D01*
X161752619Y-104759190D02*
X160752619Y-104759190D01*
X160752619Y-104759190D02*
X160895476Y-104854428D01*
X160895476Y-104854428D02*
X160990714Y-104949666D01*
X160990714Y-104949666D02*
X161038333Y-105044904D01*
%TO.C,R6*%
X134320619Y-103290666D02*
X133844428Y-103623999D01*
X134320619Y-103862094D02*
X133320619Y-103862094D01*
X133320619Y-103862094D02*
X133320619Y-103481142D01*
X133320619Y-103481142D02*
X133368238Y-103385904D01*
X133368238Y-103385904D02*
X133415857Y-103338285D01*
X133415857Y-103338285D02*
X133511095Y-103290666D01*
X133511095Y-103290666D02*
X133653952Y-103290666D01*
X133653952Y-103290666D02*
X133749190Y-103338285D01*
X133749190Y-103338285D02*
X133796809Y-103385904D01*
X133796809Y-103385904D02*
X133844428Y-103481142D01*
X133844428Y-103481142D02*
X133844428Y-103862094D01*
X133320619Y-102433523D02*
X133320619Y-102623999D01*
X133320619Y-102623999D02*
X133368238Y-102719237D01*
X133368238Y-102719237D02*
X133415857Y-102766856D01*
X133415857Y-102766856D02*
X133558714Y-102862094D01*
X133558714Y-102862094D02*
X133749190Y-102909713D01*
X133749190Y-102909713D02*
X134130142Y-102909713D01*
X134130142Y-102909713D02*
X134225380Y-102862094D01*
X134225380Y-102862094D02*
X134273000Y-102814475D01*
X134273000Y-102814475D02*
X134320619Y-102719237D01*
X134320619Y-102719237D02*
X134320619Y-102528761D01*
X134320619Y-102528761D02*
X134273000Y-102433523D01*
X134273000Y-102433523D02*
X134225380Y-102385904D01*
X134225380Y-102385904D02*
X134130142Y-102338285D01*
X134130142Y-102338285D02*
X133892047Y-102338285D01*
X133892047Y-102338285D02*
X133796809Y-102385904D01*
X133796809Y-102385904D02*
X133749190Y-102433523D01*
X133749190Y-102433523D02*
X133701571Y-102528761D01*
X133701571Y-102528761D02*
X133701571Y-102719237D01*
X133701571Y-102719237D02*
X133749190Y-102814475D01*
X133749190Y-102814475D02*
X133796809Y-102862094D01*
X133796809Y-102862094D02*
X133892047Y-102909713D01*
%TO.C,U3*%
X159969095Y-129637619D02*
X159969095Y-130447142D01*
X159969095Y-130447142D02*
X160016714Y-130542380D01*
X160016714Y-130542380D02*
X160064333Y-130590000D01*
X160064333Y-130590000D02*
X160159571Y-130637619D01*
X160159571Y-130637619D02*
X160350047Y-130637619D01*
X160350047Y-130637619D02*
X160445285Y-130590000D01*
X160445285Y-130590000D02*
X160492904Y-130542380D01*
X160492904Y-130542380D02*
X160540523Y-130447142D01*
X160540523Y-130447142D02*
X160540523Y-129637619D01*
X160921476Y-129637619D02*
X161540523Y-129637619D01*
X161540523Y-129637619D02*
X161207190Y-130018571D01*
X161207190Y-130018571D02*
X161350047Y-130018571D01*
X161350047Y-130018571D02*
X161445285Y-130066190D01*
X161445285Y-130066190D02*
X161492904Y-130113809D01*
X161492904Y-130113809D02*
X161540523Y-130209047D01*
X161540523Y-130209047D02*
X161540523Y-130447142D01*
X161540523Y-130447142D02*
X161492904Y-130542380D01*
X161492904Y-130542380D02*
X161445285Y-130590000D01*
X161445285Y-130590000D02*
X161350047Y-130637619D01*
X161350047Y-130637619D02*
X161064333Y-130637619D01*
X161064333Y-130637619D02*
X160969095Y-130590000D01*
X160969095Y-130590000D02*
X160921476Y-130542380D01*
%TO.C,J2*%
X132508666Y-122398619D02*
X132508666Y-123112904D01*
X132508666Y-123112904D02*
X132461047Y-123255761D01*
X132461047Y-123255761D02*
X132365809Y-123351000D01*
X132365809Y-123351000D02*
X132222952Y-123398619D01*
X132222952Y-123398619D02*
X132127714Y-123398619D01*
X132937238Y-122493857D02*
X132984857Y-122446238D01*
X132984857Y-122446238D02*
X133080095Y-122398619D01*
X133080095Y-122398619D02*
X133318190Y-122398619D01*
X133318190Y-122398619D02*
X133413428Y-122446238D01*
X133413428Y-122446238D02*
X133461047Y-122493857D01*
X133461047Y-122493857D02*
X133508666Y-122589095D01*
X133508666Y-122589095D02*
X133508666Y-122684333D01*
X133508666Y-122684333D02*
X133461047Y-122827190D01*
X133461047Y-122827190D02*
X132889619Y-123398619D01*
X132889619Y-123398619D02*
X133508666Y-123398619D01*
%TO.C,R16*%
X167962142Y-127595619D02*
X167628809Y-127119428D01*
X167390714Y-127595619D02*
X167390714Y-126595619D01*
X167390714Y-126595619D02*
X167771666Y-126595619D01*
X167771666Y-126595619D02*
X167866904Y-126643238D01*
X167866904Y-126643238D02*
X167914523Y-126690857D01*
X167914523Y-126690857D02*
X167962142Y-126786095D01*
X167962142Y-126786095D02*
X167962142Y-126928952D01*
X167962142Y-126928952D02*
X167914523Y-127024190D01*
X167914523Y-127024190D02*
X167866904Y-127071809D01*
X167866904Y-127071809D02*
X167771666Y-127119428D01*
X167771666Y-127119428D02*
X167390714Y-127119428D01*
X168914523Y-127595619D02*
X168343095Y-127595619D01*
X168628809Y-127595619D02*
X168628809Y-126595619D01*
X168628809Y-126595619D02*
X168533571Y-126738476D01*
X168533571Y-126738476D02*
X168438333Y-126833714D01*
X168438333Y-126833714D02*
X168343095Y-126881333D01*
X169771666Y-126595619D02*
X169581190Y-126595619D01*
X169581190Y-126595619D02*
X169485952Y-126643238D01*
X169485952Y-126643238D02*
X169438333Y-126690857D01*
X169438333Y-126690857D02*
X169343095Y-126833714D01*
X169343095Y-126833714D02*
X169295476Y-127024190D01*
X169295476Y-127024190D02*
X169295476Y-127405142D01*
X169295476Y-127405142D02*
X169343095Y-127500380D01*
X169343095Y-127500380D02*
X169390714Y-127548000D01*
X169390714Y-127548000D02*
X169485952Y-127595619D01*
X169485952Y-127595619D02*
X169676428Y-127595619D01*
X169676428Y-127595619D02*
X169771666Y-127548000D01*
X169771666Y-127548000D02*
X169819285Y-127500380D01*
X169819285Y-127500380D02*
X169866904Y-127405142D01*
X169866904Y-127405142D02*
X169866904Y-127167047D01*
X169866904Y-127167047D02*
X169819285Y-127071809D01*
X169819285Y-127071809D02*
X169771666Y-127024190D01*
X169771666Y-127024190D02*
X169676428Y-126976571D01*
X169676428Y-126976571D02*
X169485952Y-126976571D01*
X169485952Y-126976571D02*
X169390714Y-127024190D01*
X169390714Y-127024190D02*
X169343095Y-127071809D01*
X169343095Y-127071809D02*
X169295476Y-127167047D01*
%TO.C,R15*%
X158488142Y-122343619D02*
X158154809Y-121867428D01*
X157916714Y-122343619D02*
X157916714Y-121343619D01*
X157916714Y-121343619D02*
X158297666Y-121343619D01*
X158297666Y-121343619D02*
X158392904Y-121391238D01*
X158392904Y-121391238D02*
X158440523Y-121438857D01*
X158440523Y-121438857D02*
X158488142Y-121534095D01*
X158488142Y-121534095D02*
X158488142Y-121676952D01*
X158488142Y-121676952D02*
X158440523Y-121772190D01*
X158440523Y-121772190D02*
X158392904Y-121819809D01*
X158392904Y-121819809D02*
X158297666Y-121867428D01*
X158297666Y-121867428D02*
X157916714Y-121867428D01*
X159440523Y-122343619D02*
X158869095Y-122343619D01*
X159154809Y-122343619D02*
X159154809Y-121343619D01*
X159154809Y-121343619D02*
X159059571Y-121486476D01*
X159059571Y-121486476D02*
X158964333Y-121581714D01*
X158964333Y-121581714D02*
X158869095Y-121629333D01*
X160345285Y-121343619D02*
X159869095Y-121343619D01*
X159869095Y-121343619D02*
X159821476Y-121819809D01*
X159821476Y-121819809D02*
X159869095Y-121772190D01*
X159869095Y-121772190D02*
X159964333Y-121724571D01*
X159964333Y-121724571D02*
X160202428Y-121724571D01*
X160202428Y-121724571D02*
X160297666Y-121772190D01*
X160297666Y-121772190D02*
X160345285Y-121819809D01*
X160345285Y-121819809D02*
X160392904Y-121915047D01*
X160392904Y-121915047D02*
X160392904Y-122153142D01*
X160392904Y-122153142D02*
X160345285Y-122248380D01*
X160345285Y-122248380D02*
X160297666Y-122296000D01*
X160297666Y-122296000D02*
X160202428Y-122343619D01*
X160202428Y-122343619D02*
X159964333Y-122343619D01*
X159964333Y-122343619D02*
X159869095Y-122296000D01*
X159869095Y-122296000D02*
X159821476Y-122248380D01*
%TO.C,R13*%
X148709142Y-120857619D02*
X148375809Y-120381428D01*
X148137714Y-120857619D02*
X148137714Y-119857619D01*
X148137714Y-119857619D02*
X148518666Y-119857619D01*
X148518666Y-119857619D02*
X148613904Y-119905238D01*
X148613904Y-119905238D02*
X148661523Y-119952857D01*
X148661523Y-119952857D02*
X148709142Y-120048095D01*
X148709142Y-120048095D02*
X148709142Y-120190952D01*
X148709142Y-120190952D02*
X148661523Y-120286190D01*
X148661523Y-120286190D02*
X148613904Y-120333809D01*
X148613904Y-120333809D02*
X148518666Y-120381428D01*
X148518666Y-120381428D02*
X148137714Y-120381428D01*
X149661523Y-120857619D02*
X149090095Y-120857619D01*
X149375809Y-120857619D02*
X149375809Y-119857619D01*
X149375809Y-119857619D02*
X149280571Y-120000476D01*
X149280571Y-120000476D02*
X149185333Y-120095714D01*
X149185333Y-120095714D02*
X149090095Y-120143333D01*
X149994857Y-119857619D02*
X150613904Y-119857619D01*
X150613904Y-119857619D02*
X150280571Y-120238571D01*
X150280571Y-120238571D02*
X150423428Y-120238571D01*
X150423428Y-120238571D02*
X150518666Y-120286190D01*
X150518666Y-120286190D02*
X150566285Y-120333809D01*
X150566285Y-120333809D02*
X150613904Y-120429047D01*
X150613904Y-120429047D02*
X150613904Y-120667142D01*
X150613904Y-120667142D02*
X150566285Y-120762380D01*
X150566285Y-120762380D02*
X150518666Y-120810000D01*
X150518666Y-120810000D02*
X150423428Y-120857619D01*
X150423428Y-120857619D02*
X150137714Y-120857619D01*
X150137714Y-120857619D02*
X150042476Y-120810000D01*
X150042476Y-120810000D02*
X149994857Y-120762380D01*
%TO.C,C16*%
X153535142Y-127367380D02*
X153487523Y-127415000D01*
X153487523Y-127415000D02*
X153344666Y-127462619D01*
X153344666Y-127462619D02*
X153249428Y-127462619D01*
X153249428Y-127462619D02*
X153106571Y-127415000D01*
X153106571Y-127415000D02*
X153011333Y-127319761D01*
X153011333Y-127319761D02*
X152963714Y-127224523D01*
X152963714Y-127224523D02*
X152916095Y-127034047D01*
X152916095Y-127034047D02*
X152916095Y-126891190D01*
X152916095Y-126891190D02*
X152963714Y-126700714D01*
X152963714Y-126700714D02*
X153011333Y-126605476D01*
X153011333Y-126605476D02*
X153106571Y-126510238D01*
X153106571Y-126510238D02*
X153249428Y-126462619D01*
X153249428Y-126462619D02*
X153344666Y-126462619D01*
X153344666Y-126462619D02*
X153487523Y-126510238D01*
X153487523Y-126510238D02*
X153535142Y-126557857D01*
X154487523Y-127462619D02*
X153916095Y-127462619D01*
X154201809Y-127462619D02*
X154201809Y-126462619D01*
X154201809Y-126462619D02*
X154106571Y-126605476D01*
X154106571Y-126605476D02*
X154011333Y-126700714D01*
X154011333Y-126700714D02*
X153916095Y-126748333D01*
X155344666Y-126462619D02*
X155154190Y-126462619D01*
X155154190Y-126462619D02*
X155058952Y-126510238D01*
X155058952Y-126510238D02*
X155011333Y-126557857D01*
X155011333Y-126557857D02*
X154916095Y-126700714D01*
X154916095Y-126700714D02*
X154868476Y-126891190D01*
X154868476Y-126891190D02*
X154868476Y-127272142D01*
X154868476Y-127272142D02*
X154916095Y-127367380D01*
X154916095Y-127367380D02*
X154963714Y-127415000D01*
X154963714Y-127415000D02*
X155058952Y-127462619D01*
X155058952Y-127462619D02*
X155249428Y-127462619D01*
X155249428Y-127462619D02*
X155344666Y-127415000D01*
X155344666Y-127415000D02*
X155392285Y-127367380D01*
X155392285Y-127367380D02*
X155439904Y-127272142D01*
X155439904Y-127272142D02*
X155439904Y-127034047D01*
X155439904Y-127034047D02*
X155392285Y-126938809D01*
X155392285Y-126938809D02*
X155344666Y-126891190D01*
X155344666Y-126891190D02*
X155249428Y-126843571D01*
X155249428Y-126843571D02*
X155058952Y-126843571D01*
X155058952Y-126843571D02*
X154963714Y-126891190D01*
X154963714Y-126891190D02*
X154916095Y-126938809D01*
X154916095Y-126938809D02*
X154868476Y-127034047D01*
%TO.C,C3*%
X130964833Y-113033380D02*
X130917214Y-113081000D01*
X130917214Y-113081000D02*
X130774357Y-113128619D01*
X130774357Y-113128619D02*
X130679119Y-113128619D01*
X130679119Y-113128619D02*
X130536262Y-113081000D01*
X130536262Y-113081000D02*
X130441024Y-112985761D01*
X130441024Y-112985761D02*
X130393405Y-112890523D01*
X130393405Y-112890523D02*
X130345786Y-112700047D01*
X130345786Y-112700047D02*
X130345786Y-112557190D01*
X130345786Y-112557190D02*
X130393405Y-112366714D01*
X130393405Y-112366714D02*
X130441024Y-112271476D01*
X130441024Y-112271476D02*
X130536262Y-112176238D01*
X130536262Y-112176238D02*
X130679119Y-112128619D01*
X130679119Y-112128619D02*
X130774357Y-112128619D01*
X130774357Y-112128619D02*
X130917214Y-112176238D01*
X130917214Y-112176238D02*
X130964833Y-112223857D01*
X131298167Y-112128619D02*
X131917214Y-112128619D01*
X131917214Y-112128619D02*
X131583881Y-112509571D01*
X131583881Y-112509571D02*
X131726738Y-112509571D01*
X131726738Y-112509571D02*
X131821976Y-112557190D01*
X131821976Y-112557190D02*
X131869595Y-112604809D01*
X131869595Y-112604809D02*
X131917214Y-112700047D01*
X131917214Y-112700047D02*
X131917214Y-112938142D01*
X131917214Y-112938142D02*
X131869595Y-113033380D01*
X131869595Y-113033380D02*
X131821976Y-113081000D01*
X131821976Y-113081000D02*
X131726738Y-113128619D01*
X131726738Y-113128619D02*
X131441024Y-113128619D01*
X131441024Y-113128619D02*
X131345786Y-113081000D01*
X131345786Y-113081000D02*
X131298167Y-113033380D01*
%TO.C,C1*%
X149084380Y-112053666D02*
X149132000Y-112101285D01*
X149132000Y-112101285D02*
X149179619Y-112244142D01*
X149179619Y-112244142D02*
X149179619Y-112339380D01*
X149179619Y-112339380D02*
X149132000Y-112482237D01*
X149132000Y-112482237D02*
X149036761Y-112577475D01*
X149036761Y-112577475D02*
X148941523Y-112625094D01*
X148941523Y-112625094D02*
X148751047Y-112672713D01*
X148751047Y-112672713D02*
X148608190Y-112672713D01*
X148608190Y-112672713D02*
X148417714Y-112625094D01*
X148417714Y-112625094D02*
X148322476Y-112577475D01*
X148322476Y-112577475D02*
X148227238Y-112482237D01*
X148227238Y-112482237D02*
X148179619Y-112339380D01*
X148179619Y-112339380D02*
X148179619Y-112244142D01*
X148179619Y-112244142D02*
X148227238Y-112101285D01*
X148227238Y-112101285D02*
X148274857Y-112053666D01*
X149179619Y-111101285D02*
X149179619Y-111672713D01*
X149179619Y-111386999D02*
X148179619Y-111386999D01*
X148179619Y-111386999D02*
X148322476Y-111482237D01*
X148322476Y-111482237D02*
X148417714Y-111577475D01*
X148417714Y-111577475D02*
X148465333Y-111672713D01*
%TO.C,D1*%
X150544869Y-98655094D02*
X149544869Y-98655094D01*
X149544869Y-98655094D02*
X149544869Y-98416999D01*
X149544869Y-98416999D02*
X149592488Y-98274142D01*
X149592488Y-98274142D02*
X149687726Y-98178904D01*
X149687726Y-98178904D02*
X149782964Y-98131285D01*
X149782964Y-98131285D02*
X149973440Y-98083666D01*
X149973440Y-98083666D02*
X150116297Y-98083666D01*
X150116297Y-98083666D02*
X150306773Y-98131285D01*
X150306773Y-98131285D02*
X150402011Y-98178904D01*
X150402011Y-98178904D02*
X150497250Y-98274142D01*
X150497250Y-98274142D02*
X150544869Y-98416999D01*
X150544869Y-98416999D02*
X150544869Y-98655094D01*
X150544869Y-97131285D02*
X150544869Y-97702713D01*
X150544869Y-97416999D02*
X149544869Y-97416999D01*
X149544869Y-97416999D02*
X149687726Y-97512237D01*
X149687726Y-97512237D02*
X149782964Y-97607475D01*
X149782964Y-97607475D02*
X149830583Y-97702713D01*
%TO.C,R5*%
X136606619Y-103290666D02*
X136130428Y-103623999D01*
X136606619Y-103862094D02*
X135606619Y-103862094D01*
X135606619Y-103862094D02*
X135606619Y-103481142D01*
X135606619Y-103481142D02*
X135654238Y-103385904D01*
X135654238Y-103385904D02*
X135701857Y-103338285D01*
X135701857Y-103338285D02*
X135797095Y-103290666D01*
X135797095Y-103290666D02*
X135939952Y-103290666D01*
X135939952Y-103290666D02*
X136035190Y-103338285D01*
X136035190Y-103338285D02*
X136082809Y-103385904D01*
X136082809Y-103385904D02*
X136130428Y-103481142D01*
X136130428Y-103481142D02*
X136130428Y-103862094D01*
X135606619Y-102385904D02*
X135606619Y-102862094D01*
X135606619Y-102862094D02*
X136082809Y-102909713D01*
X136082809Y-102909713D02*
X136035190Y-102862094D01*
X136035190Y-102862094D02*
X135987571Y-102766856D01*
X135987571Y-102766856D02*
X135987571Y-102528761D01*
X135987571Y-102528761D02*
X136035190Y-102433523D01*
X136035190Y-102433523D02*
X136082809Y-102385904D01*
X136082809Y-102385904D02*
X136178047Y-102338285D01*
X136178047Y-102338285D02*
X136416142Y-102338285D01*
X136416142Y-102338285D02*
X136511380Y-102385904D01*
X136511380Y-102385904D02*
X136559000Y-102433523D01*
X136559000Y-102433523D02*
X136606619Y-102528761D01*
X136606619Y-102528761D02*
X136606619Y-102766856D01*
X136606619Y-102766856D02*
X136559000Y-102862094D01*
X136559000Y-102862094D02*
X136511380Y-102909713D01*
%TO.C,J5*%
X175053666Y-119096619D02*
X175053666Y-119810904D01*
X175053666Y-119810904D02*
X175006047Y-119953761D01*
X175006047Y-119953761D02*
X174910809Y-120049000D01*
X174910809Y-120049000D02*
X174767952Y-120096619D01*
X174767952Y-120096619D02*
X174672714Y-120096619D01*
X176006047Y-119096619D02*
X175529857Y-119096619D01*
X175529857Y-119096619D02*
X175482238Y-119572809D01*
X175482238Y-119572809D02*
X175529857Y-119525190D01*
X175529857Y-119525190D02*
X175625095Y-119477571D01*
X175625095Y-119477571D02*
X175863190Y-119477571D01*
X175863190Y-119477571D02*
X175958428Y-119525190D01*
X175958428Y-119525190D02*
X176006047Y-119572809D01*
X176006047Y-119572809D02*
X176053666Y-119668047D01*
X176053666Y-119668047D02*
X176053666Y-119906142D01*
X176053666Y-119906142D02*
X176006047Y-120001380D01*
X176006047Y-120001380D02*
X175958428Y-120049000D01*
X175958428Y-120049000D02*
X175863190Y-120096619D01*
X175863190Y-120096619D02*
X175625095Y-120096619D01*
X175625095Y-120096619D02*
X175529857Y-120049000D01*
X175529857Y-120049000D02*
X175482238Y-120001380D01*
%TO.C,C5*%
X130034380Y-103290666D02*
X130082000Y-103338285D01*
X130082000Y-103338285D02*
X130129619Y-103481142D01*
X130129619Y-103481142D02*
X130129619Y-103576380D01*
X130129619Y-103576380D02*
X130082000Y-103719237D01*
X130082000Y-103719237D02*
X129986761Y-103814475D01*
X129986761Y-103814475D02*
X129891523Y-103862094D01*
X129891523Y-103862094D02*
X129701047Y-103909713D01*
X129701047Y-103909713D02*
X129558190Y-103909713D01*
X129558190Y-103909713D02*
X129367714Y-103862094D01*
X129367714Y-103862094D02*
X129272476Y-103814475D01*
X129272476Y-103814475D02*
X129177238Y-103719237D01*
X129177238Y-103719237D02*
X129129619Y-103576380D01*
X129129619Y-103576380D02*
X129129619Y-103481142D01*
X129129619Y-103481142D02*
X129177238Y-103338285D01*
X129177238Y-103338285D02*
X129224857Y-103290666D01*
X129129619Y-102385904D02*
X129129619Y-102862094D01*
X129129619Y-102862094D02*
X129605809Y-102909713D01*
X129605809Y-102909713D02*
X129558190Y-102862094D01*
X129558190Y-102862094D02*
X129510571Y-102766856D01*
X129510571Y-102766856D02*
X129510571Y-102528761D01*
X129510571Y-102528761D02*
X129558190Y-102433523D01*
X129558190Y-102433523D02*
X129605809Y-102385904D01*
X129605809Y-102385904D02*
X129701047Y-102338285D01*
X129701047Y-102338285D02*
X129939142Y-102338285D01*
X129939142Y-102338285D02*
X130034380Y-102385904D01*
X130034380Y-102385904D02*
X130082000Y-102433523D01*
X130082000Y-102433523D02*
X130129619Y-102528761D01*
X130129619Y-102528761D02*
X130129619Y-102766856D01*
X130129619Y-102766856D02*
X130082000Y-102862094D01*
X130082000Y-102862094D02*
X130034380Y-102909713D01*
%TO.C,SW2*%
X136373000Y-95567332D02*
X136420619Y-95424475D01*
X136420619Y-95424475D02*
X136420619Y-95186380D01*
X136420619Y-95186380D02*
X136373000Y-95091142D01*
X136373000Y-95091142D02*
X136325380Y-95043523D01*
X136325380Y-95043523D02*
X136230142Y-94995904D01*
X136230142Y-94995904D02*
X136134904Y-94995904D01*
X136134904Y-94995904D02*
X136039666Y-95043523D01*
X136039666Y-95043523D02*
X135992047Y-95091142D01*
X135992047Y-95091142D02*
X135944428Y-95186380D01*
X135944428Y-95186380D02*
X135896809Y-95376856D01*
X135896809Y-95376856D02*
X135849190Y-95472094D01*
X135849190Y-95472094D02*
X135801571Y-95519713D01*
X135801571Y-95519713D02*
X135706333Y-95567332D01*
X135706333Y-95567332D02*
X135611095Y-95567332D01*
X135611095Y-95567332D02*
X135515857Y-95519713D01*
X135515857Y-95519713D02*
X135468238Y-95472094D01*
X135468238Y-95472094D02*
X135420619Y-95376856D01*
X135420619Y-95376856D02*
X135420619Y-95138761D01*
X135420619Y-95138761D02*
X135468238Y-94995904D01*
X135420619Y-94662570D02*
X136420619Y-94424475D01*
X136420619Y-94424475D02*
X135706333Y-94233999D01*
X135706333Y-94233999D02*
X136420619Y-94043523D01*
X136420619Y-94043523D02*
X135420619Y-93805428D01*
X135515857Y-93472094D02*
X135468238Y-93424475D01*
X135468238Y-93424475D02*
X135420619Y-93329237D01*
X135420619Y-93329237D02*
X135420619Y-93091142D01*
X135420619Y-93091142D02*
X135468238Y-92995904D01*
X135468238Y-92995904D02*
X135515857Y-92948285D01*
X135515857Y-92948285D02*
X135611095Y-92900666D01*
X135611095Y-92900666D02*
X135706333Y-92900666D01*
X135706333Y-92900666D02*
X135849190Y-92948285D01*
X135849190Y-92948285D02*
X136420619Y-93519713D01*
X136420619Y-93519713D02*
X136420619Y-92900666D01*
%TO.C,C7*%
X129399380Y-109386666D02*
X129447000Y-109434285D01*
X129447000Y-109434285D02*
X129494619Y-109577142D01*
X129494619Y-109577142D02*
X129494619Y-109672380D01*
X129494619Y-109672380D02*
X129447000Y-109815237D01*
X129447000Y-109815237D02*
X129351761Y-109910475D01*
X129351761Y-109910475D02*
X129256523Y-109958094D01*
X129256523Y-109958094D02*
X129066047Y-110005713D01*
X129066047Y-110005713D02*
X128923190Y-110005713D01*
X128923190Y-110005713D02*
X128732714Y-109958094D01*
X128732714Y-109958094D02*
X128637476Y-109910475D01*
X128637476Y-109910475D02*
X128542238Y-109815237D01*
X128542238Y-109815237D02*
X128494619Y-109672380D01*
X128494619Y-109672380D02*
X128494619Y-109577142D01*
X128494619Y-109577142D02*
X128542238Y-109434285D01*
X128542238Y-109434285D02*
X128589857Y-109386666D01*
X128494619Y-109053332D02*
X128494619Y-108386666D01*
X128494619Y-108386666D02*
X129494619Y-108815237D01*
%TO.C,C6*%
X129289380Y-105644166D02*
X129337000Y-105691785D01*
X129337000Y-105691785D02*
X129384619Y-105834642D01*
X129384619Y-105834642D02*
X129384619Y-105929880D01*
X129384619Y-105929880D02*
X129337000Y-106072737D01*
X129337000Y-106072737D02*
X129241761Y-106167975D01*
X129241761Y-106167975D02*
X129146523Y-106215594D01*
X129146523Y-106215594D02*
X128956047Y-106263213D01*
X128956047Y-106263213D02*
X128813190Y-106263213D01*
X128813190Y-106263213D02*
X128622714Y-106215594D01*
X128622714Y-106215594D02*
X128527476Y-106167975D01*
X128527476Y-106167975D02*
X128432238Y-106072737D01*
X128432238Y-106072737D02*
X128384619Y-105929880D01*
X128384619Y-105929880D02*
X128384619Y-105834642D01*
X128384619Y-105834642D02*
X128432238Y-105691785D01*
X128432238Y-105691785D02*
X128479857Y-105644166D01*
X128384619Y-104787023D02*
X128384619Y-104977499D01*
X128384619Y-104977499D02*
X128432238Y-105072737D01*
X128432238Y-105072737D02*
X128479857Y-105120356D01*
X128479857Y-105120356D02*
X128622714Y-105215594D01*
X128622714Y-105215594D02*
X128813190Y-105263213D01*
X128813190Y-105263213D02*
X129194142Y-105263213D01*
X129194142Y-105263213D02*
X129289380Y-105215594D01*
X129289380Y-105215594D02*
X129337000Y-105167975D01*
X129337000Y-105167975D02*
X129384619Y-105072737D01*
X129384619Y-105072737D02*
X129384619Y-104882261D01*
X129384619Y-104882261D02*
X129337000Y-104787023D01*
X129337000Y-104787023D02*
X129289380Y-104739404D01*
X129289380Y-104739404D02*
X129194142Y-104691785D01*
X129194142Y-104691785D02*
X128956047Y-104691785D01*
X128956047Y-104691785D02*
X128860809Y-104739404D01*
X128860809Y-104739404D02*
X128813190Y-104787023D01*
X128813190Y-104787023D02*
X128765571Y-104882261D01*
X128765571Y-104882261D02*
X128765571Y-105072737D01*
X128765571Y-105072737D02*
X128813190Y-105167975D01*
X128813190Y-105167975D02*
X128860809Y-105215594D01*
X128860809Y-105215594D02*
X128956047Y-105263213D01*
%TO.C,C9*%
X165949333Y-98919380D02*
X165901714Y-98967000D01*
X165901714Y-98967000D02*
X165758857Y-99014619D01*
X165758857Y-99014619D02*
X165663619Y-99014619D01*
X165663619Y-99014619D02*
X165520762Y-98967000D01*
X165520762Y-98967000D02*
X165425524Y-98871761D01*
X165425524Y-98871761D02*
X165377905Y-98776523D01*
X165377905Y-98776523D02*
X165330286Y-98586047D01*
X165330286Y-98586047D02*
X165330286Y-98443190D01*
X165330286Y-98443190D02*
X165377905Y-98252714D01*
X165377905Y-98252714D02*
X165425524Y-98157476D01*
X165425524Y-98157476D02*
X165520762Y-98062238D01*
X165520762Y-98062238D02*
X165663619Y-98014619D01*
X165663619Y-98014619D02*
X165758857Y-98014619D01*
X165758857Y-98014619D02*
X165901714Y-98062238D01*
X165901714Y-98062238D02*
X165949333Y-98109857D01*
X166425524Y-99014619D02*
X166616000Y-99014619D01*
X166616000Y-99014619D02*
X166711238Y-98967000D01*
X166711238Y-98967000D02*
X166758857Y-98919380D01*
X166758857Y-98919380D02*
X166854095Y-98776523D01*
X166854095Y-98776523D02*
X166901714Y-98586047D01*
X166901714Y-98586047D02*
X166901714Y-98205095D01*
X166901714Y-98205095D02*
X166854095Y-98109857D01*
X166854095Y-98109857D02*
X166806476Y-98062238D01*
X166806476Y-98062238D02*
X166711238Y-98014619D01*
X166711238Y-98014619D02*
X166520762Y-98014619D01*
X166520762Y-98014619D02*
X166425524Y-98062238D01*
X166425524Y-98062238D02*
X166377905Y-98109857D01*
X166377905Y-98109857D02*
X166330286Y-98205095D01*
X166330286Y-98205095D02*
X166330286Y-98443190D01*
X166330286Y-98443190D02*
X166377905Y-98538428D01*
X166377905Y-98538428D02*
X166425524Y-98586047D01*
X166425524Y-98586047D02*
X166520762Y-98633666D01*
X166520762Y-98633666D02*
X166711238Y-98633666D01*
X166711238Y-98633666D02*
X166806476Y-98586047D01*
X166806476Y-98586047D02*
X166854095Y-98538428D01*
X166854095Y-98538428D02*
X166901714Y-98443190D01*
%TO.C,C13*%
X155815380Y-124086857D02*
X155863000Y-124134476D01*
X155863000Y-124134476D02*
X155910619Y-124277333D01*
X155910619Y-124277333D02*
X155910619Y-124372571D01*
X155910619Y-124372571D02*
X155863000Y-124515428D01*
X155863000Y-124515428D02*
X155767761Y-124610666D01*
X155767761Y-124610666D02*
X155672523Y-124658285D01*
X155672523Y-124658285D02*
X155482047Y-124705904D01*
X155482047Y-124705904D02*
X155339190Y-124705904D01*
X155339190Y-124705904D02*
X155148714Y-124658285D01*
X155148714Y-124658285D02*
X155053476Y-124610666D01*
X155053476Y-124610666D02*
X154958238Y-124515428D01*
X154958238Y-124515428D02*
X154910619Y-124372571D01*
X154910619Y-124372571D02*
X154910619Y-124277333D01*
X154910619Y-124277333D02*
X154958238Y-124134476D01*
X154958238Y-124134476D02*
X155005857Y-124086857D01*
X155910619Y-123134476D02*
X155910619Y-123705904D01*
X155910619Y-123420190D02*
X154910619Y-123420190D01*
X154910619Y-123420190D02*
X155053476Y-123515428D01*
X155053476Y-123515428D02*
X155148714Y-123610666D01*
X155148714Y-123610666D02*
X155196333Y-123705904D01*
X154910619Y-122801142D02*
X154910619Y-122182095D01*
X154910619Y-122182095D02*
X155291571Y-122515428D01*
X155291571Y-122515428D02*
X155291571Y-122372571D01*
X155291571Y-122372571D02*
X155339190Y-122277333D01*
X155339190Y-122277333D02*
X155386809Y-122229714D01*
X155386809Y-122229714D02*
X155482047Y-122182095D01*
X155482047Y-122182095D02*
X155720142Y-122182095D01*
X155720142Y-122182095D02*
X155815380Y-122229714D01*
X155815380Y-122229714D02*
X155863000Y-122277333D01*
X155863000Y-122277333D02*
X155910619Y-122372571D01*
X155910619Y-122372571D02*
X155910619Y-122658285D01*
X155910619Y-122658285D02*
X155863000Y-122753523D01*
X155863000Y-122753523D02*
X155815380Y-122801142D01*
%TO.C,C4*%
X130906380Y-107803166D02*
X130954000Y-107850785D01*
X130954000Y-107850785D02*
X131001619Y-107993642D01*
X131001619Y-107993642D02*
X131001619Y-108088880D01*
X131001619Y-108088880D02*
X130954000Y-108231737D01*
X130954000Y-108231737D02*
X130858761Y-108326975D01*
X130858761Y-108326975D02*
X130763523Y-108374594D01*
X130763523Y-108374594D02*
X130573047Y-108422213D01*
X130573047Y-108422213D02*
X130430190Y-108422213D01*
X130430190Y-108422213D02*
X130239714Y-108374594D01*
X130239714Y-108374594D02*
X130144476Y-108326975D01*
X130144476Y-108326975D02*
X130049238Y-108231737D01*
X130049238Y-108231737D02*
X130001619Y-108088880D01*
X130001619Y-108088880D02*
X130001619Y-107993642D01*
X130001619Y-107993642D02*
X130049238Y-107850785D01*
X130049238Y-107850785D02*
X130096857Y-107803166D01*
X130334952Y-106946023D02*
X131001619Y-106946023D01*
X129954000Y-107184118D02*
X130668285Y-107422213D01*
X130668285Y-107422213D02*
X130668285Y-106803166D01*
%TO.C,C14*%
X155942380Y-113545857D02*
X155990000Y-113593476D01*
X155990000Y-113593476D02*
X156037619Y-113736333D01*
X156037619Y-113736333D02*
X156037619Y-113831571D01*
X156037619Y-113831571D02*
X155990000Y-113974428D01*
X155990000Y-113974428D02*
X155894761Y-114069666D01*
X155894761Y-114069666D02*
X155799523Y-114117285D01*
X155799523Y-114117285D02*
X155609047Y-114164904D01*
X155609047Y-114164904D02*
X155466190Y-114164904D01*
X155466190Y-114164904D02*
X155275714Y-114117285D01*
X155275714Y-114117285D02*
X155180476Y-114069666D01*
X155180476Y-114069666D02*
X155085238Y-113974428D01*
X155085238Y-113974428D02*
X155037619Y-113831571D01*
X155037619Y-113831571D02*
X155037619Y-113736333D01*
X155037619Y-113736333D02*
X155085238Y-113593476D01*
X155085238Y-113593476D02*
X155132857Y-113545857D01*
X156037619Y-112593476D02*
X156037619Y-113164904D01*
X156037619Y-112879190D02*
X155037619Y-112879190D01*
X155037619Y-112879190D02*
X155180476Y-112974428D01*
X155180476Y-112974428D02*
X155275714Y-113069666D01*
X155275714Y-113069666D02*
X155323333Y-113164904D01*
X155370952Y-111736333D02*
X156037619Y-111736333D01*
X154990000Y-111974428D02*
X155704285Y-112212523D01*
X155704285Y-112212523D02*
X155704285Y-111593476D01*
%TO.C,SW1*%
X125142000Y-95567332D02*
X125189619Y-95424475D01*
X125189619Y-95424475D02*
X125189619Y-95186380D01*
X125189619Y-95186380D02*
X125142000Y-95091142D01*
X125142000Y-95091142D02*
X125094380Y-95043523D01*
X125094380Y-95043523D02*
X124999142Y-94995904D01*
X124999142Y-94995904D02*
X124903904Y-94995904D01*
X124903904Y-94995904D02*
X124808666Y-95043523D01*
X124808666Y-95043523D02*
X124761047Y-95091142D01*
X124761047Y-95091142D02*
X124713428Y-95186380D01*
X124713428Y-95186380D02*
X124665809Y-95376856D01*
X124665809Y-95376856D02*
X124618190Y-95472094D01*
X124618190Y-95472094D02*
X124570571Y-95519713D01*
X124570571Y-95519713D02*
X124475333Y-95567332D01*
X124475333Y-95567332D02*
X124380095Y-95567332D01*
X124380095Y-95567332D02*
X124284857Y-95519713D01*
X124284857Y-95519713D02*
X124237238Y-95472094D01*
X124237238Y-95472094D02*
X124189619Y-95376856D01*
X124189619Y-95376856D02*
X124189619Y-95138761D01*
X124189619Y-95138761D02*
X124237238Y-94995904D01*
X124189619Y-94662570D02*
X125189619Y-94424475D01*
X125189619Y-94424475D02*
X124475333Y-94233999D01*
X124475333Y-94233999D02*
X125189619Y-94043523D01*
X125189619Y-94043523D02*
X124189619Y-93805428D01*
X125189619Y-92900666D02*
X125189619Y-93472094D01*
X125189619Y-93186380D02*
X124189619Y-93186380D01*
X124189619Y-93186380D02*
X124332476Y-93281618D01*
X124332476Y-93281618D02*
X124427714Y-93376856D01*
X124427714Y-93376856D02*
X124475333Y-93472094D01*
%TO.C,D4*%
X147909619Y-98655094D02*
X146909619Y-98655094D01*
X146909619Y-98655094D02*
X146909619Y-98416999D01*
X146909619Y-98416999D02*
X146957238Y-98274142D01*
X146957238Y-98274142D02*
X147052476Y-98178904D01*
X147052476Y-98178904D02*
X147147714Y-98131285D01*
X147147714Y-98131285D02*
X147338190Y-98083666D01*
X147338190Y-98083666D02*
X147481047Y-98083666D01*
X147481047Y-98083666D02*
X147671523Y-98131285D01*
X147671523Y-98131285D02*
X147766761Y-98178904D01*
X147766761Y-98178904D02*
X147862000Y-98274142D01*
X147862000Y-98274142D02*
X147909619Y-98416999D01*
X147909619Y-98416999D02*
X147909619Y-98655094D01*
X147242952Y-97226523D02*
X147909619Y-97226523D01*
X146862000Y-97464618D02*
X147576285Y-97702713D01*
X147576285Y-97702713D02*
X147576285Y-97083666D01*
%TO.C,R17*%
X161459642Y-122355619D02*
X161126309Y-121879428D01*
X160888214Y-122355619D02*
X160888214Y-121355619D01*
X160888214Y-121355619D02*
X161269166Y-121355619D01*
X161269166Y-121355619D02*
X161364404Y-121403238D01*
X161364404Y-121403238D02*
X161412023Y-121450857D01*
X161412023Y-121450857D02*
X161459642Y-121546095D01*
X161459642Y-121546095D02*
X161459642Y-121688952D01*
X161459642Y-121688952D02*
X161412023Y-121784190D01*
X161412023Y-121784190D02*
X161364404Y-121831809D01*
X161364404Y-121831809D02*
X161269166Y-121879428D01*
X161269166Y-121879428D02*
X160888214Y-121879428D01*
X162412023Y-122355619D02*
X161840595Y-122355619D01*
X162126309Y-122355619D02*
X162126309Y-121355619D01*
X162126309Y-121355619D02*
X162031071Y-121498476D01*
X162031071Y-121498476D02*
X161935833Y-121593714D01*
X161935833Y-121593714D02*
X161840595Y-121641333D01*
X162745357Y-121355619D02*
X163412023Y-121355619D01*
X163412023Y-121355619D02*
X162983452Y-122355619D01*
%TO.C,C11*%
X174490142Y-101332380D02*
X174442523Y-101380000D01*
X174442523Y-101380000D02*
X174299666Y-101427619D01*
X174299666Y-101427619D02*
X174204428Y-101427619D01*
X174204428Y-101427619D02*
X174061571Y-101380000D01*
X174061571Y-101380000D02*
X173966333Y-101284761D01*
X173966333Y-101284761D02*
X173918714Y-101189523D01*
X173918714Y-101189523D02*
X173871095Y-100999047D01*
X173871095Y-100999047D02*
X173871095Y-100856190D01*
X173871095Y-100856190D02*
X173918714Y-100665714D01*
X173918714Y-100665714D02*
X173966333Y-100570476D01*
X173966333Y-100570476D02*
X174061571Y-100475238D01*
X174061571Y-100475238D02*
X174204428Y-100427619D01*
X174204428Y-100427619D02*
X174299666Y-100427619D01*
X174299666Y-100427619D02*
X174442523Y-100475238D01*
X174442523Y-100475238D02*
X174490142Y-100522857D01*
X175442523Y-101427619D02*
X174871095Y-101427619D01*
X175156809Y-101427619D02*
X175156809Y-100427619D01*
X175156809Y-100427619D02*
X175061571Y-100570476D01*
X175061571Y-100570476D02*
X174966333Y-100665714D01*
X174966333Y-100665714D02*
X174871095Y-100713333D01*
X176394904Y-101427619D02*
X175823476Y-101427619D01*
X176109190Y-101427619D02*
X176109190Y-100427619D01*
X176109190Y-100427619D02*
X176013952Y-100570476D01*
X176013952Y-100570476D02*
X175918714Y-100665714D01*
X175918714Y-100665714D02*
X175823476Y-100713333D01*
%TO.C,C8*%
X165949333Y-100697380D02*
X165901714Y-100745000D01*
X165901714Y-100745000D02*
X165758857Y-100792619D01*
X165758857Y-100792619D02*
X165663619Y-100792619D01*
X165663619Y-100792619D02*
X165520762Y-100745000D01*
X165520762Y-100745000D02*
X165425524Y-100649761D01*
X165425524Y-100649761D02*
X165377905Y-100554523D01*
X165377905Y-100554523D02*
X165330286Y-100364047D01*
X165330286Y-100364047D02*
X165330286Y-100221190D01*
X165330286Y-100221190D02*
X165377905Y-100030714D01*
X165377905Y-100030714D02*
X165425524Y-99935476D01*
X165425524Y-99935476D02*
X165520762Y-99840238D01*
X165520762Y-99840238D02*
X165663619Y-99792619D01*
X165663619Y-99792619D02*
X165758857Y-99792619D01*
X165758857Y-99792619D02*
X165901714Y-99840238D01*
X165901714Y-99840238D02*
X165949333Y-99887857D01*
X166520762Y-100221190D02*
X166425524Y-100173571D01*
X166425524Y-100173571D02*
X166377905Y-100125952D01*
X166377905Y-100125952D02*
X166330286Y-100030714D01*
X166330286Y-100030714D02*
X166330286Y-99983095D01*
X166330286Y-99983095D02*
X166377905Y-99887857D01*
X166377905Y-99887857D02*
X166425524Y-99840238D01*
X166425524Y-99840238D02*
X166520762Y-99792619D01*
X166520762Y-99792619D02*
X166711238Y-99792619D01*
X166711238Y-99792619D02*
X166806476Y-99840238D01*
X166806476Y-99840238D02*
X166854095Y-99887857D01*
X166854095Y-99887857D02*
X166901714Y-99983095D01*
X166901714Y-99983095D02*
X166901714Y-100030714D01*
X166901714Y-100030714D02*
X166854095Y-100125952D01*
X166854095Y-100125952D02*
X166806476Y-100173571D01*
X166806476Y-100173571D02*
X166711238Y-100221190D01*
X166711238Y-100221190D02*
X166520762Y-100221190D01*
X166520762Y-100221190D02*
X166425524Y-100268809D01*
X166425524Y-100268809D02*
X166377905Y-100316428D01*
X166377905Y-100316428D02*
X166330286Y-100411666D01*
X166330286Y-100411666D02*
X166330286Y-100602142D01*
X166330286Y-100602142D02*
X166377905Y-100697380D01*
X166377905Y-100697380D02*
X166425524Y-100745000D01*
X166425524Y-100745000D02*
X166520762Y-100792619D01*
X166520762Y-100792619D02*
X166711238Y-100792619D01*
X166711238Y-100792619D02*
X166806476Y-100745000D01*
X166806476Y-100745000D02*
X166854095Y-100697380D01*
X166854095Y-100697380D02*
X166901714Y-100602142D01*
X166901714Y-100602142D02*
X166901714Y-100411666D01*
X166901714Y-100411666D02*
X166854095Y-100316428D01*
X166854095Y-100316428D02*
X166806476Y-100268809D01*
X166806476Y-100268809D02*
X166711238Y-100221190D01*
%TO.C,U2*%
X160655095Y-111040619D02*
X160655095Y-111850142D01*
X160655095Y-111850142D02*
X160702714Y-111945380D01*
X160702714Y-111945380D02*
X160750333Y-111993000D01*
X160750333Y-111993000D02*
X160845571Y-112040619D01*
X160845571Y-112040619D02*
X161036047Y-112040619D01*
X161036047Y-112040619D02*
X161131285Y-111993000D01*
X161131285Y-111993000D02*
X161178904Y-111945380D01*
X161178904Y-111945380D02*
X161226523Y-111850142D01*
X161226523Y-111850142D02*
X161226523Y-111040619D01*
X161655095Y-111135857D02*
X161702714Y-111088238D01*
X161702714Y-111088238D02*
X161797952Y-111040619D01*
X161797952Y-111040619D02*
X162036047Y-111040619D01*
X162036047Y-111040619D02*
X162131285Y-111088238D01*
X162131285Y-111088238D02*
X162178904Y-111135857D01*
X162178904Y-111135857D02*
X162226523Y-111231095D01*
X162226523Y-111231095D02*
X162226523Y-111326333D01*
X162226523Y-111326333D02*
X162178904Y-111469190D01*
X162178904Y-111469190D02*
X161607476Y-112040619D01*
X161607476Y-112040619D02*
X162226523Y-112040619D01*
%TO.C,R12*%
X167251142Y-112984619D02*
X166917809Y-112508428D01*
X166679714Y-112984619D02*
X166679714Y-111984619D01*
X166679714Y-111984619D02*
X167060666Y-111984619D01*
X167060666Y-111984619D02*
X167155904Y-112032238D01*
X167155904Y-112032238D02*
X167203523Y-112079857D01*
X167203523Y-112079857D02*
X167251142Y-112175095D01*
X167251142Y-112175095D02*
X167251142Y-112317952D01*
X167251142Y-112317952D02*
X167203523Y-112413190D01*
X167203523Y-112413190D02*
X167155904Y-112460809D01*
X167155904Y-112460809D02*
X167060666Y-112508428D01*
X167060666Y-112508428D02*
X166679714Y-112508428D01*
X168203523Y-112984619D02*
X167632095Y-112984619D01*
X167917809Y-112984619D02*
X167917809Y-111984619D01*
X167917809Y-111984619D02*
X167822571Y-112127476D01*
X167822571Y-112127476D02*
X167727333Y-112222714D01*
X167727333Y-112222714D02*
X167632095Y-112270333D01*
X168584476Y-112079857D02*
X168632095Y-112032238D01*
X168632095Y-112032238D02*
X168727333Y-111984619D01*
X168727333Y-111984619D02*
X168965428Y-111984619D01*
X168965428Y-111984619D02*
X169060666Y-112032238D01*
X169060666Y-112032238D02*
X169108285Y-112079857D01*
X169108285Y-112079857D02*
X169155904Y-112175095D01*
X169155904Y-112175095D02*
X169155904Y-112270333D01*
X169155904Y-112270333D02*
X169108285Y-112413190D01*
X169108285Y-112413190D02*
X168536857Y-112984619D01*
X168536857Y-112984619D02*
X169155904Y-112984619D01*
%TO.C,R14*%
X167962142Y-126059619D02*
X167628809Y-125583428D01*
X167390714Y-126059619D02*
X167390714Y-125059619D01*
X167390714Y-125059619D02*
X167771666Y-125059619D01*
X167771666Y-125059619D02*
X167866904Y-125107238D01*
X167866904Y-125107238D02*
X167914523Y-125154857D01*
X167914523Y-125154857D02*
X167962142Y-125250095D01*
X167962142Y-125250095D02*
X167962142Y-125392952D01*
X167962142Y-125392952D02*
X167914523Y-125488190D01*
X167914523Y-125488190D02*
X167866904Y-125535809D01*
X167866904Y-125535809D02*
X167771666Y-125583428D01*
X167771666Y-125583428D02*
X167390714Y-125583428D01*
X168914523Y-126059619D02*
X168343095Y-126059619D01*
X168628809Y-126059619D02*
X168628809Y-125059619D01*
X168628809Y-125059619D02*
X168533571Y-125202476D01*
X168533571Y-125202476D02*
X168438333Y-125297714D01*
X168438333Y-125297714D02*
X168343095Y-125345333D01*
X169771666Y-125392952D02*
X169771666Y-126059619D01*
X169533571Y-125012000D02*
X169295476Y-125726285D01*
X169295476Y-125726285D02*
X169914523Y-125726285D01*
%TO.C,R2*%
X149374869Y-101475166D02*
X148898678Y-101808499D01*
X149374869Y-102046594D02*
X148374869Y-102046594D01*
X148374869Y-102046594D02*
X148374869Y-101665642D01*
X148374869Y-101665642D02*
X148422488Y-101570404D01*
X148422488Y-101570404D02*
X148470107Y-101522785D01*
X148470107Y-101522785D02*
X148565345Y-101475166D01*
X148565345Y-101475166D02*
X148708202Y-101475166D01*
X148708202Y-101475166D02*
X148803440Y-101522785D01*
X148803440Y-101522785D02*
X148851059Y-101570404D01*
X148851059Y-101570404D02*
X148898678Y-101665642D01*
X148898678Y-101665642D02*
X148898678Y-102046594D01*
X148470107Y-101094213D02*
X148422488Y-101046594D01*
X148422488Y-101046594D02*
X148374869Y-100951356D01*
X148374869Y-100951356D02*
X148374869Y-100713261D01*
X148374869Y-100713261D02*
X148422488Y-100618023D01*
X148422488Y-100618023D02*
X148470107Y-100570404D01*
X148470107Y-100570404D02*
X148565345Y-100522785D01*
X148565345Y-100522785D02*
X148660583Y-100522785D01*
X148660583Y-100522785D02*
X148803440Y-100570404D01*
X148803440Y-100570404D02*
X149374869Y-101141832D01*
X149374869Y-101141832D02*
X149374869Y-100522785D01*
%TO.C,J1*%
X175434666Y-114270619D02*
X175434666Y-114984904D01*
X175434666Y-114984904D02*
X175387047Y-115127761D01*
X175387047Y-115127761D02*
X175291809Y-115223000D01*
X175291809Y-115223000D02*
X175148952Y-115270619D01*
X175148952Y-115270619D02*
X175053714Y-115270619D01*
X176434666Y-115270619D02*
X175863238Y-115270619D01*
X176148952Y-115270619D02*
X176148952Y-114270619D01*
X176148952Y-114270619D02*
X176053714Y-114413476D01*
X176053714Y-114413476D02*
X175958476Y-114508714D01*
X175958476Y-114508714D02*
X175863238Y-114556333D01*
%TO.C,R8*%
X157280619Y-101475166D02*
X156804428Y-101808499D01*
X157280619Y-102046594D02*
X156280619Y-102046594D01*
X156280619Y-102046594D02*
X156280619Y-101665642D01*
X156280619Y-101665642D02*
X156328238Y-101570404D01*
X156328238Y-101570404D02*
X156375857Y-101522785D01*
X156375857Y-101522785D02*
X156471095Y-101475166D01*
X156471095Y-101475166D02*
X156613952Y-101475166D01*
X156613952Y-101475166D02*
X156709190Y-101522785D01*
X156709190Y-101522785D02*
X156756809Y-101570404D01*
X156756809Y-101570404D02*
X156804428Y-101665642D01*
X156804428Y-101665642D02*
X156804428Y-102046594D01*
X156709190Y-100903737D02*
X156661571Y-100998975D01*
X156661571Y-100998975D02*
X156613952Y-101046594D01*
X156613952Y-101046594D02*
X156518714Y-101094213D01*
X156518714Y-101094213D02*
X156471095Y-101094213D01*
X156471095Y-101094213D02*
X156375857Y-101046594D01*
X156375857Y-101046594D02*
X156328238Y-100998975D01*
X156328238Y-100998975D02*
X156280619Y-100903737D01*
X156280619Y-100903737D02*
X156280619Y-100713261D01*
X156280619Y-100713261D02*
X156328238Y-100618023D01*
X156328238Y-100618023D02*
X156375857Y-100570404D01*
X156375857Y-100570404D02*
X156471095Y-100522785D01*
X156471095Y-100522785D02*
X156518714Y-100522785D01*
X156518714Y-100522785D02*
X156613952Y-100570404D01*
X156613952Y-100570404D02*
X156661571Y-100618023D01*
X156661571Y-100618023D02*
X156709190Y-100713261D01*
X156709190Y-100713261D02*
X156709190Y-100903737D01*
X156709190Y-100903737D02*
X156756809Y-100998975D01*
X156756809Y-100998975D02*
X156804428Y-101046594D01*
X156804428Y-101046594D02*
X156899666Y-101094213D01*
X156899666Y-101094213D02*
X157090142Y-101094213D01*
X157090142Y-101094213D02*
X157185380Y-101046594D01*
X157185380Y-101046594D02*
X157233000Y-100998975D01*
X157233000Y-100998975D02*
X157280619Y-100903737D01*
X157280619Y-100903737D02*
X157280619Y-100713261D01*
X157280619Y-100713261D02*
X157233000Y-100618023D01*
X157233000Y-100618023D02*
X157185380Y-100570404D01*
X157185380Y-100570404D02*
X157090142Y-100522785D01*
X157090142Y-100522785D02*
X156899666Y-100522785D01*
X156899666Y-100522785D02*
X156804428Y-100570404D01*
X156804428Y-100570404D02*
X156756809Y-100618023D01*
X156756809Y-100618023D02*
X156709190Y-100713261D01*
%TO.C,R4*%
X154645369Y-101475166D02*
X154169178Y-101808499D01*
X154645369Y-102046594D02*
X153645369Y-102046594D01*
X153645369Y-102046594D02*
X153645369Y-101665642D01*
X153645369Y-101665642D02*
X153692988Y-101570404D01*
X153692988Y-101570404D02*
X153740607Y-101522785D01*
X153740607Y-101522785D02*
X153835845Y-101475166D01*
X153835845Y-101475166D02*
X153978702Y-101475166D01*
X153978702Y-101475166D02*
X154073940Y-101522785D01*
X154073940Y-101522785D02*
X154121559Y-101570404D01*
X154121559Y-101570404D02*
X154169178Y-101665642D01*
X154169178Y-101665642D02*
X154169178Y-102046594D01*
X153978702Y-100618023D02*
X154645369Y-100618023D01*
X153597750Y-100856118D02*
X154312035Y-101094213D01*
X154312035Y-101094213D02*
X154312035Y-100475166D01*
%TO.C,C12*%
X154418380Y-124086857D02*
X154466000Y-124134476D01*
X154466000Y-124134476D02*
X154513619Y-124277333D01*
X154513619Y-124277333D02*
X154513619Y-124372571D01*
X154513619Y-124372571D02*
X154466000Y-124515428D01*
X154466000Y-124515428D02*
X154370761Y-124610666D01*
X154370761Y-124610666D02*
X154275523Y-124658285D01*
X154275523Y-124658285D02*
X154085047Y-124705904D01*
X154085047Y-124705904D02*
X153942190Y-124705904D01*
X153942190Y-124705904D02*
X153751714Y-124658285D01*
X153751714Y-124658285D02*
X153656476Y-124610666D01*
X153656476Y-124610666D02*
X153561238Y-124515428D01*
X153561238Y-124515428D02*
X153513619Y-124372571D01*
X153513619Y-124372571D02*
X153513619Y-124277333D01*
X153513619Y-124277333D02*
X153561238Y-124134476D01*
X153561238Y-124134476D02*
X153608857Y-124086857D01*
X154513619Y-123134476D02*
X154513619Y-123705904D01*
X154513619Y-123420190D02*
X153513619Y-123420190D01*
X153513619Y-123420190D02*
X153656476Y-123515428D01*
X153656476Y-123515428D02*
X153751714Y-123610666D01*
X153751714Y-123610666D02*
X153799333Y-123705904D01*
X153608857Y-122753523D02*
X153561238Y-122705904D01*
X153561238Y-122705904D02*
X153513619Y-122610666D01*
X153513619Y-122610666D02*
X153513619Y-122372571D01*
X153513619Y-122372571D02*
X153561238Y-122277333D01*
X153561238Y-122277333D02*
X153608857Y-122229714D01*
X153608857Y-122229714D02*
X153704095Y-122182095D01*
X153704095Y-122182095D02*
X153799333Y-122182095D01*
X153799333Y-122182095D02*
X153942190Y-122229714D01*
X153942190Y-122229714D02*
X154513619Y-122801142D01*
X154513619Y-122801142D02*
X154513619Y-122182095D01*
%TO.C,C2*%
X147052380Y-112434666D02*
X147100000Y-112482285D01*
X147100000Y-112482285D02*
X147147619Y-112625142D01*
X147147619Y-112625142D02*
X147147619Y-112720380D01*
X147147619Y-112720380D02*
X147100000Y-112863237D01*
X147100000Y-112863237D02*
X147004761Y-112958475D01*
X147004761Y-112958475D02*
X146909523Y-113006094D01*
X146909523Y-113006094D02*
X146719047Y-113053713D01*
X146719047Y-113053713D02*
X146576190Y-113053713D01*
X146576190Y-113053713D02*
X146385714Y-113006094D01*
X146385714Y-113006094D02*
X146290476Y-112958475D01*
X146290476Y-112958475D02*
X146195238Y-112863237D01*
X146195238Y-112863237D02*
X146147619Y-112720380D01*
X146147619Y-112720380D02*
X146147619Y-112625142D01*
X146147619Y-112625142D02*
X146195238Y-112482285D01*
X146195238Y-112482285D02*
X146242857Y-112434666D01*
X146242857Y-112053713D02*
X146195238Y-112006094D01*
X146195238Y-112006094D02*
X146147619Y-111910856D01*
X146147619Y-111910856D02*
X146147619Y-111672761D01*
X146147619Y-111672761D02*
X146195238Y-111577523D01*
X146195238Y-111577523D02*
X146242857Y-111529904D01*
X146242857Y-111529904D02*
X146338095Y-111482285D01*
X146338095Y-111482285D02*
X146433333Y-111482285D01*
X146433333Y-111482285D02*
X146576190Y-111529904D01*
X146576190Y-111529904D02*
X147147619Y-112101332D01*
X147147619Y-112101332D02*
X147147619Y-111482285D01*
%TO.C,R3*%
X152010119Y-101475166D02*
X151533928Y-101808499D01*
X152010119Y-102046594D02*
X151010119Y-102046594D01*
X151010119Y-102046594D02*
X151010119Y-101665642D01*
X151010119Y-101665642D02*
X151057738Y-101570404D01*
X151057738Y-101570404D02*
X151105357Y-101522785D01*
X151105357Y-101522785D02*
X151200595Y-101475166D01*
X151200595Y-101475166D02*
X151343452Y-101475166D01*
X151343452Y-101475166D02*
X151438690Y-101522785D01*
X151438690Y-101522785D02*
X151486309Y-101570404D01*
X151486309Y-101570404D02*
X151533928Y-101665642D01*
X151533928Y-101665642D02*
X151533928Y-102046594D01*
X151010119Y-101141832D02*
X151010119Y-100522785D01*
X151010119Y-100522785D02*
X151391071Y-100856118D01*
X151391071Y-100856118D02*
X151391071Y-100713261D01*
X151391071Y-100713261D02*
X151438690Y-100618023D01*
X151438690Y-100618023D02*
X151486309Y-100570404D01*
X151486309Y-100570404D02*
X151581547Y-100522785D01*
X151581547Y-100522785D02*
X151819642Y-100522785D01*
X151819642Y-100522785D02*
X151914880Y-100570404D01*
X151914880Y-100570404D02*
X151962500Y-100618023D01*
X151962500Y-100618023D02*
X152010119Y-100713261D01*
X152010119Y-100713261D02*
X152010119Y-100998975D01*
X152010119Y-100998975D02*
X151962500Y-101094213D01*
X151962500Y-101094213D02*
X151914880Y-101141832D01*
%TO.C,C17*%
X171950142Y-118985380D02*
X171902523Y-119033000D01*
X171902523Y-119033000D02*
X171759666Y-119080619D01*
X171759666Y-119080619D02*
X171664428Y-119080619D01*
X171664428Y-119080619D02*
X171521571Y-119033000D01*
X171521571Y-119033000D02*
X171426333Y-118937761D01*
X171426333Y-118937761D02*
X171378714Y-118842523D01*
X171378714Y-118842523D02*
X171331095Y-118652047D01*
X171331095Y-118652047D02*
X171331095Y-118509190D01*
X171331095Y-118509190D02*
X171378714Y-118318714D01*
X171378714Y-118318714D02*
X171426333Y-118223476D01*
X171426333Y-118223476D02*
X171521571Y-118128238D01*
X171521571Y-118128238D02*
X171664428Y-118080619D01*
X171664428Y-118080619D02*
X171759666Y-118080619D01*
X171759666Y-118080619D02*
X171902523Y-118128238D01*
X171902523Y-118128238D02*
X171950142Y-118175857D01*
X172902523Y-119080619D02*
X172331095Y-119080619D01*
X172616809Y-119080619D02*
X172616809Y-118080619D01*
X172616809Y-118080619D02*
X172521571Y-118223476D01*
X172521571Y-118223476D02*
X172426333Y-118318714D01*
X172426333Y-118318714D02*
X172331095Y-118366333D01*
X173235857Y-118080619D02*
X173902523Y-118080619D01*
X173902523Y-118080619D02*
X173473952Y-119080619D01*
%TO.C,R9*%
X174490142Y-100030619D02*
X174156809Y-99554428D01*
X173918714Y-100030619D02*
X173918714Y-99030619D01*
X173918714Y-99030619D02*
X174299666Y-99030619D01*
X174299666Y-99030619D02*
X174394904Y-99078238D01*
X174394904Y-99078238D02*
X174442523Y-99125857D01*
X174442523Y-99125857D02*
X174490142Y-99221095D01*
X174490142Y-99221095D02*
X174490142Y-99363952D01*
X174490142Y-99363952D02*
X174442523Y-99459190D01*
X174442523Y-99459190D02*
X174394904Y-99506809D01*
X174394904Y-99506809D02*
X174299666Y-99554428D01*
X174299666Y-99554428D02*
X173918714Y-99554428D01*
X174966333Y-100030619D02*
X175156809Y-100030619D01*
X175156809Y-100030619D02*
X175252047Y-99983000D01*
X175252047Y-99983000D02*
X175299666Y-99935380D01*
X175299666Y-99935380D02*
X175394904Y-99792523D01*
X175394904Y-99792523D02*
X175442523Y-99602047D01*
X175442523Y-99602047D02*
X175442523Y-99221095D01*
X175442523Y-99221095D02*
X175394904Y-99125857D01*
X175394904Y-99125857D02*
X175347285Y-99078238D01*
X175347285Y-99078238D02*
X175252047Y-99030619D01*
X175252047Y-99030619D02*
X175061571Y-99030619D01*
X175061571Y-99030619D02*
X174966333Y-99078238D01*
X174966333Y-99078238D02*
X174918714Y-99125857D01*
X174918714Y-99125857D02*
X174871095Y-99221095D01*
X174871095Y-99221095D02*
X174871095Y-99459190D01*
X174871095Y-99459190D02*
X174918714Y-99554428D01*
X174918714Y-99554428D02*
X174966333Y-99602047D01*
X174966333Y-99602047D02*
X175061571Y-99649666D01*
X175061571Y-99649666D02*
X175252047Y-99649666D01*
X175252047Y-99649666D02*
X175347285Y-99602047D01*
X175347285Y-99602047D02*
X175394904Y-99554428D01*
X175394904Y-99554428D02*
X175442523Y-99459190D01*
%TO.C,R11*%
X170299142Y-112984619D02*
X169965809Y-112508428D01*
X169727714Y-112984619D02*
X169727714Y-111984619D01*
X169727714Y-111984619D02*
X170108666Y-111984619D01*
X170108666Y-111984619D02*
X170203904Y-112032238D01*
X170203904Y-112032238D02*
X170251523Y-112079857D01*
X170251523Y-112079857D02*
X170299142Y-112175095D01*
X170299142Y-112175095D02*
X170299142Y-112317952D01*
X170299142Y-112317952D02*
X170251523Y-112413190D01*
X170251523Y-112413190D02*
X170203904Y-112460809D01*
X170203904Y-112460809D02*
X170108666Y-112508428D01*
X170108666Y-112508428D02*
X169727714Y-112508428D01*
X171251523Y-112984619D02*
X170680095Y-112984619D01*
X170965809Y-112984619D02*
X170965809Y-111984619D01*
X170965809Y-111984619D02*
X170870571Y-112127476D01*
X170870571Y-112127476D02*
X170775333Y-112222714D01*
X170775333Y-112222714D02*
X170680095Y-112270333D01*
X172203904Y-112984619D02*
X171632476Y-112984619D01*
X171918190Y-112984619D02*
X171918190Y-111984619D01*
X171918190Y-111984619D02*
X171822952Y-112127476D01*
X171822952Y-112127476D02*
X171727714Y-112222714D01*
X171727714Y-112222714D02*
X171632476Y-112270333D01*
%TO.C,C15*%
X153529380Y-112656857D02*
X153577000Y-112704476D01*
X153577000Y-112704476D02*
X153624619Y-112847333D01*
X153624619Y-112847333D02*
X153624619Y-112942571D01*
X153624619Y-112942571D02*
X153577000Y-113085428D01*
X153577000Y-113085428D02*
X153481761Y-113180666D01*
X153481761Y-113180666D02*
X153386523Y-113228285D01*
X153386523Y-113228285D02*
X153196047Y-113275904D01*
X153196047Y-113275904D02*
X153053190Y-113275904D01*
X153053190Y-113275904D02*
X152862714Y-113228285D01*
X152862714Y-113228285D02*
X152767476Y-113180666D01*
X152767476Y-113180666D02*
X152672238Y-113085428D01*
X152672238Y-113085428D02*
X152624619Y-112942571D01*
X152624619Y-112942571D02*
X152624619Y-112847333D01*
X152624619Y-112847333D02*
X152672238Y-112704476D01*
X152672238Y-112704476D02*
X152719857Y-112656857D01*
X153624619Y-111704476D02*
X153624619Y-112275904D01*
X153624619Y-111990190D02*
X152624619Y-111990190D01*
X152624619Y-111990190D02*
X152767476Y-112085428D01*
X152767476Y-112085428D02*
X152862714Y-112180666D01*
X152862714Y-112180666D02*
X152910333Y-112275904D01*
X152624619Y-110799714D02*
X152624619Y-111275904D01*
X152624619Y-111275904D02*
X153100809Y-111323523D01*
X153100809Y-111323523D02*
X153053190Y-111275904D01*
X153053190Y-111275904D02*
X153005571Y-111180666D01*
X153005571Y-111180666D02*
X153005571Y-110942571D01*
X153005571Y-110942571D02*
X153053190Y-110847333D01*
X153053190Y-110847333D02*
X153100809Y-110799714D01*
X153100809Y-110799714D02*
X153196047Y-110752095D01*
X153196047Y-110752095D02*
X153434142Y-110752095D01*
X153434142Y-110752095D02*
X153529380Y-110799714D01*
X153529380Y-110799714D02*
X153577000Y-110847333D01*
X153577000Y-110847333D02*
X153624619Y-110942571D01*
X153624619Y-110942571D02*
X153624619Y-111180666D01*
X153624619Y-111180666D02*
X153577000Y-111275904D01*
X153577000Y-111275904D02*
X153529380Y-111323523D01*
%TO.C,Y1*%
X123938428Y-107772190D02*
X124414619Y-107772190D01*
X123414619Y-108105523D02*
X123938428Y-107772190D01*
X123938428Y-107772190D02*
X123414619Y-107438857D01*
X124414619Y-106581714D02*
X124414619Y-107153142D01*
X124414619Y-106867428D02*
X123414619Y-106867428D01*
X123414619Y-106867428D02*
X123557476Y-106962666D01*
X123557476Y-106962666D02*
X123652714Y-107057904D01*
X123652714Y-107057904D02*
X123700333Y-107153142D01*
%TO.C,D2*%
X153180119Y-98655094D02*
X152180119Y-98655094D01*
X152180119Y-98655094D02*
X152180119Y-98416999D01*
X152180119Y-98416999D02*
X152227738Y-98274142D01*
X152227738Y-98274142D02*
X152322976Y-98178904D01*
X152322976Y-98178904D02*
X152418214Y-98131285D01*
X152418214Y-98131285D02*
X152608690Y-98083666D01*
X152608690Y-98083666D02*
X152751547Y-98083666D01*
X152751547Y-98083666D02*
X152942023Y-98131285D01*
X152942023Y-98131285D02*
X153037261Y-98178904D01*
X153037261Y-98178904D02*
X153132500Y-98274142D01*
X153132500Y-98274142D02*
X153180119Y-98416999D01*
X153180119Y-98416999D02*
X153180119Y-98655094D01*
X152275357Y-97702713D02*
X152227738Y-97655094D01*
X152227738Y-97655094D02*
X152180119Y-97559856D01*
X152180119Y-97559856D02*
X152180119Y-97321761D01*
X152180119Y-97321761D02*
X152227738Y-97226523D01*
X152227738Y-97226523D02*
X152275357Y-97178904D01*
X152275357Y-97178904D02*
X152370595Y-97131285D01*
X152370595Y-97131285D02*
X152465833Y-97131285D01*
X152465833Y-97131285D02*
X152608690Y-97178904D01*
X152608690Y-97178904D02*
X153180119Y-97750332D01*
X153180119Y-97750332D02*
X153180119Y-97131285D01*
%TO.C,D3*%
X155815369Y-98655094D02*
X154815369Y-98655094D01*
X154815369Y-98655094D02*
X154815369Y-98416999D01*
X154815369Y-98416999D02*
X154862988Y-98274142D01*
X154862988Y-98274142D02*
X154958226Y-98178904D01*
X154958226Y-98178904D02*
X155053464Y-98131285D01*
X155053464Y-98131285D02*
X155243940Y-98083666D01*
X155243940Y-98083666D02*
X155386797Y-98083666D01*
X155386797Y-98083666D02*
X155577273Y-98131285D01*
X155577273Y-98131285D02*
X155672511Y-98178904D01*
X155672511Y-98178904D02*
X155767750Y-98274142D01*
X155767750Y-98274142D02*
X155815369Y-98416999D01*
X155815369Y-98416999D02*
X155815369Y-98655094D01*
X154815369Y-97750332D02*
X154815369Y-97131285D01*
X154815369Y-97131285D02*
X155196321Y-97464618D01*
X155196321Y-97464618D02*
X155196321Y-97321761D01*
X155196321Y-97321761D02*
X155243940Y-97226523D01*
X155243940Y-97226523D02*
X155291559Y-97178904D01*
X155291559Y-97178904D02*
X155386797Y-97131285D01*
X155386797Y-97131285D02*
X155624892Y-97131285D01*
X155624892Y-97131285D02*
X155720130Y-97178904D01*
X155720130Y-97178904D02*
X155767750Y-97226523D01*
X155767750Y-97226523D02*
X155815369Y-97321761D01*
X155815369Y-97321761D02*
X155815369Y-97607475D01*
X155815369Y-97607475D02*
X155767750Y-97702713D01*
X155767750Y-97702713D02*
X155720130Y-97750332D01*
%TO.C,R7*%
X146739619Y-101475166D02*
X146263428Y-101808499D01*
X146739619Y-102046594D02*
X145739619Y-102046594D01*
X145739619Y-102046594D02*
X145739619Y-101665642D01*
X145739619Y-101665642D02*
X145787238Y-101570404D01*
X145787238Y-101570404D02*
X145834857Y-101522785D01*
X145834857Y-101522785D02*
X145930095Y-101475166D01*
X145930095Y-101475166D02*
X146072952Y-101475166D01*
X146072952Y-101475166D02*
X146168190Y-101522785D01*
X146168190Y-101522785D02*
X146215809Y-101570404D01*
X146215809Y-101570404D02*
X146263428Y-101665642D01*
X146263428Y-101665642D02*
X146263428Y-102046594D01*
X145739619Y-101141832D02*
X145739619Y-100475166D01*
X145739619Y-100475166D02*
X146739619Y-100903737D01*
%TO.C,D5*%
X158450619Y-98655094D02*
X157450619Y-98655094D01*
X157450619Y-98655094D02*
X157450619Y-98416999D01*
X157450619Y-98416999D02*
X157498238Y-98274142D01*
X157498238Y-98274142D02*
X157593476Y-98178904D01*
X157593476Y-98178904D02*
X157688714Y-98131285D01*
X157688714Y-98131285D02*
X157879190Y-98083666D01*
X157879190Y-98083666D02*
X158022047Y-98083666D01*
X158022047Y-98083666D02*
X158212523Y-98131285D01*
X158212523Y-98131285D02*
X158307761Y-98178904D01*
X158307761Y-98178904D02*
X158403000Y-98274142D01*
X158403000Y-98274142D02*
X158450619Y-98416999D01*
X158450619Y-98416999D02*
X158450619Y-98655094D01*
X157450619Y-97178904D02*
X157450619Y-97655094D01*
X157450619Y-97655094D02*
X157926809Y-97702713D01*
X157926809Y-97702713D02*
X157879190Y-97655094D01*
X157879190Y-97655094D02*
X157831571Y-97559856D01*
X157831571Y-97559856D02*
X157831571Y-97321761D01*
X157831571Y-97321761D02*
X157879190Y-97226523D01*
X157879190Y-97226523D02*
X157926809Y-97178904D01*
X157926809Y-97178904D02*
X158022047Y-97131285D01*
X158022047Y-97131285D02*
X158260142Y-97131285D01*
X158260142Y-97131285D02*
X158355380Y-97178904D01*
X158355380Y-97178904D02*
X158403000Y-97226523D01*
X158403000Y-97226523D02*
X158450619Y-97321761D01*
X158450619Y-97321761D02*
X158450619Y-97559856D01*
X158450619Y-97559856D02*
X158403000Y-97655094D01*
X158403000Y-97655094D02*
X158355380Y-97702713D01*
%TO.C,R10*%
X174490142Y-98760619D02*
X174156809Y-98284428D01*
X173918714Y-98760619D02*
X173918714Y-97760619D01*
X173918714Y-97760619D02*
X174299666Y-97760619D01*
X174299666Y-97760619D02*
X174394904Y-97808238D01*
X174394904Y-97808238D02*
X174442523Y-97855857D01*
X174442523Y-97855857D02*
X174490142Y-97951095D01*
X174490142Y-97951095D02*
X174490142Y-98093952D01*
X174490142Y-98093952D02*
X174442523Y-98189190D01*
X174442523Y-98189190D02*
X174394904Y-98236809D01*
X174394904Y-98236809D02*
X174299666Y-98284428D01*
X174299666Y-98284428D02*
X173918714Y-98284428D01*
X175442523Y-98760619D02*
X174871095Y-98760619D01*
X175156809Y-98760619D02*
X175156809Y-97760619D01*
X175156809Y-97760619D02*
X175061571Y-97903476D01*
X175061571Y-97903476D02*
X174966333Y-97998714D01*
X174966333Y-97998714D02*
X174871095Y-98046333D01*
X176061571Y-97760619D02*
X176156809Y-97760619D01*
X176156809Y-97760619D02*
X176252047Y-97808238D01*
X176252047Y-97808238D02*
X176299666Y-97855857D01*
X176299666Y-97855857D02*
X176347285Y-97951095D01*
X176347285Y-97951095D02*
X176394904Y-98141571D01*
X176394904Y-98141571D02*
X176394904Y-98379666D01*
X176394904Y-98379666D02*
X176347285Y-98570142D01*
X176347285Y-98570142D02*
X176299666Y-98665380D01*
X176299666Y-98665380D02*
X176252047Y-98713000D01*
X176252047Y-98713000D02*
X176156809Y-98760619D01*
X176156809Y-98760619D02*
X176061571Y-98760619D01*
X176061571Y-98760619D02*
X175966333Y-98713000D01*
X175966333Y-98713000D02*
X175918714Y-98665380D01*
X175918714Y-98665380D02*
X175871095Y-98570142D01*
X175871095Y-98570142D02*
X175823476Y-98379666D01*
X175823476Y-98379666D02*
X175823476Y-98141571D01*
X175823476Y-98141571D02*
X175871095Y-97951095D01*
X175871095Y-97951095D02*
X175918714Y-97855857D01*
X175918714Y-97855857D02*
X175966333Y-97808238D01*
X175966333Y-97808238D02*
X176061571Y-97760619D01*
%TO.C,R1*%
X132415619Y-103290666D02*
X131939428Y-103623999D01*
X132415619Y-103862094D02*
X131415619Y-103862094D01*
X131415619Y-103862094D02*
X131415619Y-103481142D01*
X131415619Y-103481142D02*
X131463238Y-103385904D01*
X131463238Y-103385904D02*
X131510857Y-103338285D01*
X131510857Y-103338285D02*
X131606095Y-103290666D01*
X131606095Y-103290666D02*
X131748952Y-103290666D01*
X131748952Y-103290666D02*
X131844190Y-103338285D01*
X131844190Y-103338285D02*
X131891809Y-103385904D01*
X131891809Y-103385904D02*
X131939428Y-103481142D01*
X131939428Y-103481142D02*
X131939428Y-103862094D01*
X132415619Y-102338285D02*
X132415619Y-102909713D01*
X132415619Y-102623999D02*
X131415619Y-102623999D01*
X131415619Y-102623999D02*
X131558476Y-102719237D01*
X131558476Y-102719237D02*
X131653714Y-102814475D01*
X131653714Y-102814475D02*
X131701333Y-102909713D01*
%TO.C,J3*%
X158510619Y-90757333D02*
X159224904Y-90757333D01*
X159224904Y-90757333D02*
X159367761Y-90804952D01*
X159367761Y-90804952D02*
X159463000Y-90900190D01*
X159463000Y-90900190D02*
X159510619Y-91043047D01*
X159510619Y-91043047D02*
X159510619Y-91138285D01*
X158510619Y-90376380D02*
X158510619Y-89757333D01*
X158510619Y-89757333D02*
X158891571Y-90090666D01*
X158891571Y-90090666D02*
X158891571Y-89947809D01*
X158891571Y-89947809D02*
X158939190Y-89852571D01*
X158939190Y-89852571D02*
X158986809Y-89804952D01*
X158986809Y-89804952D02*
X159082047Y-89757333D01*
X159082047Y-89757333D02*
X159320142Y-89757333D01*
X159320142Y-89757333D02*
X159415380Y-89804952D01*
X159415380Y-89804952D02*
X159463000Y-89852571D01*
X159463000Y-89852571D02*
X159510619Y-89947809D01*
X159510619Y-89947809D02*
X159510619Y-90233523D01*
X159510619Y-90233523D02*
X159463000Y-90328761D01*
X159463000Y-90328761D02*
X159415380Y-90376380D01*
%TO.C,IC1*%
X137580810Y-105580619D02*
X137580810Y-104580619D01*
X138628428Y-105485380D02*
X138580809Y-105533000D01*
X138580809Y-105533000D02*
X138437952Y-105580619D01*
X138437952Y-105580619D02*
X138342714Y-105580619D01*
X138342714Y-105580619D02*
X138199857Y-105533000D01*
X138199857Y-105533000D02*
X138104619Y-105437761D01*
X138104619Y-105437761D02*
X138057000Y-105342523D01*
X138057000Y-105342523D02*
X138009381Y-105152047D01*
X138009381Y-105152047D02*
X138009381Y-105009190D01*
X138009381Y-105009190D02*
X138057000Y-104818714D01*
X138057000Y-104818714D02*
X138104619Y-104723476D01*
X138104619Y-104723476D02*
X138199857Y-104628238D01*
X138199857Y-104628238D02*
X138342714Y-104580619D01*
X138342714Y-104580619D02*
X138437952Y-104580619D01*
X138437952Y-104580619D02*
X138580809Y-104628238D01*
X138580809Y-104628238D02*
X138628428Y-104675857D01*
X139580809Y-105580619D02*
X139009381Y-105580619D01*
X139295095Y-105580619D02*
X139295095Y-104580619D01*
X139295095Y-104580619D02*
X139199857Y-104723476D01*
X139199857Y-104723476D02*
X139104619Y-104818714D01*
X139104619Y-104818714D02*
X139009381Y-104866333D01*
%TO.C,C10*%
X170620642Y-111382380D02*
X170573023Y-111430000D01*
X170573023Y-111430000D02*
X170430166Y-111477619D01*
X170430166Y-111477619D02*
X170334928Y-111477619D01*
X170334928Y-111477619D02*
X170192071Y-111430000D01*
X170192071Y-111430000D02*
X170096833Y-111334761D01*
X170096833Y-111334761D02*
X170049214Y-111239523D01*
X170049214Y-111239523D02*
X170001595Y-111049047D01*
X170001595Y-111049047D02*
X170001595Y-110906190D01*
X170001595Y-110906190D02*
X170049214Y-110715714D01*
X170049214Y-110715714D02*
X170096833Y-110620476D01*
X170096833Y-110620476D02*
X170192071Y-110525238D01*
X170192071Y-110525238D02*
X170334928Y-110477619D01*
X170334928Y-110477619D02*
X170430166Y-110477619D01*
X170430166Y-110477619D02*
X170573023Y-110525238D01*
X170573023Y-110525238D02*
X170620642Y-110572857D01*
X171573023Y-111477619D02*
X171001595Y-111477619D01*
X171287309Y-111477619D02*
X171287309Y-110477619D01*
X171287309Y-110477619D02*
X171192071Y-110620476D01*
X171192071Y-110620476D02*
X171096833Y-110715714D01*
X171096833Y-110715714D02*
X171001595Y-110763333D01*
X172192071Y-110477619D02*
X172287309Y-110477619D01*
X172287309Y-110477619D02*
X172382547Y-110525238D01*
X172382547Y-110525238D02*
X172430166Y-110572857D01*
X172430166Y-110572857D02*
X172477785Y-110668095D01*
X172477785Y-110668095D02*
X172525404Y-110858571D01*
X172525404Y-110858571D02*
X172525404Y-111096666D01*
X172525404Y-111096666D02*
X172477785Y-111287142D01*
X172477785Y-111287142D02*
X172430166Y-111382380D01*
X172430166Y-111382380D02*
X172382547Y-111430000D01*
X172382547Y-111430000D02*
X172287309Y-111477619D01*
X172287309Y-111477619D02*
X172192071Y-111477619D01*
X172192071Y-111477619D02*
X172096833Y-111430000D01*
X172096833Y-111430000D02*
X172049214Y-111382380D01*
X172049214Y-111382380D02*
X172001595Y-111287142D01*
X172001595Y-111287142D02*
X171953976Y-111096666D01*
X171953976Y-111096666D02*
X171953976Y-110858571D01*
X171953976Y-110858571D02*
X172001595Y-110668095D01*
X172001595Y-110668095D02*
X172049214Y-110572857D01*
X172049214Y-110572857D02*
X172096833Y-110525238D01*
X172096833Y-110525238D02*
X172192071Y-110477619D01*
D11*
%TO.C,U1*%
X172446000Y-105156000D02*
X172446000Y-101706000D01*
X172446000Y-105156000D02*
X172446000Y-107106000D01*
X162326000Y-105156000D02*
X162326000Y-103206000D01*
X162326000Y-105156000D02*
X162326000Y-107106000D01*
%TO.C,R6*%
X133510666Y-101102621D02*
X133510666Y-100767379D01*
X134270666Y-101102621D02*
X134270666Y-100767379D01*
%TO.C,U3*%
X160731000Y-124059000D02*
X157281000Y-124059000D01*
X160731000Y-124059000D02*
X162681000Y-124059000D01*
X160731000Y-129179000D02*
X158781000Y-129179000D01*
X160731000Y-129179000D02*
X162681000Y-129179000D01*
%TO.C,J2*%
X120717000Y-129600000D02*
X120717000Y-128270000D01*
X122047000Y-129600000D02*
X120717000Y-129600000D01*
X123317000Y-129600000D02*
X146237000Y-129600000D01*
X123317000Y-129600000D02*
X123317000Y-127000000D01*
X146237000Y-129600000D02*
X146237000Y-124400000D01*
X120717000Y-127000000D02*
X120717000Y-124400000D01*
X123317000Y-127000000D02*
X120717000Y-127000000D01*
X120717000Y-124400000D02*
X146237000Y-124400000D01*
%TO.C,R16*%
X167881263Y-128058000D02*
X169328737Y-128058000D01*
X167881263Y-130768000D02*
X169328737Y-130768000D01*
%TO.C,R15*%
X159318379Y-122671000D02*
X159653621Y-122671000D01*
X159318379Y-123431000D02*
X159653621Y-123431000D01*
%TO.C,R13*%
X149579064Y-119480000D02*
X149124936Y-119480000D01*
X149579064Y-118010000D02*
X149124936Y-118010000D01*
%TO.C,C16*%
X155799000Y-126480835D02*
X155799000Y-126249165D01*
X156519000Y-126480835D02*
X156519000Y-126249165D01*
%TO.C,C3*%
X131247335Y-111866000D02*
X131015665Y-111866000D01*
X131247335Y-111146000D02*
X131015665Y-111146000D01*
%TO.C,C1*%
X149227000Y-114508233D02*
X149227000Y-114800767D01*
X148207000Y-114508233D02*
X148207000Y-114800767D01*
%TO.C,D1*%
X151042250Y-92984500D02*
X149122250Y-92984500D01*
X149122250Y-92984500D02*
X149122250Y-95844500D01*
X151042250Y-95844500D02*
X151042250Y-92984500D01*
%TO.C,R5*%
X136433000Y-100767379D02*
X136433000Y-101102621D01*
X135673000Y-100767379D02*
X135673000Y-101102621D01*
%TO.C,J5*%
X172255000Y-131435000D02*
X180975000Y-131435000D01*
X180975000Y-131435000D02*
X180975000Y-121215000D01*
X172255000Y-121215000D02*
X172255000Y-131435000D01*
X180975000Y-121215000D02*
X172255000Y-121215000D01*
X177165000Y-121015000D02*
X176865000Y-120415000D01*
X176865000Y-120415000D02*
X177465000Y-120415000D01*
X177465000Y-120415000D02*
X177165000Y-121015000D01*
%TO.C,C5*%
X129936000Y-100799165D02*
X129936000Y-101030835D01*
X129216000Y-100799165D02*
X129216000Y-101030835D01*
%TO.C,SW2*%
X139458000Y-97734000D02*
X140958000Y-97734000D01*
X143458000Y-96484000D02*
X143458000Y-91984000D01*
X136958000Y-91984000D02*
X136958000Y-96484000D01*
X140958000Y-90734000D02*
X139458000Y-90734000D01*
%TO.C,C7*%
X127402000Y-109343835D02*
X127402000Y-109112165D01*
X128122000Y-109343835D02*
X128122000Y-109112165D01*
%TO.C,C6*%
X128122000Y-105361665D02*
X128122000Y-105593335D01*
X127402000Y-105361665D02*
X127402000Y-105593335D01*
%TO.C,C9*%
X163310835Y-98977000D02*
X163079165Y-98977000D01*
X163310835Y-98257000D02*
X163079165Y-98257000D01*
%TO.C,C13*%
X155935000Y-118815665D02*
X155935000Y-119047335D01*
X155215000Y-118815665D02*
X155215000Y-119047335D01*
%TO.C,C4*%
X131339000Y-107752335D02*
X131339000Y-107520665D01*
X132059000Y-107752335D02*
X132059000Y-107520665D01*
%TO.C,J4*%
X170943000Y-94167000D02*
X170943000Y-92167000D01*
X170943000Y-90267000D02*
X170943000Y-88367000D01*
X170943000Y-88367000D02*
X161543000Y-88367000D01*
X161543000Y-94167000D02*
X161543000Y-92167000D01*
X161543000Y-90267000D02*
X161543000Y-88367000D01*
%TO.C,C14*%
X155342000Y-115626335D02*
X155342000Y-115394665D01*
X156062000Y-115626335D02*
X156062000Y-115394665D01*
%TO.C,SW1*%
X128227000Y-97734000D02*
X129727000Y-97734000D01*
X132227000Y-96484000D02*
X132227000Y-91984000D01*
X125727000Y-91984000D02*
X125727000Y-96484000D01*
X129727000Y-90734000D02*
X128227000Y-90734000D01*
%TO.C,D4*%
X148407000Y-92984500D02*
X146487000Y-92984500D01*
X146487000Y-92984500D02*
X146487000Y-95844500D01*
X148407000Y-95844500D02*
X148407000Y-92984500D01*
%TO.C,R17*%
X161934879Y-122683000D02*
X162270121Y-122683000D01*
X161934879Y-123443000D02*
X162270121Y-123443000D01*
%TO.C,C11*%
X171214665Y-100289000D02*
X171446335Y-100289000D01*
X171214665Y-101009000D02*
X171446335Y-101009000D01*
%TO.C,C8*%
X162991267Y-100651000D02*
X162698733Y-100651000D01*
X162991267Y-99631000D02*
X162698733Y-99631000D01*
%TO.C,U2*%
X157317000Y-112668000D02*
X163327000Y-112668000D01*
X159567000Y-119488000D02*
X163327000Y-119488000D01*
X163327000Y-112668000D02*
X163327000Y-113928000D01*
X163327000Y-119488000D02*
X163327000Y-118228000D01*
%TO.C,R12*%
X167286000Y-115289064D02*
X167286000Y-114834936D01*
X168756000Y-115289064D02*
X168756000Y-114834936D01*
%TO.C,R14*%
X169328737Y-124672000D02*
X167881263Y-124672000D01*
X169328737Y-121962000D02*
X167881263Y-121962000D01*
%TO.C,R2*%
X149702250Y-101476121D02*
X149702250Y-101140879D01*
X150462250Y-101476121D02*
X150462250Y-101140879D01*
%TO.C,J1*%
X177098000Y-113598000D02*
X175768000Y-113598000D01*
X177098000Y-112268000D02*
X177098000Y-113598000D01*
X177098000Y-110998000D02*
X177098000Y-103318000D01*
X177098000Y-110998000D02*
X174438000Y-110998000D01*
X177098000Y-103318000D02*
X174438000Y-103318000D01*
X174438000Y-110998000D02*
X174438000Y-103318000D01*
%TO.C,R8*%
X157608000Y-101476121D02*
X157608000Y-101140879D01*
X158368000Y-101476121D02*
X158368000Y-101140879D01*
%TO.C,R4*%
X154972750Y-101476121D02*
X154972750Y-101140879D01*
X155732750Y-101476121D02*
X155732750Y-101140879D01*
%TO.C,C12*%
X154688000Y-119080233D02*
X154688000Y-119372767D01*
X153668000Y-119080233D02*
X153668000Y-119372767D01*
%TO.C,C2*%
X147045000Y-114243665D02*
X147045000Y-114475335D01*
X146325000Y-114243665D02*
X146325000Y-114475335D01*
%TO.C,R3*%
X152337500Y-101476121D02*
X152337500Y-101140879D01*
X153097500Y-101476121D02*
X153097500Y-101140879D01*
%TO.C,C17*%
X167893748Y-118528000D02*
X169316252Y-118528000D01*
X167893748Y-121248000D02*
X169316252Y-121248000D01*
%TO.C,R9*%
X171192879Y-98999000D02*
X171528121Y-98999000D01*
X171192879Y-99759000D02*
X171528121Y-99759000D01*
%TO.C,R11*%
X169572000Y-115305064D02*
X169572000Y-114850936D01*
X171042000Y-115305064D02*
X171042000Y-114850936D01*
%TO.C,C15*%
X153668000Y-115361767D02*
X153668000Y-115069233D01*
X154688000Y-115361767D02*
X154688000Y-115069233D01*
%TO.C,Y1*%
X126477000Y-104171000D02*
X126477000Y-110421000D01*
X121427000Y-104171000D02*
X121427000Y-110421000D01*
X126477000Y-104171000D02*
G75*
G03*
X121427000Y-104171000I-2525000J0D01*
G01*
X121427000Y-110421000D02*
G75*
G03*
X126477000Y-110421000I2525000J0D01*
G01*
%TO.C,D2*%
X153677500Y-92984500D02*
X151757500Y-92984500D01*
X151757500Y-92984500D02*
X151757500Y-95844500D01*
X153677500Y-95844500D02*
X153677500Y-92984500D01*
%TO.C,D3*%
X156312750Y-92984500D02*
X154392750Y-92984500D01*
X154392750Y-92984500D02*
X154392750Y-95844500D01*
X156312750Y-95844500D02*
X156312750Y-92984500D01*
%TO.C,R7*%
X147067000Y-101476121D02*
X147067000Y-101140879D01*
X147827000Y-101476121D02*
X147827000Y-101140879D01*
%TO.C,D5*%
X158948000Y-92984500D02*
X157028000Y-92984500D01*
X157028000Y-92984500D02*
X157028000Y-95844500D01*
X158948000Y-95844500D02*
X158948000Y-92984500D01*
%TO.C,R10*%
X171192879Y-97983000D02*
X171528121Y-97983000D01*
X171192879Y-98743000D02*
X171528121Y-98743000D01*
%TO.C,R1*%
X131348333Y-101102621D02*
X131348333Y-100767379D01*
X132108333Y-101102621D02*
X132108333Y-100767379D01*
%TO.C,J3*%
X158048000Y-89094000D02*
X158048000Y-90424000D01*
X156718000Y-89094000D02*
X158048000Y-89094000D01*
X155448000Y-89094000D02*
X147768000Y-89094000D01*
X155448000Y-89094000D02*
X155448000Y-91754000D01*
X147768000Y-89094000D02*
X147768000Y-91754000D01*
X155448000Y-91754000D02*
X147768000Y-91754000D01*
%TO.C,IC1*%
X134947000Y-107388000D02*
X134947000Y-107688000D01*
X134947000Y-107688000D02*
X133632000Y-107688000D01*
X134947000Y-114608000D02*
X134947000Y-114308000D01*
X135247000Y-107388000D02*
X134947000Y-107388000D01*
X135247000Y-114608000D02*
X134947000Y-114608000D01*
X141867000Y-107388000D02*
X142167000Y-107388000D01*
X141867000Y-114608000D02*
X142167000Y-114608000D01*
X142167000Y-107388000D02*
X142167000Y-107688000D01*
X142167000Y-114608000D02*
X142167000Y-114308000D01*
%TO.C,C10*%
X171379335Y-110215000D02*
X171147665Y-110215000D01*
X171379335Y-109495000D02*
X171147665Y-109495000D01*
%TD*%
%LPC*%
D12*
%TO.C,U1*%
X171831000Y-102681000D03*
X170561000Y-102681000D03*
X169291000Y-102681000D03*
X168021000Y-102681000D03*
X166751000Y-102681000D03*
X165481000Y-102681000D03*
X164211000Y-102681000D03*
X162941000Y-102681000D03*
X162941000Y-107631000D03*
X164211000Y-107631000D03*
X165481000Y-107631000D03*
X166751000Y-107631000D03*
X168021000Y-107631000D03*
X169291000Y-107631000D03*
X170561000Y-107631000D03*
X171831000Y-107631000D03*
%TD*%
D13*
%TO.C,R6*%
X133890666Y-101532500D03*
X133890666Y-100337500D03*
%TD*%
D14*
%TO.C,U3*%
X158256000Y-124714000D03*
X158256000Y-125984000D03*
X158256000Y-127254000D03*
X158256000Y-128524000D03*
X163206000Y-128524000D03*
X163206000Y-127254000D03*
X163206000Y-125984000D03*
X163206000Y-124714000D03*
%TD*%
D15*
%TO.C,J2*%
X122047000Y-128270000D03*
D16*
X122047000Y-125730000D03*
X124587000Y-128270000D03*
X124587000Y-125730000D03*
X127127000Y-128270000D03*
X127127000Y-125730000D03*
X129667000Y-128270000D03*
X129667000Y-125730000D03*
X132207000Y-128270000D03*
X132207000Y-125730000D03*
X134747000Y-128270000D03*
X134747000Y-125730000D03*
X137287000Y-128270000D03*
X137287000Y-125730000D03*
X139827000Y-128270000D03*
X139827000Y-125730000D03*
X142367000Y-128270000D03*
X142367000Y-125730000D03*
X144907000Y-128270000D03*
X144907000Y-125730000D03*
%TD*%
D17*
%TO.C,R16*%
X167055000Y-129413000D03*
X170155000Y-129413000D03*
%TD*%
D18*
%TO.C,R15*%
X158888500Y-123051000D03*
X160083500Y-123051000D03*
%TD*%
D19*
%TO.C,R13*%
X150352000Y-118745000D03*
X148352000Y-118745000D03*
%TD*%
D20*
%TO.C,C16*%
X156159000Y-126932500D03*
X156159000Y-125797500D03*
%TD*%
D21*
%TO.C,C3*%
X131699000Y-111506000D03*
X130564000Y-111506000D03*
%TD*%
D22*
%TO.C,C1*%
X148717000Y-113792000D03*
X148717000Y-115517000D03*
%TD*%
D23*
%TO.C,D1*%
X150082250Y-93819500D03*
X150082250Y-95869500D03*
%TD*%
D24*
%TO.C,R5*%
X136053000Y-100337500D03*
X136053000Y-101532500D03*
%TD*%
D25*
%TO.C,J5*%
X177165000Y-128825000D03*
D26*
X177165000Y-123825000D03*
%TD*%
D27*
%TO.C,C5*%
X129576000Y-100347500D03*
X129576000Y-101482500D03*
%TD*%
D28*
%TO.C,SW2*%
X137958000Y-97484000D03*
X137958000Y-90984000D03*
X142458000Y-97484000D03*
X142458000Y-90984000D03*
%TD*%
D20*
%TO.C,C7*%
X127762000Y-109795500D03*
X127762000Y-108660500D03*
%TD*%
D27*
%TO.C,C6*%
X127762000Y-104910000D03*
X127762000Y-106045000D03*
%TD*%
D21*
%TO.C,C9*%
X163762500Y-98617000D03*
X162627500Y-98617000D03*
%TD*%
D27*
%TO.C,C13*%
X155575000Y-118364000D03*
X155575000Y-119499000D03*
%TD*%
D20*
%TO.C,C4*%
X131699000Y-108204000D03*
X131699000Y-107069000D03*
%TD*%
D29*
%TO.C,J4*%
X169133000Y-94867000D03*
X163353000Y-94867000D03*
D30*
X169493000Y-96312000D03*
X168693000Y-96312000D03*
D31*
X167493000Y-96312000D03*
X166493000Y-96312000D03*
X165993000Y-96312000D03*
X164993000Y-96312000D03*
D30*
X163793000Y-96312000D03*
X162993000Y-96312000D03*
X162993000Y-96312000D03*
X163793000Y-96312000D03*
D31*
X164493000Y-96312000D03*
X165493000Y-96312000D03*
X166993000Y-96312000D03*
X167993000Y-96312000D03*
D30*
X168693000Y-96312000D03*
X169493000Y-96312000D03*
D32*
X170563000Y-95397000D03*
D33*
X170563000Y-91217000D03*
D32*
X161923000Y-95397000D03*
D33*
X161923000Y-91217000D03*
%TD*%
D20*
%TO.C,C14*%
X155702000Y-116078000D03*
X155702000Y-114943000D03*
%TD*%
D28*
%TO.C,SW1*%
X126727000Y-97484000D03*
X126727000Y-90984000D03*
X131227000Y-97484000D03*
X131227000Y-90984000D03*
%TD*%
D23*
%TO.C,D4*%
X147447000Y-93819500D03*
X147447000Y-95869500D03*
%TD*%
D18*
%TO.C,R17*%
X161505000Y-123063000D03*
X162700000Y-123063000D03*
%TD*%
D34*
%TO.C,C11*%
X170763000Y-100649000D03*
X171898000Y-100649000D03*
%TD*%
D35*
%TO.C,C8*%
X163707500Y-100141000D03*
X161982500Y-100141000D03*
%TD*%
D36*
%TO.C,U2*%
X158267000Y-113778000D03*
X158267000Y-116078000D03*
D37*
X164567000Y-116078000D03*
D36*
X158267000Y-118378000D03*
%TD*%
D38*
%TO.C,R12*%
X168021000Y-116062000D03*
X168021000Y-114062000D03*
%TD*%
D39*
%TO.C,R14*%
X170155000Y-123317000D03*
X167055000Y-123317000D03*
%TD*%
D13*
%TO.C,R2*%
X150082250Y-101906000D03*
X150082250Y-100711000D03*
%TD*%
D15*
%TO.C,J1*%
X175768000Y-112268000D03*
D16*
X175768000Y-109728000D03*
X175768000Y-107188000D03*
X175768000Y-104648000D03*
%TD*%
D13*
%TO.C,R8*%
X157988000Y-101906000D03*
X157988000Y-100711000D03*
%TD*%
%TO.C,R4*%
X155352750Y-101906000D03*
X155352750Y-100711000D03*
%TD*%
D22*
%TO.C,C12*%
X154178000Y-118364000D03*
X154178000Y-120089000D03*
%TD*%
D27*
%TO.C,C2*%
X146685000Y-113792000D03*
X146685000Y-114927000D03*
%TD*%
D13*
%TO.C,R3*%
X152717500Y-101906000D03*
X152717500Y-100711000D03*
%TD*%
D40*
%TO.C,C17*%
X167042500Y-119888000D03*
X170167500Y-119888000D03*
%TD*%
D18*
%TO.C,R9*%
X170763000Y-99379000D03*
X171958000Y-99379000D03*
%TD*%
D38*
%TO.C,R11*%
X170307000Y-116078000D03*
X170307000Y-114078000D03*
%TD*%
D41*
%TO.C,C15*%
X154178000Y-116078000D03*
X154178000Y-114353000D03*
%TD*%
D42*
%TO.C,Y1*%
X123952000Y-104856000D03*
X123952000Y-109736000D03*
%TD*%
D23*
%TO.C,D2*%
X152717500Y-93819500D03*
X152717500Y-95869500D03*
%TD*%
%TO.C,D3*%
X155352750Y-93819500D03*
X155352750Y-95869500D03*
%TD*%
D13*
%TO.C,R7*%
X147447000Y-101906000D03*
X147447000Y-100711000D03*
%TD*%
D23*
%TO.C,D5*%
X157988000Y-93819500D03*
X157988000Y-95869500D03*
%TD*%
D18*
%TO.C,R10*%
X170763000Y-98363000D03*
X171958000Y-98363000D03*
%TD*%
D13*
%TO.C,R1*%
X131728333Y-101532500D03*
X131728333Y-100337500D03*
%TD*%
D15*
%TO.C,J3*%
X156718000Y-90424000D03*
D16*
X154178000Y-90424000D03*
X151638000Y-90424000D03*
X149098000Y-90424000D03*
%TD*%
D43*
%TO.C,IC1*%
X134382000Y-108198000D03*
X134382000Y-108998000D03*
X134382000Y-109798000D03*
X134382000Y-110598000D03*
X134382000Y-111398000D03*
X134382000Y-112198000D03*
X134382000Y-112998000D03*
X134382000Y-113798000D03*
D44*
X135757000Y-115173000D03*
X136557000Y-115173000D03*
X137357000Y-115173000D03*
X138157000Y-115173000D03*
X138957000Y-115173000D03*
X139757000Y-115173000D03*
X140557000Y-115173000D03*
X141357000Y-115173000D03*
D43*
X142732000Y-113798000D03*
X142732000Y-112998000D03*
X142732000Y-112198000D03*
X142732000Y-111398000D03*
X142732000Y-110598000D03*
X142732000Y-109798000D03*
X142732000Y-108998000D03*
X142732000Y-108198000D03*
D44*
X141357000Y-106823000D03*
X140557000Y-106823000D03*
X139757000Y-106823000D03*
X138957000Y-106823000D03*
X138157000Y-106823000D03*
X137357000Y-106823000D03*
X136557000Y-106823000D03*
X135757000Y-106823000D03*
%TD*%
D21*
%TO.C,C10*%
X171831000Y-109855000D03*
X170696000Y-109855000D03*
%TD*%
M02*
