M48
; DRILL file {KiCad 7.0.1} date Tue Apr 25 22:28:34 2023
; FORMAT={-:-/ absolute / inch / decimal}
; #@! TF.CreationDate,2023-04-25T22:28:34+08:00
; #@! TF.GenerationSoftware,Kicad,Pcbnew,7.0.1
; #@! TF.FileFunction,Plated,1,2,PTH
FMAT,2
INCH
; #@! TA.AperFunction,Plated,PTH,ViaDrill
T1C0.0080
; #@! TA.AperFunction,Plated,PTH,ViaDrill
T2C0.0118
; #@! TA.AperFunction,Plated,PTH,ComponentDrill
T3C0.0236
; #@! TA.AperFunction,Plated,PTH,ComponentDrill
T4C0.0315
; #@! TA.AperFunction,Plated,PTH,ComponentDrill
T5C0.0394
; #@! TA.AperFunction,Plated,PTH,ComponentDrill
T6C0.0433
; #@! TA.AperFunction,Plated,PTH,ComponentDrill
T7C0.0669
%
G90
G05
T1
X5.1Y-4.345
X5.565Y-4.4584
X5.625Y-4.215
X5.645Y-4.2
X5.6663Y-4.185
X5.69Y-4.165
X5.71Y-4.145
X5.735Y-4.13
X6.04Y-4.305
X6.06Y-4.28
X6.11Y-4.37
X6.195Y-4.3504
X6.518Y-4.905
X6.5185Y-5.06
T2
X4.98Y-4.09
X4.98Y-4.175
X4.99Y-4.28
X4.99Y-4.355
X5.06Y-3.945
X5.185Y-4.165
X5.23Y-4.26
X5.23Y-4.385
X5.26Y-3.915
X5.475Y-4.4802
X5.5652Y-4.6098
X5.795Y-4.675
X5.925Y-4.48
X5.945Y-4.9
X5.955Y-4.98
X6.02Y-4.57
X6.07Y-4.46
X6.07Y-4.79
X6.1077Y-4.9527
X6.16Y-4.42
X6.22Y-3.65
X6.405Y-4.805
X6.485Y-3.875
X6.49Y-3.945
X6.625Y-3.91
X6.6379Y-4.3243
X6.765Y-4.165
X6.785Y-4.72
X6.81Y-3.9626
X6.8126Y-3.8726
T4
X4.88Y-4.1282
X4.88Y-4.3203
T5
X4.805Y-4.95
X4.805Y-5.05
X4.905Y-4.95
X4.905Y-5.05
X5.005Y-4.95
X5.005Y-5.05
X5.105Y-4.95
X5.105Y-5.05
X5.205Y-4.95
X5.205Y-5.05
X5.305Y-4.95
X5.305Y-5.05
X5.405Y-4.95
X5.405Y-5.05
X5.505Y-4.95
X5.505Y-5.05
X5.605Y-4.95
X5.605Y-5.05
X5.705Y-4.95
X5.705Y-5.05
X5.87Y-3.56
X5.97Y-3.56
X6.07Y-3.56
X6.17Y-3.56
X6.92Y-4.12
X6.92Y-4.22
X6.92Y-4.32
X6.92Y-4.42
T6
X4.9893Y-3.582
X4.9893Y-3.838
X5.1664Y-3.582
X5.1664Y-3.838
X5.4314Y-3.582
X5.4314Y-3.838
X5.6086Y-3.582
X5.6086Y-3.838
T7
X6.975Y-4.875
X6.975Y-5.0719
T3
G00X6.3749Y-3.5794
M15
G01X6.3749Y-3.603
M16
G05
G00X6.3749Y-3.7341
M15
G01X6.3749Y-3.7774
M16
G05
G00X6.7151Y-3.5794
M15
G01X6.7151Y-3.603
M16
G05
G00X6.7151Y-3.7341
M15
G01X6.7151Y-3.7774
M16
G05
T0
M30
